<svg xmlns="http://www.w3.org/2000/svg" width="199" height="139" viewBox="0 0 199 139">
    <g fill="none" fill-rule="evenodd">
        <g fill-rule="nonzero">
            <g>
                <g fill="#6C481A">
                    <path d="M1.752 11.63c-1.168 0-1.527-.415-1.527-1.66 0-.278 0-.878.045-1.893 0-.692.044-1.339.044-1.892L.27 3.738C.27 2.077.225 1.8.09.923.584.831.719.785 1.033.785c1.034 0 1.483.461 1.483 1.569v.092L2.47 4.2v4.292c0 1.385.045 1.846.135 3.093-.405 0-.584.046-.854.046zM9.57 11.815c-1.842 0-3.37-.969-3.37-2.123 0-.6.404-.969 1.303-1.2.314 1.339 1.033 2.077 2.067 2.077.898 0 1.572-.646 1.572-1.477 0-.692-.404-1.292-1.123-1.754L8.222 6.185c-1.034-.647-1.618-1.57-1.618-2.77 0-1.846 1.348-3 3.55-3 1.662 0 3.01.693 3.01 1.662 0 .415-.18.646-.944 1.246-.539-1.2-1.258-1.8-2.201-1.8-.809 0-1.348.554-1.348 1.292 0 .6.404 1.108 1.258 1.662 2.246 1.338 2.785 1.846 3.1 2.815.09.323.18.693.18 1.062.045 2.17-1.438 3.461-3.64 3.461zM22.104 11.585H18.33c-.943 0-1.347-.462-1.347-1.616 0-.323 0-.877.045-1.661 0-.323.044-.923.044-1.846V4.846c0-1.892-.09-3.23-.224-4.061.404-.047.584-.093.853-.093 1.213 0 1.663.554 1.663 2.031 0 .37 0 .83-.045 1.339-.045.83-.09 2.076-.09 3.876v.37c0 1.246.045 1.615.18 1.8.134.184.404.23.988.23 1.213 0 1.797-.138 2.786-.553v.461c-.045.97-.315 1.339-1.079 1.339zM33.336 11.585c-.404 0-.808-.093-1.078-.231-.54-.277-.764-.739-1.078-1.939-.045-.277-.18-.692-.36-1.338l-.09-.277h-2.65l-.09.277c-.45 1.523-.584 2.03-.584 2.63 0 .324 0 .462.135.785-.405.093-.54.093-.81.093-.718 0-1.077-.277-1.077-.785 0-.185.045-.37.09-.554.09-.23.359-.923.898-2.215.045-.139.315-.831.719-1.985l.719-2.03.719-2.078.09-.323c-.135-.323-.18-.415-.36-.738.54-.185.719-.185 1.168-.185.494 0 .854.093 1.033.231.36.277.45.554.989 2.77.135.553.36 1.338.719 2.492.36 1.107.584 1.938.763 2.4.495 1.43.63 1.846 1.079 2.861-.405.092-.584.139-.944.139zm-3.864-8.308L28.44 6.692h2.022l-.989-3.415zM46.05 1.846l-.134 2.03c-.045.832-.09 2.77-.09 4.57 0 1.385.045 1.754.18 2.816-.45.276-.809.369-1.258.369-.315 0-.63-.093-.854-.277-.36-.277-.539-.6-1.482-2.308-.225-.415-.584-.97-1.034-1.708l-1.033-1.661-1.123-1.754-.27-.415v2.584c0 1.154.045 2.031.09 3.185.09 1.246.09 1.477.27 2.17-.36.091-.54.091-.764.091-.719 0-1.034-.276-1.034-.969 0-.138.045-.6.18-2.354.045-.83.09-1.338.09-4.153V2.954 1.8c-.27-.37-.314-.462-.674-.738C37.65.738 38.1.6 38.728.6c.449 0 .808.092 1.033.277.36.277.539.554 1.572 2.308.36.6 1.124 1.8 2.022 3.23l.944 1.477.27.416V6.23c0-1.616 0-2.123-.09-3.416-.046-1.2-.09-1.338-.27-2.03.36-.093.539-.093.763-.093.72 0 1.034.277 1.034.923.09.139.09.185.045.231zM56.294 10.57c-.898.738-2.246 1.107-3.998 1.107-1.663 0-2.157-.323-2.157-1.43 0-.555.045-1.432.09-2.632 0-.323.045-.784.045-1.384 0-1.8-.045-2.908-.09-3.646-.045-.647-.09-.97-.314-1.708.494-.139.718-.185 1.078-.185.674 0 .853.093 1.123.462.809-.508 1.168-.6 2.112-.6 2.47 0 3.998 1.892 3.998 5.03 0 2.124-.674 4.016-1.887 4.985zM53.51 1.753c-.405 0-.63.046-1.079.277.09.692.09.877.09 1.707V4.2l-.045 3.415v.877c0 1.939.045 2.077.72 2.077 1.527 0 2.74-2.03 2.74-4.707-.045-2.493-.989-4.108-2.426-4.108zM75.209 6.785c-.09 0-.225 0-.54-.047.405.554.54.831.54 1.477 0 2.031-1.752 3.647-3.954 3.647-2.516 0-3.998-1.893-3.998-5.124 0-3.876 1.752-6.184 4.717-6.184 1.483 0 2.785.738 2.785 1.57 0 .368-.18.691-.718 1.153-.405-.97-.989-1.43-1.842-1.43-1.663 0-2.561 1.753-2.561 4.891 0 2.539.674 3.831 1.932 3.831.943 0 1.662-.923 1.662-2.169 0-1.015-.45-1.615-1.123-1.615-.135 0-.27.046-.54.092v-.23c0-.785.36-1.2.989-1.2l1.528.045h.224c.809 0 1.123-.046 1.887-.369.045.23.045.323.045.415-.09.831-.404 1.247-1.033 1.247zM86.35 11.723c-.404 0-.718-.185-1.033-.6-.584-.738-1.123-1.661-1.662-2.677-.809-1.523-.988-1.892-1.348-3 1.393-.092 2.157-.83 2.157-2.077 0-.969-.674-1.615-1.663-1.615-.404 0-.629.046-1.168.277.09.6.09.738.09 1.569v.554l-.045 1.984c-.045.693-.045 1.247-.045 1.662 0 1.338.09 2.862.225 3.692-.404.093-.584.139-.944.139-1.123 0-1.482-.416-1.482-1.708 0-.415 0-.923.045-1.523.045-.692.045-2.03.045-3.277 0-1.154 0-1.846-.09-2.585-.045-.738-.135-1.015-.36-1.661.54-.139.72-.185 1.124-.185.629 0 .808.093 1.078.462.898-.416 1.303-.508 2.201-.508 1.887 0 3.235 1.062 3.235 2.585 0 .646-.314 1.338-.809 1.8-.404.369-.629.507-1.302.738.584 1.2 1.752 3.093 2.605 4.2.27.323.45.554.899.923-.494.508-1.123.831-1.752.831zM92.775 11.63c-1.168 0-1.527-.415-1.527-1.66 0-.278 0-.878.045-1.893 0-.692.045-1.339.045-1.892l-.045-2.447c0-1.661-.045-1.938-.18-2.815.45-.092.629-.138.944-.138 1.033 0 1.482.461 1.482 1.569v.092L93.494 4.2v4.292c0 1.385.045 1.846.135 3.093-.404 0-.584.046-.854.046zM102.974 11.585H99.2c-.943 0-1.348-.462-1.348-1.616 0-.323 0-.877.045-1.661 0-.323.045-.923.045-1.846V4.846c0-1.892-.09-3.23-.225-4.061.405-.047.584-.093.854-.093 1.213 0 1.662.554 1.662 2.031 0 .37 0 .83-.045 1.339-.045.83-.09 2.076-.09 3.876v.37c0 1.246.045 1.615.18 1.8.135.184.405.23.989.23 1.213 0 1.797-.138 2.785-.553v.461c-.045.97-.314 1.339-1.078 1.339zM112.588 11.585h-3.774c-.943 0-1.347-.462-1.347-1.616 0-.323 0-.877.045-1.661 0-.323.045-.923.045-1.846V4.846c0-1.892-.09-3.23-.225-4.061.404-.047.584-.093.854-.093 1.213 0 1.662.554 1.662 2.031 0 .37 0 .83-.045 1.339-.045.83-.09 2.076-.09 3.876v.37c0 1.246.045 1.615.18 1.8.135.184.404.23.988.23 1.213 0 1.797-.138 2.786-.553v.461c-.045.97-.315 1.339-1.079 1.339zM122.562 11.585h-4.268c-.898 0-1.258-.277-1.258-1.062 0-.6 0-1.523.045-2.723.045-1.154.045-2.262 0-3.37l-.09-2.676v-.092c0-.647.225-.924.809-.924l2.516.047c.719.046 1.617 0 2.696-.139l.314-.046v.323c0 .877-.36 1.292-1.033 1.292-.315 0-.674-.046-1.123-.092-.315-.046-.584-.046-.854-.046-.809 0-.899.23-.899 1.846v1.569h.495c1.482 0 2.201-.092 3.145-.369 0 .23.044.323.044.462 0 .969-.359 1.292-1.437 1.292-.27 0-.584-.046-.899-.046-.629-.046-.988-.093-1.078-.093h-.27V8.4c0 1.523.045 1.662.18 1.846.135.185.45.23 1.078.23 1.124 0 2.022-.184 2.92-.553 0 .277.046.37.046.508-.09.784-.36 1.154-1.079 1.154z" transform="translate(55 127)"/>
                </g>
                <g>
                    <path fill="#EC008C" d="M99.366 61.304c1.344.937 3.271 1.562 4.168 3.17 1.165.982.045.49-.135 1.071-1.568.045-3.675-1.071-5.199-.357.135-.268-.269-.268-.448-.268-.18.134.448.447-.09.268-.134.357-1.075-.268-.582.357-.27.224-.717.447-1.12.492-.18.49-.987-.045-.763.446-.358.402-.851.67-1.479.536-.09-.179-.179.09-.269.134-.044.134.09.134.135.268.045-.134.224-.045.314-.09.134.224-.27.224-.359.313-.269.179-.583.536-.941.58-.404.804-.538-.714-.852.045.448.313.045.536-.134.759-.359.09-1.031-.134-1.12.357-.27.09-.628.357-.673.67.045.09.134.045.224.045.045-.358.448-.134.448-.492.224-.133.493-.401.762-.312-.851.58-1.569 1.072-2.151 1.92-.672.268-.717 1.16-1.345 1.473.09.313.359.849 1.031 1.117-.09 0-.134.044-.134.089.044.223.493.134.672.044l2.151-.803c.09-.268.359-.268.583-.357 1.12-.76 2.286-1.43 3.361-2.322 1.166-.849 2.197-1.83 3.452-2.59 0-.134-.045-.357.044-.536 1.3.536 3.272.224 4.169 1.563.179.134.493.268.358.536-.134.178-.493.268-.358.58.403.179.313.67.224.938-.09.134-.18.446-.09.58.359 0-.045.313-.045.447-.045 1.652-.045 3.26.583 4.733.269.089.18.536.538.357-.135.402-.045.848.134 1.205.135-.044.045.134.045.224-2.107.268-2.241-2.143-3.72-3.126-.269-.446-.359-.982-.762-1.429.09-.223-.134-.49-.269-.759-.358.492-1.12.268-1.21.983-.493.268.18 0-.224-.134-.359.49-1.614.446-1.12 1.25.044 0 .134-.045.134-.09 0 .09-.045.269.045.313.672-.357 1.21-.848 1.882-1.205-.045.044.135.625-.224.312-.269.134-.045.625-.538.447.045-.045-.045-.09-.045-.134-.134.09 0 .58-.448.49.045-.044-.045-.088-.045-.133-.179-.045-.269.223-.179.268.314-.045-.18.09-.269.134-.045.044-.448-.134-.448.134.224.134.045.044-.045.134-.09.223-.672.402-.583.803-.358-.134-.358.625-.537.134-.09-.044-.135-.178-.225-.134.09.492-.537.58-.313 1.072-.09-.134-.314-.313-.538-.134-.045 0-.135.268-.224.045-.135 0-.224.134-.314.223.09.045.09.179.09.268-.18 0-.359-.045-.448.134.044.178-.09.044-.135.09.045-.135-.09-.135-.134-.224-.18.357-.673.223-1.031.357 0-.09.045-.268-.045-.313-.135.09-.135.268-.224.358.134.357-.224-.045-.314.178-.224.134-.493.045-.762.045-.224-.09-.807-.447-1.12-.223-.852-.358-1.435-.938-2.286-1.34-1.076-2.054-2.734-3.616-2.913-6.027-.27-.804.493-1.653.358-2.5.269-.224.493-.18.583-.537.045-.044-.135-.357 0-.134.134-.267.358-.446.314-.625.672-.848 1.568-1.518 2.15-2.455.808 0 1.39-.492 2.018-.849.269-.089.493-.268.672-.446-.269-.357.18.134.269-.179.986-.848 2.286-1.027 3.227-1.83.762.044 1.21-.67 1.972-.492.628-.848 1.255.402 1.883-.446-.27-.268.224-.09.313-.134.09.402.448.536.673.67zM111.153 51.704c.583.58 1.703.76 1.658 1.429 1.21.937.852 2.59 1.076 3.84.224.848.314 1.696-.045 2.5.135.179-.358.402-.044.67.313-.536.044.134-.045.223-.09 0-.27-.045-.314.045.045.089 0 .223.134.312.18 0 .09.447-.044.625.358.224 0 .58 0 .715-.404.134.537.759-.135.49-.134.09-.358-.133-.224.403-.314.134.045.402 0 .58.359.045-.224.134-.134.357 0 .402.044.804.09 1.206-.27.446-.046.893-.135 1.34-.09.133.045.312.045.446.358-.134 0 .268-.09.357.134.313 0 .58 0 .848.359 0-.448.134-.045.447.09.178-.045.312-.18.357-.223 1.741 1.48.223 2.287.491 1.479.268 2.913.58 4.347.938.717.357 1.434.848 1.838 1.473.851.224.896 1.161 1.434 1.608-.18.67.852.535.538 1.205.583.536.314 1.34.807 2.054-.135.76.493 1.072.224 1.786.179.223.179.625-.135.714-.045.045-.09.09-.045.134.045.045.09.09.18.045l.045-.045c-.225.626.044 1.474-.359 1.742 0 .312-.134.67.224.848.224.402-.403.134-.358.491.224.58-.404.67-.09 1.161-.224-.09-.224.134-.359.223.135.179.359.09.314.358-.493.178.135.58 0 .759.135.134.448.223.403.446-.044.134-.224.045-.313.045-.448-.313-.314-.76-.717-1.072-.27-.134-.628-.357-.852-.312.134.268.627.401.583.714-.314-.09-.628-.446-.717-.759-.897-.67-2.017-1.25-2.286-2.277-1.614-2.724-1.48-5.492-1.345-8.171-.045-.268-.314-.491-.538-.714-.582-.045-.672.759-1.3.535-.268 0 .807-.58.045-.58-.09.268-.851.268-.358.625-.135.045.09.447-.09.313-.09-.045-.134-.09-.18-.045-.447.09.27.536-.313.402-.583.402-.493.982-1.165 1.205-.09-.044-.27-.134-.224-.312.538-.134-.135-.491.448-.625-.359-.402-.448.223-.717.223-.045.134-.045.312-.224.402.358.09.582.446.448.714-.18.402-.224-.134-.359-.223-.044-.134 0-.313-.134-.402-.269-.045-.269 1.116-.359.223-.09-.49-.224.224-.538.134.18.224-.179.313-.134.491.134.09.269-.044.403.134.135.313-1.075 0-.313.358-.18.089-.314-.268-.449.089.538.446-.448.268.09.714-.09.09-.18.134-.09.268.135.09 0 .09-.044.09-.27.312-.045.67-.359.937-.18.268.403.402-.045.357.314.67-.538 1.072-.179 1.697-.18.134.448.804-.224.58-.045.268.269 1.563.269 1.876-.583.134.224.67-.27.937.046.045.315.134.09.224 0 .134.135.134.225.223-.538.134.313.759-.359.937-.224.313.672.224.18.492-.449.625.403 1.384.089 2.143.09.402-.18.848.224 1.205-.269-.089-.18.268-.314.313-.537-.402-.627-1.697-1.479-1.25.224.178.045.535.135.625-.583-1.384-2.107-2.188-3.407-3.081-.403-.045.135-.223-.224-.357-.403-.179-.851-.357-.851-.804.358-.982.045-3.08.448-3.884-.18-1.027.538-1.786.224-2.858.448-.134.09-.804.359-1.072-.224-1.518 0-2.813.269-4.107-.583-.224-.18-.76-.314-1.161.09-.09.134-.223.09-.357 0 .089.044.134.09.134.178.044.223-.045.313-.134-.045-.09 0-.224-.135-.268-.134-.045-.134.089-.224.134-.224-.402.18-.58.09-.938.18.223.224-.045.269-.134-.493-.446.269-.714-.135-1.116.404-.491-.269-1.742.583-2.188.403-.402-.852-.625 0-.804.448-.402-.672-.937.045-1.205-.27-.447.493-.76 0-1.072-.135.045.045.402-.18.223.36-.044-.224-.625.314-.446.18-.313.09-.447.045-1.25.18-.625.045-1.34.224-1.92 0-.625 0-1.25.314-1.786 0-.491-.807-.357-.493-.849.269-.044.448-.267.448-.49-.627-1.25.448-2.546-.09-3.974.494-.626.494-1.474.314-2.233.941-.09 1.659.625 2.51.893zm4.796 21.744c.134-.535-.314.134-.448 0-.538.358.134-.134.269.224.044-.09.09-.09.179-.224zm-.717.447c0 .134-.27.09-.359.268 0-.134.045-.536.359-.268zM148.488 68.85c-.09-.313.359 0 .403-.313.225.491.852.178 1.21.402.583 0 1.166.223 1.524.714.942-.446 1.793-.357 2.78-.759 1.837-.09 3.63-.714 5.198.447.942.67 2.331 1.16 2.78 2.187.313.224.403.67.672.76 1.389-1.965 3.45-3.394 5.916-3.037.09-.312.582-.268.672-.178-.09-.045-.134.044-.134.044.448.268.761.09 1.255.045.044-.402.448-.09.672-.09.224.447.627-.089.807.447.537.268 1.075.67 1.703.849.762.357 1.12 1.25 1.434 1.964.045.09-.045.223.045.268.358.223.493.759.448 1.295.269.268.134.759.403 1.071-.09.447.045 1.117.135 1.34 0 .045-.045.179.045.223-.18.447.403.848.044 1.429.27 1.072-.582 1.875-.537 2.947-.18.536-.224 1.295-.852 1.607-.09.67-.941.804-.986 1.518-.941-.178-.583.893-.852 1.295.045.09-.044.268.09.313.135-.045.045.178.045.223-.717-1.295-1.748-2.456-2.151-3.974-.359-2.679.044-5.269.179-7.948-.538-.312-.941-.937-1.614-.625-.94.715-2.33 1.027-2.554 2.367-.404.491-1.166 1.116-1.48 1.295-.09.58-1.21.446-.627 1.027 0 .044.045.178-.09.223.045-.134-.09-.223-.134-.313-.18.224-.045.536.134.76.538-.536-.09.312-.09.446.09 1.071-.761 1.786-1.344 2.634.045.223.224.402.135.67-.224.223-.449.402-.449.714-.627 1.117-2.51 1.25-2.465 2.68-1.165-1.296-1.837-2.992-2.33-4.644.09-.313-.224-.447-.27-.67.404-1.116-.089-2.322.808-3.17.134-.625.717-1.34.224-2.01-.09-.535.582-1.116.044-1.384-1.3-.58-2.689-1.071-4.123-.49-.359 0-.538.58-.672.267-.986.09-1.928.983-2.645 1.742-.179.223-.044.446-.09.625.09.089.135.223.27.178.224-.357.672-.312.851-.268-.627.358-.358 1.206-.896 1.697.09.536-.448.848-.09 1.384-.09.67-.493 1.206-.582 1.83-.18.18-.493-.089-.583.224-.224 1.206-.897 2.054-.986 3.304-.628-.67-1.031-1.607-1.793-2.188-.672-1.518-1.838-2.857-1.21-4.777.09-.491.583-1.116.09-1.563.313-.625-.404-1.295.403-1.786.134-.536-.762-.938-.135-1.473.135-1.117.493-2.233.404-3.394.583-.089.314-.714.403-1.116-.403-.58.314.09.314.223.09.224-.134.67.224.491zM195.28 70.368c.269.357.359.937.852 1.071.582.313-.18.625.268.893 0 .447.045.938-.448 1.116-2.734-.446-5.378-.312-7.485 1.384-2.465 1.563-4.66 3.572-6.274 6.073-.045.357-.628.803-.09 1.16 3.944-.446 7.171-2.902 10.398-5.09.359.09.493-.401.807-.401.717-.268 1.569-.625 2.33-.313.807.402 1.435 1.295 2.331 1.518.045.268.538.447.493.76.986 2.276.18 4.866-.09 7.188-.224.938-.717.714-.851 1.607-.135.358-.448-.268-.672.134-.404.536-.135 1.072-.18 1.742-.09-.938-1.3-1.206-1.3-2.144-1.658-2.232-1.12-4.152-.761-6.518-.224-.447-.224.312-.404.089-.358.134-.045.804-.448.67-.224.312-1.524.625-1.658 1.116-.673.09-1.883.893-2.017 1.295-.359 0-1.031.312-1.255.58 0 .447-.852-.044-.941.402-.493.357-1.031.357-1.3.938-1.3.268-3.675.535-4.93-.67-1.39-.58-1.076-2.277-2.017-3.17-.045-.804-.717-1.608-.224-2.456.358-1.295.448-2.724 1.479-3.661.224-.58.717-.849 1.03-1.384 2.107-2.188 4.348-4.51 7.217-5.403.627-.804 1.39.09 2.151-.357 1.255-.179 2.151.938 3.272 1.34.18.267.448.357.717.49zM137.91 67.555c-.179.044-.627-.224-.761.044.269.224.672.491 1.075.357.045-.357.359.045.538.134.448.536 1.255.804 1.838 1.117.582.759 1.568.893 1.793 1.92.537.759-.852 1.25.09 1.875-.808.044-1.525-.625-2.376-.76 0-.401-.628-.312-.852-.267-.627.402-.314-.313-.986-.045-.717.268-1.479.536-2.151.893-.628.09-1.255.938-1.927.938-1.883 1.652-4.124 3.036-4.482 5.581-.135.223.179.313.044.491 1.57.045 3.048-1.116 4.572-1.652-.09.313-.224-.134-.359.179.359.58 1.031-.268 1.48-.357-.135-.402-1.031.446-.673-.134.314.223.448-.179.717-.268 1.928.134 3.407-2.01 4.303-1.965.269-.312.672.134.986.045 1.3.848 1.255 2.813 2.107 4.242.537.892.896 1.83 1.434 2.723.045.268.448.536.134.804-.493 0-.045.58-.224.804.404.535.941 1.026.807 1.83-.762-.223-.852-1.295-1.703-1.34-.986-.982-1.748-2.321-2.376-3.527-.09-.223-.358-.312-.493-.312-.045-.313-.493-.268-.717-.179-.403.09-.538.625-.851.402.134.402-.314.134-.493.134-.359.223-.359.625-.628.893.09-.625-.358-.134-.627-.09.09.67-.583.76-.807 1.25-.135 0-.314-.044-.314.135 0 .178-.045.223-.18.268.046-.09 0-.134-.044-.179-.627-.134-.045.804-.583.447-.493-.134-.493.535-.851.625.224.134-.09.223-.09.357-.045.045-.448-.536-.582.09-.045-.09-.18-.18-.27-.269-.717.58-1.658.09-2.464.045-.718-.402-1.031-1.16-1.838-1.473-.224-1.161-1.434-1.876-1.524-3.081-1.03-1.072-.493-2.322-.762-3.572.493-1.384.852-2.858 2.062-3.795.269-.447.627-.804.807-1.25.448-.358.94-.626 1.12-1.206.224-.179.583-.134.583-.447-.135-.134.134-.223.179-.268.941-.178 1.03-1.116 2.062-1.294.313-.625 1.075-.625 1.344-1.34.404-.134.493-.536.942-.402.224.357-.673.313-.359.715.403.134.762-.447 1.21-.09.493-.178.135-.401.18-.714.179.536.627.58.94.938zm1.48 13.26c.717-.58-.224-.267-.583-.446-.627.313.448.179.403.58 0-.134.18 0 .18-.134zm-2.465.492c-.135-.045-.09.134-.135.223-.134.223-.403.178-.538.134.045-.223-.313.223-.358.402.134.044.403.178.493.178.134-.312.493-.49.896-.49 0-.313.448-.492.493-.76-.269-.223-.672.313-.851.313zM73.101 62.063c1.345 1.027 2.107 2.41 2.196 4.107.359.804.673 1.92.09 2.68-.314.758-.628 1.473-.628 2.277-.448.134-.09.803-.627 1.027-.045.178.18.089.224.178 3.451-.268 6.544.76 9.233 2.59-.09.268.314.223.493.402 1.12 1.294 1.748 2.991 2.107 4.643.313-.044-.045.402.268.491.135.402-1.03.67-.358.938.045-.313.358-.045.448-.09-.269.313-.224.76-.493 1.028.09.134.717-.224.314.134.358.67-1.434.625-.27.937-.358.268-.627.447-1.164.491-.09-.134.044-.312.09-.49.089-.045.044-.18.044-.224-.314-.179-.359.446-.717.446-.09.268-.493.536-.18.938.09.134.27.045.36.045.178-.224.223-.402.537-.313 0 .045 0 .179.09.223.448-.178.09.224.134.358-.269.312-1.39-.045-1.076.625-.179 0-.358-.045-.448.178-.224-.268-1.075.224-.717-.536-.224.045-.672.67-1.076.492-.403.49-1.255.714-1.389 1.25-.717.09-1.39.714-1.882 1.25-.135 0-.18 0-.18-.134.135-.09.359-.134.359-.357-.18-.09-.583.134-.628-.223.045 0 .18 0 .225-.134 0-.224-.36-.134-.449 0 .09.714-.627.268-.806.848-.359-.313-.673.09-1.031.09-.045.312-.673.044-.449.49.09.045.09.179.225.134.09.09-.27.134-.09.224.269 0-.359.312-.538.357-.403.268-.896.536-1.344.491-.135-.268-.538.09-.673 0 .09.357.628 0 .717.402-.313-.09-.582.625-1.075.402-.359.268-.762.49-1.21.535-.225-.267-.493 0-.762 0-.27.938-1.12-.401-1.39.492-.224.044-.582-.045-.717.268.448.625.986.223 1.524.178 0 .179-.224.268-.403.268-.135-.223-.135.09-.225.09-.761.089-1.837.356-2.734.267-.448-.402-.806-.893-1.434-.982.045-.313.045-.491-.045-.848-.358-.358-.448-.849-.582-1.385-.09-.178-.224-.49-.314-.759.403-.312-.314-.759.224-1.027-.224-.089 0-.312.09-.446.538.134.627-.625 1.12-.804-.134-.223-.672-.044-.627-.312-.045-.045.224-.224.403-.179.18.223.404.09.27.402.985.491 2.195-.045 3.181-.268 2.017-.58 4.258-1.116 5.872-2.59 1.837-.714 3.227-2.232 4.93-3.259.448-.625 1.076-1.206 1.524-1.741.045-.58 1.21-1.072.717-1.831-2.824-2.143-7.037-1.965-9.905-.446-1.659.446-3.496 1.116-5.379 1.428-.717-.759-.986.313-1.613.447-.045.134-.224.044-.359.09.09-1.028-1.434-.403-.941-1.474-.269-.134-.18-.447-.403-.491-.135.178.134.625-.224.848.179.357-.225.625.224.67-.27.312.224.714-.359.937.09.134.269 0 .359.045-.09.134-.538.134-.449.402.18.312.359-.045.359-.179-.134.402-.224.67 0 1.116-.045.134-.269.09-.224.224.09.089.18.089.269.089-.224.134-.135.402-.045.536.09.223-.269.312-.314.625-.045.268.18.491 0 .759.27-.045.135.357.404.312-.314.179-.359.268-.18.626.045-.045.045-.09.135-.09-.045.223-.448.402-.135.76.359-.045-.09-.045-.044.089-.18 0-.314-.224-.449 0 0 .089.09.134.18.178-.538.045 0 .447-.135.67.18-.223.359-.402.628-.491.044.268-.224.312.044.536.18.625-.851.312-.448.937.314-.268.314-.268.224.09.135.089.18.223.18.357-.852-.313.044.848-.628.58 0-.09.045-.268-.09-.268-.403.09 0 1.027-.493.536-.582.268.314.76-.358.938.314-.045.224.49.269.49-.224.224.134.403-.135.715.27.09.09.447.27.625-.36.536.223 1.295.089 1.876.269.49.314 1.25.717 1.786-.269-.045-.672-.447-.896-.134.313.759.313 1.696.627 2.5-.762-.223-1.434-.714-2.286-.625-1.524-.625-1.703-2.233-2.061-3.661-.045-1.742-.583-3.706-.538-5.269-.224-1.206.179-2.366.09-3.617-.538-3.527-.449-6.697-.538-10.269.179-.848.313-3.885.448-4.733-.09-.09-1.166.938-1.3.893-.448.223-.314.804-.717.447-.314-.179-.628.268-.986.178-.045.09-.18.223-.09.313 0-.09-.582.446-.762.178-.403.402-.986.09-1.39.447-.492-.447-.671-1.25-1.254-1.474-.09-1.83 1.748-2.946 2.824-4.375 3.227-2.724 6.812-5.313 11.25-5.447 2.823-.58 5.691.714 7.26 3.036zm-6.499 1.741c-.807.223-1.524.67-2.286.982 0 .134-1.075.268-.896.402-.314.58-.314.402-.314 1.518.359 1.474.18 3.036.449 4.51-.225.223.134.67.134.893.403-.09.672-.67 1.076-.402.269.045.313-.09.044-.179 0-.044 0-.178.09-.223.09-.044.18.09.224.134.807-.223 1.255-1.027 1.883-1.518-.404.223-.27-.268 0-.446.358-.045.537-.313.851-.536 1.21-1.474 2.913-3.126 2.69-5.269-1.345-.536-2.555-.178-3.945.134zm8.382 26.388c-.628.357-1.345.759-1.928 1.071.045.045.09.045.09.09.269-.045.583-.045.672-.313.09.179.224-.134.224.134.045 0 .224.045.135-.09.18-.044.09-.401.269-.267.224-.09.582.045.717-.223-.135-.045-.314-.224-.18-.402zM113.125 92.246c.897-.625 1.166.714 1.972.714.762.357.09.804.583 1.295.09.446.09.938.314 1.295 1.703-.67 3.361-2.456 5.423-1.384.627.535 1.882-.447 2.286.535.313.18.627.402.94.58-.044.313.27.76.18 1.117.27.402.986.447.986 1.027-.493.09-1.03-.179-1.524-.312-1.972.133-3.899.714-4.706 2.634-.045.759-.538 1.429-.448 2.232-.627.045-.358 1.072-.583 1.608 0 .982-.268 1.786-.09 2.723-.223.224-.134.76-.223 1.027-.18.224.224.804-.224.76-.18.267-.18.58-.314.848.403.178.269.893.269 1.294.09.224.134.626.314.938 0 .536.224 1.25-.225 1.741-.493-.133-.762.268-.896.626.134.133.045.357.269.401.09 0 .269.045.269-.089.18 0-.448.268-.18.447-.313.357.314.714.27 1.027.224-.18-.987.178-.718-.447-.806-.759-2.375-1.16-2.51-2.456-1.254-1.562-.672-3.482-1.165-5.402-.941-4.331-.403-9.153-.583-13.618-.358-.268-.761-.625-.582-1.072.314-.134-.09-.714.403-.58.18.134.27.357.493.49zM148.712 93.094c1.255.848 1.076 2.233 1.076 3.572.045 1.027-1.076 1.25-1.48 1.965-.358.401-1.075.535-1.21 1.16-1.254.67-2.464 1.742-3.988 1.43-.762.044-1.48-1.385-2.017-.269-.448 1.385-1.434 3.17-.314 4.555 3.182 0 6.05-1.25 8.695-2.68.314-.357.359-.267.314.135-.27.446-.27.937-.448 1.473-.359.134.134.402-.135.58.135.804-.807 1.295-1.255 1.786-.134.447-.314.938-.851 1.117-.673 0-1.255.848-1.972.893-.314.044-.449.67-.673.223-.358-.045-.269.446-.582.357-1.659.268-2.78-1.25-4.169-1.92-.762-.937-1.658-1.92-2.151-3.125-.852-1.206-1.12-2.992-.762-4.6.448-1.92 1.569-3.571 2.734-5.178 1.12-.58 1.434-2.01 2.734-2.367.852-.268 1.165-1.473 2.151-1.116 1.435.357 2.869 1.384 4.303 2.01zm-3.092.893c-1.928.625-3.496 2.456-3.407 4.063 1.21.268 5.2-.268 4.482-2.723 0-.179-.627-1.295-1.075-1.34z"/>
                    <path fill="#EC008C" d="M166.147 96.398c.493.67 1.076 1.116.896 1.786-1.075 1.295-2.15 2.68-3.495 3.75.179.358-.449.269-.225.581-.717.447-1.075 1.34-1.927 1.429 0 .045-.045.179.045.223.134-.044.045.09.045.134-.09 0-.224-.045-.27.045-.134.58-.94.67-1.254 1.25-.314.09-.403.268-.762.312.269.492-.896.626-.314.849-.269.044-.358.58-.762.357-.448.268-.09.536-.672.67-.09.044-.269-.045-.314.044.18.447-.403.045-.358.447.762.134.045.179-.224.223-.449 0 0 .357-.538.223-.27.268-.27.938-.807.67.134.268.538.045.672.223-.09.134-.582.045-.448.045-.045-.134-.224-.045-.358-.045 0 .402-.583.134-.449.58-.448.269-3.585 2.144-3.899 2.635.359.179-.314.402-.045.223 5.155-1.294 12.102-1.786 15.373-2.098.135.312.359.178.449-.045.94-.09 1.748-.044 2.823-.134.27.357.583-.089.897.134-.359.134-.942.179-.942.76 0 .133-.044.267.045.356-.358-.267-.538.268-.896.268-.045.179.134.536-.224.358 0-.09.045-.224-.045-.268-.314.134-.672.714-1.076.535-.045.045-.224.268-.224.134-.09-.134-.224-.134-.358-.134-.09.313-.404.358-.583.67-.269 0-.538.045-.762-.044-.134.178-.493.401-.538.357-.134-.313-.269.089-.358-.09-.27 0-.135.358-.359.313-.045.268.403.223.135.446-.27.09.09-.312-.225-.357-.358-.134-3.271 1.384-3.316.536-.18 0-.224.447-.448.223-.18-.134-.359.358-.314 0 .224-.044-.045-.134-.045-.223-.359.045-.224.938-.672.536-.045.402-.493.312-.359.67-.134 0-.314.268-.448.044-.18-.044-.359-.357-.628-.134-.134.09-.134.224 0 .313-.224-.179-.672.357-.582-.134.09-.09.224-.134.134-.313-.403-.178-.582.358-.806.447.09.446-.718.268-.538.804-.852.312.134-.67-.583-.58-.583-.135-.717 1.874-1.076.535-.134-.179-.358-.848-.537-.223.358.268 0 .312-.225.49 0 .135-.627.09-.224.269v.134c-.762.044-1.3.848-2.151.446-.448.536-1.12.179-1.569.268-.313-.09-.179.357-.448.313-.403-.134-1.03.223-1.345 0-.268.267-.537.089-.94.178-.583.268-1.076.09-1.794.134-.044-1.027-1.389-.536-1.389-1.563-.672-.357-.224-1.384-.986-1.384-.627-.446-.09-1.295-.672-1.741-.27-1.34 1.837-1.384 2.465-1.83.717-.224 3.182-2.233 3.765-2.233.806-.938 1.972-1.429 2.734-2.456.672-.223.94-.938 1.479-1.116 1.344-1.072 2.6-2.277 3.854-3.572-.269-.491.448-.625.538-.938.403-.312.762-.937 1.21-1.25-.358-.045-.09-.357-.09-.536.045-.089-1.165.224-1.21.134-1.165.134-2.106-.49-3.092-.536-.359-.49-1.076-.937-1.12-1.652-.628-.312-.852-1.116-1.48-1.25.404-.09.762-.178 1.166 0 3.361-.67 6.543-1.875 10.04-2.232 1.837-.447 2.733 1.071 4.033 1.607zM133.563 97.47c.672.223 1.434.536 1.838 1.205-.135 1.518-.493 3.394-2.062 4.242-1.21.536-2.241 1.518-3.496 1.92-.807.714-2.241.223-2.868 1.116-.493 1.295-.673 2.545-.538 3.93.582.223 1.39.133 2.017 0 1.927-.537 3.854-.938 5.602-1.92.135.446-.18 1.205.269 1.696-.896.67-.583 2.054-1.748 2.59-.269.536-.896.536-1.3.937-.269.268-.717.134-.986.491-.493-.401-1.03.18-1.568-.089-1.39-.491-2.959-1.071-3.765-2.456-1.21-.535-1.21-1.875-1.972-2.723-.762-3.126.672-6.385 2.24-9.064.987-1.295 1.928-2.099 3.228-2.768.493-.313 1.12-.715 1.748-.357 1.12.58 2.196 1.071 3.361 1.25zm-1.21 2.232c-1.434-1.786-6.275 1.652-5.468 3.036 1.12-.759 2.375.224 4.616-1.428.18-.224.762-1.295.852-1.608z"/>
                    <path fill="#EC008C" d="M176.545 91.219c.583.134 1.076-.357 1.569-.313-.134-.268.224-.089.314-.044-.045.134.09.134.134.223.045-.09.135-.045.27-.045.044.447.537.09.761.268 1.12.447 2.151 1.072 3.272 1.563.448.491-.27 1.116.224 1.563.269.49-.493.714-.134 1.027-.18.446-.449.535-.673.893-.358-.358-.224.223-.358.357.224.223-.045.535-.224.67-.314-.358-.628.401-.942.58 0 .357.673-.447.359.178-.359.313-.314-.267-.628.134.045.402-.09.76-.134 1.072-.359.134-.628 0-.852.357.135.045.045.223.09.357-.134 0-.224.179-.359.268.045.134.225.491.045.358-.045-.045-.045-.09-.134-.045-.135.178-.359.268-.359 0-.045-.179-.179.045-.134.134.09.268-.314.357-.224.58.358.179-.942.76-.224.134 0-.09.044-.178-.045-.268-.673.045-.224 1.518-.852.625-.269.268-.269.76-.627.938-.538.179-.717.625-1.345.536-.045.402-.538.357-.807.58-.044-.044-.044-.089-.134-.089-.09.313-.359.446-.583.625-.134-.09-.269-.357-.358-.09.09.045.045.18.045.224-.27-.09-.359.625-.762.134-.27.446-1.435.268-.942 1.116.628.447 1.57.447 2.331.313 2.824-.268 5.378-1.161 7.933-2.054.269.045.359-.357.672-.313.045-.357.404.447.762-.044-.179.357-.493.357-.537.803-.225-.044-.494.536-.583 0-.135.045-.314-.044-.359.045.045.223.448.179.135.446.045.313 1.39-.535.358.045.224.402-.403.402-.448.76-.09.088-.358.133-.358.356.179.358-.314.224-.225.536-.313.268-.627.402-.761.76.044.044.268.133.09.222-.36.268-1.166-.223-1.211.58.134.67-.448.269-.627.447.134.715-.852.536-.673 1.25-.269-.223.359-.535-.224-.67-.314.135 0 1.028-.672.76.045-.134-.045-.223-.135-.313-.358.045-.358.625-.672.313-1.882.536-3.451-.76-5.065-1.83-1.3-1.474-2.868-2.948-3.361-4.823-.448-.625-.986-1.071-1.434-1.563.448-.089.986.179 1.255-.268.045-.937-.404-1.607.269-2.366.044-.446.224-.848.358-1.205-.269-.536.628-.76.314-1.385.493-.134-.045-.625.448-.759.18-.937.986-1.741 1.748-2.232.359.178.403-.268.583-.447.582-.535 1.344-.67 2.151-.803.18-.357.269-.625.672-.76.493.447.404-.758.762 0 .314-.044.628-.267.762-.535l-.045-.045c-.134-.134.583.045.628-.446.672.223-.807.178-.09.625zm1.21 3.215c-1.03.446-1.882.937-2.913 1.34-.538.446-.986 1.16-1.569 1.472-.403.536-.762 1.072-.717 1.965 3.765.045 6.275-2.188 6.678-4.465.314-.536-1.3-.402-1.479-.312zM99.097 87.736c1.837 1.116 3.316 3.126 3.81 5.224.268.402.448 1.027.537 1.34-.134.178.672.982-.134.893-.045.134.358.58 0 .848-.449.179-.583.804-1.031.938.582.267-.448.223-.27.67-.089-.045-.178-.18-.313-.135-.18.268.135.76-.538.67-.044.179.18.09.224.223 1.883.134 3.586.58 5.065 1.563 1.927.625 3.989 2.456 4.392 4.51.404.759.852 1.786.359 2.679.134.268-.269.49-.269.803-.359-.134-.269.402-.627.313.358.491-.673.179-.359.67-.224.178-.672-.045-.359.357.135.268-.179.357-.268.536-.045.134-.718-.134-.314.223-.448.67-1.12 1.116-1.703 1.34-.045.267-.135.446-.359.624.224-.223-.045-.401-.045-.625-.09.134-.269.179-.358.134-.359.625-1.166.849-1.748 1.25-.045.715-.897-.044-.852.76-.403 0-.538.446-.896.312-.045.045-.27.134-.09.223-.358.045-.448.491-.941.447-.448.67-1.3.446-1.703 1.071-.18-.134-.27.224-.448.224-.225.134-.628.044-.628.357-.18-.402-.358.134-.627 0-.314-.313.358-.848-.314-.893-.986.938-2.69.848-3.944 1.563-.135-.045-.27 0-.359.134-.045.089.045.223-.045.312-.179-.357-.448 0-.448.134.27.09.18.447.359.58-.045-.044-.09.045-.135.045.09.268-.134.179-.224.357.672-.089.27.849.583.849-.18.268-.045 1.027-.224 1.027-.09.268-.09.312-.314.446-.538.09-.448-.402-.852-.045 0 .134-.537-.223-.672-.133-.941-.67-.314.089-.941-.626.269-.535.18-.312-.135-.759-.358-.134 0-.49-.134-.803-.224-.625-.762-.849-.941-1.474.224-.58-.045-.937-.09-1.562-.358-.224-.448-.849-.538-1.34-.224-.313.135-.893-.493-1.116.18-.357-.179-.536-.09-1.027.135-.76-.896-1.206-.448-1.965-.493-.134.314-.446-.179-.67.314-.446-.224-.848-.134-1.205-.09-1.027-.673-1.92-.583-3.036-.852-.58-.538-1.83-1.076-2.545 0-1.563-.806-4.42-.806-6.117-.807.357-2.645 1.16-2.869.446-.358-.044-1.658.715-1.703.402-.045-.223.896-1.25.986-1.518.134-.446-.672.179-.448-.268.358-.714 1.479-2.232 3.137-3.706 3.944-2.902 6.185-4.51 9.278-5.224 3.092-.268 3.451.715 5.289 1.295zm-2.062 2.634c-2.465 1.027-5.378 1.474-7.126 3.796.268 1.071.268 2.5.672 3.572.358 1.205.269 1.964.627 3.17.27.982.359 2.009.493 3.036.18.357.135.67-.044 1.071.582-.044.403 1.027.448 1.43.269.267-.224.669.134.848.27.268.09.535-.224.67.359.58-.269 1.339.224 1.92-.269.446.27.803.09 1.205-.135.357.269.536-.09.893.448.044 0 .402.314.491-.045.491.269.357.538.446.045.134-.18.09-.27.224.225.67.539-.357.897-.224.941-.848 2.376-1.16 3.362-1.964.045-.09-.045-.223.09-.268.268.625.448-.491.94-.313.18-.178.718-.178.538-.535.314.044.762-.134.942.178.269-.446-.18 0-.314-.357.672-.759 1.658-.938 2.375-1.652.09-.045.673.09.359-.268 1.03-.312 1.255-1.34 2.062-1.964.448-1.25 1.972-1.831 2.375-3.17-.538-.045-1.165-.18-1.658-.135-2.869.18-5.916.536-8.606 1.43-.269-.045-.224.446-.448.312-.314.268-.672.446-1.03.67-.27.044-.494-.045-.583-.224-.852-.67-1.928-1.786-2.376-2.902-.09-.536.135-1.027.27-1.473-.315-.134-.18-.447-.225-.76 1.614-1.651 3.944-3.17 5.378-5.179.673-1.116 1.659-2.143 1.793-3.438-.493-.759-1.255-.58-1.927-.536zM186.899 113.9c-.449.447-.986.67-1.659.67-.672 0-1.21-.223-1.658-.67-.448-.446-.672-.982-.672-1.651 0-.67.224-1.25.717-1.697.448-.402.986-.625 1.613-.625.628 0 1.21.223 1.659.67.448.446.672 1.027.672 1.652.045.625-.18 1.16-.672 1.652zm-3.003-3.035c-.359.401-.538.848-.538 1.34 0 .535.18.981.583 1.383.358.357.851.58 1.344.58.538 0 .986-.178 1.345-.58.358-.402.582-.848.582-1.384 0-.536-.179-.982-.582-1.34-.359-.401-.852-.58-1.345-.58-.538 0-.986.179-1.39.58zm.358 2.634v-2.59h1.255c.224 0 .359.045.493.134.224.134.359.313.359.625 0 .224-.045.357-.18.491-.134.09-.268.134-.448.179.18.045.27.09.359.134.134.134.224.313.224.58v.403l.045.089h-.628c0-.09-.044-.18-.044-.358 0-.134 0-.268-.045-.312-.045-.09-.09-.134-.18-.179-.044 0-.134-.044-.224-.044h-.269v.893h-.717v-.045zm1.255-2.099c-.09-.044-.224-.044-.403-.044h-.18v.759h.27c.179 0 .268-.045.358-.09.09-.044.135-.178.135-.312s-.045-.223-.18-.313z"/>
                    <path fill="#00A9A1" d="M51.901 31.478s-.044 0 0 0zM47.15 13.707c0 .134.045.224 0 0z"/>
                    <path fill="#CFAB7A" d="M49.795 42.328l-.27-.893-1.164-.358-.807.09c-.18-.268-.628-1.161-.897-1.206-.268-.044-.224-.134-.358-.134-.135 0-.672-.446-.672-.446-1.076-.58-1.255-.804-1.883-.76l-1.03.313c-.18.402-.404.76-.046 1.072-.358.67-1.03 1.027-1.3 1.741-.044.134-.223.09-.313.09-.314 1.071.045 1.83.314 2.678.269.447.313.492.717.804.09.849-.538 1.116-.807 1.652-.224.983-1.793 1.206-1.21 2.768.269.804.627 1.519 1.434 1.742.314.58-.583.67-.403 1.34-.673-.18.045.848-.583.624-.09.358.18.849-.224 1.027-.18.447-.538.938-.807 1.206 0 .402 0 1.116-.403 1.34l-.224 3.437c-.493.536-.18 1.742-.717 2.322-.045.357.134.357.313.625-.313.536-.493 1.116-.403 1.875-.672.045-.09.938-.717 1.027.269.849-.762.849-.359 1.742-.762.58-.313 1.92-.403 2.679.538.178.224.536.224.982-.134.09-.18.268-.314.223l-.134 1.965c.807.804-.269 2.01.493 2.768-.269 2.992-.269 6.296-.359 9.064.449.536-.134 1.518.493 1.965-.493.535.538.58.18 1.339h.224c.09.804.224 1.25.717 1.786l-.09.09c.18.044.359.267.314.535.314.447.583.982.896 1.429.18.536.717.937.942 1.429 0 .223.044.49-.09.67.717.982-.224 2.276.358 3.303.045 1.117.718 1.786.942 2.769-.359.714.717.625.224 1.34.627.669.672 1.562 1.39 2.053.178.536.672.938.94 1.429.673.268 1.076 1.116 1.614 1.563.493.267.672 1.027.986 1.34-.359.892.762.937.224 1.74.583.134.09 1.117-.403 1.117-.942-.625-2.152-.536-3.183-.893-.268.223-.537.446-.403.893-.09.089-.18.268-.314.223-.224.893.359 1.205.314 1.875.314.357.314.848.493 1.206.717.044-.493.625.09.714-.583.179-1.614-.223-2.286-.312-.986-.18-.896 1.562-1.927 1.518-1.076-.045-2.555.982-3.855.446-.045.76-.045 1.607.852 2.054.896-.134 1.927-.134 2.689-.402.672-.09 1.479-.58 1.838-.536l-.225-.223c.135-.223.314-.223.493-.312l1.21-.045c1.973-.58 2.42-.625 4.707-.715.672.626 1.703.313 2.42.893 1.569-.178 2.69.313 4.258.447h4.034c.224-.58.358-1.072.717-1.473-.27-.849-3.093-1.027-3.586-1.876-.358-.446 6.365-2.277 7.306-1.429.896.09 3.496 2.144 3.944 2.635 1.165.803 6.947 2.098 7.575 1.92.313-.268 0-.67.358-.76.269-.267-.314-.714-.538-.892 0-.224.807-.313.986-.447.583-.223-.09-1.652 4.93.134.493-1.071-.806-.714-.582-1.652-.27-.357-.314-.536-.314-.58-.09 0-.224-.09-.583-.268-.403-.09-1.12-.179-1.479-.491-2.151-.402-1.3-2.724-3.182-2.099-.358-.045-.358-.357-.358-.625-.449-.759-.807-.268-1.57-.446-.358-.626-.985 0-1.523-.313-.359.268-1.345.446-.941.982.493 1.117-.135.268-.359 1.295l-.717-.536c-.851.268-.851-.937-1.613-.803-.852-.224-2.107-1.385-2.78-1.786.09-.179.539-.402.628-.491-.807-.804-1.075-1.385-1.927-1.742l.09-.134c-.135-.178-.135-.49-.404-.536.359-.759-.627-.848-.896-1.428-.628-.358-1.165-1.474-1.793-1.742-.493-.268-.717-.982-.941-1.34-.448-.178-.672-.981-1.3-1.026-1.03.312-.852.179-1.703.223-.583-.491-.448-2.143-1.165-2.143-.314.134-1.57-2.01-.897-2.277.359-.893-.269-.893-.448-1.518-.224-.045-.493-.313-.359-.625-.94-1.206-1.748-2.724-3.227-3.304.135-.313-.224-.313-.313-.447.045-.625-.583-.982-.717-1.518-.404-1.205-1.255-2.143-1.435-3.215-.269-.49.135-1.607-.313-2.232.313-.179-.18-1.34-.718-1.742-.448-.714.045-1.696-.09-2.455-.313-.045-.313-.357-.313-.625-.583-1.34.314-3.036-.403-4.242.09-.045.224-.402.224-.402-.314-1.295.134-2.545 0-3.884.762-.313.18-1.474.493-2.099-.807-.536 1.434-5.804 1.21-6.385l.18-4.643c.134-.09.179-.268.313-.224.045-.267-.09-.893.359-1.116.717-1.696.806-2.366.134-3.616l.09-.134c-.538-.045-.314-.491 0-1.027.537-.491 1.21.044 1.927-1.027 0-.491 0-1.116.403-1.34-.269-.67.448-1.518-.224-1.964l.224-.224c.448.18.224-1.071.538-.714.135-.536.18-1.205-.09-2.277l-.582-.982z"/>
                    <path fill="#00A9A1" d="M91.791 42.283c.448-.446-.269-1.16-.224-1.786h-.09c-.134-.045.538-1.34.359-1.741-1.255-1.206-2.376-2.188-3.72-3.304.09-.849-.986-1.43-.628-2.545.045-.938-.986-.849-1.524-.625-.179-.67-.896-.804-.806-1.563-1.12-.447-1.255-2.01-2.331-2.545-.896-1.295-10.577-8.037-14.342-7.501-.09-.134 1.255-1.608 1.434-1.563l.717-1.429c-.224-.044.314-.491 1.345-.714 1.03.982 1.434.446 2.778.937.986.938 1.48-.267 2.241-.803.314-1.116 1.524-1.384 2.331-1.965-.134-.491.314-.223.493-.446 1.48.268 1.927-1.831 3.451-1.117.628-.49 1.972.134 2.33-.535.718.134 1.48.625 2.242.446.538.313.627-.58.986-.67v-.312c-.897-.938-2.376-.982-3.54-1.027-1.883-1.697-4.886-.09-6.993-.76-1.075.18-2.6 0-3.72.537-1.3.134-2.062 1.294-3.227 1.964-.09.804-1.255.179-1.39.983-1.882.625-3.854-.134-5.467 1.25-.135.312-.493.58-.807.803.18.893-.852.67-1.03 1.295-.808.491-.808 1.25-1.614 1.563v.223c-.135.09-.135.447-.404.313.18.58-.358.803-.582 1.027.044.893-.897.848-.718 1.741 0 .491-.358.536-.717.625-.313.536.493.625.314 1.116-.717 0-.986 1.117-1.703 1.25.045.18-.045.402.134.536.359.358.493 1.027.807 1.518.852-.178 1.21.849 2.017.804.403.804-2.913.045-2.286.67-.851.446-1.837.625-2.823.848l.044-.491c.27-.58.762-.759.717-1.429.09-.089.135-.268.314-.223-.179-1.25.314-1.786.493-2.768.673-.491-.134-1.92.717-2.456-.627-.134 0-.982-.627-1.027 0-.58-.045-1.429.403-1.741v-.536c.09-.09.18-.268.314-.223.18-.224.18-.76-.224-.804.134-.67-.314-1.741.403-2.054.18-.804-.313-1.384-.403-1.875-.09-.715-.359-1.474-.672-1.965.448-1.786-2.331-1.205-2.152-2.455-.179-.492-5.781-5.314-7.395-6.296-.672-.536-1.524-1.116-2.42-1.34-.224-.267-.852-.312-.717-.892-.314.044-.583-.045-.807-.313C41.862.848 41.1.536 39.979.357c-.672-.223-1.748-.044-1.927.09-1.345.178-3.854 2.366-5.11 3.973 0 0-9.322 5.626-8.515 6.251 0 0 2.779 2.054 8.067 0 .359.491 4.886-3.616 5.11-2.902l.582 1.429c1.031-1.116 1.48-1.474 2.78-1.608.089.492.716 1.295 1.12 1.518 0 .134.851-.267.851-.267.628 0 .314.67.942.803.134.76.851 1.117 1.03 1.876.493.357 1.39.312 1.883.759 1.12.49 1.344-.045 1.972.937 0 .09-.09.223-1.345-.044-.134-.09-.134.089-.09.223h.046c.044.223 0 .134-.045 0-.359-.045-1.614.491-1.345.67.135.893 1.614.312 2.017.848-.09.848 1.927.312 2.196.938.224.535-.314 1.071-.314 1.652-.09.089-.134.267-.313.223v1.429c.403.044-.045.803.403.803.493 1.563-1.255 2.277-1.524 3.617-2.286-1.116-3.272-3.885-5.468-5.403-.762-.982-1.658-1.384-2.823-1.786-.493-1.205-1.57.09-2.241-.625-3.72-.044-7.127-.044-10.668.447-.09-.134-.268-.179-.224-.357-3.316.67-5.916.357-9.098 1.562-1.03.76-2.062 1.161-2.734 2.322-.762.67-1.255 1.34-2.107 1.652-.403 1.206-1.972 1.206-2.42 2.456-1.21.803-1.703 1.964-2.734 2.991-.224.134-.493.134-.358.447-1.21.982-2.51 1.964-3.541 2.947-.538.223-.583.937-1.12 1.116-.046.67-1.032 1.116-1.3 1.786-.135.223 0 .67-.404.804-.045.67-.583 1.16-.358 1.964-.314.09-.762.76-.718 1.161-.09.045 4.348.714 4.707.893 0 0 2.33-1.83 4.078-2.902l-.045-1.384c-.358-.402 2.241-4.331 2.6-4.644.493-.804-.045-.491 2.24-.759-1.03.402.315 1.116 0 1.652.45.313-.134 1.161.494 1.429l-.09.134c.359.625.359 1.518 1.166 1.875.358.357.94 1.027 1.658.893.807-1.116 1.972-2.098 2.51-3.527 1.3-1.875 3.048-3.394 4.616-5.046-.134-.803 1.031-.67.717-1.562.583-.224.404-.804.942-1.206l-.135-.134c.628-.134.852-.893 1.031-1.429.403-.044.403.447.627.626-.179 1.518.942 2.545 2.107 3.304 1.3-.224 2.196-1.652 3.451-1.965.762-.268 1.345-1.34 2.33-1.116.449.446.18 1.563.36 2.098.492.134-.135 1.117.492 1.206.09.893.449 1.295 1.031 1.875 1.703.357 3.451-.223 5.154.09.314.267.628.357.583.937-3.63-.09-6.723.893-9.86 2.411-.538.76-1.614.625-2.107 1.563-.493-.045-.627.536-.986.625-1.39 1.473-2.51 3.26-3.72 4.867-.717.134-.493 1.295-1.21 1.34v.312c-.448.312-.672 1.071-.986 1.429-.09.67-.896.937-1.03 1.562-.808.536-1.256 1.518-2.018 2.233-.269.357-.717 1.071-.986 1.34.09.312-.18.58-.314.758-.403.268-.268.849-.717 1.027-.09.536-.358.938-.717 1.206v.446c-.358.58-1.03 2.724-1.703 2.769.224.803-.403 2.946-1.076 2.991.045.491.045 1.116-.403 1.34l-.134 2.321c-.538.268-.18 1.34-.718 1.474 0 .446.09.625-.09 1.116-.806.893 1.614 1.205 1.794.312.448.09.94.492 1.3.626.179-.179.627-.134.492-.536.404-.223.359-1.116 1.12-.804 1.525.58 7.217-3.483 7.217-3.483-.672-.714.314-1.696-.493-2.366.493-.893-.493-1.429-.314-2.188-.403-1.25.403-3.438 1.524-3.393.538.625 1.165 1.25 2.151 1.34.852.044.404-.983.673-1.474.672-.179-.045-1.295.627-1.518l.09-1.116c.403-.045.269-.536.313-.893.852-.224.045-1.43.718-1.652.09-.447-.09-1.117.403-1.25-.045-.804.359-1.474.807-1.965.179.312.717.044.582.536.27.223.404.49.852.535.627 1.072 1.613-.223 2.375.625 1.39 1.295 1.659-1.071 2.645-1.518.314-.982.941-1.652 1.39-2.455.178-.58.94-1.25 1.03-1.876.135-.089.18-.268.314-.223-.135-.804.627-.893.717-1.429.493-.178.896-1.16 1.524-.67l-.135.224s.942.268.986.357c.045.09.717.625.717.625l.225.179.403-.134.538.09.314.624s.358.357.537.313c.18-.045.852-.402.942-.402.09 0 .582.223.582.223l.628.536h.493l.493.893c1.255 1.473.627.312.941 1.563.269 1.027 1.21 1.384 1.03 1.92l.046.044c1.075-.134 1.524 0 1.882-1.16.538.044.18.937.807.803.09.76.807.625 1.076 1.072.761.535 1.389 0 1.882-.492.134-.58.672-1.16.852-1.652.717-.714 1.434-1.652 2.6-1.74.089.356-.27.49-.45.714l.18.089c.045.625-.627.714-.762 1.25-.493.893.224 1.652.673 2.456.493.178.268 1.027.851 1.027-.269.535.628.49.583.848.717.848 1.479-.134 2.24 0 2.376-.179 2.421-3.125 4.796-3.17.852-.045.538 1.116-.403 1.518-.851.67-1.255 1.518-2.106 2.188-1.524.536 0 1.92-.09 3.08.672.268 1.569 2.635 2.51 2.546 1.703-.849 1.075.401 2.868-.179.538.045 1.345.491 1.3 1.072.224.535.896.446.941 1.25-.851.893.314.848-.762 1.473.045.536 3.99.983 4.662.313.358.09.717 4.777.851 5.134-.224.358 3.451.983 3.63.893.18-1.786 1.21-1.428.494-2.455-.18-.447.269-.625.403-.893.134-.715-.583-.67-.627-1.34.044-.089.044-.312.224-.268l-.628-2.009c-.18-.491-3.585-9.6-3.989-10.09.045-.224-.045-.581.224-.67l-.627-1.876c-.404-.535-.941-1.25-1.12-1.875-.494-.045-.225-.714-.673-.714-.09-.76-1.165-.849-1.12-1.608-.583-.49-1.166-1.071-1.748-1.428 0-.492-.449-.67-.807-.893-.852-1.25-2.42-1.027-3.586-1.295-.09-.268-.134-.536-.403-.58-.583-1.385-1.927-2.1-3.317-2.724 2.241-.715 2.42-1.161 5.289-1.161v.67c.717.714.627 2.232 1.793 2.768.717.268 1.39-.09 2.106-.134.941.268 2.69-.268 3.72.223 0 0 1.972.714 1.345.982-.672.045.045 1.072-.628 1.117v2.679c.224.133.09.401.135.625.314.268.403.67.896.67.762-.09 1.255.49 2.017.312 2.241.848 4.527 3.527 4.303 3.661-.135.67.941 1.83 1.075 2.456.225 1.205.762 3.215 1.704 3.706.537.044 3.361-2.277 3.72-3.304-.449-1.027-1.12-2.277-1.569-3.349zM43.968 5.537c-.224-.313-.179-1.43.224-1.385.359.224 1.659.893 1.883 1.34l-2.107.045zM24.83 46.257c.045.491 0 .937-.493 1.027l-1.39-.313c.314-.402.314-1.071.718-1.34.314-.624 1.882-2.99 2.42-3.259l.359.536c-.673.268-.807 3.126-1.614 3.349zm8.426-8.35c-.134-.178.404-1.964.583-2.366.314-.268.672-.402 1.076-.313l.09 1.206c-.36.223-1.57 1.16-1.749 1.473zm41.593 8.35l1.793 2.813c-.269.402-2.51-1.116-2.869-1.116.135-.224.673-1.876 1.076-1.697zm-4.303-8.305c.09.357.18.76.583.848-.269.179-.986.224-1.479.134.09-.357.314-1.027.896-.982z"/>
                </g>
            </g>
        </g>
    </g>
</svg>
