<svg xmlns="http://www.w3.org/2000/svg" width="173" height="80" viewBox="0 0 173 80">
    <g fill="none" fill-rule="evenodd">
        <g fill-rule="nonzero">
            <g>
                <path fill="#000" d="M2 1H173V79H2z"/>
                <path fill="#9A8348" d="M172.26 0H0v80H173V0h-.74zM1.48 57.623V24.098h169.957v33.525H1.481zm170.04 1.557v19.345H1.48V59.18h170.04zM1.48 22.541V1.639h169.957v20.902H1.481z"/>
                <path fill="#FFF" d="M20 69.6c-.973.079-1.216.314-1.216 1.257v2.2c-2.19.707-3.162.943-4.622.943C10.514 74 8 71.721 8 68.579 8 65.2 10.595 63 14.486 63c1.379 0 2.676.236 4.217.629l.08 2.592h-.405c-.243-1.807-1.621-2.75-3.892-2.75-2.675 0-4.297 1.572-4.297 4.4 0 3.143 2.027 5.5 4.784 5.5.73 0 1.216-.157 2.027-.55v-1.964c0-1.021-.162-1.257-1.135-1.336v-.392H19.919v.471H20zM43.04 68.34v-4.782h.48c1.68 0 2.72 1.036 2.72 2.71 0 1.435-.8 2.073-2.72 2.073h-.48zM50 73.602c-.96 0-1.36-.318-2.08-1.753-.32-.558-.48-.877-.48-.877l-.4-.797c-.64-1.196-.72-1.275-1.04-1.674 1.44-.399 2.24-1.355 2.24-2.71 0-1.754-1.28-2.79-3.28-2.79h-1.04c-.96.08-1.68.08-2.32.08H40v.398h.16c.8 0 1.04.399 1.04 1.435v7.174c0 1.116-.24 1.435-1.04 1.435H40v.398h4.48v-.478c-1.2-.08-1.44-.319-1.44-1.674v-2.95c1.12 0 1.2.08 1.92 1.515.64 1.355 1.12 2.073 1.44 2.551.56.717 1.52 1.116 2.56 1.116.32 0 .56 0 1.04-.08v-.319zM75.91 74H71v-.404h.182c.909 0 1.182-.324 1.182-1.456v-7.28c0-1.132-.273-1.456-1.182-1.456h-.091V63H76v.404h-.182c-.909 0-1.182.405-1.182 1.456v7.28c0 1.132.273 1.456 1.182 1.456H76V74h-.09zM106 71.25l-.25 2.75c-2.083-.08-2.833-.08-4.417-.08-1.166 0-2.25 0-3.25.08H97v-.404h.25c.833 0 1.083-.405 1.083-1.456v-7.28c0-1.132-.25-1.456-1.083-1.456H97V63h4.583v.404h-.25c-.833 0-1.083.405-1.083 1.456v6.714c0 1.617.333 1.86 2.083 1.86 2 0 2.75-.566 3.167-2.265l.5.081zM136 71.25l-.25 2.75c-2.083-.08-2.833-.08-4.417-.08-1.166 0-2.25 0-3.25.08H127v-.404h.25c.833 0 1.083-.405 1.083-1.456v-7.28c0-1.132-.25-1.456-1.083-1.456H127V63h4.583v.404h-.25c-.833 0-1.083.405-1.083 1.456v6.714c0 1.617.333 1.86 2.083 1.86 2 0 2.75-.566 3.167-2.265l.5.081zM165 71.25v.243c-.078.808-.155 1.294-.155 2.183V74c-1.864-.08-2.563-.08-3.962-.08-1.01 0-2.019 0-2.951.08H157v-.404h.155c.777 0 1.01-.405 1.01-1.456v-7.28c0-1.132-.233-1.456-1.01-1.456H157V63c1.476.08 1.942.08 3.573.08 1.63 0 2.175 0 3.573-.08.077 1.213.155 1.941.233 2.588h-.466c-.311-1.617-.932-2.022-2.874-2.022h-1.088v4.449h1.088c1.398 0 1.709-.243 1.786-1.294v-.243h.544c-.078.89-.078 1.213-.078 1.86 0 .566 0 .89.078 1.86h-.544c-.077-1.294-.31-1.455-1.786-1.455h-1.165v3.316c0 1.132.233 1.375 1.398 1.375 2.175 0 2.951-.566 3.184-2.265l.544.081z"/>
                <g fill="#9A8348">
                    <path d="M1.973 3.52c.904 0 1.643-.72 1.643-1.6 0-.88-.74-1.6-1.643-1.6-.905 0-1.644.72-1.644 1.6 0 .88.74 1.6 1.644 1.6zM31.068 3.52c.905 0 1.644-.72 1.644-1.6 0-.88-.74-1.6-1.644-1.6-.904 0-1.643.72-1.643 1.6 0 .88.74 1.6 1.643 1.6zM60.082 3.52c.904 0 1.644-.72 1.644-1.6 0-.88-.74-1.6-1.644-1.6-.904 0-1.644.72-1.644 1.6.083.88.74 1.6 1.644 1.6zM89.178 3.52c.904 0 1.644-.72 1.644-1.6 0-.88-.74-1.6-1.644-1.6-.904 0-1.644.72-1.644 1.6 0 .88.74 1.6 1.644 1.6zM118.274 3.52c.904 0 1.644-.72 1.644-1.6 0-.88-.74-1.6-1.644-1.6-.904 0-1.644.72-1.644 1.6 0 .88.74 1.6 1.644 1.6z" transform="translate(28 66)"/>
                </g>
                <path fill="#FFF" d="M29 49.8c-3.75 2.4-6.25 3.2-10.083 3.2C11.833 53 7 48.6 7 42.2 7 35.48 12.083 31 19.75 31c2.75 0 5.917.64 8.75 1.68v5.28h-.75c-.583-3.6-3.667-6-7.917-6-4.916 0-8.333 3.76-8.333 9.2 0 6 3.75 10.64 8.667 10.64 3.166 0 6.25-1.92 8.583-5.44H29v3.44zM42.95 35.861l3.263 7.708h-6.036l2.773-7.708zM44.255 30l-7.34 17.825c-.979 2.328-2.202 3.372-3.915 3.372V52c1.468-.08 1.957-.08 3.67-.08 1.713 0 2.202 0 3.67.08v-.803h-.407c-1.387 0-1.876-.401-1.876-1.204 0-.321.081-.723.326-1.365l1.468-4.095h6.933l1.794 4.336c.245.481.326.803.326 1.043 0 .884-.57 1.205-2.039 1.205v.803c1.795-.08 2.447-.08 4.568-.08 2.12 0 2.773 0 4.567.08v-.723c-1.957-.16-2.773-.963-3.996-3.774L44.255 30zM66.98 40.794v-9.558h.808c3.313 0 5.414 2.06 5.414 5.52 0 2.72-1.535 4.368-4.121 4.368-.808-.083-1.132-.165-2.101-.33zm0 1.236h2.343c5.01 0 7.677-2.06 7.677-5.85 0-3.955-2.586-6.015-7.434-6.015h-3.879c-1.374 0-3.313-.083-4.687-.165v.824h.323c1.616 0 2.101.742 2.101 2.966v14.502c0 2.225-.485 2.884-2.1 2.966H61V52c1.697-.082 2.343-.082 4.283-.082 2.02 0 2.586 0 4.283.082v-.742h-.485c-1.536 0-2.101-.741-2.101-2.966V42.03zM92 53c-2.077-.082-2.856-.082-4.5-.082-1.644 0-2.51 0-4.5.082v-.742h.346c1.73 0 2.25-.741 2.25-2.966V34.79c0-2.224-.52-2.966-2.25-2.966H83V31h9v.824h-.346c-1.73 0-2.25.742-2.25 2.966v14.502c0 2.225.52 2.884 2.25 2.966H92V53zM118 37.015h-1.066c-.327-3.296-1.23-4.285-4.426-4.285h-2.623v16.562c0 2.225.492 2.884 2.131 2.966h.328V53c-1.721 0-2.377-.082-4.426-.082-2.05 0-2.705 0-4.426.082v-.742h.328c1.639 0 2.13-.741 2.13-2.966V32.73h-2.786c-2.705 0-3.689.99-4.098 4.285H98L98.328 31c3.852.082 5.246.082 9.754.082H117.837l.163 5.933zM129.95 35.861l3.263 7.708h-6.036l2.773-7.708zM131.255 30l-7.34 17.825c-.979 2.328-2.202 3.372-3.915 3.372V52c1.468-.08 1.957-.08 3.67-.08 1.713 0 2.202 0 3.67.08v-.803h-.407c-1.387 0-1.876-.401-1.876-1.204 0-.321.081-.723.326-1.365l1.468-4.095h6.933l1.794 4.336c.245.481.326.803.326 1.043 0 .884-.57 1.205-2.039 1.205v.803c1.795-.08 2.447-.08 4.568-.08 2.12 0 2.773 0 4.567.08v-.723c-1.957-.16-2.773-.963-3.996-3.774L131.255 30zM165 46.418L164.521 52c-3.83-.082-5.347-.164-8.3-.164-2.155 0-4.23 0-6.146.082H148v-.739h.479c1.516 0 2.075-.739 2.075-2.955V33.776c0-2.216-.479-2.955-2.075-2.955H148V30c1.676.082 2.315.082 4.31.082 1.995 0 2.634 0 4.31-.082v.82h-.48c-1.516 0-2.074.74-2.074 2.956v13.38c0 3.12.558 3.695 3.91 3.695 3.752 0 5.268-1.15 5.986-4.515l1.038.082zM60 10.333h-.588C59.244 8.5 58.74 8 56.977 8H55.55v9c0 1.25.252 1.583 1.175 1.583h.168V19h-4.87v-.417h.168c.924 0 1.175-.416 1.175-1.583V8h-1.511c-1.511 0-2.015.583-2.267 2.333H49L49.168 7h10.748L60 10.333zM89.667 12.287V9.014c0-1.259-.25-1.594-1.167-1.594h-.167V7H93v.42h-.167c-.916 0-1.166.42-1.166 1.594v7.972c0 1.259.25 1.594 1.166 1.594H93V19h-4.667v-.42h.167c.917 0 1.167-.42 1.167-1.594v-4.028h-6.334v4.028c0 1.259.25 1.594 1.167 1.594h.167V19H80v-.42h.167c.916 0 1.166-.42 1.166-1.594V9.014c0-1.259-.25-1.594-1.166-1.594H80V7h4.667v.42H84.5c-.917 0-1.167.42-1.167 1.594v3.273h6.334zM124 15.895v.336c-.083.839-.165 1.426-.165 2.433V19c-2.064-.084-2.89-.084-4.459-.084-1.156 0-2.312 0-3.303.084H115v-.42h.165c.908 0 1.156-.42 1.156-1.594V9.014c0-1.259-.248-1.594-1.156-1.594H115V7c1.651.084 2.23.084 4.046.084 1.899 0 2.477 0 4.046-.084.082 1.259.165 2.182.33 2.853h-.578c-.33-1.762-.99-2.266-3.303-2.266h-1.238v4.868h1.156c1.569 0 1.899-.252 1.981-1.427v-.252h.578c-.082 1.007-.082 1.343-.082 2.014 0 .672 0 1.007.082 2.014h-.578c-.082-1.342-.412-1.594-2.064-1.594h-1.156v3.692c0 1.259.248 1.51 1.569 1.51 2.394 0 3.303-.587 3.633-2.517H124z"/>
                <path fill="#FFF" stroke="#FFF" stroke-width=".05" d="M165.23 32.5v-1.212h.308c.308 0 .539.151.539.53s-.154.682-.539.682h-.307 0zm-.845-1.212c.307 0 .384.076.384.151v2.046c0 .151-.077.151-.384.151v.152h1.153v-.152c-.307 0-.384-.075-.384-.151v-.91h.384c.693 1.061.77 1.137.924 1.137h.461v-.151c-.154 0-.23-.076-.615-.682l-.308-.455c.308-.076.538-.379.538-.757 0-.455-.384-.682-.846-.682h-1.23v.303h-.077zM163 32.5c0 1.364 1.154 2.5 2.538 2.5 1.385 0 2.462-1.136 2.462-2.5s-1.154-2.5-2.462-2.5c-1.384 0-2.538 1.136-2.538 2.5zm.462 0c0-1.136.923-2.121 2.076-2.121 1.154 0 2.077.985 2.077 2.121 0 1.136-.923 2.121-2.077 2.121-1.153 0-2.076-.909-2.076-2.121z"/>
            </g>
        </g>
    </g>
</svg>
