<svg xmlns="http://www.w3.org/2000/svg" width="155" height="42" viewBox="0 0 155 42">
    <g fill="none" fill-rule="evenodd">
        <g>
            <g>
                <path fill="#1B1A19" d="M12.733.447c.06.037.443.273.856.53 3.641 2.256 6.339 5.16 7.968 8.574.501 1.053 1.062 2.734 1.275 3.825.907 4.541-1.105 9.87-5.86 15.553-1.496 1.785-3.781 4.01-5.713 5.559-3.015 2.41-7.342 5.004-10.872 6.515-.244.111-.413.192-.383.2.11 0 2.21-.649 3.457-1.077 5.837-2.005 11.049-4.872 15.066-8.285 1.172-1.002 2.978-2.845 3.863-3.943 2.226-2.78 3.538-5.477 4.128-8.477.228-1.143.28-3.156.118-4.335C25.869 9.61 21.94 4.9 15.424 1.62 14.34 1.08 12.41.233 12.734.447M53.276 12.779c1.628.25 2.594.715 3.611 1.74 1.423 1.423 2.205 3.302 2.448 5.845.235 2.514-.45 5.41-1.718 7.239-1.106 1.607-2.727 2.425-5.462 2.764-.486.059-3.295.096-5.307.074-.125 0-.133-.472-.133-8.846v-8.838l.723-.022c2.425-.074 5.181-.052 5.838.044zm-6.524-1.725c-.649.03-1.489.06-1.858.067l-.685.007v21.008h3.833c2.196 0 4.143-.037 4.556-.081 1.62-.177 3.45-.686 4.51-1.253 2.396-1.297 4.195-3.892 4.866-7.047.228-1.047.287-3.288.118-4.445-.39-2.661-1.268-4.562-2.809-6.081-1.216-1.202-2.248-1.718-4.201-2.08-.671-.124-6.23-.19-8.33-.095zM90.537 12.934c.7.147 1.511.553 1.895.936.412.413.774 1.105.914 1.732.059.288.103.892.103 1.43 0 .752-.03 1.04-.17 1.519-.567 1.968-2.012 2.83-4.953 2.948-.604.022-1.46.015-1.894-.014l-.796-.052v-8.536l.17-.037c.581-.132 3.987-.081 4.731.074zm-4.386-1.872c-1.157.022-2.307.051-2.557.059l-.465.007v21.008h2.507v-8.92l1.474-.014 1.592-.014c.088-.008 1.106 1.467 3.118 4.496 1.644 2.484 3.045 4.577 3.103 4.658.111.148.111.148 1.393-.029.708-.096 1.305-.184 1.335-.192.03-.014-1.43-2.13-3.244-4.703-1.813-2.572-3.287-4.702-3.273-4.724.015-.023.214-.082.45-.133 1.393-.31 3.258-1.718 3.914-2.949.973-1.813.966-3.965-.007-5.867-.399-.781-1.283-1.68-1.968-2.013-1.283-.626-2.926-.773-7.372-.67zM109.931 12.786c1.556.266 2.787.9 3.649 1.866 2.543 2.86 3.022 8.115 1.084 11.993-1.04 2.07-2.477 3.066-5.183 3.59-.714.14-1.142.161-3.552.184l-2.75.036V12.757l.649-.03c.354-.007 1.725-.03 3.044-.037 1.88-.014 2.55.008 3.06.096zm-6.015-1.783c-.03.03-2.322.118-3 .125h-.243v21.008h3.67c2.013 0 4.033-.037 4.475-.074 1.747-.162 3.442-.604 4.637-1.216 2.44-1.245 4.297-3.855 4.968-6.973.575-2.64.236-5.742-.87-8.153-.98-2.115-2.624-3.627-4.629-4.253-1.312-.413-1.54-.427-5.396-.464-1.968-.015-3.597-.015-3.612 0zM73.2 18.72c.914 2.573 1.688 4.74 1.71 4.806.052.126-.155.133-3.649.133-3.493 0-3.7-.007-3.656-.133.34-.935 3.855-9.575 3.885-9.538.022.03.788 2.16 1.71 4.733zm-3.022-5.919c-1.084 2.47-7.158 16.195-7.88 17.81-.34.766-.62 1.422-.62 1.459 0 .044.517.059 1.261.051l1.26-.022 1.335-3.376 1.334-3.368h8.706l2.358 6.781h1.35c.737 0 1.341-.022 1.334-.059 0-.03-1.733-4.747-3.848-10.482l-3.855-10.43-.995-.022-1.003-.022-.737 1.68zM121.313 21.632v10.504h12.973V30.22l-5.234-.015-5.233-.022v-4.077-4.142c0-.052 1.585-.074 4.606-.074h4.608v-1.843h-4.593c-2.528 0-4.614-.015-4.629-.029-.014-.015-.022-1.607-.007-3.539l.015-3.508h10.393v-1.843h-12.9v10.504M137.382 21.632v10.504h2.234l-.052-1.6c-.074-2.402-.111-3.737-.155-5.33-.022-.788-.06-1.938-.074-2.542-.096-3.052-.199-7.563-.177-7.585.015-.015 3.244 3.87 7.173 8.631 3.936 4.755 7.187 8.684 7.238 8.728.081.067.833-.162 1.047-.324.067-.052.088-2.249.088-10.526v-10.46h-2.3l.045 1.047c.022.582.06 1.747.08 2.601.023.849.053 2.043.074 2.655.023.604.052 1.732.074 2.505.022.767.074 2.544.11 3.944.09 3.082.104 3.76.067 3.789-.015.015-3.088-3.7-6.833-8.256l-6.804-8.285h-1.835v10.504" transform="translate(-16 -6) translate(16 6)"/>
                <path fill="#761F21" d="M40.752 6.53c-3.98.361-8.079 1.313-11.499 2.654-1.29.509-3.53 1.519-3.715 1.688-.066.059-.236.155-.376.221s-.354.185-.48.266c-.117.08-.301.184-.404.236-.104.05-.568.346-1.033.655-5.263 3.502-7.74 8.02-6.545 11.92.199.663.722 1.791.81 1.74.096-.06 1.379-2.035 1.777-2.735.347-.605.347-.612.347-1.298 0-1.23.265-2.344.832-3.508 1.644-3.384 5.455-6.51 10.814-8.875 2.978-1.313 6.76-2.389 10.165-2.89.428-.066.789-.133.811-.147.044-.052-.324-.03-1.504.073M23.784 28.998c-.295.332-.708.796-.922 1.032-.442.494-.494.428.568.885.928.412 2.056.795 3.118 1.076l.826.213.788-.84c.442-.472.804-.877.818-.906.007-.03-.383-.2-.87-.369-1.09-.384-2.27-.906-3.073-1.357-.332-.19-.634-.346-.664-.346-.03.008-.302.28-.59.612" transform="translate(-16 -6) translate(16 6)"/>
            </g>
        </g>
    </g>
</svg>
