<svg xmlns="http://www.w3.org/2000/svg" width="226" height="70" viewBox="0 0 226 70">
    <g fill="none" fill-rule="evenodd">
        <g fill-rule="nonzero">
            <g>
                <path fill="#000" d="M157.33 50.18c.233.039.272.117.389.273h.077c.039.078.039.313.078.39h-.078v.079c-.194.039-.388.078-.543.078v-.078h-.271c-.04-.078-.078-.117-.078-.195h-.194c-.039-.078-.077-.118-.077-.196-.194-.156-.388-.312-.543-.468v-.195c-.078-.04-.117-.079-.194-.079v-.195h-.078c-.039-.117-.077-.234-.077-.39h-.078c-.039-.196-.078-.39-.078-.547h-.077v-.39h-.078c-.038-.547-.077-1.133-.077-1.68h-.078v-.273h-.077c-.04-.117-.078-.234-.078-.39h-.077c-.117-.391.038-1.64.077-1.875v-.742c.194-.742.233-1.718.465-2.421v-.469h.078c.078-.468.116-.937.194-1.406h.078v-.39h.077v-.39h.078v-.391h.077v-.39h.078v-.547h.077v-.274h.078c.039-.273.077-.546.077-.859h.078c.078-.585.194-1.171.272-1.796h.077v-.547h.078v-.468h.077v-.547h.078v-.547h.077c.155-1.21.31-2.42.466-3.67h.077v-.664h.078v-.664h.077v-.664h.078v-.86h.078v-.936c.232-.86.232-2.422.077-3.359h-.465c-.04.117-.04.274-.078.39h-.077v.274c-.078.04-.117.078-.194.078v.195c-.078.04-.117.079-.194.079v.195c-.078.039-.117.078-.194.078v.195c-.078.078-.194.117-.272.195v.196c-.077.078-.194.117-.271.195-.194.312 0 .43-.465.547v.078h-.388c-.117-.664.077-1.328.271-1.953v-.664h.078v-.664h.077v-.937c.35-1.25 0-3.553-.077-4.764-.078-.547-.194-1.054-.272-1.601h-.077c-.117-.195-.504-.703-.466-.937h.078c-.039-.078-.078-.117-.078-.195h.078c.271-.43.892-.352 1.396-.547v-.078h.194v-.078c.271-.078.543-.117.853-.196v-.078h.194v-.078h.272v-.078h.271v-.078h.271v-.078h.272v-.078c.388-.078.814-.117 1.202-.195.31-.079 1.202-.352 1.668-.196.194.078.388.235.66.274.038.078.077.195.077.273.077.039.116.078.194.078.038.117.077.234.077.39h.078v.274h.077v.39h.078v.391h.077v.469h.078v.546h.078v.664h.077v.742h.078v.664h.077v1.132h.078v.39h.077v.391h.078c.116.39 0 2.343-.078 2.617h-.077v.468h-.078v.547h-.077v.469h-.078v.468h-.077v.39h-.078v.47h-.078c-.038.273-.077.546-.077.859h-.078v.39h-.077v.39h-.078v.391h-.077v.273h-.078v.47h-.077v.272h-.078v.274h-.078v.39h-.077v.274h-.078v.195h-.077c-.04.195-.078.39-.078.547h-.077v.195h-.078v.273h-.078v.195h-.077c-.039.196-.078.39-.078.547h-.077v.195h-.078v.274h-.077v.273h-.078c-.039.117-.078.234-.078.39h-.077c-.039.196-.078.391-.078.547h-.077v.196h-.078v.195h-.077v.195h-.078c-.077.195-.116.39-.194.547h-.077v.468h-.078c-.039.118-.078.235-.078.39h-.077c-.039.196-.078.391-.078.548h-.077v.195h-.078c-.039.195-.077.39-.077.547h-.078v.195h-.077v.273h-.078c-.039.156-.078.313-.078.469h-.077v.195h-.078v.273h-.077c-.04.118-.078.235-.078.39h-.077v.274h-.078v.195h-.078v.274h-.077v.195h-.078v.273h-.077v.196h-.078c-.077.273-.116.546-.194.859h-.077v.195h-.078c-.039.195-.077.39-.077.547h-.078v.273h-.078v.273h-.077v.274h-.078v.39h-.077v.274h-.078v.39h-.077v.469h-.078v.468h-.077v.742c-.117.43-.272 1.289 0 1.601v-.078c.349-.273.542-.703.853-1.015.349-.312.698-.625 1.008-.937.698-.703 1.357-1.445 2.056-2.148 1.357-1.328 2.714-2.694 4.11-4.022v-.195c.388-.352.737-.703 1.125-1.016v-.195c.078-.078.194-.117.272-.195.077-.078.116-.195.194-.274h.077v-.195c.233-.234.504-.43.737-.664v-.195c.194-.156.388-.312.543-.469.271-.351.543-.702.853-1.015.31-.273.62-.547.93-.859v-.195c.389-.39.815-.742 1.203-1.133v-.195c.427-.39.853-.82 1.319-1.21v-.196c.271-.234.543-.507.853-.742.233-.234.388-.585.66-.859.31-.273.62-.547.93-.859v-.195c.272-.235.543-.508.853-.742v-.195c.078-.079.194-.118.272-.196.077-.078.116-.195.194-.273h.077v-.195c.233-.196.427-.39.66-.547v-.195c.077-.078.193-.117.271-.195.078-.118.194-.235.271-.391h.078v-.195c.233-.196.427-.39.66-.547v-.195c.193-.156.387-.313.542-.469v-.195c.233-.195.427-.39.66-.547v-.195c.232-.195.426-.39.659-.547v-.195c.233-.195.426-.39.66-.547v-.195c.232-.234.503-.43.736-.664v-.195c.233-.234.504-.43.737-.664.039-.078.077-.195.077-.273.388-.39.815-.742 1.203-1.133v-.195c.737-.703 1.473-1.445 2.25-2.148.58-.82 1.356-1.445 2.055-2.148.31-.351.62-.702.93-1.015h.194c.233-.273.504-.547.737-.859h.194c.194-.234.388-.43.543-.664h.194c.155-.195.31-.39.465-.547h.194c.078-.117.194-.234.272-.39h.077c.039-.078.078-.117.078-.195h.194c.232-.274.504-.547.737-.86h.193c.156-.195.31-.39.466-.546h.194c.155-.195.31-.39.465-.547h.194c.116-.156.233-.312.388-.468h.194c.116-.157.232-.313.388-.469h.194c.077-.117.193-.234.271-.39h.194c.077-.079.116-.196.194-.274h.194c.077-.078.116-.195.194-.273h.194v-.078c.077-.04.193-.078.271-.078.078-.079.116-.196.194-.274.116-.039.233-.078.388-.078.039-.078.077-.117.077-.195.194-.078.388-.117.543-.195.04-.079.078-.118.078-.196.853-.351 1.745-.703 2.598-1.015.233-.039.504-.078.737-.078V.625h.272V.547h.387V.469h.388V.39h.466V.312h.387V.234h.466V.156c.543-.039 1.047-.078 1.59-.078V0h1.008v.078h.931v.078h.465v.078h.466v.078h.388v.079c.31.078.62.117.93.195v.078h.194v.078h.272V.82c.194.078.388.117.543.195v.078c.116.04.232.079.388.079.077.078.116.195.194.273h.193c.156.195.31.39.466.547.116.078.232.195.388.273v.195c.232.195.426.39.659.547v.195c.077.078.194.117.271.195v.196c.078.039.117.078.194.078v.195c.078.04.117.078.194.078v.195c.078.04.117.078.194.078.078.196.116.391.194.547.31.586.543.742.543 1.68-.194.116-.155.156-.465.195-.078-.118-.31-.196-.388-.274V6.17c-.078-.04-.117-.078-.194-.078v-.273c-.078-.04-.116-.079-.194-.079-.039-.078-.078-.195-.078-.273h-.194c-.077-.078-.116-.195-.193-.273h-.194v-.078c-.117-.04-.233-.078-.388-.078v-.079c-.194-.039-.388-.078-.543-.078v-.078h-.272v-.078h-.271v-.078h-.272v-.078h-.387V4.49h-.194v-.078c-.078.039-.194.078-.272.078v-.078h-.543v-.078h-1.008v-.078c-.582-.157-2.288.078-2.715.195-.698.078-1.435.195-2.133.273v.078h-.388v.078h-.387v.078h-.388v.079h-.388v.078h-.388v.078h-.271v.078h-.388v.078c-.194.039-.388.078-.543.078v.078h-.194v.078c-.194.04-.388.078-.543.078v.078h-.194v.079h-.271v.078h-.194v.078h-.272v.078c-.194.078-.388.117-.543.195v.078c-.155.04-.31.078-.465.078-.039.078-.078.117-.078.196h-.194v.078h-.194l-.193.195h-.194c-.04.078-.078.117-.078.195-.116.04-.233.078-.388.078-.039.078-.077.117-.077.196h-.194v.078c-.078.039-.194.078-.272.078-.039.078-.077.117-.077.195h-.194c-.039.078-.078.117-.078.195h-.194c-.077.078-.116.195-.194.274h-.194c-.038.078-.077.117-.077.195h-.194c-.078.078-.116.195-.194.273h-.194c-.039.078-.077.117-.077.195h-.194c-.078.079-.117.196-.194.274h-.194c-.078.078-.116.195-.194.273h-.194c-.077.078-.116.195-.194.273h-.194c-.077.118-.194.235-.271.391h-.194c-.078.117-.194.234-.272.39-.077.04-.194.079-.271.079-.039.078-.078.117-.078.195h-.194c-.077.117-.193.234-.271.39h-.194c-.116.157-.233.313-.388.469h-.194c-.077.117-.194.234-.271.39h-.194c-.116.157-.233.313-.388.47h-.194c-.155.194-.31.39-.465.546h-.194c-.194.234-.388.43-.543.664h-.194c-.155.195-.31.39-.465.546h-.194c-.155.196-.31.39-.466.547-.387.352-.814.703-1.202 1.015-.31.352-.62.703-.93 1.016h-.195c-.232.273-.504.546-.736.859-.272.234-.543.507-.854.742v.195h-.077c-.078.117-.194.234-.272.39-.814.82-1.629 1.563-2.327 2.539-.194.156-.387.312-.543.468v.196c-.155.117-.31.234-.465.39v.195c-.233.235-.504.43-.737.664v.196c-.465.43-.93.859-1.396 1.327-.233.235-.427.508-.66.742-.077.078-.193.117-.27.195v.196c-.621.585-1.242 1.171-1.862 1.796-.543.547-1.125 1.132-1.59 1.796-.505.469-1.009.938-1.474 1.406v.195c-.543.547-1.125 1.055-1.668 1.602v.195c-.426.39-.853.82-1.318 1.21v.196c-.31.273-.62.546-.931.859v.195c-.233.195-.427.39-.66.547v.195c-.232.195-.426.39-.659.547v.195c-.155.117-.31.234-.465.39v.196c-.194.156-.388.312-.543.468v.195c-.116.079-.233.196-.388.274v.195c-.116.078-.233.195-.388.273v.196c-.116.078-.232.195-.388.273v.195c-.116.078-.232.196-.387.274v.195c-.156.117-.31.234-.466.39v.196c-.077.078-.194.117-.271.195v.195c-.078.078-.194.117-.272.195v.196c-.077.078-.194.117-.271.195v.195c-.117.078-.233.195-.388.274v.195c-.078.039-.116.078-.194.078v.195c-.078.078-.194.117-.271.195v.196c-.078.039-.117.078-.194.078v.195c-.078.078-.194.117-.272.195v.195c-.077.04-.116.079-.194.079v.195h-.077c-.04.078-.078.195-.078.273-.077.04-.116.078-.194.078v.196c-.077.039-.116.078-.194.078v.195c-.077.078-.194.117-.271.195v.195h-.078c-.039.079-.077.196-.077.274-.078.039-.117.078-.194.078v.195c-.078.078-.194.117-.272.195v.196c-.077.039-.116.078-.194.078v.195h-.077c-.039.078-.078.195-.078.273-.077.04-.116.078-.194.078v.196c-.077.039-.116.078-.194.078v.195c-.077.078-.193.117-.271.195-.039.117-.078.235-.078.39-.077.04-.116.079-.194.079v.195l-.193.195v.196h-.078v.195h-.078v.195h-.077c-.039.117-.078.234-.078.39h-.077v.391c0 .04-.117.04-.078.195-.853-.078-.66.118-.62.39zM6.519 31.756c-.039.194-.077.232-.193.387H6.25c-.039.155-.077.31-.077.464-.077.04-.116.078-.193.078-.039.116-.077.232-.077.387-.077.038-.116.077-.193.077-.077.193-.116.387-.193.541-.077.04-.116.078-.193.078-.038.232-.077.425-.077.657h-.077v.271h-.077v.387h-.077v.387h-.078v.464H4.86v.542h-.077v.541h-.077v.542h-.077v1.199c0 1.431.193 2.591.733 3.443.077.077.193.116.27.193v.193c.077.078.193.116.27.194v.193h.077c.038.078.077.194.077.27.077.04.116.078.193.078v.194c.424.387.849.812 1.311 1.199.116.039.232.077.386.077 1.466.774 4.012.89 5.748.387.385-.039.732-.077 1.118-.077.463-.155 1.119-.232 1.582-.387h.463c1.08-.348 2.43-.542 3.51-.929.386-.077.81-.116 1.196-.193v-.077c.54-.116 1.041-.232 1.581-.387 2.006-.735 4.205-1.315 6.21-2.05h.386V41h.27v-.077h.27v-.077h.463v-.078c.193-.038.386-.077.54-.077v-.077h.193v-.078h.27v-.077h.193v-.078c.193-.038.386-.077.54-.077v-.077h.193v-.078c.193-.038.385-.077.54-.077v-.077h.193v-.078h.27v-.077h.193v-.077c.27-.078.54-.117.848-.194v-.077c.154-.039.309-.078.463-.078v-.077h.193v-.077h.27v-.078h.193v-.077c.193-.039.386-.077.54-.077v-.078h.193v-.077c.193-.039.385-.078.54-.078v-.077h.193v-.077c.154-.039.308-.078.462-.078v-.077c.193-.039.386-.077.54-.077v-.078h.193v-.077h.27v-.077h.193V38.1c.193-.038.386-.077.54-.077v-.078h.193v-.077c.193-.039.386-.077.54-.077v-.078h.193v-.077h.27v-.077h.193v-.078c.193-.038.386-.077.54-.077v-.077h.193v-.078h.193v-.077h.193v-.078h.27v-.077h.192v-.077c.116-.039.232-.078.386-.078v-.077h.27v-.077h.193v-.078c.116-.038.231-.077.386-.077v-.077h.27v-.078h.193v-.077c.115-.039.231-.078.385-.078v-.077h.27v-.077h.193v-.078h.193v-.077h.193v-.077c.154-.039.309-.078.463-.078v-.077c.116-.039.231-.077.386-.077v-.078h.27v-.077h.193v-.078c.192-.077.385-.116.54-.193v-.077h.27v-.078h.192v-.077h.193v-.077h.193v-.078h.27v-.077h.193v-.077c.116-.04.231-.078.386-.078v-.077h.27v-.078h.193v-.077c.193-.077.385-.116.54-.193v-.078h.193V34h.27v-.077c.192-.078.385-.116.54-.194v.387c-.193.155-.078.232-.193.387-.116.077-.232.193-.386.27v.078h-.193c-.038.077-.077.116-.077.193-.077.039-.193.078-.27.078v.077h-.193c-.038.077-.077.116-.077.193h-.193c-.038.078-.077.117-.077.194h-.193c-.038.077-.077.116-.077.193h-.193c-.039.078-.077.116-.077.194h-.193v.077c-.077.039-.193.077-.27.077-.039.078-.077.116-.077.194h-.193c-.077.077-.116.193-.193.27h-.193c-.038.078-.077.117-.077.194-.077.039-.193.077-.27.077v.078h-.193c-.038.077-.077.116-.077.193h-.193c-.038.078-.077.116-.077.194h-.193c-.038.077-.077.116-.077.193h-.193c-.038.077-.077.116-.077.193h-.193c-.077.078-.116.194-.193.271h-.193c-.038.078-.077.116-.077.194-.077.038-.193.077-.27.077v.077h-.193c-.038.078-.077.116-.077.194-.077.038-.193.077-.27.077v.077h-.193l-.192.194h-.193v.077h-.193v.078h-.193v.077h-.193v.077h-.193v.078h-.193c-.038.077-.077.116-.077.193h-.193l-.193.193h-.192v.078h-.193v.077h-.193v.078h-.193v.077c-.116.039-.231.077-.386.077-.038.078-.077.116-.077.194h-.193v.077h-.193v.077h-.193v.078h-.192v.077h-.193l-.193.194h-.193c-.039.077-.077.116-.077.193h-.193l-.193.193H39.5v.078h-.193v.077c-.115.039-.231.077-.385.077-.039.078-.077.117-.077.194-.116.039-.232.077-.386.077v.078c-.193.077-.386.116-.54.193-.039.077-.077.116-.077.193h-.193v.078h-.193v.077h-.193v.078h-.193l-.193.193h-.193c-.038.077-.077.116-.077.193h-.193l-.192.194h-.193v.077h-.193v.078h-.193c-.039.077-.077.116-.077.193h-.27v.077h-.193v.078h-.193v.077h-.193v.077h-.193v.078c-.193.077-.385.116-.54.193v.078h-.27v.077c-.115.039-.231.077-.385.077v.078h-.27v.077h-.193v.077h-.27v.078c-.116.038-.232.077-.386.077v.077h-.27v.078c-.116.038-.232.077-.386.077v.078h-.27v.077h-.193v.077h-.27v.078c-.115.038-.231.077-.386.077v.077h-.27v.078c-.115.038-.231.077-.385.077v.077h-.27v.078h-.193v.077h-.27v.078c-.116.038-.232.077-.386.077v.077h-.27v.078c-.116.038-.231.077-.386.077v.077h-.27v.078h-.193v.077h-.27v.077c-.115.04-.231.078-.385.078v.077h-.27v.078c-.116.038-.232.077-.386.077v.077h-.27v.078h-.193v.077h-.27v.077c-.116.039-.231.078-.386.078v.077h-.27v.077c-.115.04-.231.078-.385.078v.077h-.27v.078h-.193v.077h-.27v.077c-.116.039-.232.078-.386.078v.077h-.27v.077c-.116.039-.231.078-.386.078v.077h-.27v.077h-.193v.078c-.27.038-.54.077-.848.077v.078h-.386v.077h-.386v.077h-.463v.078h-.463v.077h-.385v.077h-.54v.078h-.656v.077h-.656v.077H16.24v.078h-1.581c-1.196.348-3.202 0-4.166-.271-.347-.039-.694-.077-1.003-.077v-.078h-.386v-.077h-.27v-.077h-.27v-.078h-.27v-.077c-.347-.039-.694-.078-1.003-.078v-.077h-.192v-.077h-.27v-.078c-.193-.077-.386-.116-.54-.193v-.077h-.193v-.078c-.193-.077-.386-.116-.54-.193v-.078c-.078-.038-.193-.077-.27-.077-.039-.077-.078-.116-.078-.193-.115-.039-.231-.078-.385-.078-.039-.077-.077-.116-.077-.193h-.193v-.077c-.077-.04-.193-.078-.27-.078-.039-.077-.077-.116-.077-.193h-.193c-.078-.078-.116-.194-.193-.271h-.193c-.077-.077-.116-.193-.193-.27H3.24c-.501-.542-1.003-1.045-1.466-1.587v-.193c-.077-.039-.115-.077-.192-.077v-.194c-.078-.039-.116-.077-.193-.077-.078-.194-.116-.387-.193-.542h-.077v-.193H1.04v-.194H.964c-.077-.193-.115-.386-.193-.541H.694v-.271H.617v-.27H.54v-.272H.463v-.27H.386v-.387H.309v-.464H.23v-.464H.154v-.658H.077C.04 38.41 0 37.675 0 36.978h.077c.039-.425.077-.85.077-1.315h.077V35.2H.31c.077-.387.115-.735.192-1.122H.58v-.27h.077v-.271h.077v-.271H.81v-.27h.077v-.272h.077c.039-.27.077-.541.077-.85h.078v-.194h.077c.038-.116.077-.232.077-.387.077-.038.116-.077.193-.077v-.194l.193-.193v-.193c.077-.04.115-.078.193-.078v-.193c.192-.387.27-.31.27-.929-.54-.27-.888-.773-1.312-1.199-.116-.077-.231-.193-.386-.27-.038-.116-.077-.233-.077-.387H.27c-.039-.387-.077-.813-.077-1.2H.116C0 25.955.309 24.91.5 24.795c1.968-.078 3.935-.194 5.94-.271.078-.116.194-.232.27-.387h.194c.077-.116.193-.232.27-.387h.193c.115-.154.231-.31.385-.464h.193c.039-.077.077-.116.077-.193H8.1c.039-.078.078-.116.078-.194h.192c.116-.154.232-.31.386-.464h.193c.077-.116.193-.232.27-.387h.193c.116-.154.231-.31.386-.464h.193c.115-.155.231-.31.385-.464h.193c.077-.077.116-.194.193-.27h.193c.038-.078.077-.117.077-.194h.193c.077-.078.116-.194.193-.271h.193c.077-.077.115-.193.192-.27h.193c.078-.078.116-.194.193-.272h.193c.077-.077.116-.193.193-.27h.193c.038-.078.077-.116.077-.194h.193c.077-.077.116-.193.193-.27h.193c.038-.078.077-.117.077-.194h.193c.077-.077.115-.193.192-.27h.193c.039-.078.077-.117.077-.194h.193c.077-.078.116-.194.193-.27h.193c.039-.078.077-.117.077-.194h.193c.077-.078.116-.194.193-.271h.193c.038-.077.077-.116.077-.194h.193c.077-.077.116-.193.193-.27h.193c.038-.078.077-.116.077-.194h.193v-.077h.192l.193-.193h.193c.039-.078.077-.117.077-.194h.193v-.077h.193l.193-.194h.193c.038-.077.077-.116.077-.193h.193l.193-.193h.193v-.078h.192v-.077h.193v-.078c.116-.038.232-.077.386-.077.039-.077.077-.116.077-.193.193-.078.386-.116.54-.194v-.077h.193v-.077h.193v-.078c.193-.077.386-.116.54-.193v-.078h.27v-.077h.193v-.077c.116-.039.231-.078.386-.078v-.077h.27v-.077h.192v-.078h.193v-.077c.193-.078.386-.116.54-.194v-.077h.27v-.077h.193v-.078c.193-.077.386-.116.54-.193v-.077h.27v-.078h.193v-.077c.193-.078.386-.116.54-.194v-.077h.193v-.077h.27v-.078h.193v-.077h.193v-.077c.193-.078.386-.116.54-.194v-.077h.27v-.078h.193v-.077h.27v-.077h.193v-.078c.154-.038.308-.077.462-.077v-.077h.27v-.078h.193v-.077h.27v-.077h.193v-.078c.193-.038.386-.077.54-.077 2.662-1.16 5.44-2.244 8.255-3.25 1.929-.464 3.896-.928 5.825-1.392h1.774c1.427 0 2.43.155 3.433.542h.27v.077h.27v.077c.232.039.424.078.656.078v.077c.116.039.231.077.386.077v.078c.115.038.231.077.385.077.039.077.077.116.077.194.193.077.386.116.54.193.078.077.116.193.193.27h.193c.116.155.232.31.386.465.077.039.116.077.193.077v.194c.077.077.193.116.27.193v.193c.077.04.116.078.193.078v.193h.077c.077.271.116.542.193.851h.077v.194h.077v.464h.077c.077.464.116.928.193 1.392h-.077v.194h-.077c-.116.232-.077.464-.193.735h-.077v1.122c-.347 1.005-1.08 2.398-2.392 2.398-.116-.116 0-.039-.193-.078-.038-.154-.077-.232-.077-.464.116-.077.232-.193.386-.27.116-.194.308-1.238.193-1.664-.116-.31-.232-.58-.27-1.006-.309-.193-.27-.27-.463-.541-.116-.077-.232-.194-.386-.27-.038-.078-.077-.117-.077-.194-.193-.078-.386-.116-.54-.194-.039-.077-.077-.116-.077-.193h-.193v-.077c-.116-.04-.232-.078-.386-.078v-.077c-.27-.078-.54-.116-.848-.194v-.077h-.27v-.077c-.27-.039-.54-.078-.85-.078-1.928-.58-4.898-.038-6.402.464-.386.078-.81.117-1.196.194v.077h-.193v.078h-.386v.077h-.27v.077c-.308.078-.617.116-.925.194v.077h-.27v.077h-.27v.078h-.27v.077h-.386v.078h-.27v.077h-.27v.077c-.309.078-.617.116-.926.194v.077h-.386v.077c-.27.078-.54.116-.848.194v.077c-.116-.038-.232-.077-.386-.077v.077c-.116.039-.232.078-.386.078v.077h-.463c-.038.077-.077.116-.077.193-.154.039-.308.078-.463.078v.077h-.193v.077h-.27v.078h-.27v.077h-.27v.078h-.27v.077h-.385v.077h-.463v.078h-.27v.077h-.27v.077h-.27v.078c-.193.077-.386.116-.54.193v.077h-.386v.078c-.116.039-.232.077-.386.077v.078c-.154.038-.308.077-.463.077-.038.077-.077.116-.077.193-.193.039-.386.078-.54.078-.038.077-.077.116-.077.193h-.193v.077h-.27v.078c-.116.039-.231.077-.386.077v.078c-.115.038-.231.077-.385.077-.039.077-.078.116-.078.193-.27.078-.54.194-.848.271-.039.077-.077.116-.077.194h-.193v.077c-.27.077-.54.193-.849.27-.038.078-.077.117-.077.194-.193.077-.386.116-.54.193-.039.078-.077.117-.077.194h-.193v.077h-.193v.078h-.193l-.193.193h-.192c-.039.077-.078.116-.078.193h-.192c-.039.078-.078.116-.078.194h-.192c-.04.077-.078.116-.078.193-.115.039-.231.078-.385.078-.039.077-.078.116-.078.193h-.192c-.039.077-.078.116-.078.193h-.192c-.039.078-.078.116-.078.194-.115.039-.231.077-.385.077v.078c-.077.038-.193.077-.27.077-.039.077-.077.116-.077.193h-.193c-.039.078-.077.116-.077.194h-.193c-.077.077-.116.193-.193.27h-.193c-.039.078-.077.117-.077.194h-.193c-.039.077-.077.116-.077.193-.077.039-.193.078-.27.078-.077.116-.193.232-.27.387h-.193c-.077.077-.116.193-.193.27h-.193c-.116.155-.231.31-.386.464h-.192c-.155.194-.309.387-.463.542h-.193c-.193.232-.386.426-.54.658h.54c.308-.271 1.427-.04 1.928-.194v-.077h1.003v-.078h.849v-.077h.926v-.077h1.003v-.078h.925v-.077h1.003v-.077h.926v-.078h.926v-.077h1.774c.386-.077 1.505-.077 2.315-.077h1.118c.656-.194 1.775-.078 2.585-.078h.848c.695-.193 1.813-.077 2.7-.077 1.273-.039 2.546-.078 3.78-.078 1.544-.038 3.087-.077 4.63-.077v-.077h1.851v.077h.27v.077c.077.04.193.078.27.078-.038.193 0 .077-.077.193-.039.078-.077.194-.077.271-.502.039-1.08.232-1.466.387h-.656v.077h-.848v.078h-1.003v.077h-.849v.077h-.926v.078h-.848v.077h-.926c-1.196.348-2.893.193-4.089.542h-1.118v.077h-.926v.077h-.849v.078h-.656v.077H30.05c-.579.155-1.389.193-1.929.387h-.656c-1.697.503-3.78.58-5.477 1.122-.386.038-.733.077-1.119.077-2.006.503-4.359.425-6.094 1.044-.232.04-.502.078-.733.078v.077h-.27v.077h-.27v.078h-.27v.077h-.193v.078h-.27v.077c-.116.039-.232.077-.386.077v.078h-.27v.077h-.193v.077h-.27v.078c-.116.038-.231.077-.386.077v.077h-.27v.078h-.192v.077h-.27c-.039.078-.078.116-.078.194h-.192c-.039.077-.078.116-.078.193h-.192v.077h-.193l-.193.194h-.193c-.039.077-.077.116-.077.193h-.193v.078h-.193v.077h-.193v.077h-.193l-.193.194h-.192c-.039.077-.078.116-.078.193h-.192c-.039.077-.078.116-.078.194-.308.27-.617.541-.925.85-.077.078-.116.194-.193.271-.077.232-.116.232-.193.232zM89.764 8.984c-.039-.157-.078-.313-.078-.47-.079-.039-.118-.078-.197-.078V8.24h-.078c-.158-.195-.315-.273-.393-.547-.236-.079-.315-.157-.472-.274V7.34c-.078-.04-.196-.079-.275-.079-.04-.078-.078-.117-.078-.195-.118-.04-.236-.078-.393-.078V6.91c-.197-.078-.393-.117-.55-.195v-.079h-.275v-.078h-.197c-.04-.078-.078-.117-.078-.195-.276-.04-.55-.079-.865-.079v-.078h-.196v-.078h-.668V6.05c-.354-.118-1.493 0-1.69.078-.51.235-.864.743-1.218 1.134-.078.079-.196.118-.275.196v.196c-.118.078-.236.195-.393.273v.196c-.078.078-.196.117-.275.196-.04.078-.078.195-.078.273-.08.04-.118.079-.197.079v.195c-.079.04-.118.079-.196.079-.04.078-.079.195-.079.273h-.079v.196c-.078.078-.196.117-.275.196-.039.117-.078.234-.078.39-.079.079-.197.118-.275.196-.04.118-.079.235-.079.392-.078.039-.118.078-.196.078v.195c-.079.04-.118.079-.197.079v.195c-.078.04-.118.078-.196.078v.196c-.079.04-.118.078-.197.078v.196h-.078c-.04.078-.079.195-.079.274-.078.039-.118.078-.196.078v.196c-.079.078-.197.117-.275.195v.196c-.079.039-.118.078-.197.078v.196c-.078.078-.196.117-.275.195-.04.078-.078.196-.078.274-.079.04-.118.078-.197.078v.196c-.078.039-.118.078-.196.078v.196c-.079.078-.197.117-.275.195v.196c-.079.039-.118.078-.197.078-.04.078-.078.196-.078.274h-.079v.196c-.079.039-.118.078-.196.078v.195c-.079.079-.197.118-.275.196v.196c-.158.117-.315.234-.472.39v.196c-.079.04-.118.079-.196.079-.04.117-.079.234-.079.39-.079.04-.118.08-.196.08-.079.195-.118.39-.197.547-.078.039-.118.078-.196.078v.196h-.079c-.04.078-.079.195-.079.273-.078.04-.117.079-.196.079v.195c-.079.079-.196.118-.275.196v.195c-.079.04-.118.079-.196.079v.195c-.08.04-.118.079-.197.079-.04.078-.079.195-.079.273h-.078v.196c-.079.04-.118.078-.197.078v.196c-.078.039-.117.078-.196.078v.196c-.079.039-.118.078-.196.078-.04.078-.08.195-.08.274h-.078v.195c-.078.04-.118.079-.196.079-.04.117-.079.234-.079.39-.078.04-.118.079-.196.079-.04.117-.079.235-.079.391-.078.04-.118.078-.196.078-.04.118-.079.235-.079.392-.078.039-.118.078-.196.078-.04.117-.079.235-.079.391-.078.04-.118.078-.196.078-.079.196-.118.392-.197.548-.078.04-.118.078-.196.078v.196l-.197.195v.196h-.078v.196c-.079.039-.118.078-.197.078-.078.195-.118.391-.196.548-.079.039-.118.078-.197.078-.039.117-.078.235-.078.391h-.079v.196h-.078v.195l-.197.196v.195c-.078.04-.118.079-.196.079-.04.117-.079.234-.079.39h-.078c-.04.118-.079.236-.079.392h-.079c-.157.391.158.587 0 .939-.078.039-.117.078-.196.078v.196h-.079c-.078.078-.118.195-.196.274-.157.078-.275-.04-.393.078v.195l-.196.196v.196h-.08v.195h-.078v.196h-.078v.195h-.079v.196h-.078v.196h-.079v.195h-.079v.196h-.078c-.04.117-.079.235-.079.391h-.078v.196h-.079v.273h-.078v.196h-.08c-.078.274-.117.548-.196.86h-.078c-.04.196-.079.392-.079.548h-.078v.274h-.079v.274h-.078v.274h-.079c-.079.352-.118.704-.196 1.017h-.08c-.038.235-.078.509-.078.743h-.078v.274h-.079c-.078.391-.118.822-.196 1.213h-.079v.47h-.078v.39h-.079v.47h-.079v.548c-.314 1.095-.432 2.386-.746 3.481-.118.43 0 1.682.078 1.956v.743h.079v.47h.079v.391h.078v.196h.079v.273h.078v.196c.079.04.118.078.197.078v.196c.078.078.196.117.275.196v.195c.078.04.118.078.196.078.157.196.315.392.472.548h.196c.157.235.315.43.472.665h.196v.196c.118.078.236.195.393.274v.195c.079.04.118.078.197.078.117.157.235.313.393.47h.196c.079.078.118.195.196.274.118.039.236.078.393.078v.078c.158.117.158.117.393.196.118.117.865.195 1.14.078v-.078h.196c.04-.079.079-.118.079-.196h.196v-.078h.197c.039-.078.078-.117.078-.196.118-.039.236-.078.393-.078.079-.078.118-.196.197-.274h.196c.118-.156.236-.313.393-.47h.196c.08-.117.197-.234.276-.39h.078v-.196c.079-.078.197-.117.275-.196v-.195c.118-.078.236-.196.393-.274v-.196h.079c.039-.117.078-.234.078-.39h.079c.04-.236.078-.431.078-.666h.079c-.04-.391-.04-.313-.196-.548-.393.04-.433.196-.747.274-.118.43-.393.391-.668.665v.079c-.079.078-.196.117-.275.195v.196c-.079.039-.196.078-.275.078-.079.078-.118.196-.197.274h-.196c-.079.117-.196.235-.275.391h-.196c-.04.078-.08.117-.08.196h-.196v.078h-.275v.078h-.196v.078h-.472v.079c-.432-.04-1.021-.313-1.218-.548-.039-.078-.078-.196-.078-.274h-.079v-.47h-.078c.039-.469.078-.938.078-1.408v-.86h.079v-.744h.078v-.743h.079v-.743h.079v-.743h.078v-.744c.118-.47.236-1.134.393-1.604v-.39h.079v-.275h.078v-.273h.079v-.274h.078v-.274h.079c.04-.196.079-.391.079-.548h.078v-.195h.079c.04-.196.078-.392.078-.548h.079v-.196h.079v-.274h.078v-.195h.079v-.274h.078c.04-.117.079-.235.079-.391h.078c.079-.274.197-.548.275-.86.08-.04.118-.08.197-.08.079-.195.118-.39.196-.547.079-.039.118-.078.197-.078.04-.078.078-.196.078-.274.079-.078.197-.117.275-.195.04-.118.08-.235.08-.392.078-.039.117-.078.196-.078v-.195c.235-.196.432-.392.667-.548v-.196h.08c.078-.078.117-.195.196-.274h.196c.236-.273.51-.547.747-.86h.196c.236-.274.51-.548.747-.86h.196c.118-.353.196-.275.471-.47.04-.078.079-.118.079-.196.157-.117.314-.235.472-.391.471-.509.943-1.017 1.414-1.487.236-.195.432-.39.668-.547v-.196c.236-.156.432-.313.668-.47v-.195c.314-.274.629-.548.943-.86v-.196c.275-.235.55-.509.864-.743v-.196c.275-.235.55-.509.865-.743v-.196c.196-.156.393-.313.55-.47v-.195c.078-.039.118-.078.196-.078v-.196c.118-.078.236-.117.393-.195v-.196c.079-.078.197-.117.275-.196v-.195c.197-.157.393-.313.55-.47v-.195c.079-.04.118-.078.197-.078.04-.079.078-.196.078-.274.158-.118.315-.235.472-.391v-.196c.078-.078.196-.117.275-.196.04-.117.079-.234.079-.39.196-.157.392-.314.55-.47v-.196c.078-.039.117-.078.196-.078v-.196c.157-.117.314-.234.472-.39.039-.118.078-.236.078-.392.157-.117.314-.235.472-.391v-.196c.078-.039.118-.078.196-.078.04-.078.079-.196.079-.274h.078v-.196c.079-.039.118-.078.197-.078v-.195c.118-.079.235-.196.393-.274v-.196c.078-.039.118-.078.196-.078.04-.117.079-.235.079-.391.118-.079.235-.196.393-.274v-.196c.078-.039.117-.078.196-.078.04-.117.079-.235.079-.391.078-.04.118-.078.196-.078.04-.118.079-.235.079-.392.078-.078.196-.117.275-.195.039-.196.078-.391.078-.548.079-.039.118-.078.197-.078.039-.157.078-.313.078-.47h.079v-.195h.079c.039-.118.078-.235.078-.391h.079c.039-.157.078-.313.078-.47h.079v-.195h.078v-.548H90V8.905c-.157.079-.196.079-.236.079zm-2.632 2.699h-.079c-.04.235-.078.43-.078.665h-.079c-.04.235-.079.43-.079.665h-.078v.274c-.079.039-.118.078-.197.078-.039.157-.078.313-.078.47-.079.078-.197.117-.275.195v.196c-.079.078-.197.117-.275.195v.196c-.079.078-.197.117-.275.195v.196c-.079.078-.197.117-.275.196v.195c-.079.04-.118.078-.197.078v.196h-.078c-.118.157-.118.157-.197.391h-.196c-.079.274-.158.391-.275.548h-.079v.196h-.079v.195h-.078c-.04.078-.079.118-.079.196-.118.078-.235.195-.393.274v.195c-.078.04-.118.078-.196.078v.196c-.197.157-.393.313-.55.47-.04.117-.079.234-.079.39-.196.157-.393.314-.55.47v.196c-.078.078-.196.117-.275.195v.196c-.118.078-.236.195-.393.274v.195c-.118.079-.236.196-.393.274v.196c-.078.039-.118.078-.196.078-.079.117-.197.235-.275.391h-.079v.196h-.078c-.118.156-.236.235-.275.47-.393.117-.118.077-.275.273-.08.04-.118.078-.197.078v.196c-.236.196-.432.391-.668.548v.195c-.236.235-.51.43-.746.665v.196c-.118.078-.236.195-.393.274-.04.078-.079.195-.079.274h-.196l-.197.195v.196c-.275.234-.55.508-.864.743v.196c-.315.273-.629.547-.943.86-.629.626-1.179 1.252-1.808 1.878-.196.156-.393.313-.55.47-.039.078-.078.117-.078.195h-.197c-.157.196-.314.391-.471.548-.118.078-.236.117-.393.195v.196c-.118.039-.236.078-.393.078-.079-.117 0 0-.079-.078.04-.352.079-.704.079-1.017h.078c.04-.235.08-.509.08-.744h.078v-.195h.078v-.274h.079v-.196h.078v-.195h.079v-.196h.079c.039-.117.078-.234.078-.391h.079v-.274h.078c.079-.195.118-.391.197-.547h.078v-.196h.079c.04-.117.079-.235.079-.391.078-.04.117-.079.196-.079.04-.117.079-.234.079-.39.078-.04.117-.079.196-.079v-.196h.079v-.195c.078-.04.117-.078.196-.078v-.196c.079-.04.118-.078.197-.078V24.2c.078-.039.117-.078.196-.078.04-.117.079-.235.079-.391.078-.04.117-.078.196-.078.079-.196.118-.392.196-.548.079-.04.118-.078.197-.078.04-.118.079-.235.079-.392.078-.078.196-.117.275-.195v-.196c.078-.039.117-.078.196-.078v-.196c.079-.078.196-.117.275-.195v-.196c.118-.078.236-.195.393-.274v-.195c.236-.235.51-.43.746-.665v-.196c.276-.235.55-.508.865-.743v-.196c.157-.117.314-.234.471-.391v-.196c.079-.078.197-.117.275-.195.04-.078.079-.196.079-.274.079-.04.118-.078.196-.078v-.196c.08-.078.197-.117.276-.195.039-.079.078-.196.078-.274.079-.04.118-.079.197-.079v-.195c.078-.04.117-.078.196-.078v-.196c.079-.078.196-.117.275-.196v-.195c.079-.078.197-.118.275-.196.04-.078.079-.195.079-.274.078-.039.118-.078.196-.078v-.195c.079-.04.118-.079.197-.079v-.195c.078-.079.196-.118.275-.196v-.195c.078-.079.196-.118.275-.196v-.196c.078-.078.196-.117.275-.195v-.196c.078-.039.118-.078.196-.078v-.196c.079-.078.197-.117.275-.195v-.196c.079-.078.197-.117.275-.195v-.196c.079-.04.118-.078.197-.078v-.196c.078-.078.196-.117.275-.196v-.195c.078-.04.118-.078.196-.078v-.196c.079-.04.118-.078.197-.078.039-.078.078-.196.078-.274.079-.078.197-.117.275-.196v-.195c.118-.078.236-.196.393-.274v-.196h.079c.078-.078.118-.195.196-.274h.197c.039-.078.078-.117.078-.195.197-.04.393-.078.55-.078v-.079h.197v-.078c.118-.039.236-.078.393-.078v-.078c.236-.04.432-.079.668-.079.039 0 .039-.117.196-.078.197.04.472.274.668.391.079.274.079.705.079 1.135zM115.93 9.907h-.075c-.039-.154-.077-.307-.077-.46-.076-.039-.114-.077-.19-.077-.039-.077-.077-.192-.077-.268h-.076c-.115-.154-.19-.23-.267-.46-.229-.077-.305-.154-.458-.269v-.076c-.076-.039-.19-.077-.267-.077-.038-.077-.076-.115-.076-.192h-.191v-.076c-.19-.077-.382-.115-.534-.192v-.077h-.267v-.076h-.191V7.53h-.19c-.039-.077-.077-.115-.077-.192-.267-.038-.534-.076-.84-.076v-.077h-.266v-.077h-.649v-.076c-.305-.077-1.335 0-1.564.076v.077c-.115.038-.23.077-.382.077-.076.076-.114.191-.19.268-.267.23-.535.498-.84.728v.192c-.152.115-.305.23-.458.383v.192c-.076.077-.19.115-.267.192v.191c-.076.077-.19.115-.267.192v.192c-.076.038-.114.076-.19.076-.039.077-.077.192-.077.269h-.076v.191c-.076.038-.114.077-.19.077v.191c-.077.039-.115.077-.192.077v.192c-.076.038-.114.076-.19.076-.038.077-.077.192-.077.269h-.076v.191c-.076.039-.114.077-.19.077v.192c-.077.038-.115.076-.191.076v.192c-.077.038-.115.077-.191.077v.191c-.076.039-.115.077-.19.077v.192c-.077.038-.115.076-.192.076v.192c-.076.038-.114.077-.19.077v.191c-.077.039-.115.077-.191.077v.192c-.076.076-.19.115-.267.191v.192c-.077.038-.115.077-.191.077v.191c-.114.077-.229.192-.381.269v.191c-.077.038-.115.077-.191.077-.038.076-.077.191-.077.268h-.076v.192c-.076.038-.114.076-.19.076v.192c-.077.077-.191.115-.268.192v.191h-.076c-.038.077-.076.192-.076.269-.077.038-.115.076-.191.076v.192c-.19.153-.382.307-.534.46v.192c-.076.038-.115.076-.19.076-.039.115-.077.23-.077.384-.076.038-.115.076-.19.076-.077.192-.115.384-.192.537h-.076c-.038.077-.076.192-.076.268-.077.039-.115.077-.191.077v.192c-.076.038-.115.076-.19.076-.039.077-.077.192-.077.268h-.076v.192c-.077.038-.115.077-.191.077-.038.076-.076.191-.076.268h-.077v.192c-.076.038-.114.076-.19.076v.192c-.077.077-.191.115-.268.192v.191c-.076.039-.114.077-.19.077-.038.077-.077.192-.077.268h-.076v.192c-.076.038-.114.077-.19.077v.191h-.077v.192c-.076.038-.114.077-.19.077-.039.115-.077.23-.077.383-.076.038-.115.077-.19.077-.039.115-.077.23-.077.383-.076.038-.115.077-.19.077-.039.115-.077.23-.077.383-.076.038-.115.077-.19.077-.077.191-.115.383-.192.536-.076.038-.114.077-.19.077v.191h-.077v.192c-.076.038-.114.077-.19.077v.191l-.191.192v.192h-.077v.191c-.076.039-.114.077-.19.077v.192l-.191.191c-.038.115-.076.23-.076.384-.077.038-.115.076-.191.076-.038.115-.076.23-.076.384h-.077v.191h-.076v.192l-.19.192v.191c-.077.039-.115.077-.192.077-.076.192-.114.383-.19.536-.077.039-.115.077-.191.077-.038.077-.076.192-.076.268h-.077v.192h-.076c-.076.192-.114.383-.19.537h-.077c-.038.153-.076.306-.076.46h-.077c-.038.115-.076.23-.076.383h-.076v.192H95.1v.191h-.076v.192h-.076v.192h-.076v.191h-.077c-.038.115-.076.23-.076.384h-.076v.191h-.077v.269h-.076c-.038.115-.076.23-.076.383h-.077v.268h-.076v.192h-.076c-.038.191-.076.383-.076.536h-.077v.269h-.076v.268h-.076v.268h-.077c-.038.23-.076.422-.076.652h-.076c-.038.23-.077.422-.077.652h-.076v.383h-.076c-.038.23-.076.498-.076.728h-.077v.268h-.076v.46h-.076v.269h-.077v.46h-.076v.383h-.076v.46h-.077v.46h-.076v.46h-.076c-.038.383-.076.728-.076 1.111-.23.69-.344 1.61-.535 2.3-.114.422 0 1.534.077 1.84v.728h.076v.46h.076v.384c.306.843 1.183 1.993 1.908 2.376v.192c.42.115.229.23.458.46.076.076.19.115.267.191v.192c.076.038.114.077.19.077.077.115.191.23.268.383h.19c.077.077.115.192.191.268.115.039.229.077.382.077.076.077.114.192.19.268h.267V50h.992v-.077h.153c.076-.076.114-.191.19-.268h.268c.038-.077.076-.115.076-.192.458-.306.916-.46 1.183-.92h.19c.077-.306.268-.421.458-.651h.077V47.7c.076-.038.114-.076.19-.076v-.192c.077-.077.191-.115.267-.192.115-.383.23-.728.382-1.111-.038-.307-.076-.269-.19-.46-.153.038-.306.076-.459.076-.305.345-.61.69-.915.997h-.191c-.076.383-.267.383-.534.537v.076h-.19c-.077.115-.192.23-.268.384h-.19c-.039.076-.077.115-.077.191-.114.038-.229.077-.382.077v.076h-.267v.077c-.229.038-.496.077-.724.077v-.077c-.458-.038-.573-.23-.916-.383-.038-.268-.19-.498-.267-.728v-1.572h.076v-.843h.076v-.729h.077v-.728h.076v-.728h.076c.077-.69.115-1.342.191-2.032h.076v-.536h.077v-.383h.076v-.384h.076v-.383h.077v-.268h.076v-.192h.076v-.268h.077v-.269h.076v-.268h.076v-.268h.076v-.269h.077c.038-.153.076-.306.076-.46h.076c.038-.115.077-.23.077-.383h.076v-.268h.076v-.192h.077v-.268h.076c.076-.192.114-.383.19-.537h.077c.038-.115.076-.23.076-.383.077-.038.115-.077.191-.077.038-.115.076-.23.076-.383.077-.038.115-.077.191-.077v-.191c.114-.077.229-.192.382-.269.038-.115.076-.23.076-.383.076-.038.114-.077.19-.077v-.191c.23-.192.42-.384.65-.537v-.192c.075-.038.114-.076.19-.076.076-.077.114-.192.19-.269h.191c.23-.23.42-.498.649-.728h.19c.077-.076.115-.191.191-.268h.077v-.192c.076-.038.19-.076.267-.076.229-.269.496-.537.725-.844h.19c.039-.076.077-.115.077-.191h.076c.496-.537.992-1.035 1.45-1.572.267-.23.534-.498.84-.728v-.192c.228-.153.419-.306.648-.46v-.191c.267-.23.534-.499.839-.729v-.191c.267-.23.534-.499.84-.729v-.191c.305-.269.61-.537.915-.844V23.4c.153-.115.305-.23.458-.384v-.191c.076-.077.19-.115.267-.192v-.191c.229-.192.42-.384.648-.537v-.192c.191-.153.382-.306.535-.46.038-.115.076-.23.076-.383.229-.192.42-.383.648-.537v-.191c.077-.077.191-.115.267-.192.039-.115.077-.23.077-.383.19-.154.381-.307.534-.46.038-.115.076-.23.076-.384.153-.115.305-.23.458-.383.038-.115.076-.23.076-.383.153-.115.305-.23.458-.383v-.192c.076-.077.19-.115.267-.192v-.191c.076-.039.115-.077.19-.077.039-.115.077-.23.077-.383.115-.077.23-.192.382-.269.038-.076.076-.191.076-.268.076-.038.114-.077.19-.077.039-.115.077-.23.077-.383.115-.077.229-.192.382-.268v-.192c.076-.038.114-.077.19-.077v-.268c.077-.038.115-.077.191-.077.038-.115.076-.23.076-.383.077-.076.191-.115.267-.191v-.192h.077V13.7h.076v-.268c.076-.038.114-.077.19-.077.039-.191.077-.383.077-.536.076-.039.115-.077.19-.077v-.192h.077v-.191h.076c-.076-.154.344-1.802.115-2.453zm-2.632 2.76h-.076v.268h-.076v.268h-.076c-.039.23-.077.498-.077.728h-.076c-.038.115-.076.23-.076.384h-.077c-.038.114-.076.23-.076.383-.076.038-.114.076-.19.076-.039.077-.077.192-.077.269-.076.076-.19.115-.267.191v.192c-.076.038-.114.077-.19.077v.191c-.115.077-.23.192-.382.269-.038.115-.077.23-.077.383-.076.038-.114.077-.19.077v.076c-.077.039-.115.077-.191.077v.192c-.076.076-.19.115-.267.191v.192c-.076.077-.19.115-.267.192-.038.115-.077.23-.077.383-.19.153-.381.307-.534.46-.038.115-.076.23-.076.383-.19.153-.381.307-.534.46v.192c-.076.038-.115.076-.19.076v.192c-.192.153-.382.307-.535.46-.038.077-.076.192-.076.268-.077.039-.115.077-.191.077v.192c-.076.038-.114.076-.19.076v.192c-.191.153-.382.307-.535.46v.192c-.19.153-.381.306-.534.46v.191c-.076.039-.114.077-.19.077v.192h-.077c-.076.076-.114.191-.19.268h-.192c-.076.383-.305.575-.534.843-.076.038-.114.077-.19.077v.191c-.077.039-.115.077-.191.077-.076.115-.19.23-.267.383-.077.077-.191.115-.267.192v.192c-.115.076-.23.191-.382.268v.192c-.381.383-.8.728-1.182 1.111v.192c-.344.307-.687.613-.992.92-.039.076-.077.191-.077.268h-.19c-.039.077-.077.115-.077.192-.076.076-.19.115-.267.191v.192l-.19.192h-.191c-.038.076-.077.115-.077.191-.152.115-.305.23-.457.384v.191c-.077.039-.191.077-.267.077-.23.23-.42.498-.649.728h-.19c-.23.23-.42.499-.65.729h-.19c-.038.076-.076.191-.076.268-.23-.038-.23-.038-.382-.077 0-.651.076-1.226.267-1.763h.076v-.268h.077c.038-.115.076-.23.076-.384h.076v-.191h.077v-.269h.076c.076-.191.114-.383.19-.536h.077v-.192h.076v-.191h.077v-.192h.076v-.192h.076v-.191l.191-.192v-.192c.076-.038.114-.076.19-.076.039-.115.077-.23.077-.384.076-.038.114-.076.19-.076v-.192c.077-.038.115-.077.192-.077v-.191c.076-.039.114-.077.19-.077.038-.115.077-.23.077-.383.076-.039.114-.077.19-.077.038-.115.077-.23.077-.383.076-.039.114-.077.19-.077.077-.192.115-.383.191-.537h.076c.039-.076.077-.191.077-.268.076-.038.114-.077.19-.077v-.191c.077-.077.191-.115.268-.192v-.191c.076-.077.19-.115.267-.192v-.192c.076-.076.19-.115.267-.191v-.192c.19-.153.381-.307.534-.46v-.192c.305-.268.61-.536.915-.843v-.192c.191-.153.382-.306.535-.46v-.191c.114-.077.228-.192.381-.269v-.191c.076-.077.19-.115.267-.192v-.192c.076-.038.115-.076.19-.076v-.192c.077-.076.192-.115.268-.191.038-.077.076-.192.076-.269.077-.038.115-.076.191-.076v-.192c.076-.038.114-.077.19-.077v-.191c.077-.077.191-.115.268-.192v-.192c.076-.076.19-.115.267-.191v-.192c.076-.077.19-.115.267-.192v-.191c.076-.039.114-.077.19-.077v-.192c.077-.076.191-.115.268-.191v-.192c.076-.077.19-.115.267-.192v-.191c.076-.077.19-.115.267-.192v-.192c.076-.038.114-.076.19-.076v-.192c.077-.077.191-.115.268-.191v-.192c.076-.038.114-.077.19-.077v-.191c.077-.077.191-.115.267-.192v-.192c.077-.076.191-.115.267-.191.039-.077.077-.192.077-.269.076-.038.114-.076.19-.076v-.192c.077-.038.115-.077.191-.077v-.191c.115-.077.23-.192.382-.269v-.191c.076-.077.19-.115.267-.192.038-.077.076-.192.076-.268h.267v-.077h.191v-.077c.19-.038.381-.076.534-.076.038-.077.076-.115.076-.192h.267v-.077h.191v-.076h.382l.076-.077c.305-.038.61.268.84.383.037.46.037.92.037 1.38z"/>
                <path fill="#000" d="M193.734 16.1c.04.08.08.199.08.279h.08v.28h.08c.079.28-.04 1.158-.08 1.358h-.08v.2h-.08v.28h-.08v.199h-.08v.28h-.08c-.04.12-.08.24-.08.399h-.08v.28h-.08v.2h-.08v.2h-.08c-.08.199-.12.399-.199.558h-.08v.28h-.08v.2h-.08c-.04.12-.08.24-.08.4h-.08v.279h-.08v.2h-.08c-.079.2-.119.4-.199.559h-.08v.28h-.08c-.04.12-.08.24-.08.399h-.08v.28h-.079v.2h-.08c-.04.12-.08.24-.08.399h-.08v.28h-.08v.2h-.08c-.04.12-.08.239-.08.399h-.08v.28h-.079v.2h-.08v.279h-.08v.2h-.08c-.04.2-.08.399-.08.559h-.08v.2h-.08c-.039.2-.079.399-.079.559h-.08v.28h-.08c-.04.24-.08.439-.08.679h-.08v.28h-.08v.279h-.08c-.04.16-.079.32-.079.48-.08.04-.12.08-.2.08v.199l-.2.2v.2h-.08v.2c-.199.279-.399.558-.558.878h-.68c-.119-.12 0-.04-.199-.08-.04-.36-.12-.64 0-1.039h.08v-.28h.08v-.279h.08v-.4h.08v-.758h.08v-.96h.08v-1.158h.08v-1.358c.12-.48-.08-1.358.08-1.917h.079v-1.518-3.276h-.08v-.56c.24-.16.52-.32.759-.479h.28v-.08h.279v-.08h.2v-.08c.2-.04.399-.08.559-.08v-.08c.359-.08.718-.12 1.038-.2.36-.119 1.278-.478 1.917-.279v.08c-.32-.12-.16-.08 0-.04zM123 17c-.037.67-.407.946-.63 1.419v.276h-.074v.197h-.074v.197h-.074c-.074.197-.111.394-.185.551h-.074v.276h-.074c-.037.197-.074.394-.074.552h-.074c-.074.197-.111.394-.186.552h-.074v.197c-.074.04-.11.079-.185.079v.197c-.148.118-.296.236-.444.394v.197c-.222.236-.482.433-.704.67v.197c-.074.079-.185.118-.26.197v.197c-.073.04-.11.079-.184.079v.197c-.074.04-.111.079-.186.079-.037.157-.074.315-.074.472h-.074v.197h-.074c-.11.316.037.355-.185.552V25h-.518c-.334-.394-.963-.394-1.408-.67v-.079h-.185c-.037-.079-.074-.118-.074-.197h-.185c-.074-.079-.111-.197-.186-.276h-.185c-.037-.078-.074-.118-.074-.197h-.185c-.074-.079-.111-.197-.185-.276h-.074v-.197c-.074-.078-.185-.118-.26-.197-.259-.394-.518-1.143-.518-1.812.815-.04 1.407-.434 1.963-.75h.185v-.078h.185v-.079h.26v-.079c.185-.079.37-.118.518-.197v-.079h.185v-.078h.185v-.08h.186v-.078h.185v-.079h.185v-.079h.185v-.078h.185l.186-.198h.185c.037-.078.074-.118.074-.197.185-.078.37-.118.518-.197.037-.078.074-.118.074-.197.186-.078.37-.118.519-.197.037-.079.074-.118.074-.197.111-.04.222-.079.37-.079.037-.078.074-.118.074-.197h.186v-.078h.185c.037-.08.074-.119.074-.197h.185c.037-.08.074-.119.074-.198h.185c.074-.078.111-.197.186-.275.037-.119.222-.158.444-.158zM212.172 29.664c-.272.079-.545.315-.934.197v-.079c-.116-.04-.233-.079-.389-.079-.039-.079-.078-.197-.078-.275.39-.63.74-1.26 1.129-1.89v-1.025h-.078v-.197h-.078c-.039-.078-.078-.196-.078-.275h-.194v-.197c-.35-.197-.623-.551-1.012-.67h-1.128c-.894-.197-2.256.276-2.995.552-.194.04-.389.079-.544.079v.078c-.195.04-.39.079-.545.079v.079h-.195v.079h-.272v.078c-.194.08-.389.118-.544.197v.079h-.195v.079h-.194v.079c-.195.078-.39.118-.545.196-.039.08-.078.119-.078.197h-.194v.08h-.195l-.194.196h-.195c-.039.079-.077.118-.077.197h-.195v.079h-.194l-.195.197h-.194c-.04.078-.078.118-.078.196h-.195v.08h-.194c-.04.078-.078.117-.078.196-.117.04-.233.079-.389.079-.039.079-.078.118-.078.197-.116.04-.233.079-.389.079v.078c-.078.04-.194.08-.272.08-.039.078-.078.117-.078.196h-.194c-.078.079-.117.197-.195.276h-.194c-.234.275-.506.551-.74.866h-.194c-.233.236-.428.512-.661.748-.117.08-.234.197-.39.276v.197c-.155.118-.31.236-.466.394v.197c-.078.078-.194.118-.272.196-.311.434-.506 1.143-.661 1.694.038.276.077.551.077.866.078.079.195.118.273.197v.197c.35.236.7.512 1.011.748h.272v.08h.273v.078h.466v.079h.467v.078h.467v.08h.467v.078h.466v.079c.273.039.545.078.856.078v.08h.39v.078h.466v.079h.272v.078h.273v.08h.272v.078h.272v.079h.195v.079h.272v.078c.117.04.233.079.389.079v.079h.272v.079h.195v.078h.194v.08h.195c.039.078.077.117.077.196.312.197.39.118.467.551.895-.04 1.867-.275 2.606-.472h1.206c1.284 0 2.45.197 3.345.551.117.236.156.394.195.748-.117.118-.039 0-.078.197-.156.079-.311.079-.544.079-.273-.315-.895-.276-1.479-.276-.778 0-1.478 0-2.061.197h-.39v.079c-.271.118-.466.236-.738.276v.197c.078.078.194.118.272.196v.08h.195c.077.078.116.196.194.275.117.04.233.079.389.079.039.078.078.118.078.197h.194v.078h.195v.08h.078v.078h.077v.472c-.31.237-.622.434-.933.67-.078.079-.117.197-.195.276h-.194c-.078.118-.195.236-.272.393h-.195c-.117.158-.233.315-.389.473h-.194c-.156.197-.312.394-.467.551h-.195c-.077.08-.116.197-.194.276h-.195c-.077.079-.116.197-.194.276h-.195c-.077.078-.116.197-.194.275h-.195c-.077.08-.116.197-.194.276-.078.04-.195.079-.272.079-.04.079-.078.118-.078.197h-.195c-.039.078-.077.118-.077.197h-.195c-.039.078-.078.118-.078.196-.078.04-.194.08-.272.08-.078.078-.117.196-.195.275h-.194v.079c-.078.039-.194.078-.272.078-.04.08-.078.119-.078.197h-.195c-.077.08-.116.197-.194.276h-.195c-.038.079-.077.118-.077.197h-.195c-.039.079-.078.118-.078.197-.116.04-.233.079-.389.079-.039.078-.077.118-.077.196-.195.08-.39.119-.545.197v.08c-.194.078-.389.117-.545.196v.079h-.389v.079h-.272v.078h-.389v.08h-.544v.078h-3.851c-.273.04-.545.079-.856.079v-.08h-.467v-.078c-.272-.118-.272 0-.467-.276-.194-.196 0-.039-.077-.275-.156-.433 0-.63.077-1.024.195-.04.39-.079.545-.079.311.512.817.59 1.128.945.545 0 1.011 0 1.4-.197v-.078h.195v-.08c.155-.039.311-.078.467-.078.077-.079.116-.197.194-.276.195-.078.39-.118.545-.197.039-.078.077-.118.077-.196h.195c.039-.08.078-.119.078-.197h.194c.078-.08.117-.197.195-.276h.194c.078-.079.117-.197.195-.276h.194c.04-.078.078-.118.078-.197h.195c.038-.078.077-.118.077-.196.078-.04.195-.08.273-.08.077-.078.116-.196.194-.275h.195c.077-.118.194-.236.272-.394h.194c.7-.63 1.362-1.26 2.062-1.89v-.197c.078-.079.194-.118.272-.197.04-.118.078-.236.078-.394h.078V41.4h.078c.039-.157.077-.315.077-.472h.078v-.276h.078c.156-.433.156-.906.078-1.339-.39 0-.584.04-.856.197v.079c-.272.079-.545.197-.856.276v.078h-.272v.08h-.194v.078c-.117.04-.234.079-.39.079v.078c-.116.04-.233.08-.388.08v.078h-.195v.079h-.194v.078h-.195v.08h-.194v.078h-.195v.079h-.194v.078h-.195l-.194.197h-.195c-.039.08-.078.119-.078.197h-.194v.08c-.117.038-.234.078-.39.078-.038.079-.077.118-.077.197h-.194c-.04.078-.078.118-.078.197-.117.039-.234.078-.39.078v.08c-.077.039-.194.078-.271.078-.04.079-.078.118-.078.197-.117.04-.234.079-.39.079-.077.078-.116.196-.194.275h-.194c-.04.079-.078.118-.078.197h-.194c-.078.118-.195.236-.273.394h-.194c-.078.079-.117.197-.195.276h-.194c-.078.118-.195.236-.273.393h-.194c-.117.158-.233.315-.389.473h-.194c-.078.118-.195.236-.273.394h-.194c-.117.157-.234.315-.39.472-.077.04-.194.08-.272.08-.077.117-.194.235-.272.393h-.078v.197c-.077.04-.116.079-.194.079v.197c-.078.039-.117.078-.195.078-.038.118-.077.237-.077.394-.078.04-.117.079-.195.079-.078.276-.117.551-.194.866h-.078c.039.237.078.433.078.67h.077v.551c-.233.118-.155.158-.544.197-.117-.118 0-.04-.195-.079-.077-.079-.116-.197-.194-.275h-.078c-.078-.276-.194-.552-.272-.867H190v-1.22h.078v-.276h.078c.038-.197.077-.394.077-.552h.078c.04-.118.078-.236.078-.393.078-.04.117-.08.194-.08v-.196c.117-.079.234-.197.39-.276v-.197c.233-.236.505-.433.739-.67.116-.157.233-.314.388-.472.078-.04.195-.079.273-.079.078-.118.194-.236.272-.393h.195c.038-.08.077-.118.077-.197h.195c.078-.079.117-.197.194-.276h.195c.039-.079.078-.118.078-.197h.194c.039-.079.078-.118.078-.197.194-.078.389-.118.544-.197.04-.078.078-.118.078-.197h.195l.194-.196h.195v-.08h.194v-.078h.195v-.079h.194v-.078h.195v-.08c.194-.078.389-.117.544-.196v-.079h.273v-.079c.116-.039.233-.078.389-.078v-.08h.272v-.078c.116-.04.233-.079.389-.079v-.078h.272v-.08h.195v-.078c.155-.04.31-.079.466-.079v-.079h.273v-.078h.194v-.079c.156-.04.311-.079.467-.079v-.079c.194-.039.389-.078.544-.078v-.08h.195v-.078c.272-.079.545-.118.856-.197v-.079h.194v-.078c.35-.08.7-.197 1.012-.276-.04-.236-.117-.354-.273-.473v-.078c-.233-.04-.428-.08-.661-.08v-.078h-.389v-.079h-.389v-.078h-.389v-.08h-.467v-.078h-.544v-.079h-.467v-.078h-.661v-.08h-.934v-.078h-.544v-.079h-.39v-.078h-.272v-.08h-.272v-.078c-.117-.04-.233-.079-.389-.079v-.078h-.272c-.04-.08-.078-.119-.078-.197-.117-.04-.233-.08-.389-.08-.195-.235-.389-.432-.545-.669-.116-.078-.233-.197-.389-.275v-.197c-.077-.079-.194-.118-.272-.197-.039-.118-.078-.236-.078-.394h-.077c-.04-.236-.078-.433-.078-.67-.117-.354-.35-1.417-.195-1.968.234-.552.428-1.143.662-1.694.077-.04.116-.079.194-.079.078-.197.117-.393.194-.551.078-.04.117-.079.195-.079v-.197h.078c.039-.078.078-.197.078-.275.077-.04.116-.08.194-.08v-.196c.078-.04.117-.079.195-.079v-.197c.077-.039.116-.078.194-.078.039-.08.078-.197.078-.276.078-.079.194-.118.272-.197v-.197c.156-.118.311-.236.467-.394v-.197c.272-.236.544-.512.856-.748.077-.118.194-.236.272-.394h.194c.078-.078.117-.197.195-.275h.194c.078-.08.117-.197.195-.276h.194c.078-.079.117-.197.195-.276h.194c.078-.078.117-.197.195-.275h.194c.04-.08.078-.118.078-.197.078-.04.195-.079.272-.079v-.079h.195c.039-.079.078-.118.078-.197.116-.039.233-.078.389-.078.039-.08.077-.119.077-.197h.195c.039-.08.078-.118.078-.197h.194c.04-.079.078-.118.078-.197.156-.04.311-.079.467-.079.078-.079.117-.197.194-.276h.195l.194-.196h.195v-.08h.194v-.078h.195v-.079h.194v-.079h.195v-.078h.194v-.079c.195-.079.39-.118.545-.197v-.079h.272v-.078c.195-.08.39-.119.545-.197v-.08c.7-.314 1.439-.63 2.139-.944.35-.079.7-.118 1.011-.197v-.079h.39v-.079h.544v-.078h.467v-.08h.739V21h1.478v.079c.544.04 1.05.079 1.595.079v.078h.272c.039.079.078.118.078.197h.194c.04.079.078.118.078.197h.195c.038.079.077.118.077.197.117.079.234.197.39.276v.197c.077.039.116.078.194.078v.197h.078v.276h.077v.472h.078v1.143H214c0 .118-.078-.04-.078.078v.945h-.078v.473h-.077v.276h-.078v.394h-.078v.196h-.078c-.039.158-.078.315-.078.473h-.077c-.04.079-.078.197-.078.276-.078.039-.117.078-.195.078v.197c-.077.08-.194.118-.272.197v.197c-.078.079-.194.118-.272.197v.079c-.078.04-.117.079-.195.079v.196c-.116.08-.233.197-.389.276.273.236.234.433.195.59zM54.326 45.925c.114.039.227.078.379.078v.078c.379.157 1.06-.117 1.288-.195h.265v-.079h.19v-.078c.189-.078.378-.118.53-.196.34-.313.681-.626.984-.94v-.195c.076-.04.114-.079.19-.079.038-.078.076-.196.076-.274h.075v-.196c.152-.117.303-.235.455-.391v-.196c.114-.078.227-.196.379-.274v-.196c.075-.078.189-.117.265-.196v-.195c.113-.079.227-.196.379-.274v-.196c.113-.079.227-.196.378-.274v-.196c.114-.078.228-.196.38-.274v-.196c.075-.078.189-.118.264-.196V40.6c.076-.078.19-.117.265-.195v-.196c.076-.078.19-.118.266-.196v-.196c.075-.039.113-.078.189-.078v-.196c.076-.039.114-.078.19-.078v-.196c.075-.04.113-.078.189-.078v-.196c.075-.04.113-.078.19-.078v-.196c.075-.04.113-.078.188-.078v-.196c.076-.079.19-.118.266-.196.038-.078.075-.196.075-.274.228-.196.417-.392.644-.548.568 0 .644.235 1.099.274-.038.196-.076.391-.076.548-.076.04-.114.078-.19.078-.037.118-.075.235-.075.392-.076.039-.114.078-.19.078v.196c-.075.078-.189.117-.265.196v.196c-.075.039-.113.078-.19.078v.196c-.075.078-.188.117-.264.195v.196c-.076.04-.114.079-.19.079v.195c-.075.04-.113.079-.189.079-.038.078-.076.195-.076.274-.075.078-.19.117-.265.195v.196c-.114.079-.227.196-.379.274-.038.079-.075.196-.075.274-.076.04-.114.079-.19.079v.196c-.113.078-.227.195-.379.274v.195c-.151.118-.303.235-.454.392v.196c-.152.117-.303.235-.455.391v.196c-.378.353-.72.705-1.098 1.018v.196c-.265.235-.53.509-.833.744-.152.196-.303.392-.455.548-.076.04-.114.078-.19.078v.196c-.264.235-.53.51-.833.744v.196h-.075c-.114.157-.228.313-.38.47h-.189v.078c-.113.079-.189.079-.265.196-.72 0-1.288-.117-1.818-.274h-.379c-.265-.196-.53-.392-.833-.548v-.196c-.113-.078-.227-.196-.379-.274v-.196c-.075-.04-.113-.078-.189-.078-.038-.118-.076-.235-.076-.392-.076-.039-.113-.078-.19-.078-.037-.118-.075-.235-.075-.392h-.076v-.195h-.075c-.076-.196-.114-.392-.19-.549h-.076v-.274c-.492-1.174-1.06-2.82-.643-4.424v-.94h.075v-.47h.076c.038-.235.076-.43.076-.666h.076v-.274h.075v-.274h.076v-.196h.076c.038-.196.076-.391.076-.548h.075v-.196h.076v-.274h.076v-.196h.076v-.195h.075v-.196h.076v-.274h.076c.076-.196.113-.392.19-.548h.075v-.196h.076v-.196h.075v-.196l.19-.196v-.195c.076-.04.114-.079.19-.079.037-.117.075-.235.075-.391.076-.04.114-.079.19-.079v-.195c.075-.04.113-.079.189-.079v-.195h.076c.037-.079.075-.196.075-.275.076-.039.114-.078.19-.078v-.196c.075-.039.113-.078.19-.078.037-.078.075-.196.075-.274.113-.078.227-.196.379-.274v-.196c.075-.04.113-.078.189-.078v-.196c.114-.078.227-.196.379-.274v-.196c.113-.078.227-.196.379-.274v-.196c.151-.117.303-.235.454-.391v-.196c.19-.157.379-.313.53-.47v-.196c.152-.117.303-.235.455-.391v-.196c.227-.235.492-.43.72-.666V27.6c.303-.274.606-.548.909-.861v-.196c.151-.117.303-.235.454-.391.038-.079.076-.118.076-.196h.19c.075-.118.189-.235.264-.392h.19c.076-.078.113-.196.19-.274h.189c.075-.078.113-.196.189-.274h.19c.037-.078.075-.117.075-.196h.19c.037-.078.075-.117.075-.196.076-.039.19-.078.265-.078v-.078c.114-.04.228-.078.38-.078v-.079c.075-.039.189-.078.264-.078.038-.078.076-.118.076-.196.114-.039.227-.078.379-.078.038-.078.076-.118.076-.196.113-.04.227-.078.378-.078.038-.079.076-.118.076-.196h.19v-.078h.189l.19-.196h.189c.038-.078.075-.118.075-.196h.19v-.078h.19v-.079h.189l.189-.195h.19c.037-.079.075-.118.075-.196h.19c.303-.196.53-.43.984-.47.152.235.493.352.644.548v.196c.076.078.19.117.265.196.038.078.076.196.076.274.076.039.114.078.19.078v.196c.075.04.113.078.189.078.038.079.076.196.076.274h.075c.038.118.076.235.076.392.076.04.114.078.19.078v.196l.189.196v.196h.076v.195h.075v.196h.076v.196H68v.94c-.19.156-.076.235-.19.391-.113.079-.227.196-.378.274v.079h-.19v.078c-.151.04-.303.078-.454.078v.079h-.265v.078h-.265v.078h-.266v.079h-.265v.078h-.265v.078h-.265v.078h-.379v.079c-.113.039-.227.078-.378.078v.078c-.152.04-.304.079-.455.079-.038.078-.076.117-.076.196-.113.039-.227.078-.379.078-.037.078-.075.117-.075.196h-.19c-.075.078-.113.195-.19.274h-.188c-.341.391-.682.744-.985 1.135-.228.157-.417.314-.644.47v.196c-.076.04-.114.078-.19.078-.075.079-.113.196-.189.274h-.19c-.265.314-.53.627-.833.94-.151.118-.303.235-.454.392v.195c-.265.235-.53.51-.834.744-.075.118-.189.235-.265.392-.075.04-.113.078-.189.078-.038.079-.076.196-.076.274-.303.274-.606.549-.909.862v.196c-.19.156-.379.313-.53.47v.195c-.076.079-.19.118-.265.196v.196c-.076.039-.114.078-.19.078-.038.118-.075.235-.075.392-.076.039-.114.078-.19.078v.196l-.19.196v.195h-.075v.196h-.076v.196h-.075v.196h-.076c-.076.196-.114.391-.19.548h-.075c-.038.157-.076.313-.076.47h-.076v.196h-.076v.274h-.075v.195h-.076c-.038.196-.076.392-.076.549h-.076v.274h-.075v.274h-.076v.274h-.076v.274h-.076v.392h-.075v.274h-.076c-.152.391-.455 2.232-.265 2.819.19.509.378.822.454 1.175zM84.59 35.371h-.197c-.079.235-.158.313-.276.47h-.079v.195c-.079.04-.118.078-.197.078v.196c-.08.039-.119.078-.198.078v.195c-.079.04-.118.079-.197.079v.195l-.198.196v.195h-.078v.196h-.08c-.039.117-.078.234-.078.39h-.08v.196h-.078v.196h-.08c-.078.195-.118.39-.197.547h-.079c-.394 1.173-.829 2.385-1.223 3.558-.277.82-.356 3.05.276 3.48.158.156.829.312 1.224.195v-.078h.473v-.078h.277v-.079c.197-.078.395-.117.553-.195v-.078h.197c.04-.078.079-.118.079-.196.079-.039.197-.078.276-.078.158-.195.316-.39.474-.547.079-.04.118-.079.197-.079v-.195c.08-.078.198-.117.277-.195v-.196c.079-.078.197-.117.276-.195v-.196c.079-.078.197-.117.276-.195v-.196c.119-.078.237-.195.395-.274.04-.078.08-.195.08-.273.078-.04.118-.078.197-.078v-.196c.118-.078.236-.195.394-.274v-.195c.08-.078.198-.117.277-.196v-.195c.118-.078.237-.196.394-.274v-.195c.119-.078.237-.196.395-.274v-.195c.08-.079.198-.118.277-.196v-.195c.079-.04.118-.079.197-.079.04-.078.079-.195.079-.273h.079v-.196c.079-.078.197-.117.276-.195v-.196c.08-.039.119-.078.198-.078v-.195h.079c.04-.079.079-.196.079-.274.078-.04.118-.078.197-.078v-.196c.079-.078.197-.117.276-.195.04-.079.08-.196.08-.274.236-.196.433-.391.67-.547.593 0 .671.234 1.145.273-.04.665-.395.821-.67 1.212v.196h-.08c-.04.078-.079.195-.079.273-.079.04-.118.079-.197.079v.195c-.08.078-.198.117-.277.196v.195c-.079.04-.118.078-.197.078v.196c-.079.039-.118.078-.197.078-.04.078-.08.196-.08.274-.078.078-.197.117-.276.195v.196c-.118.078-.237.195-.394.273-.04.079-.08.196-.08.274-.078.04-.118.078-.197.078v.196c-.118.078-.237.195-.395.273v.196c-.197.156-.394.313-.552.47v.195c-.08.039-.119.078-.198.078v.078c-.079.078-.197.117-.276.195v.196c-.395.39-.829.743-1.224 1.134v.195c-.276.235-.553.509-.868.743-.158.196-.316.391-.474.548-.08.039-.119.078-.197.078v.195c-.237.235-.514.43-.75.665v.195h-.08c-.078.118-.197.235-.276.391h-.197v.079c-.119.078-.198.078-.277.195-.868 0-1.658-.117-2.29-.391-.157-.04-.315-.078-.473-.078-.316-.352-.632-.704-.948-1.017v-.195c-.079-.04-.118-.078-.197-.078-.04-.118-.079-.235-.079-.391-.079-.04-.118-.079-.197-.079-.04-.117-.08-.234-.08-.39h-.078c-.04-.118-.08-.235-.08-.392h-.078v-.273c-.513-1.212-1.224-2.893-.75-4.496v-1.017c.355-1.017.71-2.072 1.026-3.089h.08c.039-.117.078-.234.078-.39h.08v-.196h.078c.04-.157.079-.313.079-.47.079-.038.118-.078.197-.078v-.273h.08v-.196h.078v-.195c.08-.04.119-.078.198-.078.079-.196.118-.391.197-.548.079-.039.118-.078.197-.078.04-.117.08-.235.08-.39.078-.04.118-.08.197-.08v-.195c.079-.039.118-.078.197-.078v-.195c.08-.079.198-.118.277-.196v-.195c.078-.078.197-.118.276-.196v-.195c.118-.078.237-.196.395-.274v-.195c.079-.04.118-.079.197-.079v-.195c.118-.078.237-.196.395-.274v-.195c.118-.078.237-.196.395-.274v-.195c.158-.118.315-.235.473-.391v-.196c.08-.039.119-.078.198-.078.079-.117.197-.235.276-.391h.08v-.196c.157-.234.354-.156.473-.547h.197c.08-.352.356-.508.553-.743h.079v-.195c.079-.04.118-.079.197-.079.119-.156.237-.312.395-.469.079-.078.197-.117.276-.195v-.196c.08-.078.198-.117.277-.195.04-.078.079-.117.079-.196h.197c.119-.156.237-.312.395-.469h.197c.08-.078.119-.195.198-.273h.197c.04-.079.079-.118.079-.196h.197c.04-.078.08-.117.08-.195h.197c.04-.079.079-.118.079-.196h.197c.04-.078.08-.117.08-.195h.196c.04-.079.08-.118.08-.196h.197c.04-.078.079-.117.079-.195.118-.04.237-.079.395-.079.039-.078.078-.117.078-.195.119-.04.237-.078.395-.078.04-.079.08-.118.08-.196.118-.039.236-.078.394-.078.04-.078.079-.117.079-.195h.197v-.079h.198v-.078h.197l.198-.195h.197c.04-.079.079-.118.079-.196h.197v-.078h.198l.197-.196h.197c.04-.078.08-.117.08-.195h.197c.276-.156.434-.313.868-.391.158.235.435.274.553.47v.195c.118.078.237.195.395.273v.196c.079.078.197.117.276.195v.196c.08.039.119.078.198.078.039.117.079.235.079.391.078.04.118.078.197.078.079.196.118.391.197.548h.08v.195c.078.04.118.078.197.078v.196h.079c.197.352.197.703.197 1.212h-.079v.273c-.079.04-.118.079-.197.079v.195c-.08.078-.198.117-.277.196v.078h-.276v.078h-.197v.078h-.277v.078H94.5v.079c-.316.078-.632.117-.948.195v.078h-.197v.078h-.395v.079h-.276v.078h-.198v.078c-.276.078-.552.196-.868.274-.04.078-.08.117-.08.195-.118.04-.236.078-.394.078-.079.079-.118.196-.197.274h-.198c-.079.078-.118.196-.197.274-.197.156-.395.313-.553.469-.158.195-.316.39-.473.547h-.198c-.276.313-.553.626-.868.939-.593.547-1.185 1.134-1.816 1.68v.196c-.395.391-.83.743-1.224 1.134v.196c-.08.039-.119.078-.198.078v.078c-.197.43-.513.547-.631.938zM142.686 26.243c-.078-.038-.116-.077-.193-.077v-.27c-.077-.038-.116-.077-.193-.077-.039-.116-.077-.231-.077-.386-.077-.077-.193-.115-.27-.193v-.193c-.077-.038-.116-.077-.193-.077v-.193h-.077c-.039-.077-.077-.192-.077-.27-.078-.038-.116-.077-.193-.077v-.193c-.155-.115-.309-.231-.463-.385v-.193c-.579-.54-1.157-1.119-1.774-1.659-.926 0-1.581.424-2.237.733-.154.039-.309.077-.463.077-.038.077-.077.116-.077.193-.077.039-.193.077-.27.077v.077c-.193.077-.386.116-.54.193v.077c-.077.039-.193.077-.27.077-.039.078-.077.116-.077.193h-.193c-.038.077-.077.116-.077.193-.116.039-.231.077-.386.077-.038.078-.077.116-.077.193h-.193c-.077.077-.115.193-.193.27h-.192c-.078.077-.116.193-.193.27h-.193c-.077.077-.116.193-.193.27h-.193c-.077.077-.115.193-.193.27-.077.078-.192.116-.27.193v.077h-.192c-.155.193-.309.386-.463.54h-.193c-.193.232-.386.425-.54.656h-.193c-.231.27-.501.54-.733.849h-.192c-.232.231-.425.501-.656.733h-.193c-.231.231-.424.501-.656.733h-.192c-.386.424-.81.848-1.196 1.311h-.193c-.038.077-.077.116-.077.193-.193.155-.386.309-.54.463v.193c-.424.386-.848.81-1.311 1.196v.193c-.232.193-.425.385-.656.54v.193c-.193.154-.386.308-.54.463v.192c-.193.155-.386.31-.54.463v.193c-.154.116-.308.232-.463.386v.193c-.077.038-.115.077-.192.077v.077c-.078.039-.116.077-.193.077-.039.116-.077.232-.077.386-.078.039-.116.077-.193.077-.039.116-.077.232-.077.386h-.078c-.077.193-.115.386-.192.54h-.078c-.038.193-.077.386-.077.54h-.077v.193h-.077v.27h-.077v.27h-.077v.27h-.077v.386h-.078v.386h-.077v.385h-.077c-.038.425-.077.849-.077 1.312-.077.27-.193 1.929-.077 2.314h.077v.386h.077c.039.116.077.232.077.386h.077v.193h.078c.115.154.192.231.27.463.385.115.308.308.54.463h.192c.039.077.078.115.078.193.23.077.424.115.655.192.193.232.386.425.54.656.077.077.193.116.27.193v.077h.193c.386.386.733.81 1.118 1.196.27.154.54.309.849.463.81-.039 1.62-.309 2.121-.656.039-.077.077-.116.077-.193h.193c.039-.077.077-.115.077-.193h.193c.077-.077.116-.192.193-.27h.193c.038-.077.077-.115.077-.192.077-.039.193-.078.27-.078v-.077h.193c.077-.077.115-.193.193-.27h.192c.078-.077.116-.193.193-.27h.193c.039-.077.077-.116.077-.193h.193c.077-.077.116-.193.193-.27h.193c.077-.077.115-.193.193-.27h.192c.078-.077.116-.193.193-.27h.193c.077-.077.116-.193.193-.27.077-.038.193-.077.27-.077.038-.077.077-.116.077-.193h.193c.077-.077.116-.193.193-.27h.193c.038-.077.077-.116.077-.193.077-.038.193-.077.27-.077.077-.116.192-.231.27-.386h.192c.078-.115.193-.231.27-.385h.193c.155-.193.309-.386.463-.54h.193c.27-.31.54-.618.848-.926.386-.347.81-.695 1.196-1.003v-.193c.193-.154.386-.309.54-.463v-.193c.077-.038.116-.077.193-.077v-.193c.193-.154.386-.309.54-.463v-.193c.115-.077.231-.193.385-.27v-.193c.078-.077.193-.115.27-.193v-.192c.116-.078.232-.193.386-.27v-.193c.116-.077.232-.193.386-.27.27-.386.424-.772.848-1.003-.038-.232-.038-.232-.077-.386h-.54v-.077h-.385c-.04.077-.078.193-.078.27-.077.077-.192.116-.27.193-.115.154-.231.308-.385.463-.193.154-.386.308-.54.463-.077.077-.116.192-.193.27h-.193c-.077.077-.116.192-.193.27-.115.038-.231.077-.385.077-.078.115-.193.231-.27.385h-.193c-.039.078-.077.116-.077.193h-.193c-.077.078-.116.193-.193.27h-.193c-.038.078-.077.116-.077.193-.077.039-.193.077-.27.077v.078h-.193c-.038.077-.077.115-.077.192-.077.039-.193.078-.27.078v.077h-.193c-.038.077-.077.115-.077.193h-.193c-.077.077-.115.193-.193.27h-.192c-.039.077-.078.115-.078.193-.115.038-.231.077-.385.077-.039.077-.077.115-.077.193-.078.038-.193.077-.27.077v.077c-.116.038-.232.077-.386.077-.039.077-.077.116-.077.193-.077.038-.193.077-.27.077v.077h-.193v.077h-.193c-.038.078-.077.116-.077.193-.193.077-.386.116-.54.193-.038.077-.077.116-.077.193-.193.077-.386.116-.54.193-.039.077-.077.116-.077.193-.193.077-.386.115-.54.193-.039.077-.077.115-.077.192h-.193l-.193.193h-.193v.078h-.193c-.038.077-.077.115-.077.192h-.193l-.192.193h-.193v.077c-.116.039-.232.078-.386.078-.038.077-.077.115-.077.192-.347.116-.694.232-1.003.386-.038.077-.077.116-.077.193h-.193v.077h-.193v.077h-.27v.078h-.192v.077h-.27v.077h-.386v.077h-.193v.077h-.27c-.501.193-1.08.309-1.851.27-.116-.154-.386-.27-.463-.463-.154-.424.347-1.273.463-1.466.308-.694.617-1.427.925-2.121.078-.039.116-.077.193-.077.039-.116.077-.232.077-.386.078-.039.116-.077.193-.077v-.193c.077-.039.116-.077.193-.077.039-.116.077-.232.077-.386.077-.039.116-.077.193-.077v-.193c.077-.039.116-.077.193-.077.038-.116.077-.232.077-.386.077-.039.116-.077.193-.077v-.193c.501-.54 1.003-1.042 1.465-1.582h.193c.039-.077.077-.115.077-.193h.27v-.077h.193v-.077c.232-.038.425-.077.656-.077v-.077h.386v-.077h.462v-.077h.463v-.078h.27v-.077h.386v-.077c.347-.077.694-.116 1.003-.193v-.077c.27-.077.54-.116.848-.193v-.077h.193v-.077h.27v-.077c.27-.077.54-.116.848-.193v-.077h.193v-.077h.27v-.078c.193-.077.386-.115.54-.192v-.078h.193v-.077c.193-.077.386-.116.54-.193.039-.077.077-.115.077-.193h.193c.039-.077.077-.115.077-.192.193-.078.386-.116.54-.193.039-.077.077-.116.077-.193h.193c.039-.077.077-.116.077-.193h.193c.039-.077.077-.116.077-.193h.193c.039-.077.077-.116.077-.193.077-.038.193-.077.27-.077v-.077c.116-.039.232-.077.386-.077.038-.077.077-.116.077-.193h.193c.038-.077.077-.116.077-.193h.193c.038-.077.077-.116.077-.193h.193v-.077c.077-.039.193-.077.27-.077.038-.077.077-.116.077-.193h.193c.038-.077.077-.116.077-.193.077-.039.193-.077.27-.077.077-.077.115-.193.193-.27h.192c.232-.232.425-.502.656-.733h.077v-.193h.193v-.077c.077-.077.193-.116.27-.193v-.193c.193-.154.386-.308.54-.463v-.193c.077-.077.193-.115.27-.193v-.192c.077-.078.193-.116.27-.193v-.193c.077-.039.116-.077.193-.077.038-.116.077-.232.077-.386h.077c.039-.502-.116-1.312-.308-1.582zm-2.777 1.852h-.078v.193c-.385.386-.732.81-1.118 1.196h-.193c-.154.193-.308.385-.463.54h-.192c-.078.115-.193.231-.27.385h-.193c-.077.078-.116.193-.193.27h-.193c-.077.078-.116.193-.193.27h-.193c-.077.078-.115.193-.192.27h-.193c-.077.116-.193.232-.27.386h-.193c-.077.077-.116.193-.193.27h-.193c-.077.078-.116.193-.193.27-.115.039-.231.078-.385.078-.039.077-.077.115-.077.192-.116.039-.232.078-.386.078-.039.077-.077.115-.077.192h-.193l-.193.193h-.193v.077h-.193v.078h-.192v.077h-.193v.077c-.193.077-.386.116-.54.193v.077c-.155.039-.309.077-.463.077v.077c-.116.039-.231.077-.386.077v.078h-.27v.077c-.115.038-.231.077-.385.077v.077h-.27v.077h-.193v.077c-.193.039-.386.077-.54.077v.078h-.193v.077c-.231.038-.424.077-.656.077v.077c-.347 0-.54 0-.732-.077.038-.309.038-.54.192-.733.078-.077.193-.116.27-.193v-.193c.077-.038.116-.077.193-.077v-.077c.077-.077.193-.116.27-.193.039-.077.077-.193.077-.27.232-.193.347-.116.463-.463.309-.077.694-.54.926-.733.038-.077.077-.116.077-.193h.193c.154-.193.308-.385.463-.54h.192c.116-.154.232-.308.386-.463h.193c.077-.115.193-.231.27-.385h.193c.077-.116.193-.232.27-.386h.193c.077-.116.192-.232.27-.386h.192c.077-.116.193-.231.27-.386h.193c.077-.077.116-.193.193-.27h.193c.077-.115.193-.231.27-.385h.193c.038-.078.077-.116.077-.193h.077c.038-.077.077-.116.077-.193h.193c.038-.077.077-.116.077-.193h.193c.077-.077.116-.193.193-.27.077-.039.193-.077.27-.077.038-.077.077-.116.077-.193h.193c.038-.077.077-.116.077-.193h.193c.077-.077.115-.193.192-.27h.193c.039-.077.077-.116.077-.193h.193c.039-.077.077-.116.077-.193h.193c.039-.077.077-.116.077-.193h.193c.039-.077.077-.115.077-.193h.193l.193-.192h.193v-.078h.193v-.077c.154-.038.308-.077.463-.077v-.077c.192.154.23.424.462.54.232.849.386 1.736.155 2.276zM119 36.966v.391h-.078v.196c-.078.078-.195.117-.273.196v.195h-.078c-.078.118-.194.235-.272.392h-.195c-.117.156-.234.313-.39.47h-.195c-.039.077-.078.116-.078.195h-.195c-.077.117-.194.235-.272.391-.234.235-.507.43-.74.665v.196c-.157.117-.312.235-.468.391v.196c-.351.313-.702.626-1.014.939v.195c-.194.157-.39.313-.545.47v.196c-.156.117-.312.234-.468.39v.196c-.078.079-.195.118-.272.196v.196c-.117.078-.234.195-.39.274v.195c-.234.235-.507.43-.74.665-.078.079-.117.196-.195.274h-.195c-.117.157-.234.313-.39.47h-.195c-.078.078-.117.195-.195.274h-.194c-.04.078-.078.117-.078.195-.117.04-.234.079-.39.079v.078c-.078.039-.117.078-.195.078v.196c-.156.117-.312.235-.467.391v.196c-.078.039-.117.078-.195.078v.196c-.078.078-.195.117-.273.195-.078.078-.117.196-.195.274-.39.274-.857.274-1.48.274v-.078c-.157-.04-.312-.079-.468-.079v-.078h-.273v-.078h-.195c-.039-.078-.078-.117-.078-.196h-.195c-.039-.078-.078-.117-.078-.195h-.195v-.079c-.077-.078-.194-.117-.272-.195v-.196c-.078-.039-.117-.078-.195-.078v-.196c-.078-.039-.117-.078-.195-.078v-.196c-.078-.039-.117-.078-.195-.078v-.274h-.078v-.195h-.078v-.274h-.078v-.665h-.078c-.116-.43 0-2.505.078-2.818h.078v-.39h.078c.078-.314.117-.627.195-.94h.078v-.196h.078v-.273h.078c.039-.157.078-.313.078-.47h.078v-.196h.078v-.273h.078c.078-.196.117-.392.194-.548h.078v-.196h.078v-.196h.078c.078-.195.117-.39.195-.547.078-.04.117-.079.195-.079.039-.117.078-.234.078-.39.078-.04.117-.08.195-.08.039-.116.078-.234.078-.39.117-.079.234-.196.39-.274v-.196c.077-.078.194-.117.272-.196v-.195c.117-.078.234-.196.39-.274v-.196c.117-.078.234-.195.39-.274v-.195c.077-.04.116-.078.194-.078v-.196c.078-.04.117-.078.195-.078v-.196l.195-.196v-.195h.078v-.196h.078v-.196c.078-.039.117-.078.195-.078v-.391h.078v-.196h.078v-.391h.078v-.391h.077v-.548h.078v-3.365h.078v-.391h.078v-.196h.078c.156-.352.04-.548.468-.665.195-.157 1.403 0 1.675.078v.078h.273v.079h.468v.078c.195.078.39.117.545.196v.078c.195.039.39.078.546.078.039.078.078.118.078.196h.273v.078h.195v.078h.194c.04.079.078.118.078.196h.195v.078h.195c.039.078.078.118.078.196h.195c.039.078.078.117.078.195h.195c.038.079.077.196.077.274.078.04.117.079.195.079v.273h-.078c-.039.157-.078.313-.078.47h-.078v.196c-.077.039-.116.078-.194.078v.196h-.078v.195h-.078v.196l-.195.195v.196c-.078.04-.117.078-.195.078-.039.118-.078.235-.078.392h-.078c-.039.078-.078.195-.078.273-.078.04-.117.079-.195.079v.195h-.077c-.04.079-.078.196-.078.274-.078.04-.117.079-.195.079v.195c-.078.078-.195.118-.273.196v.195c-.078.079-.195.118-.273.196v.196c-.078.078-.195.117-.273.195-.078.079-.116.196-.194.274h-.078v.196c-.195.156-.39.313-.546.47-1.325 1.8-2.884 3.325-4.208 5.164-.117.078-.234.196-.39.274v.196c-.078.078-.195.117-.273.195v.196c-.078.04-.117.078-.195.078v.196h-.078v.195l-.195.196v.196c-.077.039-.116.078-.194.078v.196c-.078.039-.117.078-.195.078v.196c-.078.039-.117.078-.195.078-.35.548-.468 1.056-.468 1.956.312.157.429.352.936.391v-.078h.39v-.078h.194v-.078h.273v-.079h.273v-.078h.272v-.078h.195v-.078h.273v-.079c.195-.078.39-.117.546-.195v-.078c.116-.04.233-.079.39-.079.038-.078.077-.117.077-.195h.195c.078-.079.117-.196.195-.274h.195c.039-.079.078-.118.078-.196.117-.039.233-.078.39-.078.038-.078.077-.118.077-.196h.195c.078-.078.117-.195.195-.274.117-.039.234-.078.39-.078.039-.078.078-.117.078-.196h.194c.04-.078.078-.117.078-.195h.195c.04-.078.078-.118.078-.196h.195c.039-.078.078-.117.078-.195h.195c.039-.079.078-.118.078-.196h.195c.038-.078.077-.118.077-.196.078-.039.195-.078.273-.078v-.078c.117-.04.234-.079.39-.079v-.078c.078-.039.195-.078.273-.078.039-.078.078-.117.078-.196h.194c.078-.117.195-.234.273-.39h.195c.078-.118.195-.236.273-.392.078-.04.117-.078.195-.078v-.196l.195-.196h.194c.117-.156.234-.313.39-.47h.195v-.078c.078-.039.195-.078.273-.078.039-.078.078-.117.078-.195h.194c.117-.157.234-.313.39-.47h.195c.039-.078.078-.117.078-.196.078-.039.195-.078.273-.078v-.078c.39-.47.428-.509.818-.548z"/>
                <text fill="#000" font-family="Helvetica" font-size="14">
                    <tspan x="215" y="40"></tspan>
                </text>
                <g fill="#E58E1A" stroke="#E58E1A" stroke-width="1.5">
                    <path d="M1.352 8.726H.27V.43h5.023C6.567.43 8.19.94 8.19 3.013c0 2.152-1.623 2.583-2.897 2.583h-3.94v3.13zM5.292 4.5c1.275 0 1.816-.47 1.816-1.487 0-1.056-.54-1.526-1.815-1.526h-3.94v2.974h3.94V4.5zM24.608 8.726h-1.352l-2.318-3.365h-3.631v3.365h-1.082V.43h5.1c1.506 0 3.129.587 3.129 2.466 0 1.565-1.314 2.308-2.202 2.387l2.356 3.443zm-3.283-4.46c1.043 0 2.047-.275 2.047-1.37 0-1.213-1.12-1.37-2.047-1.37h-4.018v2.778h4.018v-.039zM34.344 8.726L33.262 8.726 33.262.43 34.344.43zM52.926 8.726L51.844 8.726 51.844 2.191 51.805 2.191 48.367 7.63 44.929 2.191 44.89 2.191 44.89 8.726 43.808 8.726 43.808.43 44.89.43 48.328 5.87 51.767.43 52.848.43 52.848 8.726zM69.112 8.726L61.734 8.726 61.734.43 68.919.43 68.919 1.526 62.815 1.526 62.815 3.952 66.331 3.952 66.331 5.048 62.815 5.048 62.815 7.67 69.112 7.67zM91.287 3.913c1.584.04 3.206.744 3.206 2.426 0 1.409-.965 2.661-3.979 2.661-2.743 0-4.21-1.057-4.867-1.487l.54-.978c.619.47 1.893 1.37 4.289 1.37 2.086 0 2.974-.627 2.974-1.527 0-1.017-.965-1.33-1.893-1.37l-2.472-.078c-.966 0-2.82-.508-2.82-2.308 0-1.409 1.313-2.465 3.554-2.465 2.55 0 3.94.978 4.21 1.173l-.501.979c-1.043-.626-2.28-1.057-3.516-1.057-2.009 0-2.704.626-2.704 1.33 0 .94.811 1.214 1.661 1.253l2.318.078zM109.367 8.726L101.988 8.726 101.988.43 109.173.43 109.173 1.526 103.07 1.526 103.07 3.952 106.585 3.952 106.585 5.048 103.07 5.048 103.07 7.67 109.367 7.67zM126.365 8.726h-1.082l-1.198-2.074h-5.64l-1.198 2.074h-1.081L120.802.43h.927l4.636 8.296zm-5.1-7.2l-2.202 4.07h4.443l-2.24-4.07zM134.284 8.726L133.202 8.726 133.202.43 140.272.43 140.272 1.526 134.284 1.526 134.284 3.874 137.993 3.874 137.993 4.97 134.284 4.97zM153.06 9c-2.821 0-4.946-1.76-4.946-4.422 0-2.66 2.125-4.421 4.945-4.421 2.82 0 4.945 1.76 4.945 4.421 0 2.622-2.125 4.422-4.945 4.422zm3.862-4.422c0-1.76-1.506-3.326-3.863-3.326-2.356 0-3.863 1.565-3.863 3.326 0 1.761 1.507 3.326 3.863 3.326 2.357 0 3.863-1.565 3.863-3.326zM170.443 9c-2.82 0-4.944-1.76-4.944-4.422 0-2.66 2.124-4.421 4.944-4.421s4.945 1.76 4.945 4.421c0 2.622-2.163 4.422-4.945 4.422zm3.864-4.422c0-1.76-1.507-3.326-3.864-3.326-2.356 0-3.863 1.565-3.863 3.326 0 1.761 1.507 3.326 3.863 3.326 2.357 0 3.864-1.565 3.864-3.326zM187.79.43c2.665 0 4.017 1.879 4.017 4.148 0 2.27-1.352 4.148-4.018 4.148h-4.597V.43h4.597zm0 7.2c1.776 0 2.935-1.252 2.935-3.052s-1.159-3.052-2.897-3.052h-3.554V7.67h3.515v-.04z" transform="translate(11 60)"/>
                </g>
            </g>
        </g>
    </g>
</svg>
