<svg xmlns="http://www.w3.org/2000/svg" width="94" height="66" viewBox="0 0 94 66">
    <g fill="none" fill-rule="evenodd">
        <g fill-rule="nonzero">
            <g>
                <g fill="#6C481A">
                    <path d="M.828 5.494c-.552 0-.722-.196-.722-.785 0-.13 0-.414.021-.894 0-.327.022-.632.022-.894L.127 1.766C.127.98.107.85.042.436.276.392.34.371.488.371c.488 0 .7.218.7.74v.044l-.02.829V4.01c0 .654.02.872.063 1.461-.191 0-.276.022-.403.022zM4.52 5.581c-.87 0-1.591-.458-1.591-1.003 0-.283.19-.458.615-.567.149.633.488.982.976.982.425 0 .743-.306.743-.698 0-.327-.19-.61-.53-.829l-.85-.545c-.487-.305-.763-.74-.763-1.308 0-.872.636-1.417 1.676-1.417.785 0 1.422.327 1.422.785 0 .196-.085.305-.446.589-.254-.567-.594-.85-1.04-.85-.381 0-.636.261-.636.61 0 .283.19.523.594.785 1.061.632 1.316.872 1.464 1.33.043.152.085.327.085.501.022 1.025-.679 1.635-1.719 1.635zM10.441 5.472H8.66c-.446 0-.637-.218-.637-.763 0-.153 0-.414.021-.785 0-.152.021-.436.021-.872V2.29c0-.894-.042-1.526-.106-1.918.191-.022.276-.044.403-.044.573 0 .786.262.786.96 0 .174 0 .392-.022.632-.02.392-.042.98-.042 1.83v.175c0 .589.021.763.085.85.064.088.19.11.467.11.573 0 .849-.066 1.316-.262v.218c-.022.458-.149.632-.51.632zM15.747 5.472c-.191 0-.382-.043-.51-.109-.254-.13-.36-.349-.509-.916-.021-.13-.085-.327-.17-.632l-.042-.13h-1.252l-.043.13c-.212.72-.276.96-.276 1.243 0 .153 0 .218.064.37-.19.044-.255.044-.382.044-.34 0-.51-.13-.51-.37 0-.088.022-.175.043-.262.043-.11.17-.436.425-1.047.02-.065.148-.392.34-.937l.339-.96.34-.98.042-.153c-.064-.153-.085-.196-.17-.349.255-.087.34-.087.552-.087.233 0 .403.044.488.109.17.13.212.262.467 1.308.063.262.17.632.34 1.177.17.524.275.916.36 1.134.234.676.297.872.51 1.352-.192.043-.276.065-.446.065zm-1.825-3.924l-.488 1.613h.955l-.467-1.613zM21.753.872l-.064.96c-.021.392-.043 1.307-.043 2.158 0 .654.022.828.085 1.33-.212.13-.382.174-.594.174-.148 0-.297-.044-.403-.13-.17-.132-.255-.284-.7-1.09-.106-.197-.276-.459-.488-.808l-.489-.784-.53-.829-.127-.196v1.221c0 .545.02.959.042 1.504.042.589.042.698.127 1.025-.17.043-.254.043-.36.043-.34 0-.489-.13-.489-.457 0-.066.022-.284.085-1.112.022-.393.043-.633.043-1.962v-.524-.544c-.128-.175-.149-.219-.319-.35.255-.152.467-.218.764-.218.213 0 .382.044.489.131.17.131.254.262.742 1.09.17.284.53.85.955 1.526l.446.698.127.196v-.981c0-.763 0-1.003-.042-1.613-.021-.567-.043-.632-.128-.96.17-.043.255-.043.361-.043.34 0 .488.13.488.436.043.065.043.087.022.11zM26.591 4.993c-.424.348-1.06.523-1.889.523-.785 0-1.018-.153-1.018-.676 0-.262.021-.676.042-1.243 0-.152.021-.37.021-.654 0-.85-.02-1.373-.042-1.722-.021-.305-.042-.458-.149-.807.234-.065.34-.087.51-.087.318 0 .403.044.53.218.382-.24.552-.283.998-.283 1.167 0 1.889.893 1.889 2.376 0 1.003-.319 1.897-.892 2.355zM25.275.828c-.19 0-.297.022-.509.131.043.327.043.414.043.807v.218l-.022 1.613v.414c0 .916.022.982.34.982.721 0 1.294-.96 1.294-2.224-.02-1.178-.466-1.94-1.146-1.94zM35.526 3.205c-.043 0-.106 0-.255-.022.191.262.255.392.255.698 0 .959-.828 1.722-1.868 1.722-1.188 0-1.889-.894-1.889-2.42 0-1.831.828-2.921 2.229-2.921.7 0 1.315.348 1.315.74 0 .175-.084.328-.34.546-.19-.458-.466-.676-.87-.676-.784 0-1.209.829-1.209 2.311 0 1.2.319 1.81.913 1.81.445 0 .785-.437.785-1.025 0-.48-.212-.763-.53-.763-.064 0-.128.022-.255.043V3.14c0-.37.17-.566.467-.566l.721.021h.106c.382 0 .53-.021.892-.174.02.109.02.153.02.196-.042.393-.19.589-.487.589zM40.789 5.538c-.191 0-.34-.088-.488-.284-.276-.349-.53-.785-.786-1.264-.382-.72-.466-.894-.636-1.417.658-.044 1.018-.393 1.018-.982 0-.457-.318-.763-.785-.763-.19 0-.297.022-.552.131.043.284.043.35.043.742v.261l-.021.938c-.022.327-.022.588-.022.784 0 .633.043 1.352.107 1.745-.191.043-.276.065-.446.065-.53 0-.7-.196-.7-.807 0-.196 0-.436.02-.72.022-.326.022-.958.022-1.547 0-.545 0-.872-.042-1.22-.022-.35-.064-.48-.17-.786.254-.065.34-.087.53-.087.297 0 .382.044.51.218.424-.196.615-.24 1.04-.24.89 0 1.528.502 1.528 1.221 0 .305-.149.632-.382.85-.191.175-.298.24-.616.35.276.566.828 1.46 1.231 1.983.127.153.212.262.424.436-.233.24-.53.393-.827.393zM43.824 5.494c-.552 0-.722-.196-.722-.785 0-.13 0-.414.021-.894 0-.327.021-.632.021-.894l-.02-1.155c0-.785-.022-.916-.086-1.33.213-.044.297-.065.446-.065.488 0 .7.218.7.74v.044l-.02.829V4.01c0 .654.02.872.063 1.461-.191 0-.276.022-.403.022zM48.64 5.472h-1.782c-.445 0-.636-.218-.636-.763 0-.153 0-.414.02-.785 0-.152.022-.436.022-.872V2.29c0-.894-.042-1.526-.106-1.918.191-.022.276-.044.403-.044.573 0 .785.262.785.96 0 .174 0 .392-.02.632-.022.392-.043.98-.043 1.83v.175c0 .589.021.763.085.85.063.088.19.11.467.11.573 0 .848-.066 1.315-.262v.218c-.02.458-.148.632-.51.632zM53.182 5.472H51.4c-.446 0-.637-.218-.637-.763 0-.153 0-.414.021-.785 0-.152.022-.436.022-.872V2.29c0-.894-.043-1.526-.107-1.918.191-.022.276-.044.404-.044.573 0 .785.262.785.96 0 .174 0 .392-.021.632-.022.392-.043.98-.043 1.83v.175c0 .589.021.763.085.85.064.088.191.11.467.11.573 0 .849-.066 1.316-.262v.218c-.021.458-.149.632-.51.632zM57.894 5.472h-2.016c-.425 0-.595-.13-.595-.501 0-.284 0-.72.022-1.287.02-.545.02-1.068 0-1.591L55.262.828V.785c0-.305.106-.436.382-.436l1.189.022c.34.021.764 0 1.273-.066l.149-.022v.153c0 .414-.17.61-.489.61-.148 0-.318-.021-.53-.043C57.087.98 56.96.98 56.833.98c-.382 0-.425.11-.425.872v.741H56.642c.7 0 1.04-.043 1.485-.174 0 .109.021.153.021.218 0 .458-.17.61-.679.61-.127 0-.276-.021-.424-.021-.297-.022-.467-.044-.51-.044h-.127v.784c0 .72.021.786.085.873.064.087.212.109.51.109.53 0 .954-.087 1.379-.262 0 .131.021.175.021.24-.042.37-.17.545-.51.545z" transform="translate(25.98 59.99)"/>
                </g>
                <g>
                    <path fill="#EC008C" d="M46.936 28.958c.636.442 1.546.738 1.97 1.497.55.464.02.232-.064.506-.741.021-1.736-.506-2.456-.169.064-.126-.127-.126-.212-.126-.084.063.212.21-.042.126-.064.17-.508-.126-.275.17-.127.105-.339.21-.53.231-.084.232-.465-.021-.36.211-.169.19-.402.316-.698.253-.042-.084-.085.042-.127.063-.021.064.042.064.063.127.022-.063.106-.021.149-.042.063.105-.127.105-.17.147-.127.085-.275.253-.444.275-.19.38-.254-.338-.403.02.212.148.022.254-.063.36-.17.041-.487-.064-.53.168-.126.042-.296.169-.317.316.021.042.064.021.106.021.021-.168.212-.063.212-.232.105-.063.232-.19.36-.147-.403.274-.741.506-1.017.907-.317.126-.338.548-.635.696.042.147.17.4.487.527-.042 0-.063.021-.063.042.02.106.232.063.317.021l1.016-.38c.043-.126.17-.126.276-.168.529-.359 1.08-.675 1.587-1.097.55-.4 1.038-.865 1.63-1.223 0-.063-.02-.169.022-.253.614.253 1.545.105 1.969.738.084.063.233.126.17.253-.064.084-.234.127-.17.274.19.085.148.317.106.443-.043.063-.085.211-.043.274.17 0-.021.148-.021.211-.021.78-.021 1.54.275 2.236.127.042.085.253.254.169-.063.19-.02.4.064.569.063-.021.021.063.021.105-.995.127-1.059-1.012-1.757-1.476-.127-.21-.17-.464-.36-.675.042-.105-.064-.232-.127-.358-.17.232-.53.126-.572.464-.233.126.085 0-.106-.064-.169.232-.762.211-.529.59.021 0 .064-.02.064-.041 0 .042-.022.126.02.147.318-.168.572-.4.89-.57-.021.022.063.296-.106.149-.127.063-.021.295-.254.21.021-.02-.021-.042-.021-.063-.064.042 0 .274-.212.232.021-.02-.021-.042-.021-.063-.085-.021-.127.105-.085.126.149-.02-.084.043-.127.064-.02.02-.211-.064-.211.063.105.063.02.021-.022.063-.042.106-.317.19-.275.38-.17-.063-.17.295-.254.063-.042-.02-.063-.084-.106-.063.043.232-.254.274-.148.506-.042-.063-.148-.148-.254-.063-.021 0-.063.126-.106.02-.063 0-.106.064-.148.106.042.021.042.085.042.127-.084 0-.17-.021-.211.063.02.085-.043.021-.064.042.021-.063-.042-.063-.063-.105-.085.169-.318.105-.487.169 0-.043.02-.127-.022-.148-.063.042-.063.127-.105.169.063.168-.106-.021-.149.084-.105.063-.232.021-.36.021-.105-.042-.38-.21-.529-.105-.402-.169-.677-.443-1.08-.633-.508-.97-1.29-1.708-1.376-2.847-.127-.38.233-.78.17-1.181.127-.106.233-.085.275-.253.021-.022-.064-.17 0-.064.063-.126.17-.21.148-.295.318-.4.741-.717 1.016-1.16.381 0 .657-.232.953-.4.127-.043.233-.127.318-.212-.127-.168.084.064.127-.084.465-.4 1.08-.485 1.524-.865.36.021.572-.316.932-.232.296-.4.592.19.889-.21-.127-.127.106-.043.148-.064.042.19.212.253.317.317zM52.505 24.423c.275.274.804.359.783.675.571.443.402 1.223.508 1.814.106.4.148.801-.021 1.18.063.085-.17.19-.021.317.148-.253.02.063-.022.106-.042 0-.127-.021-.148.02.021.043 0 .106.064.148.084 0 .042.211-.021.296.169.105 0 .274 0 .337-.191.063.254.359-.064.232-.063.042-.17-.063-.106.19-.148.063.021.19 0 .274.17.021-.106.063-.063.169 0 .19.02.38.042.57-.127.21-.021.421-.063.632-.043.063.02.148.02.21.17-.062 0 .127-.042.17.064.147 0 .274 0 .4.17 0-.211.064-.02.211.042.085-.022.148-.086.169-.105.822.7.105 1.08.232.699.126 1.376.274 2.054.443.339.169.677.4.868.696.402.105.423.548.677.76-.084.315.403.252.254.569.276.253.149.632.381.97-.063.358.233.506.106.843.085.106.085.296-.063.338-.021.02-.043.042-.021.063.02.021.042.042.084.021l.021-.02c-.105.294.022.695-.169.822 0 .147-.063.316.106.4.106.19-.19.064-.17.232.106.275-.19.317-.042.549-.106-.042-.106.063-.17.105.064.085.17.042.15.169-.234.084.063.274 0 .358.063.064.21.106.19.211-.022.064-.106.021-.149.021-.211-.147-.148-.358-.338-.506-.127-.063-.297-.168-.403-.147.064.126.297.19.276.337-.149-.042-.297-.21-.34-.358-.422-.317-.952-.591-1.079-1.076-.762-1.287-.698-2.594-.635-3.86-.021-.126-.148-.232-.254-.337-.275-.021-.318.358-.614.253-.127 0 .381-.274.021-.274-.042.126-.402.126-.17.295-.063.021.043.21-.041.148-.043-.021-.064-.043-.085-.021-.212.042.127.253-.148.19-.276.19-.233.463-.55.569-.043-.021-.128-.063-.107-.148.254-.063-.063-.232.212-.295-.17-.19-.212.105-.339.105-.02.064-.02.148-.106.19.17.042.276.211.212.338-.085.19-.106-.064-.17-.106-.02-.063 0-.147-.063-.19-.127-.02-.127.528-.17.106-.041-.232-.105.105-.253.063.085.106-.085.148-.064.232.064.042.127-.021.19.063.064.148-.507 0-.147.17-.085.041-.149-.127-.212.041.254.211-.212.127.042.338-.042.042-.084.063-.042.126.063.042 0 .042-.021.042-.127.148-.021.317-.17.443-.084.127.191.19-.02.17.147.315-.255.505-.085.8-.085.064.211.38-.106.275-.021.126.127.738.127.886-.275.063.106.316-.127.442.02.022.148.064.042.106 0 .063.064.063.106.105-.254.064.148.359-.17.443-.105.148.318.106.085.232-.211.295.19.654.043 1.013.042.19-.085.4.105.569-.127-.042-.084.127-.148.148-.254-.19-.296-.802-.698-.59.105.083.02.252.063.294-.275-.653-.995-1.033-1.609-1.455-.19-.021.064-.105-.106-.169-.19-.084-.402-.168-.402-.38.17-.463.021-1.454.212-1.834-.085-.485.254-.844.106-1.35.211-.063.042-.38.169-.506-.106-.717 0-1.329.127-1.94-.275-.106-.085-.359-.148-.549.042-.042.063-.105.042-.169 0 .043.021.064.042.064.085.02.106-.021.149-.064-.022-.042 0-.105-.064-.126-.063-.021-.063.042-.106.063-.106-.19.085-.274.043-.443.084.106.105-.02.127-.063-.233-.21.127-.337-.064-.527.19-.232-.127-.823.275-1.034.19-.19-.402-.295 0-.38.212-.19-.317-.442.021-.569-.127-.21.233-.358 0-.506-.063.021.022.19-.084.106.17-.022-.106-.296.148-.211.085-.148.042-.211.021-.59.085-.296.021-.634.106-.908 0-.295 0-.59.148-.843 0-.232-.38-.17-.233-.401.127-.021.212-.127.212-.232-.296-.59.212-1.202-.042-1.877.233-.296.233-.696.148-1.055.445-.042.783.295 1.186.422zm2.265 10.271c.063-.253-.148.063-.212 0-.254.169.064-.063.127.106.021-.043.042-.043.085-.106zm-.339.211c0 .063-.127.042-.17.127 0-.064.022-.253.17-.127zM70.14 32.522c-.042-.148.17 0 .19-.148.106.232.403.085.572.19.275 0 .55.105.72.337.445-.21.847-.168 1.313-.358.868-.042 1.715-.338 2.456.21.444.317 1.1.55 1.312 1.034.148.106.19.317.318.359.656-.928 1.63-1.603 2.794-1.434.043-.148.276-.127.318-.085-.042-.02-.064.021-.064.021.212.127.36.043.593.021.021-.19.212-.042.318-.042.106.211.296-.042.38.211.255.127.509.317.805.4.36.17.53.591.678.929.021.042-.021.105.021.126.17.106.233.359.212.612.127.127.063.359.19.506-.042.211.021.528.064.633 0 .021-.021.084.02.105-.084.211.191.401.022.675.127.507-.275.886-.254 1.392-.085.253-.106.612-.402.76-.043.316-.445.38-.466.717-.445-.085-.275.421-.402.611.02.042-.021.127.042.148.064-.021.021.084.021.105-.338-.611-.825-1.16-1.016-1.877-.17-1.265.021-2.488.085-3.754-.254-.147-.445-.443-.762-.295-.445.337-1.101.485-1.207 1.118-.19.232-.55.527-.699.611-.042.275-.571.211-.296.485 0 .022.02.085-.043.106.022-.063-.042-.106-.063-.148-.085.106-.021.253.063.359.254-.253-.042.147-.042.21.042.507-.36.844-.635 1.245.021.106.106.19.063.316-.105.106-.211.19-.211.338-.297.527-1.186.59-1.165 1.265-.55-.611-.868-1.413-1.1-2.193.042-.148-.106-.211-.128-.316.19-.528-.042-1.097.381-1.498.064-.295.34-.633.106-.949-.042-.253.276-.527.022-.654-.614-.274-1.27-.506-1.948-.232-.17 0-.254.274-.318.127-.466.042-.91.464-1.249.822-.085.106-.021.211-.042.296.042.042.063.105.127.084.106-.169.317-.148.402-.127-.296.17-.17.57-.423.802.042.253-.212.4-.043.654-.042.316-.233.57-.275.864-.085.085-.233-.042-.275.106-.106.57-.424.97-.466 1.56-.296-.316-.487-.759-.847-1.033-.317-.717-.868-1.35-.571-2.257.042-.232.275-.527.042-.738.148-.295-.19-.611.19-.843.064-.254-.36-.443-.063-.696.063-.528.233-1.055.19-1.603.276-.043.149-.338.191-.528-.19-.274.148.043.148.106.043.105-.063.316.106.232zM92.243 33.239c.127.169.17.443.402.506.275.148-.085.295.127.422 0 .21.021.443-.212.527-1.291-.21-2.54-.147-3.535.654-1.165.738-2.202 1.687-2.964 2.868-.021.17-.297.38-.043.549 1.864-.211 3.388-1.371 4.912-2.405.17.043.233-.19.381-.19.339-.126.741-.295 1.101-.147.381.19.678.612 1.101.717.021.127.254.21.233.359.466 1.075.085 2.298-.042 3.395-.106.443-.34.338-.403.76-.063.168-.211-.127-.317.063-.19.253-.064.506-.085.822-.042-.443-.614-.57-.614-1.012-.783-1.055-.53-1.962-.36-3.08-.106-.21-.106.148-.19.043-.17.063-.021.38-.212.316-.106.148-.72.295-.783.527-.318.043-.89.422-.953.612-.17 0-.487.148-.593.274 0 .211-.402-.02-.444.19-.233.169-.487.169-.614.443-.614.126-1.736.253-2.33-.316-.656-.275-.507-1.076-.952-1.498-.021-.38-.339-.76-.106-1.16.17-.611.212-1.286.699-1.73.106-.273.339-.4.487-.653.995-1.034 2.053-2.13 3.408-2.552.297-.38.657.042 1.017-.169.592-.084 1.016.443 1.545.633.085.126.212.169.339.232zM65.144 31.91c-.085.021-.297-.105-.36.021.127.106.317.232.508.169.021-.169.17.021.254.063.212.253.593.38.868.528.275.358.741.421.847.906.254.359-.402.591.042.886-.38.021-.72-.295-1.122-.358 0-.19-.296-.148-.402-.127-.297.19-.148-.147-.466-.02-.339.126-.699.252-1.016.42-.297.043-.593.444-.91.444-.89.78-1.948 1.434-2.118 2.636-.063.106.085.148.022.232.74.021 1.44-.527 2.159-.78-.042.147-.106-.063-.17.084.17.274.488-.126.7-.169-.064-.19-.488.211-.318-.063.148.106.211-.084.338-.126.91.063 1.61-.95 2.033-.928.127-.148.317.063.466.02.614.401.592 1.33.995 2.004.254.422.423.865.677 1.287.021.126.212.253.064.38-.233 0-.021.274-.106.38.19.252.444.484.38.864-.359-.106-.401-.612-.804-.633-.465-.464-.825-1.097-1.122-1.666-.042-.105-.169-.148-.233-.148-.02-.147-.232-.126-.338-.084-.19.042-.254.295-.403.19.064.19-.148.063-.232.063-.17.106-.17.295-.297.422.043-.295-.17-.063-.296-.042.042.316-.275.358-.381.59-.064 0-.148-.02-.148.064s-.022.105-.085.126c.021-.042 0-.063-.021-.084-.297-.064-.022.38-.276.21-.232-.063-.232.254-.402.296.106.063-.042.105-.042.169-.021.02-.212-.253-.275.042-.022-.042-.085-.085-.127-.127-.34.274-.784.042-1.165.021-.339-.19-.487-.548-.868-.696-.106-.548-.677-.885-.72-1.455-.487-.506-.233-1.097-.36-1.687.233-.654.403-1.35.974-1.793.127-.21.297-.38.381-.59.212-.17.445-.296.53-.57.106-.084.275-.063.275-.21-.064-.064.063-.106.085-.127.444-.085.486-.528.973-.612.149-.295.509-.295.636-.633.19-.063.232-.253.444-.19.106.17-.317.148-.17.338.191.063.36-.211.572-.042.233-.085.064-.19.085-.338.085.253.296.274.445.443zm.698 6.264c.34-.274-.106-.126-.275-.21-.296.147.212.084.19.273 0-.063.085 0 .085-.063zm-1.164.232c-.064-.02-.042.063-.064.106-.063.105-.19.084-.254.063.022-.106-.148.105-.169.19.064.02.19.084.233.084.063-.148.233-.232.423-.232 0-.148.212-.232.233-.358-.127-.106-.317.147-.402.147zM34.53 29.316c.635.485.995 1.139 1.038 1.94.169.38.317.907.042 1.266-.148.358-.296.696-.296 1.075-.212.064-.043.38-.297.486-.021.084.085.042.106.084 1.63-.127 3.091.358 4.361 1.223-.042.127.148.106.233.19.53.612.826 1.413.995 2.193.148-.02-.021.19.127.232.064.19-.487.317-.17.443.022-.147.17-.02.213-.042-.127.148-.106.359-.233.485.042.064.338-.105.148.064.17.316-.678.295-.127.442-.17.127-.297.211-.55.232-.043-.063.02-.147.042-.232.042-.02.02-.084.02-.105-.147-.084-.168.21-.338.21-.042.127-.233.254-.085.444.043.063.127.02.17.02.085-.105.106-.189.254-.147 0 .021 0 .085.042.106.212-.085.043.105.064.168-.127.148-.657-.02-.508.296-.085 0-.17-.021-.212.084-.106-.127-.508.105-.339-.253-.106.021-.317.316-.508.232-.19.232-.593.337-.656.59-.339.043-.657.338-.89.591-.063 0-.084 0-.084-.063.063-.042.17-.064.17-.169-.085-.042-.276.063-.297-.105.021 0 .085 0 .106-.064 0-.105-.17-.063-.212 0 .042.338-.296.127-.381.401-.17-.148-.318.042-.487.042-.021.148-.318.021-.212.232.043.021.043.085.106.063.042.043-.127.064-.042.106.127 0-.17.148-.254.169-.19.126-.424.253-.635.232-.064-.127-.254.042-.318 0 .042.168.296 0 .339.19-.148-.043-.275.295-.508.19-.17.126-.36.231-.572.252-.106-.126-.233 0-.36 0-.127.443-.53-.19-.656.232-.106.021-.275-.02-.339.127.212.295.466.105.72.084 0 .085-.106.127-.19.127-.064-.106-.064.042-.106.042-.36.042-.869.169-1.292.127-.212-.19-.381-.422-.677-.464.02-.148.02-.232-.022-.401-.169-.169-.211-.4-.275-.654-.042-.084-.106-.232-.148-.359.19-.147-.148-.358.106-.485-.106-.042 0-.147.042-.21.254.063.297-.296.53-.38-.064-.106-.318-.021-.297-.148-.021-.02.106-.105.19-.084.085.105.191.042.128.19.465.232 1.037-.021 1.503-.127.953-.274 2.011-.527 2.773-1.223.868-.338 1.525-1.055 2.33-1.54.21-.295.507-.57.719-.822.021-.274.571-.506.339-.865-1.334-1.012-3.324-.928-4.68-.21-.783.21-1.65.526-2.54.674-.338-.359-.466.148-.762.21-.021.064-.106.022-.17.043.043-.485-.677-.19-.444-.696-.127-.063-.085-.21-.19-.232-.064.084.063.295-.106.4.084.17-.106.296.106.317-.127.148.105.338-.17.443.043.063.127 0 .17.021-.043.063-.254.063-.212.19.085.148.17-.021.17-.084-.064.19-.107.316 0 .527-.022.063-.128.042-.107.105.043.043.085.043.127.043-.105.063-.063.19-.02.253.042.105-.128.147-.149.295-.021.126.085.232 0 .358.127-.02.064.17.19.148-.148.084-.169.127-.084.295.021-.02.021-.042.063-.042-.02.106-.211.19-.063.359.17-.021-.042-.021-.021.042-.085 0-.148-.106-.212 0 0 .042.042.063.085.084-.254.021 0 .211-.064.317.085-.106.17-.19.297-.232.02.126-.106.147.02.253.085.295-.402.147-.211.443.148-.127.148-.127.106.042.063.042.085.105.085.168-.403-.147.02.401-.297.275 0-.043.021-.127-.042-.127-.19.042 0 .485-.233.253-.275.127.148.359-.17.443.149-.021.106.232.128.232-.106.106.063.19-.064.338.127.042.042.21.127.295-.17.253.106.611.042.886.127.232.149.59.34.843-.128-.02-.318-.21-.424-.063.148.359.148.801.296 1.181-.36-.105-.677-.337-1.08-.295-.72-.295-.804-1.055-.973-1.73-.022-.822-.276-1.75-.254-2.488-.106-.57.084-1.118.042-1.709-.254-1.666-.212-3.163-.254-4.85.084-.401.148-1.835.212-2.236-.043-.042-.55.443-.614.422-.212.105-.149.38-.34.21-.147-.084-.296.127-.465.085-.021.042-.085.105-.042.148 0-.043-.276.21-.36.084-.19.19-.466.042-.657.21-.232-.21-.317-.59-.592-.695-.043-.865.825-1.392 1.333-2.067 1.525-1.287 3.219-2.51 5.314-2.573 1.334-.274 2.69.337 3.43 1.434zm-3.07.823c-.38.105-.72.316-1.08.464 0 .063-.507.126-.423.19-.148.274-.148.19-.148.716.17.696.085 1.435.212 2.13-.106.106.063.317.063.422.19-.042.318-.316.508-.19.127.022.149-.042.022-.084 0-.02 0-.084.042-.105.042-.021.085.042.106.063.38-.105.593-.485.889-.717-.19.105-.127-.127 0-.21.17-.022.254-.149.402-.254.572-.696 1.376-1.476 1.27-2.489-.635-.253-1.206-.084-1.863.064zm3.96 12.464c-.297.169-.636.359-.911.506.021.021.042.021.042.043.127-.022.276-.022.318-.148.042.084.106-.063.106.063.02 0 .106.021.063-.042.085-.021.043-.19.127-.127.106-.042.276.022.34-.105-.064-.021-.15-.105-.086-.19zM53.436 43.573c.423-.295.55.338.932.338.36.169.042.38.275.611.042.211.042.443.148.612.804-.316 1.588-1.16 2.562-.654.296.253.889-.21 1.08.253.148.085.296.19.444.275-.021.147.127.358.085.527.127.19.465.21.465.485-.232.042-.486-.084-.72-.148-.93.064-1.841.338-2.222 1.245-.021.358-.254.675-.212 1.054-.296.021-.17.506-.275.76 0 .463-.127.843-.043 1.286-.105.105-.063.358-.105.485-.085.105.105.38-.106.359-.085.126-.085.274-.149.4.191.085.128.422.128.612.042.105.063.295.148.443 0 .253.106.59-.106.822-.233-.063-.36.127-.424.296.064.063.022.168.127.19.043 0 .127.02.127-.043.085 0-.211.127-.084.211-.148.169.148.338.127.485.106-.084-.466.085-.339-.21-.381-.36-1.122-.549-1.185-1.16-.593-.739-.318-1.646-.55-2.553-.446-2.045-.191-4.323-.276-6.432-.17-.127-.36-.296-.275-.506.148-.064-.043-.338.19-.275.085.064.127.17.233.232zM70.246 43.974c.593.4.508 1.055.508 1.687.021.485-.508.59-.699.928-.169.19-.508.253-.571.549-.593.316-1.165.822-1.884.675-.36.02-.7-.654-.953-.127-.212.654-.678 1.497-.148 2.151 1.503 0 2.858-.59 4.107-1.265.148-.169.17-.127.148.063-.127.211-.127.443-.212.696-.169.063.064.19-.063.274.063.38-.381.612-.593.844-.063.21-.148.443-.402.527-.318 0-.593.4-.932.422-.148.021-.211.316-.317.105-.17-.02-.127.211-.276.17-.783.126-1.312-.591-1.968-.908-.36-.443-.784-.907-1.017-1.476-.402-.57-.529-1.413-.36-2.172.212-.907.741-1.688 1.292-2.447.53-.274.677-.949 1.291-1.118.403-.126.55-.696 1.017-.527.677.169 1.354.654 2.032.95zm-1.46.422c-.911.295-1.652 1.16-1.61 1.92.572.126 2.456-.127 2.117-1.287 0-.085-.296-.612-.508-.633z"/>
                    <path fill="#EC008C" d="M78.482 45.535c.232.316.508.527.423.843-.508.612-1.016 1.266-1.651 1.772.084.169-.212.127-.106.274-.339.211-.508.633-.91.675 0 .021-.022.084.02.106.064-.022.022.042.022.063-.043 0-.106-.021-.127.021-.064.274-.445.316-.593.59-.148.043-.19.127-.36.148.127.232-.423.295-.148.4-.127.022-.17.275-.36.17-.212.126-.042.253-.318.316-.042.021-.127-.021-.148.021.085.21-.19.021-.17.21.36.064.022.085-.105.106-.212 0 0 .17-.254.106-.127.126-.127.443-.381.316.063.127.254.021.317.106-.042.063-.275.02-.211.02-.022-.063-.106-.02-.17-.02 0 .19-.275.063-.211.274-.212.126-1.694 1.012-1.842 1.244.169.085-.149.19-.022.106 2.435-.612 5.717-.844 7.262-.992.064.148.17.085.212-.02.444-.043.826-.022 1.334-.064.127.169.275-.042.423.063-.17.064-.444.085-.444.359 0 .063-.022.126.02.169-.169-.127-.253.126-.423.126-.02.084.064.253-.106.169 0-.042.022-.106-.02-.127-.149.064-.318.338-.509.253-.021.021-.106.127-.106.064-.042-.064-.106-.064-.17-.064-.041.148-.19.17-.274.317-.127 0-.254.02-.36-.021-.064.084-.233.19-.254.168-.064-.147-.127.043-.17-.042-.127 0-.063.169-.169.148-.021.126.19.105.063.21-.127.043.043-.147-.105-.168-.17-.063-1.546.654-1.567.253-.085 0-.106.211-.212.106-.084-.064-.17.168-.148 0 .106-.022-.021-.064-.021-.106-.17.021-.106.443-.318.253-.02.19-.233.148-.17.317-.063 0-.147.126-.21.02-.085-.02-.17-.168-.297-.063-.064.043-.064.106 0 .148-.106-.084-.318.169-.275-.063.042-.042.105-.064.063-.148-.19-.084-.275.169-.381.211.042.21-.339.127-.254.38-.402.147.064-.317-.275-.275-.275-.063-.339.886-.508.254-.064-.085-.17-.401-.254-.106.169.127 0 .148-.106.232 0 .063-.297.042-.106.127v.063c-.36.021-.614.4-1.016.21-.212.254-.53.085-.741.127-.149-.042-.085.17-.212.148-.19-.063-.487.105-.635 0-.127.127-.254.042-.445.084-.275.127-.508.043-.847.064-.02-.485-.656-.253-.656-.739-.317-.168-.106-.653-.466-.653-.296-.211-.042-.612-.317-.823-.127-.633.868-.654 1.164-.865.339-.105 1.503-1.054 1.779-1.054.38-.443.931-.675 1.291-1.16.318-.106.445-.443.699-.527.635-.507 1.228-1.076 1.82-1.688-.127-.232.212-.295.254-.443.191-.147.36-.442.572-.59-.17-.021-.042-.169-.042-.253.02-.042-.55.105-.572.063-.55.063-.995-.232-1.46-.253-.17-.232-.509-.443-.53-.78-.296-.148-.402-.528-.699-.59.19-.043.36-.085.55 0 1.589-.317 3.092-.887 4.743-1.055.868-.211 1.292.506 1.906.759zM63.09 46.041c.318.105.678.253.868.57-.063.717-.233 1.602-.974 2.003-.571.253-1.058.717-1.651.907-.381.337-1.059.105-1.355.527-.233.612-.318 1.202-.254 1.856.275.106.656.063.953 0 .91-.253 1.82-.443 2.646-.907.063.211-.085.57.127.802-.423.316-.275.97-.826 1.223-.127.253-.423.253-.614.443-.127.126-.338.063-.465.232-.233-.19-.487.084-.741-.042-.657-.232-1.398-.506-1.779-1.16-.571-.253-.571-.886-.931-1.287-.36-1.476.317-3.016 1.058-4.281.466-.612.91-.991 1.525-1.308.232-.147.529-.337.825-.169.53.275 1.038.507 1.588.591zm-.572 1.055c-.677-.844-2.963.78-2.582 1.434.529-.359 1.122.105 2.18-.675.085-.106.36-.612.402-.76z"/>
                    <path fill="#EC008C" d="M83.393 43.088c.275.064.508-.168.741-.147-.063-.127.106-.043.148-.021-.02.063.043.063.064.105.021-.042.063-.021.127-.021.021.21.254.042.36.126.53.211 1.016.507 1.545.739.212.232-.127.527.106.738.127.232-.233.337-.063.485-.085.21-.212.253-.318.422-.17-.169-.106.105-.17.168.107.106-.02.254-.105.317-.148-.169-.296.19-.445.274 0 .169.318-.21.17.084-.17.148-.148-.126-.297.064.021.19-.042.358-.063.506-.17.063-.297 0-.402.169.063.02.02.105.042.168-.064 0-.106.085-.17.127.022.063.106.232.022.169-.021-.022-.021-.043-.064-.022-.063.085-.17.127-.17 0-.02-.084-.084.022-.063.064.043.126-.148.168-.106.274.17.084-.444.358-.105.063 0-.042.02-.084-.022-.126-.317.02-.105.717-.402.295-.127.126-.127.358-.296.443-.254.084-.339.295-.635.253-.022.19-.254.169-.381.274-.022-.021-.022-.042-.064-.042-.042.147-.17.21-.275.295-.064-.042-.127-.169-.17-.042.043.021.022.084.022.105-.127-.042-.17.296-.36.064-.127.21-.678.126-.445.527.296.21.741.21 1.101.148 1.334-.127 2.54-.549 3.747-.97.127.02.17-.17.318-.148.021-.169.19.21.36-.021-.085.168-.233.168-.254.38-.106-.022-.233.252-.276 0-.063.02-.148-.022-.169.02.021.106.212.085.064.211.02.148.656-.253.169.021.106.19-.19.19-.212.359-.042.042-.17.063-.17.169.086.168-.147.105-.105.253-.148.126-.296.19-.36.358.021.021.127.064.043.106-.17.126-.55-.106-.572.274.063.316-.212.126-.297.21.064.338-.402.254-.317.591-.127-.105.17-.253-.106-.316-.148.063 0 .485-.318.359.022-.064-.02-.106-.063-.148-.17.021-.17.295-.318.148-.889.253-1.63-.359-2.392-.865-.614-.696-1.355-1.392-1.588-2.278-.211-.295-.466-.506-.677-.738.211-.042.466.084.593-.127.02-.443-.191-.759.127-1.117.02-.211.105-.401.169-.57-.127-.253.296-.358.148-.654.233-.063-.021-.295.212-.358.085-.443.466-.823.826-1.055.169.085.19-.126.275-.21.275-.254.635-.317 1.016-.38.085-.17.127-.296.318-.359.232.211.19-.358.36 0 .148-.021.296-.126.36-.253l-.022-.021c-.063-.063.275.021.297-.211.317.105-.381.084-.043.295zm.572 1.519c-.487.21-.89.443-1.376.633-.254.21-.466.548-.741.696-.19.253-.36.506-.339.928 1.778.02 2.964-1.034 3.155-2.11.148-.253-.614-.19-.7-.147zM46.81 41.443c.867.527 1.566 1.477 1.799 2.468.127.19.212.485.254.633-.063.084.318.464-.063.421-.022.064.169.275 0 .401-.212.084-.276.38-.487.443.275.127-.212.105-.127.316-.043-.02-.085-.084-.149-.063-.084.127.064.359-.254.316-.02.085.085.043.106.106.89.063 1.694.274 2.393.738.91.295 1.884 1.16 2.074 2.13.19.359.403.844.17 1.266.063.126-.127.232-.127.38-.17-.064-.127.19-.297.147.17.232-.317.084-.17.316-.105.085-.317-.02-.168.169.063.127-.085.169-.128.253-.02.063-.338-.063-.148.106-.211.316-.529.527-.804.632-.021.127-.064.211-.17.296.106-.106-.02-.19-.02-.296-.043.064-.128.085-.17.064-.17.295-.55.4-.826.59-.021.338-.423-.021-.402.359-.19 0-.254.21-.423.147-.022.021-.128.064-.043.106-.17.02-.212.232-.444.21-.212.317-.614.212-.805.507-.085-.063-.127.105-.212.105-.105.064-.296.021-.296.169-.085-.19-.17.063-.296 0-.149-.148.169-.4-.149-.422-.465.443-1.27.4-1.863.738-.063-.02-.127 0-.17.064-.02.042.022.105-.02.147-.085-.168-.212 0-.212.064.127.042.085.21.17.274-.022-.021-.043.02-.064.02.042.127-.064.085-.106.17.318-.043.127.4.275.4-.084.127-.02.485-.106.485-.042.127-.042.148-.148.211-.254.042-.211-.19-.402-.02 0 .062-.254-.106-.318-.064-.444-.316-.148.042-.444-.295.127-.253.085-.148-.064-.359-.17-.063 0-.232-.063-.38-.106-.295-.36-.4-.445-.696.106-.274-.021-.442-.042-.738-.17-.105-.212-.4-.254-.632-.106-.148.063-.422-.233-.528.085-.168-.085-.253-.042-.485.063-.358-.424-.57-.212-.928-.233-.063.148-.21-.085-.316.148-.211-.106-.4-.063-.57-.043-.485-.318-.907-.276-1.434-.402-.274-.254-.864-.508-1.202 0-.738-.38-2.088-.38-2.89-.382.17-1.25.549-1.356.212-.17-.022-.783.337-.804.19-.021-.106.423-.591.466-.718.063-.21-.318.085-.212-.126.17-.338.698-1.055 1.482-1.75 1.863-1.372 2.921-2.131 4.382-2.468 1.461-.127 1.63.337 2.498.611zm-.974 1.245c-1.165.485-2.541.696-3.367 1.792.127.506.127 1.181.318 1.688.17.569.127.928.296 1.497.127.464.17.949.233 1.434.085.169.064.316-.021.506.275-.02.19.485.212.675.127.127-.106.317.063.4.127.127.043.254-.106.317.17.274-.127.633.106.907-.127.211.127.38.043.57-.064.168.127.253-.043.421.212.022 0 .19.148.232-.02.232.127.17.255.211.02.064-.085.043-.128.106.106.316.255-.169.424-.106.445-.4 1.122-.548 1.588-.928.02-.042-.021-.105.042-.126.127.295.212-.232.445-.148.084-.084.338-.084.254-.253.148.021.36-.063.444.084.127-.21-.084 0-.148-.168.318-.359.783-.443 1.122-.78.043-.022.318.042.17-.127.487-.148.592-.633.973-.928.212-.59.932-.865 1.123-1.498-.255-.02-.55-.084-.784-.063-1.355.085-2.794.253-4.065.675-.127-.021-.106.211-.211.148-.149.126-.318.21-.487.316-.127.021-.233-.021-.276-.105-.402-.317-.91-.844-1.122-1.371-.042-.253.064-.485.127-.696-.148-.064-.084-.211-.105-.359.762-.78 1.863-1.497 2.54-2.446.318-.528.783-1.013.847-1.624-.233-.359-.593-.275-.91-.253zM88.284 53.802c-.212.211-.466.317-.784.317-.317 0-.571-.106-.783-.317-.212-.21-.317-.464-.317-.78s.105-.59.338-.801c.212-.19.466-.296.762-.296.297 0 .572.106.784.317.211.21.317.485.317.78.022.295-.084.548-.317.78zm-1.419-1.434c-.17.19-.254.4-.254.633 0 .253.085.464.275.654.17.168.403.274.636.274.254 0 .465-.084.635-.274.17-.19.275-.401.275-.654s-.085-.464-.275-.633c-.17-.19-.402-.274-.635-.274-.254 0-.466.084-.657.274zm.17 1.245v-1.224H87.627c.106 0 .17.021.233.064.106.063.17.147.17.295 0 .105-.021.169-.085.232-.063.042-.127.063-.212.084.085.021.127.042.17.063.063.064.106.148.106.275v.189l.02.043h-.296c0-.043-.02-.085-.02-.17 0-.062 0-.126-.022-.147-.021-.042-.042-.063-.085-.084-.02 0-.063-.021-.106-.021h-.127v.422h-.338v-.021zm.592-.992c-.042-.02-.105-.02-.19-.02h-.085v.358h.127c.085 0 .127-.021.17-.042.042-.022.063-.085.063-.148 0-.063-.021-.106-.085-.148z"/>
                    <path fill="#00A9A1" d="M24.516 14.869s-.021 0 0 0zM22.272 6.475c0 .063.021.105 0 0z"/>
                    <path fill="#CFAB7A" d="M23.521 19.994l-.127-.422-.55-.169-.381.043c-.085-.127-.297-.549-.424-.57-.127-.02-.106-.063-.17-.063-.063 0-.317-.211-.317-.211-.508-.274-.593-.38-.889-.359l-.487.148c-.085.19-.19.359-.021.506-.17.317-.487.485-.614.823-.021.063-.106.042-.148.042-.148.506.021.865.148 1.265.127.211.148.232.339.38.042.4-.254.527-.381.78-.106.464-.847.57-.572 1.308.127.38.296.717.678.823.148.274-.276.316-.191.632-.318-.084.021.401-.275.296-.043.168.084.4-.106.485-.085.21-.254.443-.381.57 0 .189 0 .526-.19.632l-.107 1.624c-.232.253-.084.822-.338 1.097-.022.168.063.168.148.295-.148.253-.233.527-.19.886-.318.02-.043.442-.34.485.128.4-.36.4-.169.822-.36.274-.148.907-.19 1.266.254.084.106.253.106.464-.064.042-.085.126-.149.105l-.063.928c.38.38-.127.95.233 1.308-.127 1.413-.127 2.974-.17 4.281.212.253-.063.717.233.928-.233.253.254.274.085.633h.106c.042.38.106.59.338.843l-.042.043c.085.02.17.126.148.253.149.21.276.464.424.675.084.253.339.443.444.675 0 .105.022.232-.042.316.339.464-.106 1.076.17 1.56.02.528.338.844.444 1.308-.17.338.339.296.106.633.296.316.317.738.656.97.085.253.318.443.445.675.317.127.508.527.762.738.233.127.317.485.466.633-.17.422.36.443.106.822.275.064.042.528-.191.528-.445-.296-1.016-.253-1.503-.422-.127.105-.254.21-.19.422-.043.042-.085.126-.149.105-.106.422.17.57.148.886.148.169.148.4.233.57.339.02-.233.295.043.337-.276.084-.763-.106-1.08-.148-.466-.084-.424.738-.91.717-.509-.02-1.207.464-1.821.211-.021.359-.021.76.402.97.423-.063.91-.063 1.27-.19.318-.042.699-.274.868-.252l-.106-.106c.064-.105.149-.105.233-.148l.572-.02c.931-.275 1.143-.296 2.223-.338.317.295.804.148 1.143.422.741-.085 1.27.147 2.011.21h1.906c.106-.274.17-.506.339-.695-.128-.401-1.461-.485-1.694-.886-.17-.211 3.006-1.076 3.45-.675.424.042 1.652 1.012 1.864 1.244.55.38 3.281.992 3.578.907.148-.126 0-.316.17-.358.126-.127-.15-.338-.255-.422 0-.106.381-.148.466-.211.275-.106-.043-.78 2.329.063.233-.506-.381-.337-.276-.78-.127-.169-.148-.253-.148-.274-.042 0-.106-.043-.275-.127-.19-.042-.53-.084-.699-.232-1.016-.19-.614-1.286-1.503-.991-.17-.021-.17-.169-.17-.295-.21-.359-.38-.127-.74-.211-.17-.296-.466 0-.72-.148-.17.127-.635.21-.445.464.233.527-.063.127-.169.612l-.339-.253c-.402.126-.402-.443-.762-.38-.402-.106-.995-.654-1.312-.844.042-.084.254-.19.296-.232-.381-.38-.508-.654-.91-.822l.042-.064c-.064-.084-.064-.232-.19-.253.169-.358-.297-.4-.424-.675-.296-.168-.55-.695-.847-.822-.233-.127-.339-.464-.445-.633-.211-.084-.317-.464-.613-.485-.487.148-.403.085-.805.106-.275-.232-.212-1.013-.55-1.013-.149.064-.741-.949-.424-1.075.17-.422-.127-.422-.212-.717-.105-.022-.232-.148-.169-.296-.445-.57-.826-1.286-1.524-1.56.063-.148-.106-.148-.148-.211.02-.296-.276-.464-.34-.717-.19-.57-.592-1.013-.677-1.519-.127-.232.064-.76-.148-1.054.148-.085-.085-.633-.339-.823-.211-.337.022-.801-.042-1.16-.148-.021-.148-.169-.148-.295-.275-.633.148-1.434-.19-2.004.042-.021.105-.19.105-.19-.148-.611.064-1.202 0-1.835.36-.147.085-.696.233-.99-.381-.254.678-2.743.572-3.017l.084-2.193c.064-.042.085-.127.149-.106.02-.126-.043-.422.169-.527.339-.801.381-1.118.063-1.708l.043-.064c-.254-.02-.148-.232 0-.485.254-.232.571.021.91-.485 0-.232 0-.527.19-.633-.126-.316.212-.717-.105-.927l.106-.106c.211.084.106-.506.254-.337.063-.253.084-.57-.043-1.076l-.275-.464z"/>
                    <path fill="#00A9A1" d="M43.359 19.973c.211-.211-.127-.548-.106-.844h-.043c-.063-.02.254-.632.17-.822-.593-.57-1.122-1.034-1.757-1.561.042-.4-.466-.675-.297-1.202.021-.443-.466-.4-.72-.295-.084-.317-.423-.38-.38-.739-.53-.21-.594-.949-1.102-1.202-.423-.611-4.996-3.796-6.774-3.543-.043-.063.592-.76.677-.738l.339-.675c-.106-.021.148-.232.635-.338.487.464.677.211 1.313.443.465.443.698-.126 1.058-.38.148-.527.72-.653 1.101-.927-.064-.232.148-.106.233-.211.699.126.91-.865 1.63-.527.296-.232.932.063 1.1-.254.34.064.7.296 1.06.211.254.148.296-.274.465-.316v-.148c-.423-.443-1.122-.464-1.672-.485-.89-.801-2.308-.042-3.303-.358-.508.084-1.228 0-1.757.253-.614.063-.974.611-1.524.928-.043.38-.593.084-.657.464-.889.295-1.82-.063-2.583.59-.063.148-.233.275-.38.38.084.422-.403.316-.488.612-.38.232-.38.59-.762.738v.105c-.063.042-.063.211-.19.148.084.274-.17.38-.276.485.022.422-.423.4-.338.823 0 .232-.17.253-.34.295-.147.253.234.295.15.527-.34 0-.467.527-.805.59.02.085-.022.19.063.254.17.168.233.485.381.717.402-.085.572.4.953.38.19.379-1.376.02-1.08.316-.402.21-.868.295-1.334.4l.022-.232c.127-.274.36-.358.338-.674.043-.043.064-.127.148-.106-.084-.59.149-.843.233-1.307.318-.232-.063-.907.34-1.16-.297-.064 0-.464-.297-.486 0-.274-.021-.674.19-.822v-.253c.043-.042.085-.127.148-.106.085-.105.085-.358-.105-.38.063-.316-.149-.822.19-.97.085-.38-.148-.653-.19-.885-.043-.338-.17-.696-.318-.928.212-.844-1.1-.57-1.016-1.16-.085-.232-2.731-2.51-3.493-2.974-.318-.253-.72-.527-1.144-.633-.106-.126-.402-.147-.338-.422-.149.022-.276-.02-.382-.147-.571-.021-.931-.169-1.46-.253-.318-.106-.826-.021-.91.042-.636.084-1.821 1.118-2.414 1.877 0 0-4.404 2.657-4.023 2.953 0 0 1.313.97 3.811 0 .17.232 2.308-1.709 2.414-1.371l.275.675c.487-.528.698-.696 1.312-.76.043.232.34.612.53.718 0 .063.402-.127.402-.127.296 0 .148.316.445.38.063.358.402.527.487.885.232.17.656.148.889.359.529.232.635-.021.931.443 0 .042-.042.105-.635-.021-.063-.042-.063.042-.042.105h.02c.022.106 0 .063-.02 0-.17-.02-.762.232-.635.317.063.421.762.147.952.4-.042.401.91.148 1.038.443.106.253-.148.506-.148.78-.043.043-.064.127-.149.106v.675c.19.021-.02.38.19.38.234.738-.592 1.075-.719 1.708-1.08-.527-1.545-1.835-2.583-2.552-.36-.464-.783-.654-1.334-.844-.233-.57-.74.042-1.058-.295-1.757-.021-3.366-.021-5.039.21-.042-.062-.127-.083-.106-.168-1.566.317-2.794.169-4.298.738-.486.359-.973.549-1.291 1.097-.36.316-.593.633-.995.78-.19.57-.932.57-1.143 1.16-.572.38-.805.928-1.292 1.414-.106.063-.233.063-.17.21-.57.464-1.185.928-1.672 1.392-.254.106-.275.443-.529.528-.021.316-.487.527-.614.843-.063.106 0 .317-.19.38-.022.316-.276.548-.17.928-.148.042-.36.358-.338.548-.043.021 2.053.338 2.222.422 0 0 1.101-.865 1.927-1.37l-.021-.655c-.17-.19 1.058-2.045 1.228-2.193.233-.38-.021-.232 1.058-.359-.487.19.149.528 0 .78.212.148-.063.55.233.676l-.042.063c.17.295.17.717.55.886.17.168.445.485.784.422.38-.528.931-.992 1.185-1.667.614-.885 1.44-1.602 2.18-2.383-.063-.38.488-.316.34-.738.275-.105.19-.38.444-.57l-.063-.063c.296-.063.402-.422.487-.675.19-.02.19.211.296.296-.085.717.445 1.202.995 1.56.614-.105 1.038-.78 1.63-.928.36-.126.635-.632 1.101-.527.212.211.085.738.17.991.232.064-.064.528.232.57.043.422.212.611.487.886.805.168 1.63-.106 2.435.042.148.126.296.169.275.443-1.715-.043-3.175.421-4.657 1.139-.254.358-.763.295-.995.738-.233-.021-.297.253-.466.295-.656.696-1.186 1.54-1.757 2.299-.34.063-.233.612-.572.633v.147c-.212.148-.318.506-.466.675-.042.317-.423.443-.487.738-.38.253-.592.717-.952 1.055-.127.169-.34.506-.466.633.042.147-.085.274-.148.358-.19.127-.127.4-.34.485-.041.253-.168.443-.338.57v.21c-.17.275-.487 1.287-.804 1.308.106.38-.19 1.392-.508 1.413.02.232.02.528-.191.633l-.064 1.097c-.254.126-.084.632-.338.696 0 .21.042.295-.043.527-.38.422.763.57.847.148.212.042.445.232.614.295.085-.084.297-.063.233-.253.19-.106.17-.527.53-.38.72.274 3.408-1.645 3.408-1.645-.318-.337.148-.801-.233-1.118.233-.422-.233-.675-.148-1.033-.19-.59.19-1.624.72-1.603.254.295.55.59 1.016.633.402.02.19-.464.317-.696.318-.085-.02-.612.297-.717l.042-.528c.19-.02.127-.253.148-.421.403-.106.022-.675.34-.78.041-.212-.043-.528.19-.591-.021-.38.169-.696.38-.928.085.147.34.02.276.253.127.105.19.232.402.253.297.506.762-.106 1.122.295.657.612.784-.506 1.25-.717.148-.464.444-.78.656-1.16.084-.274.444-.59.487-.886.063-.042.084-.126.148-.105-.064-.38.296-.422.339-.675.232-.085.423-.549.72-.317l-.064.106s.444.126.466.169c.02.042.338.295.338.295l.106.084.19-.063.255.042.148.295s.17.17.254.148c.085-.021.402-.19.445-.19.042 0 .275.106.275.106l.296.253h.233l.233.422c.593.696.296.147.445.738.127.485.571.654.487.907l.02.02c.509-.062.72 0 .89-.548.254.022.085.443.381.38.042.359.381.295.508.506.36.253.656 0 .89-.232.063-.274.317-.548.402-.78.338-.338.677-.78 1.228-.823.042.17-.127.232-.212.338l.085.042c.02.295-.297.337-.36.59-.233.422.105.78.317 1.16.233.085.127.486.402.486-.127.253.297.232.276.4.338.401.698-.063 1.058 0 1.122-.084 1.143-1.476 2.266-1.497.402-.021.254.527-.191.717-.402.316-.593.717-.995 1.033-.72.254 0 .907-.042 1.456.317.126.74 1.244 1.185 1.202.805-.4.508.19 1.355-.085.254.022.635.232.614.507.106.253.424.21.445.59-.403.422.148.4-.36.696.02.253 1.884.464 2.202.148.169.042.338 2.257.402 2.425-.106.169 1.63.464 1.715.422.084-.844.571-.675.233-1.16-.085-.21.127-.295.19-.422.064-.337-.275-.316-.296-.632.02-.043.02-.148.106-.127l-.297-.95c-.085-.231-1.694-4.534-1.884-4.766.021-.105-.021-.274.106-.316l-.297-.886c-.19-.253-.444-.59-.529-.886-.233-.02-.106-.337-.317-.337-.043-.359-.55-.4-.53-.76-.275-.231-.55-.505-.825-.674 0-.232-.212-.317-.381-.422-.403-.59-1.144-.485-1.694-.612-.043-.126-.064-.253-.19-.274-.276-.654-.911-.991-1.567-1.286 1.058-.338 1.143-.549 2.498-.549v.317c.339.337.296 1.054.847 1.307.338.127.656-.042.995-.063.444.127 1.27-.127 1.757.105 0 0 .931.338.635.464-.318.022.021.507-.296.528v1.265c.106.063.042.19.063.295.148.127.19.317.424.317.36-.042.592.232.952.147 1.059.401 2.139 1.667 2.033 1.73-.064.316.444.865.508 1.16.106.57.36 1.518.804 1.75.254.021 1.588-1.075 1.758-1.56-.212-.485-.53-1.076-.741-1.582zM20.769 2.615c-.106-.147-.085-.675.106-.654.17.106.783.422.889.633l-.995.021zm-9.04 19.235c.021.232 0 .443-.233.485l-.656-.148c.148-.19.148-.506.338-.632.149-.296.89-1.413 1.144-1.54l.169.253c-.318.127-.381 1.477-.762 1.582zm3.98-3.944c-.064-.084.19-.928.275-1.118.148-.126.318-.19.508-.147l.043.569c-.17.105-.741.548-.826.696zm19.647 3.944l.847 1.329c-.127.19-1.186-.528-1.355-.528.063-.105.317-.885.508-.801zm-2.033-3.923c.043.169.085.359.276.4-.127.085-.466.106-.699.064.042-.169.148-.485.423-.464z"/>
                </g>
            </g>
        </g>
    </g>
</svg>
