<svg xmlns="http://www.w3.org/2000/svg" xmlns:xlink="http://www.w3.org/1999/xlink" width="229" height="61" viewBox="0 0 229 61">
    <defs>
        <path id="s7mw3epypa" d="M0.247 0.097L3.794 0.097 3.794 5.842 0.247 5.842z"/>
    </defs>
    <g fill="none" fill-rule="evenodd">
        <g>
            <g>
                <g>
                    <path fill="#FFF" d="M18.398.05c.086.053.64.396 1.236.772 5.262 3.284 9.16 7.514 11.513 12.484.725 1.535 1.534 3.982 1.843 5.571 1.31 6.612-1.598 14.373-8.467 22.648-2.163 2.599-5.464 5.84-8.255 8.095-4.356 3.51-10.608 7.288-15.71 9.488-.351.161-.596.28-.553.29.16 0 3.195-.944 4.995-1.567 8.435-2.92 15.965-7.095 21.77-12.065 1.693-1.46 4.302-4.144 5.58-5.743 3.217-4.047 5.113-7.975 5.965-12.344.33-1.664.405-4.595.17-6.312-1.107-7.975-6.784-14.834-16.199-19.611C20.72.972 17.93-.262 18.398.049M76.977 18.007c2.354.365 3.749 1.042 5.219 2.534 2.056 2.072 3.185 4.809 3.536 8.512.34 3.66-.65 7.878-2.482 10.54-1.598 2.34-3.94 3.532-7.892 4.026-.703.086-4.76.14-7.669.108-.18 0-.191-.688-.191-12.882v-12.87l1.044-.032c3.504-.107 7.487-.075 8.435.064zm-9.426-2.511c-.937.043-2.151.086-2.684.097l-.99.01v30.592h5.538c3.174 0 5.986-.054 6.582-.118 2.343-.257 4.985-.998 6.519-1.825 3.46-1.889 6.06-5.667 7.029-10.261.33-1.525.415-4.788.17-6.473-.564-3.875-1.832-6.644-4.057-8.856-1.758-1.75-3.249-2.5-6.072-3.027-.969-.182-9-.279-12.035-.14zM130.816 18.233c1.012.215 2.183.805 2.737 1.363.596.601 1.119 1.61 1.32 2.522.086.42.15 1.3.15 2.083 0 1.095-.043 1.513-.245 2.211-.82 2.866-2.907 4.122-7.157 4.294-.873.032-2.108.022-2.737-.022l-1.15-.075V18.18l.245-.054c.84-.192 5.762-.118 6.837.108zm-6.337-2.727c-1.672.033-3.334.076-3.696.087l-.67.01v30.592h3.62V33.207l2.13-.022 2.3-.02c.129-.012 1.599 2.136 4.507 6.547 2.375 3.617 4.398 6.666 4.483 6.784.16.215.16.215 2.013-.043 1.023-.14 1.885-.269 1.928-.279.043-.022-2.066-3.103-4.686-6.849s-4.75-6.848-4.73-6.88c.022-.033.31-.118.65-.194 2.013-.45 4.708-2.5 5.656-4.293 1.406-2.641 1.395-5.775-.01-8.545-.576-1.137-1.854-2.447-2.844-2.93-1.853-.912-4.228-1.127-10.651-.977zM158.838 18.018c2.248.386 4.026 1.31 5.272 2.716 3.674 4.165 4.367 11.818 1.566 17.464-1.502 3.016-3.579 4.466-7.488 5.228-1.033.204-1.65.236-5.133.268l-3.973.054V17.975l.937-.042c.512-.011 2.493-.044 4.399-.055 2.716-.02 3.685.011 4.42.14zm-8.691-2.597c-.043.043-3.355.172-4.335.182h-.351v30.592h5.304c2.907 0 5.826-.054 6.465-.107 2.524-.236 4.973-.88 6.7-1.77 3.524-1.815 6.209-5.615 7.178-10.156.83-3.843.34-8.362-1.257-11.872-1.417-3.08-3.792-5.281-6.689-6.193-1.895-.601-2.226-.623-7.797-.676-2.843-.022-5.197-.022-5.218 0zM105.766 26.66c1.32 3.746 2.439 6.901 2.47 6.998.075.183-.223.193-5.271.193-5.049 0-5.347-.01-5.283-.193.49-1.363 5.57-13.944 5.613-13.89.032.042 1.139 3.145 2.47 6.891zm-4.367-8.62c-1.566 3.595-10.342 23.582-11.386 25.933-.49 1.117-.894 2.072-.894 2.126 0 .064.745.085 1.821.075l1.821-.033 1.928-4.916 1.928-4.905h12.578l3.408 9.875h1.95c1.065 0 1.938-.032 1.928-.085 0-.043-2.504-6.913-5.56-15.265l-5.57-15.189-1.438-.032-1.449-.031-1.065 2.447zM175.283 30.899v15.296h18.745v-2.79l-7.562-.022-7.562-.032v-5.936-6.033c0-.075 2.29-.107 6.656-.107h6.657V28.59h-6.635c-3.653 0-6.667-.021-6.689-.042-.02-.022-.032-2.34-.01-5.153l.02-5.11h15.018v-2.683h-18.638v15.296M198.501 30.899v15.296h3.228l-.075-2.33c-.107-3.498-.16-5.441-.224-7.76-.032-1.15-.085-2.823-.106-3.703-.139-4.444-.288-11.013-.256-11.046.022-.021 4.686 5.636 10.363 12.57 5.688 6.924 10.384 12.645 10.46 12.709.116.097 1.202-.236 1.511-.472.097-.075.128-3.274.128-15.328V15.603h-3.323l.064 1.524c.032.848.086 2.544.117 3.789.032 1.235.075 2.974.106 3.865.033.88.076 2.522.107 3.649.032 1.116.107 3.704.16 5.743.128 4.487.15 5.474.096 5.517-.021.022-4.462-5.388-9.873-12.022l-9.831-12.065H198.5v15.296" transform="translate(-237 -4861) translate(0 4785) translate(237 76.602)"/>
                    <path fill="#761F21" d="M34.365 41.626c-.427.483-1.023 1.159-1.332 1.502-.639.72-.714.623.82 1.289 1.342.6 2.971 1.158 4.505 1.567l1.194.31 1.139-1.223c.639-.687 1.16-1.277 1.182-1.32.01-.043-.554-.29-1.257-.537-1.576-.558-3.28-1.32-4.44-1.975-.48-.279-.917-.505-.96-.505-.042.011-.437.408-.851.892" transform="translate(-237 -4861) translate(0 4785) translate(237 76.602)"/>
                    <g transform="translate(-237 -4861) translate(0 4785) translate(237 76.602) translate(224.2 41.526)">
                        <mask id="tff8olfkbb" fill="#fff">
                            <use xlink:href="#s7mw3epypa"/>
                        </mask>
                        <text fill="#FFF" font-family="ArialMT, Arial" font-size="4.729" mask="url(#tff8olfkbb)">
                            <tspan x=".247" y="4.12">®</tspan>
                        </text>
                    </g>
                    <path fill="#761F21" d="M58.882 8.908c-5.751.526-11.673 1.91-16.615 3.864-1.864.741-5.101 2.212-5.368 2.459-.096.085-.34.225-.543.321-.202.097-.511.269-.693.387-.17.118-.436.268-.585.344-.15.074-.82.504-1.491.954-7.605 5.1-11.184 11.68-9.458 17.358.288.966 1.044 2.608 1.172 2.533.138-.086 1.991-2.963 2.566-3.982.501-.88.501-.891.501-1.89 0-1.792.383-3.413 1.203-5.11 2.375-4.926 7.882-9.477 15.625-12.923 4.303-1.91 9.767-3.478 14.687-4.208.618-.097 1.14-.193 1.172-.215.064-.075-.469-.042-2.173.108" transform="translate(-237 -4861) translate(0 4785) translate(237 76.602)"/>
                </g>
            </g>
        </g>
    </g>
</svg>
