<svg xmlns="http://www.w3.org/2000/svg" width="104" height="48" viewBox="0 0 104 48">
    <g fill="none" fill-rule="evenodd">
        <g fill-rule="nonzero">
            <g>
                <path fill="#000" d="M0 0.6H103.8V47.4H0z"/>
                <path fill="#9A8348" d="M103.356 0H0V48H103.8V0h-.444zM.888 34.574V14.459h101.974v20.115H.888zm102.024.934v11.607H.888V35.508h102.024zM.888 13.525V.984h101.974v12.54H.888z"/>
                <path fill="#FFF" d="M12 41.76c-.584.047-.73.189-.73.754v1.32c-1.313.425-1.897.566-2.773.566-2.189 0-3.697-1.367-3.697-3.253 0-2.027 1.557-3.347 3.892-3.347.827 0 1.605.141 2.53.377l.048 1.556h-.243c-.146-1.084-.973-1.65-2.335-1.65-1.606 0-2.578.943-2.578 2.64 0 1.886 1.216 3.3 2.87 3.3.438 0 .73-.094 1.216-.33v-1.179c0-.613-.097-.754-.681-.801v-.236h2.432v.283H12zM25.824 41.004v-2.87h.288c1.008 0 1.632.623 1.632 1.627 0 .86-.48 1.243-1.632 1.243h-.288zM30 44.161c-.576 0-.816-.191-1.248-1.052-.192-.335-.288-.526-.288-.526l-.24-.479c-.384-.717-.432-.765-.624-1.004.864-.24 1.344-.813 1.344-1.626 0-1.052-.768-1.674-1.968-1.674h-.624c-.576.048-1.008.048-1.392.048H24v.239h.096c.48 0 .624.24.624.86v4.305c0 .67-.144.861-.624.861H24v.24h2.688v-.288c-.72-.048-.864-.191-.864-1.004v-1.77c.672 0 .72.048 1.152.909.384.813.672 1.243.864 1.53.336.43.912.67 1.536.67.192 0 .336 0 .624-.048v-.191zM45.545 44.4H42.6v-.243h.11c.545 0 .708-.194.708-.873v-4.368c0-.68-.163-.873-.709-.873h-.054V37.8H45.6v.243h-.11c-.545 0-.708.242-.708.873v4.368c0 .68.163.873.709.873h.109v.243h-.055zM63.6 42.75l-.15 1.65c-1.25-.049-1.7-.049-2.65-.049-.7 0-1.35 0-1.95.049h-.65v-.243h.15c.5 0 .65-.242.65-.873v-4.368c0-.68-.15-.873-.65-.873h-.15V37.8h2.75v.243h-.15c-.5 0-.65.242-.65.873v4.028c0 .97.2 1.116 1.25 1.116 1.2 0 1.65-.34 1.9-1.359l.3.049zM81.6 42.75l-.15 1.65c-1.25-.049-1.7-.049-2.65-.049-.7 0-1.35 0-1.95.049h-.65v-.243h.15c.5 0 .65-.242.65-.873v-4.368c0-.68-.15-.873-.65-.873h-.15V37.8h2.75v.243h-.15c-.5 0-.65.242-.65.873v4.028c0 .97.2 1.116 1.25 1.116 1.2 0 1.65-.34 1.9-1.359l.3.049zM99 42.75v.146c-.047.485-.093.776-.093 1.31v.194c-1.119-.049-1.538-.049-2.377-.049-.606 0-1.212 0-1.77.049h-.56v-.243h.093c.466 0 .606-.242.606-.873v-4.368c0-.68-.14-.873-.606-.873H94.2V37.8c.885.049 1.165.049 2.144.049.978 0 1.305 0 2.143-.049.047.728.094 1.165.14 1.553h-.28c-.186-.97-.559-1.213-1.724-1.213h-.652v2.669h.652c.84 0 1.026-.146 1.072-.777v-.145h.326c-.046.534-.046.728-.046 1.116 0 .34 0 .534.046 1.116h-.326c-.046-.776-.186-.873-1.072-.873h-.699v1.99c0 .679.14.824.84.824 1.304 0 1.77-.34 1.91-1.359l.326.049z"/>
                <g fill="#9A8348">
                    <path d="M1.184 2.112c.542 0 .986-.432.986-.96s-.444-.96-.986-.96c-.543 0-.987.432-.987.96s.444.96.987.96zM18.641 2.112c.543 0 .986-.432.986-.96s-.443-.96-.986-.96c-.542 0-.986.432-.986.96s.444.96.986.96zM36.05 2.112c.542 0 .986-.432.986-.96s-.444-.96-.987-.96c-.542 0-.986.432-.986.96.05.528.444.96.986.96zM53.507 2.112c.542 0 .986-.432.986-.96s-.444-.96-.986-.96c-.543 0-.986.432-.986.96s.443.96.986.96zM70.964 2.112c.543 0 .987-.432.987-.96s-.444-.96-.987-.96c-.542 0-.986.432-.986.96s.444.96.986.96z" transform="translate(16.8 39.6)"/>
                </g>
                <path fill="#FFF" d="M17.4 29.88c-2.25 1.44-3.75 1.92-6.05 1.92-4.25 0-7.15-2.64-7.15-6.48 0-4.032 3.05-6.72 7.65-6.72 1.65 0 3.55.384 5.25 1.008v3.168h-.45c-.35-2.16-2.2-3.6-4.75-3.6-2.95 0-5 2.256-5 5.52 0 3.6 2.25 6.384 5.2 6.384 1.9 0 3.75-1.152 5.15-3.264h.15v2.064zM25.77 21.517l1.958 4.625h-3.622l1.664-4.625zM26.553 18L22.15 28.695c-.587 1.397-1.321 2.023-2.349 2.023v.482c.88-.048 1.174-.048 2.202-.048s1.321 0 2.202.048v-.482h-.244c-.832 0-1.126-.24-1.126-.722 0-.193.049-.434.196-.82l.88-2.456h4.16l1.077 2.601c.147.29.196.482.196.626 0 .53-.343.723-1.224.723v.482c1.077-.048 1.468-.048 2.74-.048 1.273 0 1.664 0 2.741.048v-.434c-1.174-.096-1.664-.578-2.398-2.264L26.553 18zM40.188 24.476v-5.734h.485c1.988 0 3.248 1.236 3.248 3.312 0 1.631-.921 2.62-2.473 2.62-.484-.05-.678-.099-1.26-.198zm0 .742h1.406c3.006 0 4.606-1.236 4.606-3.51 0-2.373-1.552-3.61-4.46-3.61H39.411c-.824 0-1.988-.049-2.812-.098v.494h.194c.97 0 1.26.445 1.26 1.78v8.701c0 1.335-.29 1.73-1.26 1.78H36.6v.445c1.018-.05 1.406-.05 2.57-.05 1.212 0 1.551 0 2.57.05v-.445h-.292c-.92 0-1.26-.445-1.26-1.78v-3.757zM55.2 31.8c-1.246-.05-1.713-.05-2.7-.05-.987 0-1.506 0-2.7.05v-.445h.208c1.038 0 1.35-.445 1.35-1.78v-8.7c0-1.336-.312-1.78-1.35-1.78H49.8V18.6H55.2v.494h-.208c-1.038 0-1.35.445-1.35 1.78v8.701c0 1.335.312 1.73 1.35 1.78h.208v.445zM70.8 22.209h-.64c-.196-1.978-.737-2.57-2.655-2.57H65.93v9.936c0 1.335.295 1.73 1.279 1.78h.197v.445c-1.033 0-1.427-.05-2.656-.05-1.23 0-1.623 0-2.656.05v-.445h.197c.983 0 1.278-.445 1.278-1.78v-9.937h-1.672c-1.623 0-2.213.593-2.459 2.571H58.8l.197-3.609c2.311.05 3.147.05 5.852.05h5.853l.098 3.559zM77.97 21.517l1.958 4.625h-3.622l1.664-4.625zM78.753 18L74.35 28.695c-.587 1.397-1.321 2.023-2.349 2.023v.482c.88-.048 1.174-.048 2.202-.048s1.321 0 2.202.048v-.482h-.244c-.832 0-1.126-.24-1.126-.722 0-.193.049-.434.196-.82l.88-2.456h4.16l1.077 2.601c.147.29.196.482.196.626 0 .53-.343.723-1.224.723v.482c1.077-.048 1.468-.048 2.74-.048 1.273 0 1.664 0 2.741.048v-.434c-1.174-.096-1.664-.578-2.398-2.264L78.753 18zM99 27.85l-.287 3.35c-2.299-.05-3.209-.099-4.98-.099-1.294 0-2.539 0-3.688.05H88.8v-.444h.287c.91 0 1.245-.443 1.245-1.773v-8.668c0-1.33-.287-1.773-1.245-1.773H88.8V18c1.006.05 1.389.05 2.586.05 1.197 0 1.58 0 2.586-.05v.493h-.287c-.91 0-1.246.443-1.246 1.773v8.028c0 1.872.336 2.216 2.347 2.216 2.25 0 3.16-.69 3.591-2.709l.623.05zM36 6.2h-.353c-.1-1.1-.403-1.4-1.46-1.4h-.857v5.4c0 .75.15.95.705.95h.1v.25H31.215v-.25h.1c.555 0 .706-.25.706-.95V4.8h-.907c-.907 0-1.21.35-1.36 1.4H29.4l.1-2h6.45l.05 2zM53.8 7.372V5.408c0-.755-.15-.956-.7-.956H53V4.2H55.8v.252h-.1c-.55 0-.7.251-.7.956v4.784c0 .755.15.956.7.956h.1v.252H53v-.252h.1c.55 0 .7-.251.7-.956V7.775H50v2.417c0 .755.15.956.7.956h.1v.252H48v-.252h.1c.55 0 .7-.251.7-.956V5.408c0-.755-.15-.956-.7-.956H48V4.2H50.8v.252h-.1c-.55 0-.7.251-.7.956v1.964h3.8zM74.4 9.537v.201c-.05.504-.1.856-.1 1.46v.202c-1.238-.05-1.733-.05-2.674-.05-.694 0-1.387 0-1.982.05H69v-.252h.1c.544 0 .693-.251.693-.956V5.408c0-.755-.149-.956-.694-.956H69V4.2c.99.05 1.338.05 2.428.05 1.139 0 1.486 0 2.427-.05.05.755.1 1.31.198 1.712h-.347c-.198-1.057-.594-1.36-1.981-1.36h-.743v2.92h.693c.942 0 1.14-.15 1.19-.855v-.151h.346c-.05.604-.05.805-.05 1.208 0 .403 0 .604.05 1.209h-.347c-.05-.806-.247-.957-1.238-.957h-.694v2.215c0 .756.149.907.941.907 1.437 0 1.982-.353 2.18-1.51h.347z"/>
                <path fill="#FFF" stroke="#FFF" stroke-width=".5" d="M99.138 19.5v-.727h.185c.185 0 .323.09.323.318 0 .227-.092.409-.323.409h-.185 0zm-.507-.727c.184 0 .23.045.23.09v1.228c0 .09-.046.09-.23.09v.092h.692v-.091c-.185 0-.23-.046-.23-.091v-.546h.23c.415.637.462.682.554.682h.277v-.09c-.092 0-.139-.046-.37-.41l-.184-.272c.185-.046.323-.228.323-.455 0-.273-.23-.41-.508-.41h-.738v.183h-.046zm-.831.727c0 .818.692 1.5 1.523 1.5.83 0 1.477-.682 1.477-1.5s-.692-1.5-1.477-1.5c-.83 0-1.523.682-1.523 1.5zm.277 0c0-.682.554-1.273 1.246-1.273s1.246.591 1.246 1.273c0 .682-.554 1.273-1.246 1.273s-1.246-.546-1.246-1.273z"/>
            </g>
        </g>
    </g>
</svg>
