<svg xmlns="http://www.w3.org/2000/svg" xmlns:xlink="http://www.w3.org/1999/xlink" width="106" height="33" viewBox="0 0 106 33">
    <defs>
        <path id="3b5oeewbka" d="M103.354 17.76c.652 0 1.208-.232 1.668-.694.46-.462.69-1.02.69-1.672 0-.65-.23-1.204-.69-1.662-.46-.458-1.016-.687-1.668-.687-.649 0-1.202.229-1.66.687-.46.46-.69 1.014-.69 1.662 0 .655.228 1.212.684 1.672.458.462 1.013.694 1.666.694zm0-.325c-.563 0-1.041-.199-1.435-.597-.391-.397-.587-.879-.587-1.444 0-.56.197-1.038.59-1.434.396-.398.873-.597 1.432-.597.56 0 1.038.199 1.434.597.394.396.59.874.59 1.434 0 .565-.196 1.047-.59 1.444-.393.398-.872.597-1.434.597zm-.495-.754v-1.02h.36c.242 0 .41.027.507.083.163.096.244.294.244.594v.205l.01.084.006.029.006.025h.427l-.016-.032c-.01-.021-.018-.066-.022-.135-.005-.068-.007-.132-.007-.192v-.19c0-.13-.047-.264-.141-.4-.094-.138-.243-.222-.446-.254.16-.026.286-.068.375-.125.17-.11.254-.28.254-.51 0-.326-.134-.544-.401-.655-.15-.062-.385-.093-.706-.093h-.905v2.586h.455zm.411-1.338h-.41v-.937h.388c.252 0 .436.032.55.096.115.064.172.19.172.379 0 .199-.089.334-.267.404-.096.039-.24.058-.433.058z"/>
    </defs>
    <g fill="none" fill-rule="evenodd">
        <g fill-rule="nonzero">
            <g>
                <path fill="#000" d="M73.863 23.558c.109.019.127.055.182.129h.036c.018.036.018.146.037.183h-.037v.037c-.09.018-.182.036-.255.036v-.036H73.7c-.018-.037-.037-.055-.037-.092h-.09c-.019-.037-.037-.055-.037-.092-.091-.073-.182-.146-.255-.22v-.091c-.036-.019-.054-.037-.09-.037v-.092h-.037c-.019-.055-.037-.11-.037-.183h-.036c-.018-.092-.037-.183-.037-.257h-.036v-.183h-.036c-.019-.257-.037-.532-.037-.788h-.036v-.129h-.037c-.018-.055-.036-.11-.036-.183h-.036c-.055-.183.018-.77.036-.88v-.348c.091-.349.11-.807.218-1.137v-.22h.037c.036-.22.054-.44.09-.66h.037v-.183h.037v-.184h.036v-.183h.037v-.183h.036v-.257h.036v-.128h.037c.018-.129.036-.257.036-.404h.037c.036-.275.09-.55.127-.843h.036v-.257h.037v-.22h.036v-.256h.037v-.257h.036c.073-.568.146-1.137.219-1.723h.036v-.312h.036v-.312h.037v-.311h.036v-.404h.037v-.44c.109-.403.109-1.136.036-1.576h-.218c-.019.055-.019.128-.037.183h-.036v.128c-.037.019-.055.037-.091.037v.092c-.037.018-.055.036-.091.036v.092c-.037.018-.055.037-.091.037v.091c-.037.037-.091.055-.128.092v.092c-.036.036-.09.055-.127.091-.091.147 0 .202-.219.257v.037h-.182c-.054-.312.037-.624.128-.917v-.312h.036v-.311h.037v-.44c.163-.587 0-1.669-.037-2.237-.036-.257-.09-.495-.127-.752h-.037c-.054-.091-.236-.33-.218-.44h.036c-.018-.036-.036-.055-.036-.091h.036c.128-.202.419-.165.656-.257v-.037h.09v-.036c.128-.037.256-.055.401-.092v-.037h.091v-.036h.128v-.037h.127v-.037h.128v-.036h.127v-.037c.182-.037.382-.055.564-.092.146-.036.565-.165.783-.091.091.036.182.11.31.128.018.037.036.092.036.128.037.019.055.037.091.037.019.055.037.11.037.183h.036v.129h.037v.183h.036v.183h.036v.22h.037v.257h.036v.312h.037v.348h.036v.312h.037v.531h.036v.184h.036v.183h.037c.054.183 0 1.1-.037 1.228h-.036v.22h-.036v.257h-.037v.22h-.036v.22h-.037v.183h-.036v.22h-.037c-.018.129-.036.257-.036.404h-.036v.183h-.037v.183h-.036v.184h-.037v.128h-.036v.22h-.036v.128h-.037v.129h-.036v.183h-.037v.128h-.036v.092h-.037c-.018.092-.036.183-.036.257h-.036v.091h-.037v.129h-.036v.091h-.037c-.018.092-.036.184-.036.257h-.036v.092h-.037v.128h-.036v.128h-.037c-.018.055-.036.11-.036.184h-.036c-.019.091-.037.183-.037.256h-.036v.092h-.037v.092h-.036v.091H75.5c-.036.092-.054.184-.09.257h-.037v.22h-.036c-.019.055-.037.11-.037.183h-.036c-.018.092-.037.184-.037.257h-.036v.092h-.037c-.018.091-.036.183-.036.256h-.036v.092h-.037v.128h-.036c-.018.074-.037.147-.037.22h-.036v.092h-.036v.128h-.037c-.018.055-.036.11-.036.184h-.037v.128h-.036v.092h-.036v.128h-.037v.092h-.036v.128h-.037v.092h-.036c-.037.128-.055.256-.091.403h-.037v.092h-.036c-.018.091-.036.183-.036.256h-.037v.129H74.3v.128h-.037v.128h-.036v.184h-.036v.128h-.037v.183h-.036v.22h-.037v.22h-.036v.349c-.055.201-.128.605 0 .751v-.036c.164-.129.255-.33.4-.477.164-.147.328-.293.474-.44.328-.33.637-.678.965-1.008.637-.624 1.274-1.265 1.93-1.889v-.091c.182-.165.346-.33.528-.477v-.092c.036-.036.09-.055.127-.091.037-.037.055-.092.091-.129h.037v-.091c.109-.11.236-.202.346-.312v-.092c.09-.073.182-.146.255-.22.127-.165.254-.33.4-.476.146-.129.291-.257.437-.404v-.091c.182-.184.382-.349.564-.532v-.092c.2-.183.401-.385.62-.568v-.092c.127-.11.254-.238.4-.348.11-.11.182-.275.31-.403.145-.129.29-.257.437-.404v-.091c.127-.11.254-.239.4-.349v-.091c.037-.037.091-.055.128-.092.036-.037.054-.092.09-.128h.037v-.092c.11-.092.2-.183.31-.257v-.091c.036-.037.09-.055.127-.092.036-.055.091-.11.127-.183h.037v-.092c.11-.092.2-.183.31-.257v-.091c.09-.074.181-.147.254-.22v-.092c.11-.092.2-.183.31-.257v-.091c.11-.092.2-.184.31-.257v-.092c.109-.091.2-.183.309-.256V8.36c.11-.11.237-.202.346-.312v-.091c.11-.11.237-.202.346-.312.018-.037.036-.092.036-.128.182-.184.383-.349.565-.532v-.092c.346-.33.691-.678 1.056-1.008.273-.385.637-.678.965-1.008.145-.165.29-.33.437-.477h.09c.11-.128.237-.257.347-.403h.09c.092-.11.183-.202.256-.312h.09c.073-.092.146-.183.219-.257h.091c.036-.055.091-.11.128-.183h.036c.018-.037.036-.055.036-.092h.091c.11-.128.237-.256.346-.403h.091c.073-.092.146-.183.219-.257h.09c.074-.091.147-.183.22-.256h.09c.055-.074.11-.147.182-.22h.092c.054-.074.109-.147.182-.22h.09c.037-.055.092-.11.128-.184h.091c.037-.036.055-.091.091-.128h.091c.037-.037.055-.092.091-.128h.091V1.32c.037-.018.091-.037.128-.037.036-.036.054-.091.09-.128.055-.018.11-.037.183-.037.018-.036.036-.055.036-.091.091-.037.182-.055.255-.092.018-.037.037-.055.037-.092.4-.165.819-.33 1.22-.476.109-.019.236-.037.345-.037V.293h.128V.257h.182V.22h.182V.183h.218V.147h.183V.11h.218V.073c.255-.018.492-.036.747-.036V0h.473v.037h.437v.036h.218V.11h.219v.037h.182v.036c.146.037.291.055.437.092v.037h.091v.036h.127v.037c.091.037.182.055.255.092v.036c.055.019.11.037.182.037.037.037.055.092.091.128h.091c.073.092.146.184.219.257.055.037.11.092.182.128v.092c.11.092.2.183.31.257v.091c.036.037.09.055.127.092v.092c.036.018.055.036.091.036v.092c.036.018.055.037.091.037v.091c.036.019.055.037.091.037.037.092.055.183.091.257.146.275.255.348.255.788-.091.055-.073.073-.218.092-.037-.055-.146-.092-.183-.129v-.091c-.036-.019-.054-.037-.09-.037v-.128c-.037-.019-.055-.037-.092-.037-.018-.037-.036-.092-.036-.128h-.091c-.036-.037-.055-.092-.091-.129h-.091v-.036c-.055-.019-.11-.037-.182-.037v-.037c-.091-.018-.182-.036-.255-.036v-.037h-.128v-.037h-.127v-.036h-.127v-.037h-.183v-.037h-.09v-.036c-.037.018-.092.036-.128.036v-.036h-.255v-.037h-.473v-.037c-.273-.073-1.075.037-1.275.092-.328.037-.673.092-1.001.128v.037h-.182v.037h-.182v.036h-.182v.037h-.182v.037h-.183v.036h-.127v.037h-.182v.037c-.091.018-.182.036-.255.036v.037h-.091v.037c-.091.018-.182.036-.255.036v.037h-.091v.037h-.127v.036h-.091v.037h-.128v.037c-.09.036-.182.055-.255.091v.037c-.073.018-.145.037-.218.037-.019.036-.037.055-.037.091h-.09v.037h-.092l-.09.092h-.092c-.018.036-.036.055-.036.091-.055.019-.11.037-.182.037-.019.037-.037.055-.037.092h-.09v.036c-.037.019-.092.037-.128.037-.018.037-.037.055-.037.092h-.09c-.019.036-.037.055-.037.091h-.091c-.037.037-.055.092-.091.129h-.091c-.018.036-.037.055-.037.091h-.09c-.037.037-.055.092-.092.129h-.09c-.019.036-.037.055-.037.091h-.091c-.037.037-.055.092-.091.129h-.091c-.037.036-.055.091-.091.128h-.091c-.037.037-.055.092-.091.128h-.091c-.037.055-.091.11-.128.184h-.09c-.037.055-.092.11-.128.183-.037.018-.091.037-.128.037-.018.036-.036.055-.036.091h-.091c-.037.055-.091.11-.128.184h-.09c-.055.073-.11.146-.183.22h-.09c-.037.055-.092.11-.128.183h-.091c-.055.073-.11.147-.182.22h-.091c-.073.092-.146.183-.219.257h-.091c-.091.11-.182.201-.255.311h-.09c-.074.092-.147.184-.22.257h-.09c-.073.092-.146.183-.219.257-.182.165-.382.33-.564.476-.146.165-.292.33-.437.477h-.091c-.11.128-.237.257-.346.403-.128.11-.255.239-.4.349v.091h-.037c-.037.055-.091.11-.128.184-.382.385-.764.733-1.092 1.191-.091.074-.182.147-.255.22v.092c-.073.055-.146.11-.219.183v.092c-.109.11-.236.202-.346.312v.091c-.218.202-.436.404-.655.624-.11.11-.2.238-.31.348-.036.037-.09.055-.127.092v.091c-.291.275-.583.55-.874.844-.255.256-.528.531-.746.843-.237.22-.474.44-.692.66v.092c-.255.256-.528.495-.783.751v.092c-.2.183-.4.385-.62.568v.092c-.145.128-.29.257-.436.403v.092c-.11.092-.2.183-.31.257v.091c-.109.092-.2.184-.31.257v.092c-.072.055-.145.11-.218.183v.092c-.09.073-.182.146-.255.22v.091c-.054.037-.109.092-.182.129v.091c-.054.037-.109.092-.182.129v.091c-.054.037-.109.092-.182.129v.091c-.054.037-.11.092-.182.129v.091c-.073.055-.146.11-.218.184v.091c-.037.037-.091.055-.128.092v.092c-.036.036-.09.055-.127.091v.092c-.037.037-.091.055-.128.092v.091c-.054.037-.109.092-.182.129v.091c-.036.019-.054.037-.09.037v.092c-.037.036-.092.055-.128.091v.092c-.037.018-.055.037-.091.037v.091c-.037.037-.091.055-.128.092v.092c-.036.018-.054.036-.09.036v.092h-.037c-.018.037-.037.092-.037.128-.036.019-.054.037-.09.037v.092c-.037.018-.055.036-.092.036v.092c-.036.037-.09.055-.127.092v.091h-.037c-.018.037-.036.092-.036.129-.036.018-.055.036-.091.036v.092c-.037.037-.091.055-.128.092v.091c-.036.019-.054.037-.09.037v.092h-.037c-.018.036-.036.091-.036.128-.037.018-.055.037-.091.037v.091c-.037.019-.055.037-.091.037v.092c-.037.036-.092.055-.128.091-.018.055-.036.11-.036.184-.037.018-.055.036-.091.036v.092l-.091.092v.091h-.037v.092H74.3v.092h-.037c-.018.055-.036.11-.036.183h-.036v.183c0 .019-.055.019-.037.092-.4-.037-.31.055-.291.183zM3.06 14.909c-.018.09-.036.109-.09.181h-.036c-.018.073-.037.146-.037.218-.036.019-.054.037-.09.037-.018.054-.036.109-.036.181-.036.018-.055.037-.09.037-.037.09-.055.181-.091.254-.037.018-.055.036-.09.036-.019.11-.037.2-.037.309h-.036v.127H2.39v.182h-.036v.181h-.036v.218h-.036v.254h-.036v.255h-.037v.254h-.036v.563c0 .672.09 1.217.344 1.616.036.036.09.055.127.09v.092c.036.036.09.054.127.09v.091h.036c.018.037.036.091.036.127.036.019.054.037.09.037v.09c.2.182.4.382.616.563.055.019.11.037.182.037.688.363 1.883.417 2.698.181.18-.018.344-.036.525-.036.217-.073.525-.109.742-.182h.218c.507-.163 1.14-.254 1.648-.435.18-.037.38-.055.561-.091v-.036c.254-.055.489-.11.743-.182.941-.345 1.973-.618 2.915-.963h.181v-.036h.127v-.036h.127v-.037h.217v-.036c.09-.018.181-.036.254-.036v-.036h.09v-.037h.127v-.036h.09v-.036c.091-.019.182-.037.254-.037v-.036h.09v-.036c.091-.019.182-.037.254-.037v-.036h.09v-.036h.127v-.037h.091v-.036c.127-.036.253-.055.398-.09v-.037c.073-.018.145-.036.218-.036v-.037h.09v-.036h.127v-.036h.09v-.037c.091-.018.182-.036.254-.036v-.036h.09v-.037c.091-.018.182-.036.254-.036v-.036h.09v-.037c.073-.018.146-.036.218-.036v-.036c.09-.018.181-.037.254-.037v-.036h.09v-.036h.127v-.037h.09v-.036c.09-.018.181-.036.254-.036v-.037h.09v-.036c.091-.018.182-.036.254-.036v-.037h.09v-.036h.127v-.036h.09v-.036c.091-.019.182-.037.254-.037v-.036h.09v-.036h.091v-.037h.091v-.036h.127v-.036h.09v-.037c.055-.018.109-.036.181-.036v-.036h.127v-.037h.09v-.036c.055-.018.11-.036.182-.036v-.037h.127v-.036h.09v-.036c.054-.018.109-.037.181-.037v-.036h.127v-.036h.09v-.037h.091v-.036h.09v-.036c.073-.018.146-.037.218-.037v-.036c.054-.018.109-.036.181-.036v-.036h.127v-.037h.09v-.036c.09-.036.181-.055.254-.09v-.037h.127v-.037h.09v-.036h.09v-.036h.091v-.037h.127v-.036h.09v-.036c.055-.018.11-.036.182-.036v-.037h.126v-.036h.091v-.036c.09-.037.181-.055.254-.091v-.037h.09v-.036h.127v-.036c.09-.037.18-.055.253-.091v.182c-.09.072-.036.109-.09.181-.055.037-.109.091-.181.127v.037h-.09c-.019.036-.037.054-.037.09-.036.019-.09.037-.127.037v.036h-.09c-.018.036-.037.055-.037.09h-.09c-.018.037-.036.055-.036.092h-.09c-.019.036-.037.054-.037.09h-.09c-.019.037-.037.055-.037.091h-.09v.037c-.037.018-.091.036-.127.036-.018.036-.036.054-.036.09h-.09c-.037.037-.055.092-.091.128h-.091c-.018.036-.036.054-.036.09-.036.019-.09.037-.127.037v.036h-.09c-.019.037-.037.055-.037.091h-.09c-.018.036-.037.055-.037.09h-.09c-.018.037-.036.055-.036.092h-.09c-.019.036-.037.054-.037.09h-.09c-.037.037-.055.091-.091.128h-.09c-.019.036-.037.054-.037.09-.036.019-.09.037-.127.037v.036h-.09c-.018.036-.036.055-.036.09-.037.019-.091.037-.127.037v.036h-.09l-.091.091h-.09v.037h-.091v.036h-.091v.036h-.09v.037h-.091v.036h-.09c-.019.036-.037.054-.037.09h-.09l-.09.091h-.091v.037h-.091v.036h-.09v.036h-.091v.037c-.054.018-.109.036-.181.036-.018.036-.036.055-.036.09h-.091v.037h-.09v.037h-.091v.036h-.09v.036h-.091l-.09.091h-.091c-.018.036-.036.054-.036.09h-.091l-.09.092h-.091v.036h-.09v.036c-.055.018-.11.037-.182.037-.018.036-.036.054-.036.09-.054.019-.109.037-.181.037v.036c-.09.036-.181.054-.254.09-.018.037-.036.055-.036.092h-.09v.036h-.09v.036h-.091v.037h-.091l-.09.09h-.091c-.018.037-.036.055-.036.091h-.09l-.091.091h-.09v.036h-.091v.037h-.091c-.018.036-.036.054-.036.09h-.127v.037h-.09v.036h-.091v.036h-.09v.037h-.091v.036c-.09.036-.181.054-.254.09v.037h-.126v.036c-.055.019-.11.037-.182.037v.036h-.126v.036h-.09v.037h-.128v.036c-.054.018-.108.036-.18.036v.037h-.128v.036c-.054.018-.108.036-.18.036v.037h-.127v.036h-.09v.036h-.128v.037c-.054.018-.108.036-.18.036v.036h-.128v.037c-.054.018-.108.036-.18.036v.036h-.127v.037h-.09v.036h-.128v.036c-.054.018-.108.036-.18.036v.037h-.128v.036c-.054.018-.108.036-.18.036v.037h-.127v.036h-.091v.036h-.127v.037c-.054.018-.108.036-.18.036v.036h-.128v.037c-.054.018-.108.036-.18.036v.036h-.127v.037h-.091v.036h-.127v.036c-.054.018-.108.037-.18.037v.036h-.128v.036c-.054.018-.108.037-.18.037v.036h-.127v.036h-.091v.037h-.127v.036c-.054.018-.108.036-.18.036v.036h-.128v.037c-.054.018-.108.036-.18.036v.036h-.128v.037h-.09v.036c-.127.018-.254.036-.398.036v.037H9.85v.036h-.18v.036h-.218v.037h-.217v.036h-.181v.036H8.8v.037h-.308v.036h-.308v.036h-.561v.037h-.742c-.562.163-1.504 0-1.956-.128-.163-.018-.326-.036-.471-.036v-.036h-.181V22.7h-.127v-.037H4.02v-.036h-.127v-.036c-.162-.019-.325-.037-.47-.037v-.036h-.09v-.036h-.128v-.037c-.09-.036-.18-.054-.253-.09v-.037h-.09v-.036c-.091-.036-.182-.055-.254-.091v-.036c-.036-.018-.09-.037-.127-.037-.018-.036-.036-.054-.036-.09-.055-.019-.109-.037-.181-.037-.018-.036-.037-.054-.037-.09h-.09v-.037c-.036-.018-.09-.036-.127-.036-.018-.036-.036-.055-.036-.091h-.09c-.037-.036-.055-.09-.091-.127h-.09c-.037-.036-.055-.09-.091-.127h-.09c-.236-.254-.472-.49-.689-.745v-.09c-.036-.019-.054-.037-.09-.037v-.09c-.037-.019-.055-.037-.091-.037-.036-.09-.054-.182-.09-.254H.524v-.091H.49v-.09H.453c-.036-.092-.055-.182-.09-.255H.325v-.127H.29v-.127H.254v-.127H.217v-.128H.181v-.181H.145v-.218H.109v-.218H.072v-.309H.036C.018 18.032 0 17.687 0 17.36h.036c.018-.2.036-.4.036-.617H.11v-.218h.036c.036-.182.054-.345.09-.527h.037v-.127h.036v-.127h.036v-.127H.38v-.127h.037v-.127h.036c.018-.127.036-.254.036-.4h.036v-.09h.036c.018-.055.037-.11.037-.182.036-.018.054-.036.09-.036v-.091l.09-.091v-.09c.037-.019.055-.037.091-.037v-.09c.09-.183.127-.146.127-.437-.254-.127-.417-.363-.616-.563-.054-.036-.108-.09-.18-.127-.019-.054-.037-.109-.037-.181H.127c-.018-.182-.036-.382-.036-.563H.054c-.054-.2.09-.69.181-.745.924-.036 1.848-.09 2.79-.127.035-.055.09-.11.126-.182h.09c.037-.054.091-.109.127-.181h.09c.055-.073.11-.146.182-.218h.09c.019-.037.037-.055.037-.091h.036c.018-.036.036-.055.036-.09h.09c.055-.073.11-.146.182-.219h.09c.037-.054.09-.109.127-.181h.09c.055-.073.11-.146.182-.218h.09c.055-.073.109-.146.181-.218h.09c.037-.037.055-.091.091-.127h.091c.018-.037.036-.055.036-.091h.09c.037-.036.055-.09.091-.127h.09c.037-.037.055-.091.091-.127h.091c.036-.037.054-.091.09-.128h.091c.036-.036.054-.09.09-.127h.091c.018-.036.036-.054.036-.09h.09c.037-.037.055-.091.091-.128h.091c.018-.036.036-.054.036-.09h.09c.037-.037.055-.091.091-.127h.09c.019-.037.037-.055.037-.091h.09c.037-.037.055-.091.091-.127h.09c.019-.037.037-.055.037-.091h.09c.037-.037.055-.091.091-.127h.09c.019-.037.037-.055.037-.091h.09c.037-.036.055-.09.09-.127h.091c.019-.037.037-.055.037-.091h.09v-.036h.09l.091-.091h.09c.019-.036.037-.055.037-.091h.09v-.036h.091l.09-.091h.091c.018-.036.036-.055.036-.09h.091l.09-.092h.091v-.036h.09v-.036h.091v-.037c.055-.018.109-.036.181-.036.018-.036.037-.054.037-.09.09-.037.18-.055.253-.092v-.036h.09v-.036h.091v-.037c.09-.036.181-.054.254-.09v-.037h.126v-.036h.091v-.036c.054-.018.109-.037.181-.037v-.036h.127v-.036h.09V6.7h.09v-.036c.091-.036.182-.054.254-.09v-.037h.127v-.036h.09v-.037c.091-.036.182-.054.254-.09v-.037h.127v-.036h.09v-.036c.091-.037.182-.055.254-.091v-.037h.09v-.036h.127v-.036h.091v-.036h.09v-.037c.091-.036.182-.054.254-.09v-.037h.127V5.83h.09v-.037h.127v-.036h.09V5.72c.073-.018.146-.037.218-.037v-.036h.127v-.036h.09v-.036h.127v-.037h.09v-.036c.091-.018.182-.036.254-.036 1.25-.545 2.554-1.054 3.876-1.526.905-.218 1.829-.436 2.734-.654h.833c.67 0 1.141.073 1.612.255h.127v.036h.126v.036c.109.018.2.037.308.037v.036c.055.018.109.036.181.036v.036c.055.019.109.037.181.037.019.036.037.054.037.09.09.037.18.055.253.091.036.037.054.091.09.128h.091c.055.072.109.145.181.217.037.019.055.037.09.037v.09c.037.037.091.055.128.091v.091c.036.018.054.036.09.036v.091h.036c.037.127.055.255.091.4h.036v.09h.036v.219h.037c.036.217.054.435.09.653h-.036v.091h-.036c-.055.11-.036.218-.09.345h-.037v.527c-.163.472-.507 1.126-1.123 1.126-.054-.055 0-.018-.09-.037-.018-.072-.037-.109-.037-.218.055-.036.11-.09.182-.127.054-.09.144-.58.09-.78-.054-.146-.109-.273-.127-.473-.145-.09-.126-.127-.217-.254-.054-.036-.109-.09-.181-.127-.018-.036-.036-.055-.036-.09-.09-.037-.181-.055-.254-.092-.018-.036-.036-.054-.036-.09h-.09v-.037c-.055-.018-.11-.036-.182-.036V5.81c-.126-.037-.253-.055-.398-.091v-.037h-.127v-.036c-.127-.018-.253-.036-.398-.036-.906-.273-2.3-.018-3.006.218-.182.036-.38.054-.562.09v.037h-.09v.036h-.181v.037h-.127v.036c-.145.036-.29.054-.435.09v.037h-.127v.036h-.126v.037h-.127V6.3h-.181v.036h-.127v.037h-.127v.036c-.145.036-.29.054-.434.09v.037h-.181v.036c-.127.037-.254.055-.399.091V6.7c-.054-.018-.109-.036-.181-.036V6.7c-.054.019-.109.037-.181.037v.036h-.217c-.018.036-.037.055-.037.09-.072.019-.144.037-.217.037v.037h-.09v.036h-.127v.036h-.127v.036h-.127v.037h-.127v.036h-.18v.036H13.6v.037h-.127v.036h-.126v.036h-.127V7.3c-.09.036-.181.054-.254.09v.037h-.18v.036c-.055.018-.11.036-.182.036v.037c-.072.018-.145.036-.217.036-.018.036-.036.055-.036.09-.091.02-.182.037-.254.037-.018.037-.036.055-.036.091h-.09v.036h-.128v.037c-.054.018-.108.036-.18.036v.036c-.055.018-.11.037-.182.037-.018.036-.036.054-.036.09-.127.037-.253.091-.398.128-.018.036-.037.054-.037.09h-.09v.037c-.127.036-.254.09-.399.127-.018.036-.036.054-.036.09-.09.037-.18.055-.253.091-.018.037-.036.055-.036.091h-.091v.037h-.09v.036h-.091l-.09.09h-.091c-.018.037-.036.055-.036.091h-.091c-.018.037-.036.055-.036.091h-.09c-.019.037-.037.055-.037.091-.054.018-.109.036-.181.036-.018.037-.036.055-.036.091h-.09c-.019.036-.037.055-.037.091h-.09c-.019.036-.037.054-.037.09-.054.019-.108.037-.18.037v.036c-.037.019-.091.037-.128.037-.018.036-.036.054-.036.09h-.09c-.019.037-.037.055-.037.091h-.09c-.036.037-.055.091-.09.127H8.24c-.018.037-.036.055-.036.091h-.091c-.018.037-.036.055-.036.091-.036.018-.09.036-.127.036-.036.055-.09.11-.127.182h-.09c-.037.036-.055.09-.09.127h-.091c-.055.073-.11.145-.182.218h-.09c-.073.09-.145.182-.217.254h-.09c-.091.11-.182.2-.254.309h.253c.145-.127.67-.018.906-.09v-.037h.47v-.036h.399v-.037h.434v-.036h.471v-.036h.435v-.037h.47v-.036h.435v-.036h.435v-.037h.833c.181-.036.706-.036 1.087-.036h.525c.308-.09.833-.036 1.213-.036h.398c.326-.091.852-.037 1.268-.037.598-.018 1.195-.036 1.775-.036.724-.018 1.449-.036 2.173-.036v-.037h.87v.037h.126v.036c.036.018.09.036.127.036-.018.091 0 .037-.037.091-.018.036-.036.09-.036.127-.235.018-.507.11-.688.182h-.308v.036h-.398v.037h-.471v.036h-.398v.036h-.435v.036h-.398v.037h-.435c-.561.163-1.358.09-1.92.254h-.525v.036h-.434v.037h-.399v.036h-.308v.036h-.525c-.272.073-.652.091-.905.182h-.308c-.797.236-1.775.272-2.572.527-.18.018-.344.036-.525.036-.942.236-2.046.2-2.861.49-.109.018-.236.037-.344.037v.036h-.127v.036h-.127v.036h-.127v.037h-.09v.036h-.127v.036c-.054.019-.108.037-.18.037v.036h-.128v.036h-.09v.037h-.127v.036c-.054.018-.109.036-.181.036v.037H5.16v.036h-.09v.036h-.127c-.018.037-.036.055-.036.091h-.09c-.019.036-.037.055-.037.09h-.09v.037H4.6l-.09.091h-.091c-.018.036-.037.055-.037.09h-.09v.037h-.09v.036H4.11v.037h-.09l-.091.09h-.09c-.019.037-.037.055-.037.091h-.09c-.019.037-.037.055-.037.091-.145.127-.29.254-.434.4-.037.036-.055.09-.091.127-.036.109-.054.109-.09.109zM42.142 4.218c-.018-.074-.037-.147-.037-.22-.037-.02-.055-.038-.092-.038V3.87h-.037c-.074-.092-.148-.129-.184-.257-.111-.037-.148-.074-.222-.129v-.037c-.037-.018-.092-.037-.129-.037-.018-.036-.037-.055-.037-.091-.055-.019-.11-.037-.184-.037v-.037c-.093-.037-.185-.055-.259-.092v-.036h-.129v-.037h-.092c-.018-.037-.037-.055-.037-.092-.129-.018-.258-.037-.406-.037v-.036h-.092v-.037h-.313V2.84c-.166-.055-.701 0-.794.037-.24.11-.405.349-.571.532-.037.037-.093.056-.13.092v.092c-.055.037-.11.092-.184.129v.092c-.037.036-.092.055-.13.091-.018.037-.036.092-.036.129-.037.018-.055.037-.092.037v.091c-.037.019-.056.037-.093.037-.018.037-.036.092-.036.129h-.037v.092c-.037.036-.093.055-.13.091-.018.056-.036.11-.036.184-.037.037-.093.055-.13.092-.018.055-.036.11-.036.184-.037.018-.056.036-.093.036V5.1c-.036.019-.055.037-.092.037v.092c-.037.018-.055.036-.092.036v.092c-.037.019-.055.037-.092.037v.092h-.037c-.019.037-.037.092-.037.128-.037.019-.055.037-.092.037v.092c-.037.037-.093.055-.13.092v.092c-.036.018-.055.036-.092.036v.092c-.037.037-.092.055-.129.092-.018.037-.037.092-.037.129-.037.018-.055.036-.092.036v.092c-.037.018-.055.037-.092.037v.092c-.037.036-.092.055-.13.091v.092c-.036.019-.055.037-.091.037-.019.037-.037.092-.037.129h-.037v.091c-.037.019-.056.037-.092.037v.092c-.037.037-.093.055-.13.092v.092c-.073.055-.147.11-.221.183v.092c-.037.019-.055.037-.092.037-.019.055-.037.11-.037.184-.037.018-.055.036-.092.036-.037.092-.056.184-.093.257-.036.019-.055.037-.092.037v.092h-.037c-.018.037-.037.092-.037.129-.036.018-.055.036-.092.036v.092c-.037.037-.092.055-.129.092v.092c-.037.018-.055.036-.092.036v.092c-.037.019-.056.037-.092.037-.019.037-.037.092-.037.129h-.037v.091c-.037.019-.056.037-.092.037v.092c-.037.018-.056.037-.093.037v.092c-.037.018-.055.036-.092.036-.018.037-.037.092-.037.129h-.037v.092c-.037.018-.055.036-.092.036-.018.055-.037.11-.037.184-.037.018-.055.037-.092.037-.018.055-.037.11-.037.183-.037.019-.055.037-.092.037-.019.055-.037.11-.037.184-.037.018-.055.037-.092.037-.019.055-.037.11-.037.183-.037.019-.056.037-.092.037-.037.092-.056.184-.093.257-.037.018-.055.037-.092.037v.092l-.092.091v.092h-.037v.092c-.037.018-.055.037-.092.037-.037.092-.056.183-.092.257-.037.018-.056.037-.093.037-.018.055-.037.11-.037.183h-.036v.092h-.037v.092l-.093.092v.092c-.036.018-.055.036-.092.036-.018.055-.037.11-.037.184h-.037c-.018.055-.037.11-.037.184h-.036c-.074.183.073.275 0 .44-.037.019-.056.037-.093.037v.092h-.037c-.036.037-.055.092-.092.129-.074.036-.129-.019-.184.036v.092l-.092.092v.092h-.037v.092h-.037v.091h-.037v.092h-.037v.092h-.037v.092h-.037v.092h-.037v.092h-.037c-.018.055-.036.11-.036.183h-.037v.092h-.037v.129h-.037v.091h-.037c-.037.129-.055.258-.092.405h-.037c-.019.091-.037.183-.037.257h-.037v.128h-.037v.129h-.037v.128h-.037c-.037.166-.055.33-.092.478h-.037c-.018.11-.037.239-.037.349h-.037v.128h-.036c-.037.184-.056.386-.093.57H31v.22h-.036v.184h-.037v.22h-.037v.257c-.148.514-.203 1.12-.35 1.635-.056.202 0 .79.036.918v.349h.037v.22h.037v.184h.037v.092h.037v.128h.037v.092c.037.019.055.037.092.037v.092c.037.037.092.055.129.092v.091c.037.019.055.037.092.037.074.092.148.184.222.257h.092c.074.11.147.202.221.313h.092v.091c.056.037.111.092.185.129v.092c.037.018.055.037.092.037.055.073.11.146.185.22h.092c.037.037.055.092.092.128.055.019.11.037.184.037v.037c.074.055.074.055.185.092.055.055.406.092.535.036v-.036h.092c.019-.037.037-.055.037-.092h.092v-.037h.092c.019-.037.037-.055.037-.092.056-.018.111-.036.185-.036.037-.037.055-.092.092-.129h.092c.056-.073.111-.147.185-.22h.092c.037-.055.092-.11.13-.184h.036v-.092c.037-.037.092-.055.13-.092v-.091c.054-.037.11-.092.184-.129v-.092h.036c.019-.055.037-.11.037-.184h.037c.019-.11.037-.202.037-.312h.037c-.018-.183-.018-.147-.092-.257-.185.019-.203.092-.35.129-.056.202-.185.183-.314.312v.037c-.037.036-.092.055-.13.091v.092c-.036.019-.092.037-.128.037-.037.037-.056.092-.093.129h-.092c-.037.055-.092.11-.13.183h-.091c-.019.037-.037.055-.037.092h-.092v.037h-.13v.037h-.092v.036h-.221v.037c-.203-.018-.48-.147-.572-.257-.018-.037-.037-.092-.037-.129h-.037v-.22h-.037c.019-.22.037-.44.037-.661v-.404h.037v-.35h.037v-.348h.037v-.35h.037v-.348h.037v-.349c.055-.22.11-.533.184-.753v-.184h.037v-.128h.037v-.129h.037v-.128h.037v-.129h.037c.018-.092.037-.184.037-.257h.036v-.092h.037c.019-.092.037-.183.037-.257h.037v-.092h.037v-.128h.037v-.092h.037v-.129h.037c.018-.055.037-.11.037-.183h.036c.037-.129.093-.258.13-.404.036-.019.055-.037.092-.037.037-.092.055-.184.092-.257.037-.019.055-.037.092-.037.019-.037.037-.092.037-.129.037-.036.092-.055.13-.091.018-.056.036-.11.036-.184.037-.018.056-.037.092-.037v-.092c.111-.091.203-.183.314-.257v-.092h.037c.037-.036.055-.091.092-.128h.092c.111-.129.24-.257.35-.404h.093c.11-.129.24-.257.35-.404h.093c.055-.166.092-.129.221-.22.019-.037.037-.056.037-.092.074-.056.148-.11.221-.184.222-.239.443-.478.664-.698.111-.092.203-.184.314-.257v-.092c.11-.073.203-.147.314-.22v-.092c.147-.129.295-.257.442-.404v-.092c.13-.11.259-.239.406-.349v-.092c.13-.11.258-.239.406-.349v-.092c.092-.073.184-.147.258-.22v-.092c.037-.018.056-.037.092-.037v-.091c.056-.037.111-.055.185-.092v-.092c.037-.037.092-.055.13-.092V9.93c.091-.073.184-.147.257-.22v-.092c.037-.018.056-.037.093-.037.018-.036.036-.091.036-.128.074-.055.148-.11.222-.184v-.092c.037-.036.092-.055.129-.092.018-.055.037-.11.037-.183.092-.074.184-.147.258-.22v-.092c.037-.019.055-.037.092-.037V8.46c.074-.055.148-.11.222-.184.018-.055.037-.11.037-.183.073-.055.147-.11.22-.184v-.092c.038-.018.056-.036.093-.036.019-.037.037-.092.037-.129h.037V7.56c.037-.018.055-.037.092-.037v-.091c.055-.037.11-.092.185-.129v-.092c.036-.018.055-.037.092-.037.018-.055.037-.11.037-.183.055-.037.11-.092.184-.129V6.77c.037-.018.056-.036.092-.036.019-.055.037-.11.037-.184.037-.018.056-.037.093-.037.018-.055.036-.11.036-.183.037-.037.093-.055.13-.092.018-.092.036-.184.036-.257.037-.019.056-.037.093-.037.018-.074.037-.147.037-.22h.036v-.092h.037c.019-.055.037-.11.037-.184h.037c.019-.073.037-.147.037-.22h.037v-.092h.037v-.257h.037V4.18c-.074.037-.093.037-.111.037zm-1.236 1.267h-.037c-.018.11-.037.202-.037.312h-.037c-.018.11-.036.202-.036.312h-.037v.129c-.037.018-.056.037-.093.037-.018.073-.036.146-.036.22-.037.037-.093.055-.13.092v.092c-.036.036-.092.055-.129.091v.092c-.037.037-.092.055-.129.092v.092c-.037.037-.092.055-.129.092v.092c-.037.018-.055.036-.092.036v.092h-.037c-.055.074-.055.074-.092.184h-.093c-.036.128-.073.183-.129.257h-.037v.092h-.036v.092h-.037c-.019.036-.037.055-.037.091-.056.037-.11.092-.185.129v.092c-.037.018-.055.037-.092.037v.091c-.092.074-.184.147-.258.22-.019.056-.037.11-.037.184-.092.074-.185.147-.258.22v.093c-.037.036-.093.055-.13.091v.092c-.055.037-.11.092-.184.129v.092c-.055.036-.11.091-.184.128v.092c-.037.018-.056.037-.093.037-.037.055-.092.11-.129.183H37.9v.092h-.037c-.055.074-.11.11-.129.22-.184.056-.055.037-.129.13-.037.018-.055.036-.092.036v.092c-.11.092-.203.183-.314.257v.092c-.11.11-.24.202-.35.312v.092c-.055.036-.11.092-.185.128-.018.037-.036.092-.036.129h-.093l-.092.092v.092c-.129.11-.258.238-.406.348v.092c-.147.129-.295.257-.442.404-.296.294-.554.588-.849.882-.092.073-.184.147-.258.22-.019.037-.037.055-.037.092h-.092c-.074.092-.148.184-.222.257-.055.037-.11.055-.184.092v.092c-.055.018-.11.037-.185.037-.037-.055 0 0-.037-.037.019-.165.037-.33.037-.478h.037c.019-.11.037-.238.037-.349h.037v-.091h.037v-.129h.037v-.092h.037v-.092h.037v-.091h.037c.018-.056.036-.11.036-.184h.037v-.129h.037c.037-.091.056-.183.092-.257h.037v-.092h.037c.019-.055.037-.11.037-.183.037-.019.055-.037.092-.037.019-.055.037-.11.037-.184.037-.018.056-.036.092-.036v-.092h.037v-.092c.037-.018.056-.037.093-.037v-.092c.036-.018.055-.036.092-.036v-.092c.037-.019.055-.037.092-.037.019-.055.037-.11.037-.184.037-.018.055-.036.092-.036.037-.092.056-.184.092-.257.037-.019.056-.037.093-.037.018-.055.037-.11.037-.184.036-.037.092-.055.129-.092v-.091c.037-.019.055-.037.092-.037v-.092c.037-.037.092-.055.129-.092v-.092c.055-.036.11-.091.184-.128V9.91c.111-.11.24-.202.351-.312v-.092c.13-.11.258-.239.406-.349v-.092c.074-.055.147-.11.221-.184v-.091c.037-.037.092-.055.13-.092.018-.037.036-.092.036-.129.037-.018.056-.036.092-.036v-.092c.037-.037.093-.055.13-.092.018-.037.036-.092.036-.129.037-.018.056-.036.093-.036v-.092c.037-.019.055-.037.092-.037v-.092c.037-.037.092-.055.129-.092v-.091c.037-.037.092-.056.13-.092.018-.037.036-.092.036-.129.037-.018.055-.037.092-.037v-.091c.037-.019.056-.037.092-.037v-.092c.037-.037.093-.055.13-.092V7.12c.036-.036.092-.055.129-.091v-.092c.037-.037.092-.055.129-.092v-.092c.037-.018.055-.037.092-.037v-.092c.037-.036.092-.055.13-.091V6.44c.036-.037.091-.055.128-.092v-.092c.037-.018.056-.037.093-.037v-.091c.036-.037.092-.055.129-.092v-.092c.037-.018.055-.037.092-.037v-.092c.037-.018.055-.036.092-.036.019-.037.037-.092.037-.129.037-.037.092-.055.13-.092v-.092c.055-.036.11-.091.184-.128v-.092h.037c.036-.037.055-.092.092-.128h.092c.018-.037.037-.056.037-.092.092-.019.184-.037.258-.037v-.037h.092v-.037c.056-.018.111-.036.185-.036v-.037c.11-.018.203-.037.313-.037.019 0 .019-.055.093-.036.092.018.221.128.313.183.037.129.037.33.037.533zM54.427 4.65h-.036c-.018-.071-.036-.143-.036-.215-.036-.018-.054-.036-.09-.036-.017-.036-.035-.09-.035-.126h-.036c-.054-.072-.09-.108-.126-.216-.107-.036-.143-.072-.215-.126v-.036c-.035-.018-.09-.036-.125-.036-.018-.036-.036-.054-.036-.09h-.09v-.036c-.089-.036-.178-.054-.25-.09v-.036h-.125v-.036h-.09v-.036h-.09c-.017-.036-.035-.054-.035-.09-.126-.018-.251-.036-.394-.036v-.036h-.126v-.036h-.304v-.036c-.144-.036-.627 0-.735.036v.036c-.053.018-.107.036-.179.036-.036.036-.053.09-.09.126-.125.108-.25.234-.393.342v.09c-.072.054-.144.108-.215.18v.09c-.036.036-.09.054-.126.09v.09c-.035.036-.09.054-.125.09v.09c-.036.018-.054.036-.09.036-.017.036-.035.09-.035.126h-.036v.09c-.036.018-.054.036-.09.036v.09c-.036.018-.053.036-.09.036v.09c-.035.018-.053.036-.089.036-.018.036-.036.09-.036.126h-.035v.09c-.036.018-.054.036-.09.036v.09c-.036.018-.054.036-.09.036v.09c-.035.018-.053.036-.09.036v.09c-.035.018-.053.036-.089.036v.09c-.036.018-.053.036-.09.036v.09c-.035.017-.053.035-.089.035v.09c-.036.018-.054.036-.09.036v.09c-.035.036-.089.054-.125.09v.09c-.036.018-.053.036-.09.036v.09c-.053.036-.107.09-.178.126v.09c-.036.018-.054.036-.09.036-.018.036-.036.09-.036.126h-.036v.09c-.035.018-.053.036-.09.036v.09c-.035.036-.089.054-.125.09v.09h-.035c-.018.036-.036.09-.036.126-.036.018-.054.036-.09.036v.09c-.09.072-.179.144-.25.216v.09c-.036.018-.054.036-.09.036-.018.054-.036.108-.036.18-.036.018-.054.036-.09.036-.035.09-.053.18-.089.252h-.036c-.018.036-.036.09-.036.126-.035.018-.053.036-.09.036v.09c-.035.018-.053.036-.089.036-.018.036-.036.09-.036.126h-.035v.09c-.036.018-.054.036-.09.036-.018.036-.036.09-.036.126h-.036v.09c-.035.018-.053.036-.09.036v.09c-.035.036-.089.054-.124.09v.09c-.036.018-.054.036-.09.036-.018.036-.036.09-.036.126h-.036v.09c-.036.017-.053.035-.09.035v.09h-.035v.09c-.036.018-.054.036-.09.036-.018.054-.035.108-.035.18-.036.018-.054.036-.09.036-.018.054-.036.108-.036.18-.036.018-.054.036-.09.036-.017.054-.035.108-.035.18-.036.018-.054.036-.09.036-.036.09-.053.18-.09.252-.035.018-.053.036-.089.036v.09h-.036v.09c-.035.018-.053.036-.09.036v.09l-.089.09v.09h-.036v.09c-.035.018-.053.036-.09.036v.09l-.089.09c-.018.054-.036.108-.036.18-.035.018-.053.036-.09.036-.017.054-.035.108-.035.18h-.036v.09h-.036v.09l-.09.09v.09c-.035.018-.053.036-.089.036-.035.09-.053.18-.09.252-.035.018-.053.036-.089.036-.018.036-.036.09-.036.126h-.035v.09h-.036c-.036.09-.054.18-.09.252h-.036c-.018.072-.035.143-.035.215h-.036c-.018.054-.036.108-.036.18h-.036v.09h-.036v.09h-.036v.09h-.035v.09h-.036v.09h-.036c-.018.054-.036.108-.036.18h-.036v.09h-.035v.126h-.036c-.018.054-.036.108-.036.18h-.036v.126h-.036v.09h-.036c-.017.09-.035.18-.035.252h-.036v.126h-.036v.126h-.036v.126h-.036c-.018.108-.036.198-.036.306h-.035c-.018.108-.036.198-.036.306h-.036v.18h-.036c-.018.108-.036.234-.036.342h-.035v.126h-.036v.216h-.036v.125h-.036v.216h-.036v.18h-.036v.216h-.035v.216h-.036v.216H43.5c-.018.18-.036.342-.036.522-.107.324-.161.756-.25 1.08-.054.198 0 .72.035.864v.341h.036v.216h.036v.18c.143.396.555.936.895 1.116v.09c.197.054.108.108.215.216.036.036.09.054.126.09v.09c.036.018.053.036.09.036.035.054.089.108.125.18h.09c.035.036.053.09.089.126.053.018.107.036.179.036.036.036.054.09.09.126h.125v.036h.465v-.036h.072c.036-.036.054-.09.09-.126h.125c.018-.036.036-.054.036-.09.215-.144.43-.216.555-.432h.09c.035-.144.125-.198.215-.306h.035v-.09c.036-.018.054-.036.09-.036v-.09c.036-.036.09-.054.125-.09.054-.18.108-.342.18-.522-.018-.144-.036-.126-.09-.216-.072.018-.143.036-.215.036-.143.162-.287.324-.43.468h-.09c-.035.18-.125.18-.25.252v.036h-.09c-.036.054-.09.108-.125.18h-.09c-.018.036-.035.054-.035.09-.054.018-.108.036-.18.036v.036h-.125v.036c-.107.018-.233.036-.34.036v-.036c-.215-.018-.269-.108-.43-.18-.018-.126-.09-.234-.126-.342v-.738h.036v-.396h.036v-.341h.036v-.342h.036v-.342h.036c.035-.324.053-.63.09-.954h.035v-.252h.036v-.18h.036v-.18h.035v-.18h.036v-.126h.036v-.09h.036v-.126h.036v-.126h.036v-.126h.035v-.126h.036v-.126h.036c.018-.072.036-.144.036-.216h.036c.018-.054.035-.108.035-.18h.036v-.125h.036v-.09h.036V16.6h.036c.036-.09.053-.18.09-.252h.035c.018-.054.036-.108.036-.18.036-.018.054-.036.09-.036.017-.054.035-.108.035-.18.036-.018.054-.036.09-.036v-.09c.054-.036.107-.09.179-.126.018-.054.036-.108.036-.18.036-.018.054-.036.09-.036v-.09c.107-.09.196-.18.304-.252v-.09c.036-.018.054-.036.09-.036.035-.036.053-.09.089-.126h.09c.107-.108.197-.234.304-.342h.09c.035-.036.053-.09.09-.126h.035v-.09c.036-.018.09-.036.125-.036.108-.126.233-.252.34-.396h.09c.018-.036.036-.054.036-.09h.036c.233-.252.465-.486.68-.737.126-.108.251-.234.394-.342v-.09c.108-.072.197-.144.305-.216v-.09c.125-.108.25-.234.394-.342v-.09c.125-.108.25-.234.394-.342v-.09c.143-.126.287-.252.43-.396v-.09c.072-.054.143-.108.215-.18v-.09c.036-.036.09-.054.125-.09v-.09c.108-.09.197-.18.305-.252v-.09c.09-.072.179-.144.25-.216.018-.054.036-.108.036-.18.108-.09.197-.18.305-.251v-.09c.036-.036.09-.054.125-.09.018-.054.036-.108.036-.18.09-.072.18-.144.25-.216.019-.054.037-.108.037-.18.071-.054.143-.108.214-.18.018-.054.036-.108.036-.18.072-.054.144-.108.215-.18v-.09c.036-.036.09-.054.126-.09v-.09c.035-.018.053-.036.09-.036.017-.054.035-.108.035-.18.054-.036.107-.09.18-.126.017-.036.035-.09.035-.126.036-.018.054-.036.09-.036.017-.054.035-.108.035-.18.054-.036.108-.09.18-.126v-.09c.035-.018.053-.036.089-.036v-.126c.036-.018.054-.036.09-.036.017-.054.035-.108.035-.18.036-.036.09-.054.126-.09v-.09h.035v-.09h.036v-.126c.036-.018.054-.036.09-.036.018-.09.036-.18.036-.252.036-.018.053-.036.09-.036v-.09h.035v-.09h.036c-.036-.071.161-.845.054-1.151zM53.19 5.948h-.036v.125h-.036v.126h-.036c-.018.108-.036.234-.036.342h-.035c-.018.054-.036.108-.036.18h-.036c-.018.054-.036.108-.036.18-.036.018-.054.036-.09.036-.017.036-.035.09-.035.126-.036.036-.09.054-.126.09v.09c-.035.018-.053.036-.09.036v.09c-.053.036-.107.09-.178.126-.018.054-.036.108-.036.18-.036.018-.054.036-.09.036v.036c-.035.018-.053.036-.09.036v.09c-.035.036-.089.054-.125.09v.09c-.035.036-.09.054-.125.09-.018.054-.036.108-.036.18-.09.072-.179.144-.25.216-.018.054-.036.108-.036.18-.09.072-.18.144-.251.216v.09c-.036.018-.054.036-.09.036v.09c-.09.072-.179.144-.25.216-.018.036-.036.09-.036.126-.036.018-.054.036-.09.036v.09c-.036.018-.053.035-.09.035v.09c-.089.072-.178.144-.25.216v.09c-.09.072-.18.144-.25.216v.09c-.037.018-.055.036-.09.036v.09h-.036c-.036.036-.054.09-.09.126h-.09c-.035.18-.143.27-.25.396-.036.018-.054.036-.09.036v.09c-.035.018-.053.036-.09.036-.035.054-.089.108-.125.18-.035.036-.09.054-.125.09v.09c-.054.036-.107.09-.179.126v.09c-.18.18-.376.342-.555.522v.09c-.161.144-.323.288-.466.432-.018.036-.036.09-.036.126h-.09c-.017.036-.035.054-.035.09-.036.036-.09.054-.125.09v.09l-.09.09h-.09c-.018.036-.035.053-.035.09-.072.053-.144.107-.215.18v.09c-.036.017-.09.035-.126.035-.107.108-.197.234-.304.342h-.09c-.107.108-.197.234-.304.342h-.09c-.018.036-.036.09-.036.126-.107-.018-.107-.018-.179-.036 0-.306.036-.576.126-.828h.035v-.126h.036c.018-.054.036-.108.036-.18h.036v-.09h.036v-.125h.036c.035-.09.053-.18.09-.252h.035v-.09h.036v-.09h.036v-.09h.035v-.09h.036v-.09l.09-.09v-.09c.036-.018.054-.036.09-.036.017-.054.035-.108.035-.18.036-.018.054-.036.09-.036v-.09c.036-.018.053-.036.09-.036v-.09c.035-.018.053-.036.089-.036.018-.054.036-.108.036-.18.035-.018.053-.036.09-.036.017-.054.035-.108.035-.18.036-.018.054-.036.09-.036.035-.09.053-.18.09-.252h.035c.018-.036.036-.09.036-.126.036-.018.054-.036.09-.036v-.09c.035-.036.089-.054.125-.09v-.09c.036-.036.09-.054.125-.09v-.09c.036-.036.09-.054.125-.09v-.09c.09-.072.18-.144.251-.216v-.09c.143-.126.287-.252.43-.395v-.09c.09-.072.18-.144.25-.216v-.09c.055-.036.108-.09.18-.126v-.09c.036-.036.09-.054.125-.09v-.09c.036-.018.054-.036.09-.036v-.09c.036-.036.09-.054.125-.09.018-.036.036-.09.036-.126.036-.018.054-.036.09-.036v-.09c.035-.018.053-.036.09-.036v-.09c.035-.036.089-.054.125-.09v-.09c.035-.036.09-.054.125-.09v-.09c.036-.036.09-.054.125-.09v-.09c.036-.018.054-.036.09-.036v-.09c.036-.036.09-.054.125-.09v-.09c.036-.036.09-.054.126-.09v-.09c.035-.036.09-.054.125-.09v-.09c.036-.018.054-.036.09-.036v-.09c.035-.036.09-.054.125-.09v-.09c.036-.018.054-.036.09-.036v-.09c.035-.036.089-.054.125-.09v-.09c.036-.036.09-.054.125-.09.018-.036.036-.09.036-.126.036-.018.054-.036.09-.036v-.09c.035-.017.053-.035.09-.035v-.09c.053-.036.107-.09.178-.126v-.09c.036-.036.09-.054.126-.09.018-.036.035-.09.035-.126h.126v-.036h.09v-.036c.089-.018.178-.036.25-.036.018-.036.036-.054.036-.09h.125V5.19h.09v-.036h.179l.036-.036c.143-.018.286.126.394.18.018.216.018.432.018.648z"/>
                <path fill="#000" d="M90.953 7.558c.019.038.037.094.037.131h.038v.132h.037c.038.131-.018.544-.037.637h-.038v.094h-.037v.131h-.037v.094h-.038v.132h-.037c-.02.056-.038.112-.038.187h-.037v.131h-.038v.094h-.037v.094h-.038c-.037.094-.056.187-.094.262h-.037v.132h-.038v.094h-.037c-.019.056-.038.112-.038.187h-.037v.131h-.038v.094h-.037c-.038.094-.056.188-.094.263h-.037v.131h-.038c-.019.056-.037.113-.037.188h-.038v.13h-.037v.095h-.038c-.019.056-.037.112-.037.187h-.038v.131h-.037v.094h-.038c-.019.056-.037.113-.037.188h-.038v.131h-.037v.094h-.038v.131h-.037v.094h-.038c-.019.094-.037.187-.037.262h-.038v.094h-.037c-.019.094-.038.188-.038.263h-.037v.131h-.038c-.018.113-.037.206-.037.319h-.038v.131h-.037v.131h-.038c-.018.075-.037.15-.037.226-.038.018-.056.037-.094.037v.094l-.094.094v.093h-.037v.094c-.094.131-.188.263-.263.413h-.318c-.057-.057 0-.019-.094-.038-.019-.169-.056-.3 0-.487h.037v-.132h.038v-.131h.037v-.188h.038v-.356h.037v-.45h.038v-.544h.037v-.638c.057-.225-.037-.637.038-.9h.037v-.712V8.44h-.037v-.263c.112-.075.244-.15.356-.225h.131v-.037h.132v-.038h.093v-.038c.094-.018.188-.037.263-.037v-.038c.168-.037.337-.056.487-.093.169-.057.6-.225.9-.132v.038c-.15-.056-.075-.038 0-.019zM57.745 7.981c-.017.315-.19.444-.295.666v.13h-.035v.092h-.035v.093h-.035c-.034.092-.052.185-.086.259h-.035v.13h-.035c-.017.092-.035.184-.035.258h-.035c-.034.093-.052.185-.087.26h-.034v.092c-.035.018-.052.037-.087.037v.092c-.07.056-.14.111-.209.185v.093c-.104.11-.226.203-.33.314v.093c-.035.037-.087.055-.122.092v.093c-.035.018-.052.037-.087.037v.092c-.035.019-.052.037-.087.037-.017.074-.035.148-.035.222h-.034v.093h-.035c-.052.148.017.166-.087.259v.037h-.244c-.156-.185-.452-.185-.66-.315v-.037h-.087c-.018-.037-.035-.055-.035-.092h-.087c-.035-.037-.052-.093-.087-.13h-.087c-.017-.037-.035-.055-.035-.092h-.087c-.034-.037-.052-.093-.086-.13h-.035v-.092c-.035-.037-.087-.056-.122-.093-.122-.185-.243-.536-.243-.85.382-.02.66-.204.921-.352h.087v-.037h.087V9.48h.122v-.037c.087-.037.174-.056.243-.093v-.037h.087v-.037h.087V9.24h.087v-.037h.087v-.037h.087v-.037h.087v-.037h.087L56.146 9h.087c.017-.037.034-.056.034-.093.087-.037.174-.055.244-.092.017-.037.035-.056.035-.093.087-.037.173-.055.243-.092.017-.037.035-.056.035-.093.052-.018.104-.037.174-.037.017-.037.034-.055.034-.092h.087V8.37h.087c.018-.037.035-.056.035-.093h.087c.017-.037.035-.055.035-.092h.087c.035-.037.052-.093.087-.13.017-.055.104-.074.208-.074zM99.61 13.926c-.129.037-.256.148-.439.093v-.037c-.055-.019-.11-.037-.183-.037-.018-.037-.036-.093-.036-.13.182-.295.347-.591.53-.887v-.48h-.037v-.093h-.037c-.018-.037-.036-.093-.036-.13h-.091v-.092c-.165-.092-.293-.259-.475-.314h-.53c-.42-.093-1.059.13-1.406.259-.091.018-.183.037-.256.037v.037c-.09.018-.182.037-.255.037v.036h-.092v.037h-.127v.037c-.092.037-.183.056-.256.093v.037h-.091v.037H95.7v.037c-.091.037-.182.055-.255.092-.019.037-.037.056-.037.093h-.091v.037h-.091l-.092.092h-.091c-.018.037-.037.056-.037.093h-.09v.037h-.092l-.092.092h-.09c-.02.037-.037.055-.037.092h-.092v.037h-.091c-.018.037-.037.056-.037.093-.054.018-.11.037-.182.037-.018.037-.037.055-.037.092-.054.019-.11.037-.182.037v.037c-.037.019-.092.037-.128.037-.018.037-.037.056-.037.093h-.09c-.037.037-.056.092-.092.13h-.092c-.11.128-.237.258-.347.406h-.09c-.11.11-.202.24-.311.351-.055.037-.11.093-.183.13v.092c-.073.055-.146.11-.219.185v.092c-.037.037-.091.056-.128.093-.146.203-.237.536-.31.795.018.13.036.259.036.406.037.037.092.056.128.093v.092c.164.111.329.24.475.352h.128v.037h.128v.037h.219v.037h.219v.037h.219v.037h.22v.036h.218v.037c.128.019.256.037.402.037v.037h.183v.037h.219v.037h.128v.037h.127v.037h.128v.037h.128v.037h.091v.037h.128v.037c.055.019.11.037.183.037v.037h.128v.037h.09v.037h.092v.037h.092c.018.037.036.056.036.093.146.092.183.055.22.258.42-.018.876-.129 1.223-.221h.566c.602 0 1.15.092 1.57.258.055.111.073.185.092.352-.055.055-.019 0-.037.092-.073.037-.146.037-.256.037-.127-.148-.42-.13-.693-.13-.366 0-.694 0-.968.093h-.183v.037c-.128.056-.22.111-.347.13v.092c.037.037.091.055.128.092v.037h.091c.037.037.055.093.092.13.054.018.11.037.182.037.018.037.037.055.037.092h.091v.037h.091v.037h.037v.037h.036v.222c-.146.11-.292.203-.438.314-.036.037-.055.093-.091.13h-.092c-.036.055-.09.11-.127.185h-.092c-.054.074-.11.148-.182.221h-.092c-.073.093-.146.185-.219.26h-.091c-.037.036-.055.092-.091.129h-.092c-.036.037-.054.092-.091.13h-.091c-.037.036-.055.092-.092.129h-.09c-.037.037-.056.092-.092.129-.037.018-.092.037-.128.037-.018.037-.037.055-.037.092h-.09c-.02.037-.037.056-.037.093h-.092c-.018.037-.036.055-.036.092-.037.019-.092.037-.128.037-.037.037-.055.093-.091.13h-.092v.037c-.036.018-.091.037-.128.037-.018.037-.036.055-.036.092h-.091c-.037.037-.055.093-.092.13h-.091c-.018.036-.037.055-.037.092h-.09c-.02.037-.037.055-.037.092-.055.019-.11.037-.183.037-.018.037-.036.056-.036.093-.092.037-.183.055-.256.092v.037c-.091.037-.183.056-.256.093v.037h-.182v.037h-.128v.037h-.183v.037H93.2v.037h-1.807c-.128.018-.256.037-.402.037v-.037h-.22v-.037c-.127-.056-.127 0-.218-.13-.092-.092 0-.018-.037-.13-.073-.203 0-.295.037-.48.09-.018.182-.037.255-.037.146.24.384.277.53.444.255 0 .475 0 .657-.093v-.037h.092v-.037c.073-.018.146-.037.219-.037.036-.037.054-.092.091-.129.091-.037.183-.055.256-.092.018-.037.036-.056.036-.093h.091c.019-.037.037-.055.037-.092h.091c.037-.037.055-.093.092-.13h.09c.037-.037.056-.092.092-.13h.092c.018-.036.036-.055.036-.092h.091c.019-.037.037-.055.037-.092.036-.019.091-.037.128-.037.036-.037.054-.092.091-.13h.091c.037-.055.092-.11.128-.184h.091c.33-.296.64-.592.968-.888v-.092c.037-.037.092-.056.128-.093.018-.055.037-.11.037-.185h.036v-.092h.037c.018-.074.036-.148.036-.222h.037v-.13h.036c.073-.203.073-.425.037-.628-.183 0-.274.019-.402.093v.037c-.128.036-.256.092-.402.129v.037h-.128v.037h-.09v.037c-.056.018-.11.037-.183.037v.037c-.055.018-.11.037-.183.037v.037h-.091v.037h-.092v.037h-.091v.037h-.091v.037h-.092v.037h-.09v.037h-.092l-.092.092h-.09c-.02.037-.037.056-.037.093h-.092v.036c-.054.019-.11.037-.182.037-.019.037-.037.056-.037.093h-.091c-.018.037-.037.055-.037.092-.054.019-.11.037-.182.037v.037c-.037.019-.092.037-.128.037-.018.037-.037.056-.037.093-.054.018-.11.037-.182.037-.037.037-.055.092-.092.13h-.09c-.02.036-.037.055-.037.092h-.092c-.036.055-.091.11-.127.184h-.092c-.036.037-.055.093-.091.13h-.091c-.037.055-.092.11-.128.185h-.092c-.054.074-.11.148-.182.222h-.091c-.037.055-.092.11-.128.185h-.092c-.054.073-.11.147-.182.221-.037.019-.092.037-.128.037-.037.056-.091.111-.128.185h-.036v.093c-.037.018-.055.037-.092.037v.092c-.036.019-.055.037-.091.037-.018.056-.037.111-.037.185-.036.018-.054.037-.09.037-.037.13-.056.259-.092.407h-.037c.019.11.037.203.037.314h.036v.259c-.11.055-.073.074-.255.092-.055-.055 0-.018-.092-.037-.036-.037-.054-.092-.09-.13h-.037c-.037-.129-.092-.258-.128-.406H89.2v-.573h.037v-.13h.036c.018-.092.037-.184.037-.258h.036c.019-.056.037-.111.037-.185.036-.019.055-.037.091-.037v-.093c.055-.037.11-.092.183-.129v-.092c.11-.111.237-.204.347-.315.054-.074.11-.148.182-.222.037-.018.092-.037.128-.037.037-.055.091-.11.128-.184h.091c.019-.037.037-.056.037-.093h.091c.037-.037.055-.092.091-.13h.092c.018-.036.036-.055.036-.092h.092c.018-.037.036-.055.036-.092.091-.037.183-.056.256-.093.018-.037.036-.055.036-.092h.092l.09-.093h.092v-.037h.092v-.037h.09v-.036h.092v-.037h.091v-.037c.092-.037.183-.056.256-.093v-.037h.128v-.037c.055-.018.11-.037.183-.037v-.037h.127v-.037c.055-.018.11-.037.183-.037v-.037h.128v-.037h.091v-.037c.073-.018.146-.037.22-.037v-.037h.127v-.037h.091v-.037c.073-.018.146-.037.22-.037v-.037c.09-.018.182-.037.255-.037v-.036h.092v-.037c.127-.037.255-.056.401-.093v-.037h.092v-.037c.164-.037.328-.092.474-.13-.018-.11-.054-.166-.127-.221v-.037c-.11-.019-.201-.037-.31-.037v-.037h-.184v-.037h-.182v-.037h-.183v-.037h-.219v-.037h-.256v-.037h-.219v-.037h-.31v-.037h-.438v-.037h-.256v-.037h-.183v-.037h-.128v-.037h-.127v-.037c-.055-.018-.11-.037-.183-.037v-.037h-.128c-.018-.037-.036-.055-.036-.092-.055-.019-.11-.037-.183-.037-.091-.111-.183-.204-.256-.314-.054-.037-.11-.093-.182-.13v-.092c-.037-.037-.092-.056-.128-.093-.018-.055-.037-.11-.037-.185h-.036c-.018-.11-.037-.203-.037-.314-.054-.166-.164-.666-.09-.924.109-.26.2-.537.31-.795.036-.019.054-.037.09-.037.037-.093.056-.185.092-.26.037-.018.055-.036.091-.036V14h.037c.018-.037.036-.092.036-.129.037-.019.055-.037.092-.037v-.092c.036-.019.055-.037.091-.037v-.093c.037-.018.055-.037.091-.037.019-.037.037-.092.037-.13.036-.036.091-.055.128-.092v-.092c.073-.056.146-.111.219-.185v-.092c.128-.111.256-.24.402-.352.036-.055.091-.11.127-.185h.092c.036-.037.055-.092.091-.13h.091c.037-.036.055-.092.092-.128h.091c.037-.037.055-.093.091-.13h.092c.036-.037.054-.092.091-.13h.091c.019-.036.037-.055.037-.092.036-.018.091-.037.128-.037v-.037h.09c.02-.037.037-.055.037-.092.055-.019.11-.037.183-.037.018-.037.037-.056.037-.093h.09c.02-.037.037-.055.037-.092h.092c.018-.037.036-.055.036-.092.073-.019.146-.037.22-.037.036-.037.054-.093.09-.13h.092l.091-.092h.092v-.037h.09v-.037h.092v-.037h.092v-.037h.09v-.037h.092v-.037c.091-.037.183-.056.256-.093v-.037h.128v-.037c.091-.037.182-.055.255-.092v-.037c.329-.148.676-.296 1.005-.444.164-.037.328-.055.475-.092v-.037h.182V9.97h.256v-.037h.219v-.037h.347v-.037h.694v.037c.255.018.493.037.749.037v.037h.127c.019.037.037.055.037.092h.091c.018.037.037.056.037.093h.091c.018.037.037.055.037.092.054.037.11.093.182.13v.092c.037.019.055.037.091.037v.093h.037v.129h.037v.222h.036v.536h.037c0 .055-.037-.019-.037.037v.444h-.036v.222h-.037v.129h-.037v.185h-.036v.092h-.037c-.018.074-.036.148-.036.222h-.037c-.018.037-.036.093-.036.13-.037.018-.055.037-.091.037v.092c-.037.037-.092.055-.128.092v.093c-.037.037-.092.055-.128.092v.037c-.037.019-.055.037-.091.037v.093c-.055.037-.11.092-.183.13.128.11.11.202.091.276zM25.505 21.56c.053.019.106.037.178.037v.037c.177.074.498-.055.604-.092h.125v-.037h.089v-.036c.089-.037.177-.056.249-.092.16-.147.32-.294.462-.442v-.091c.035-.019.053-.037.089-.037.018-.037.035-.092.035-.129h.036v-.092c.071-.055.142-.11.213-.184v-.092c.054-.036.107-.091.178-.128v-.092c.036-.037.09-.055.125-.092v-.092c.053-.037.106-.092.177-.129v-.092c.054-.036.107-.092.178-.128v-.092c.054-.037.107-.092.178-.129v-.092c.036-.037.089-.055.125-.092v-.092c.035-.036.089-.055.124-.092v-.091c.036-.037.089-.056.125-.092v-.092c.035-.019.053-.037.088-.037v-.092c.036-.018.054-.037.09-.037v-.092c.035-.018.053-.036.088-.036v-.092c.036-.019.054-.037.09-.037v-.092c.035-.018.053-.037.088-.037v-.092c.036-.036.089-.055.125-.092.017-.036.035-.092.035-.128.107-.092.196-.184.302-.258.267 0 .303.11.516.129-.018.092-.035.184-.035.257-.036.019-.054.037-.09.037-.017.055-.035.11-.035.184-.035.018-.053.037-.089.037v.092c-.035.036-.089.055-.124.092v.092c-.036.018-.054.036-.09.036v.092c-.035.037-.088.055-.124.092v.092c-.035.018-.053.037-.089.037v.092c-.035.018-.053.036-.088.036-.018.037-.036.092-.036.13-.036.036-.089.054-.125.091v.092c-.053.037-.106.092-.177.129-.018.036-.036.092-.036.128-.035.019-.053.037-.089.037v.092c-.053.037-.107.092-.178.129v.092c-.07.055-.142.11-.213.183v.092c-.071.056-.142.11-.213.184v.092c-.178.166-.338.331-.516.478v.092c-.125.11-.25.239-.391.35-.071.091-.143.183-.214.257-.035.018-.053.036-.089.036v.092c-.124.11-.249.24-.39.35v.092h-.036c-.054.073-.107.147-.178.22h-.09v.037c-.053.037-.088.037-.124.092-.338 0-.604-.055-.853-.129h-.178c-.125-.092-.249-.184-.391-.257v-.092c-.054-.037-.107-.092-.178-.129v-.092c-.036-.018-.053-.037-.089-.037-.018-.055-.036-.11-.036-.183-.035-.019-.053-.037-.088-.037-.018-.055-.036-.11-.036-.184h-.036v-.092h-.035c-.036-.092-.054-.184-.09-.257h-.035v-.129c-.23-.551-.498-1.324-.302-2.077v-.441h.036v-.221h.035c.018-.11.036-.202.036-.313h.035v-.128h.036v-.129h.035v-.092h.036c.018-.092.036-.184.036-.257h.035v-.092h.036v-.129h.035v-.092h.036v-.092h.035v-.091h.036v-.13h.036c.035-.091.053-.183.088-.257h.036v-.091h.036v-.092h.035V16.1l.089-.092v-.092c.036-.018.053-.037.089-.037.018-.055.036-.11.036-.184.035-.018.053-.036.088-.036v-.092c.036-.019.054-.037.09-.037v-.092h.035c.018-.037.035-.092.035-.129.036-.018.054-.037.09-.037v-.091c.035-.019.053-.037.088-.037.018-.037.036-.092.036-.129.053-.037.107-.092.178-.129v-.091c.035-.019.053-.037.089-.037v-.092c.053-.037.106-.092.177-.129v-.092c.054-.037.107-.092.178-.128v-.092c.071-.056.143-.11.214-.184v-.092c.089-.074.177-.147.249-.22v-.093c.07-.055.142-.11.213-.183v-.092c.107-.11.231-.203.338-.313v-.092c.142-.128.284-.257.427-.404v-.092c.07-.055.142-.11.213-.184.018-.037.036-.055.036-.092h.089c.035-.055.088-.11.124-.184h.089c.035-.036.053-.092.089-.128h.089c.035-.037.053-.092.089-.13h.089c.017-.036.035-.054.035-.091h.089c.018-.037.036-.055.036-.092.035-.018.089-.037.124-.037v-.036c.053-.019.107-.037.178-.037v-.037c.035-.018.089-.037.124-.037.018-.036.036-.055.036-.092.053-.018.107-.036.178-.036.018-.037.035-.056.035-.092.054-.019.107-.037.178-.037.018-.037.036-.055.036-.092h.089v-.037h.089l.088-.092h.09c.017-.036.035-.055.035-.092h.089v-.036h.089v-.037h.089l.089-.092h.089c.017-.037.035-.055.035-.092h.089c.142-.092.249-.202.462-.22.071.11.231.165.303.257v.092c.035.036.089.055.124.092.018.036.036.092.036.128.035.019.053.037.089.037v.092c.035.018.053.037.088.037.018.037.036.092.036.128h.036c.017.056.035.11.035.184.036.019.054.037.09.037v.092l.088.092v.092h.036v.092h.035v.092h.036v.092h.035v.44c-.089.074-.035.111-.089.185-.053.036-.106.091-.177.128v.037h-.09v.037c-.07.018-.142.037-.213.037v.036h-.124v.037h-.125v.037h-.124v.037h-.125v.036h-.124v.037h-.125v.037h-.177v.037c-.054.018-.107.036-.178.036v.037c-.071.019-.143.037-.214.037-.017.037-.035.055-.035.092-.054.018-.107.037-.178.037-.018.036-.036.055-.036.092h-.089c-.035.036-.053.091-.088.128h-.09c-.16.184-.32.35-.462.533-.106.074-.195.147-.302.22v.093c-.036.018-.053.037-.089.037-.035.036-.053.092-.089.128h-.089c-.124.147-.249.294-.391.442-.071.055-.142.11-.213.183v.092c-.125.11-.25.24-.392.35-.035.055-.088.11-.124.183-.036.019-.053.037-.089.037-.018.037-.036.092-.036.129-.142.128-.284.257-.426.404v.092c-.09.074-.178.147-.25.22v.093c-.035.036-.088.055-.124.092V17c-.035.019-.053.037-.089.037-.017.055-.035.11-.035.184-.036.018-.054.037-.09.037v.092l-.088.092v.092h-.036v.092h-.035v.091h-.036v.092h-.035c-.036.092-.054.184-.09.258h-.035c-.018.073-.035.147-.035.22h-.036v.092h-.035v.129h-.036v.092H25.7c-.017.092-.035.184-.035.257h-.036v.129h-.035v.129h-.036v.128h-.035v.129h-.036v.184h-.036v.128h-.035c-.071.184-.214 1.048-.125 1.324.09.239.178.386.214.551zM39.713 16.606h-.092c-.038.11-.075.147-.13.22h-.037v.092c-.037.018-.056.037-.093.037v.092c-.037.018-.056.036-.093.036v.092c-.037.018-.055.037-.092.037v.091l-.093.092v.092h-.037v.092h-.037c-.019.055-.037.11-.037.183h-.037v.092h-.037v.092h-.037c-.037.092-.056.183-.093.257h-.037c-.185.55-.39 1.12-.575 1.67-.13.386-.166 1.432.13 1.634.074.073.39.147.575.092v-.037h.222v-.037h.13v-.036c.092-.037.185-.056.26-.092v-.037h.092c.018-.037.037-.055.037-.092.037-.018.093-.036.13-.036.074-.092.148-.184.222-.257.037-.019.056-.037.093-.037v-.092c.037-.037.092-.055.13-.092v-.091c.037-.037.092-.056.13-.092v-.092c.036-.037.092-.055.129-.092v-.092c.056-.036.111-.091.185-.128.019-.037.037-.092.037-.129.038-.018.056-.036.093-.036v-.092c.056-.037.111-.092.185-.129v-.091c.038-.037.093-.055.13-.092v-.092c.056-.037.111-.092.186-.128v-.092c.055-.037.11-.092.185-.129v-.091c.037-.037.093-.055.13-.092v-.092c.037-.018.055-.037.092-.037.019-.036.037-.091.037-.128h.037v-.092c.037-.037.093-.055.13-.092v-.091c.037-.019.056-.037.093-.037v-.092h.037c.018-.037.037-.092.037-.128.037-.019.056-.037.093-.037v-.092c.037-.037.092-.055.13-.092.018-.036.036-.091.036-.128.112-.092.204-.184.316-.257.278 0 .315.11.537.128-.019.312-.185.386-.315.57v.091h-.037c-.019.037-.037.092-.037.129-.037.018-.056.036-.093.036v.092c-.037.037-.093.055-.13.092v.092c-.037.018-.055.036-.092.036v.092c-.037.018-.056.037-.093.037-.018.037-.037.092-.037.128-.037.037-.093.055-.13.092v.092c-.055.037-.111.092-.185.128-.019.037-.037.092-.037.129-.037.018-.056.037-.093.037v.091c-.055.037-.111.092-.185.129v.092c-.093.073-.186.146-.26.22v.092c-.037.018-.055.036-.092.036v.037c-.037.037-.093.055-.13.092v.092c-.185.183-.39.348-.575.532v.092c-.13.11-.26.238-.407.348-.075.092-.149.184-.223.257-.037.019-.055.037-.092.037v.092c-.112.11-.241.202-.353.312v.092h-.037c-.037.055-.092.11-.13.183h-.092v.037c-.056.037-.093.037-.13.092-.408 0-.778-.055-1.075-.184-.074-.018-.148-.036-.222-.036-.148-.166-.297-.33-.445-.478v-.091c-.037-.019-.056-.037-.093-.037-.018-.055-.037-.11-.037-.184-.037-.018-.055-.036-.092-.036-.019-.056-.038-.11-.038-.184h-.037c-.018-.055-.037-.11-.037-.184h-.037v-.128c-.24-.57-.574-1.358-.352-2.11v-.478c.167-.477.334-.973.482-1.45h.037c.019-.055.037-.11.037-.184h.037v-.092h.037c.019-.073.037-.146.037-.22.037-.018.056-.037.093-.037v-.128h.037v-.092h.037v-.092c.037-.018.056-.036.093-.036.037-.092.055-.184.093-.257.037-.019.055-.037.092-.037.019-.055.037-.11.037-.184.037-.018.056-.036.093-.036v-.092c.037-.018.056-.037.093-.037v-.092c.037-.036.092-.055.13-.091v-.092c.036-.037.092-.055.13-.092v-.092c.055-.036.11-.091.184-.128v-.092c.037-.018.056-.037.093-.037v-.091c.056-.037.111-.092.185-.129v-.092c.056-.036.112-.091.186-.128v-.092c.074-.055.148-.11.222-.183v-.092c.037-.019.056-.037.093-.037.037-.055.093-.11.13-.184h.037v-.091c.074-.11.166-.074.222-.257h.093c.037-.165.167-.239.26-.349h.036v-.092c.037-.018.056-.037.093-.037.056-.073.111-.146.185-.22.037-.036.093-.055.13-.092v-.091c.037-.037.093-.055.13-.092.018-.037.037-.055.037-.092h.093c.055-.073.11-.147.185-.22h.093c.037-.037.055-.092.092-.129h.093c.018-.036.037-.055.037-.091h.093c.018-.037.037-.055.037-.092h.092c.019-.037.037-.055.037-.092h.093c.019-.037.037-.055.037-.092h.093c.018-.036.037-.055.037-.092h.093c.018-.036.037-.055.037-.091.055-.019.11-.037.185-.037.019-.037.037-.055.037-.092.056-.018.111-.036.185-.036.019-.037.037-.056.037-.092.056-.019.112-.037.186-.037.018-.037.037-.055.037-.092h.093v-.036h.092v-.037h.093l.093-.092h.092c.019-.037.037-.055.037-.092h.093v-.036h.093l.092-.092h.093c.018-.037.037-.055.037-.092h.093c.13-.073.204-.147.407-.184.075.11.204.129.26.22v.092c.056.037.111.092.185.129v.092c.037.036.093.055.13.092v.091c.037.019.056.037.093.037.018.055.037.11.037.184.037.018.055.036.092.036.037.092.056.184.093.257h.037v.092c.037.018.056.037.093.037v.092h.037c.093.165.093.33.093.569h-.037v.128c-.038.018-.056.037-.093.037v.092c-.037.036-.093.055-.13.091v.037h-.13v.037h-.092v.036h-.13v.037h-.093v.037c-.148.037-.296.055-.445.092v.036h-.092v.037h-.186v.037h-.13v.036h-.092v.037c-.13.037-.26.092-.408.129-.018.036-.037.055-.037.091-.055.019-.111.037-.185.037-.037.037-.056.092-.093.129h-.092c-.038.036-.056.091-.093.128-.093.074-.185.147-.26.22-.074.092-.148.184-.222.257h-.093c-.13.147-.26.294-.407.44-.278.258-.556.533-.853.79v.092c-.185.184-.39.349-.575.532v.092c-.037.018-.055.037-.092.037v.036c-.093.202-.241.257-.297.441zM66.987 12.32c-.036-.018-.054-.036-.09-.036v-.126c-.037-.019-.055-.037-.09-.037-.019-.054-.037-.108-.037-.18-.036-.037-.09-.055-.127-.091v-.09c-.036-.019-.054-.037-.09-.037v-.09h-.037c-.018-.037-.036-.091-.036-.127-.036-.018-.054-.037-.09-.037v-.09c-.073-.054-.145-.109-.218-.181v-.09c-.271-.254-.543-.526-.832-.78-.435 0-.743.2-1.05.345-.073.018-.146.036-.218.036-.018.036-.036.054-.036.09-.036.018-.09.037-.127.037v.036c-.09.036-.181.054-.253.09V11c-.037.018-.09.036-.127.036-.018.036-.036.054-.036.09h-.09c-.019.037-.037.055-.037.09-.054.019-.109.037-.181.037-.018.036-.036.054-.036.09h-.09c-.037.037-.055.091-.091.127h-.091c-.036.037-.054.09-.09.127h-.091c-.036.036-.054.09-.09.127h-.091c-.036.036-.054.09-.09.127-.037.036-.091.054-.127.09v.036h-.09c-.073.091-.146.182-.218.254h-.09c-.091.109-.182.2-.254.308h-.09c-.11.127-.236.253-.345.398h-.09c-.109.109-.2.236-.308.344h-.09c-.11.11-.2.236-.308.345h-.091c-.181.199-.38.398-.561.615h-.09c-.019.036-.037.055-.037.09-.09.073-.181.146-.254.218v.09c-.199.182-.398.381-.615.562v.09c-.109.091-.2.182-.308.254v.09c-.09.073-.181.146-.253.218v.09c-.091.073-.182.146-.254.218v.09c-.072.055-.145.11-.217.182v.09c-.036.018-.055.036-.09.036v.037c-.037.018-.055.036-.091.036-.018.054-.037.108-.037.18-.036.019-.054.037-.09.037-.018.054-.036.109-.036.181h-.036c-.037.09-.055.181-.091.254h-.036c-.018.09-.036.18-.036.253h-.037v.09h-.036v.128h-.036v.126h-.036v.127h-.037v.181h-.036v.181h-.036v.182h-.036c-.018.199-.036.398-.036.615-.037.127-.09.906-.037 1.087h.037v.181h.036c.018.054.036.109.036.181h.036v.09h.036c.055.073.091.11.127.218.181.054.145.145.254.217h.09c.018.037.036.055.036.09.11.037.2.055.308.091.09.11.181.2.254.308.036.036.09.055.127.09v.037h.09c.181.181.344.38.525.561.127.073.254.145.398.218.38-.018.761-.145.996-.308.018-.036.037-.054.037-.09h.09c.018-.037.036-.055.036-.091h.09c.037-.036.055-.09.091-.127h.09c.019-.036.037-.054.037-.09.036-.019.09-.037.127-.037v-.036h.09c.037-.036.055-.09.09-.127h.091c.037-.036.055-.09.091-.127h.09c.019-.036.037-.054.037-.09h.09c.037-.036.055-.09.09-.127h.091c.037-.036.055-.09.09-.127h.091c.037-.036.055-.09.091-.126h.09c.037-.037.055-.09.091-.127.036-.018.09-.036.127-.036.018-.037.036-.055.036-.09h.09c.037-.037.055-.091.091-.128h.09c.019-.036.037-.054.037-.09.036-.018.09-.036.127-.036.036-.055.09-.11.126-.182h.09c.037-.054.091-.108.128-.18h.09c.073-.091.145-.182.217-.254h.09c.128-.145.254-.29.4-.435.18-.163.38-.326.56-.47v-.091c.091-.073.182-.145.254-.218v-.09c.036-.018.054-.036.09-.036v-.09c.091-.073.182-.146.254-.218v-.09c.054-.037.109-.091.181-.128v-.09c.036-.036.09-.054.127-.09v-.091c.054-.036.109-.09.181-.127v-.09c.054-.037.109-.091.181-.127.127-.181.2-.363.398-.471-.018-.109-.018-.109-.036-.181h-.253v-.037h-.181c-.019.037-.037.091-.037.127-.036.036-.09.055-.126.09-.055.073-.109.146-.181.218-.091.073-.181.145-.254.217-.036.037-.054.091-.09.127h-.091c-.036.036-.054.09-.09.127-.055.018-.11.036-.182.036-.036.055-.09.109-.126.181h-.09c-.019.037-.037.055-.037.09h-.09c-.037.037-.055.091-.091.128h-.09c-.019.036-.037.054-.037.09-.036.018-.09.036-.127.036v.037h-.09c-.018.036-.036.054-.036.09-.037.018-.09.036-.127.036v.037h-.09c-.019.036-.037.054-.037.09h-.09c-.037.036-.055.09-.09.127h-.091c-.019.036-.037.054-.037.09-.054.019-.108.037-.18.037-.019.036-.037.054-.037.09-.036.018-.09.037-.127.037v.036c-.054.018-.108.036-.18.036-.019.036-.037.054-.037.09-.036.019-.09.037-.127.037v.036h-.09v.036h-.09c-.019.036-.037.054-.037.09-.09.037-.181.055-.254.091-.018.036-.036.055-.036.09-.09.037-.18.055-.253.091-.018.037-.036.055-.036.09-.091.037-.181.055-.254.091-.018.037-.036.055-.036.091h-.09l-.091.09h-.09v.037h-.091c-.018.036-.036.054-.036.09h-.091l-.09.09h-.091v.037c-.054.018-.109.036-.181.036-.018.037-.036.055-.036.09-.163.055-.326.11-.471.182-.018.036-.036.054-.036.09h-.09v.037h-.091v.036h-.127v.036h-.09v.036H59.4v.037h-.182v.036h-.09v.036h-.127c-.235.09-.507.145-.869.127-.054-.073-.181-.127-.217-.217-.073-.2.163-.598.217-.689.145-.326.29-.67.435-.996.036-.018.054-.036.09-.036.018-.054.036-.109.036-.181.037-.018.055-.036.09-.036v-.09c.037-.019.055-.037.091-.037.019-.054.037-.109.037-.181.036-.018.054-.036.09-.036v-.09c.036-.019.055-.037.09-.037.019-.054.037-.109.037-.181.036-.018.054-.036.09-.036v-.091c.236-.254.471-.489.689-.743h.09c.018-.036.036-.054.036-.09h.127v-.036h.09v-.037c.11-.018.2-.036.308-.036v-.036h.181v-.036h.218v-.036h.217v-.037h.127v-.036h.18v-.036c.164-.036.327-.054.472-.09v-.037c.126-.036.253-.054.398-.09v-.037h.09v-.036h.127v-.036c.127-.036.254-.054.399-.09v-.037h.09v-.036h.127v-.036c.09-.036.18-.055.253-.09v-.037h.09v-.036c.091-.036.182-.055.254-.09.018-.037.037-.055.037-.091h.09c.018-.037.036-.055.036-.09.09-.037.181-.055.254-.091.018-.037.036-.055.036-.091h.09c.019-.036.037-.054.037-.09h.09c.018-.037.037-.055.037-.091h.09c.018-.036.036-.054.036-.09.036-.019.09-.037.127-.037v-.036c.054-.018.109-.036.181-.036.018-.037.036-.055.036-.09h.09c.019-.037.037-.055.037-.091h.09c.019-.037.037-.055.037-.091h.09v-.036c.037-.018.09-.036.127-.036.018-.037.036-.055.036-.091h.09c.019-.036.037-.054.037-.09.036-.019.09-.037.127-.037.036-.036.054-.09.09-.127h.09c.11-.108.2-.235.309-.344h.036v-.09h.09v-.036c.037-.037.09-.055.127-.09v-.091c.09-.073.181-.145.254-.218v-.09c.036-.037.09-.055.126-.09v-.091c.037-.037.09-.055.127-.091v-.09c.036-.019.054-.037.09-.037.019-.054.037-.108.037-.18h.036c.018-.236-.054-.617-.145-.743zm-1.303.87h-.037v.09c-.18.182-.344.38-.525.562h-.09c-.073.09-.145.18-.218.253h-.09c-.036.055-.09.109-.127.181h-.09c-.037.037-.055.091-.09.127h-.091c-.037.036-.055.09-.091.127h-.09c-.037.036-.055.09-.091.127h-.09c-.037.054-.091.108-.127.18h-.09c-.037.037-.055.091-.091.128h-.09c-.037.036-.055.09-.091.126-.055.019-.11.037-.182.037-.018.036-.036.054-.036.09-.054.018-.108.036-.18.036-.019.037-.037.055-.037.091h-.09l-.091.09h-.09v.037h-.091v.036h-.09v.036h-.091v.036c-.09.037-.181.055-.254.091v.036c-.072.018-.145.036-.217.036v.037c-.054.018-.109.036-.181.036v.036h-.127v.036c-.054.018-.108.037-.18.037v.036h-.128v.036h-.09v.036c-.09.018-.181.036-.254.036v.037h-.09v.036c-.109.018-.2.036-.308.036v.036c-.163 0-.253 0-.344-.036.018-.145.018-.253.09-.344.037-.036.091-.054.127-.09v-.091c.036-.018.055-.036.09-.036v-.037c.037-.036.091-.054.128-.09.018-.036.036-.09.036-.127.108-.09.163-.054.217-.217.145-.036.326-.254.435-.344.018-.037.036-.055.036-.09h.09c.073-.091.145-.182.218-.254h.09c.054-.073.109-.145.181-.218h.09c.037-.054.091-.108.128-.18h.09c.036-.055.09-.11.127-.182h.09c.037-.054.09-.109.127-.181h.09c.037-.054.091-.109.127-.181h.09c.037-.036.055-.09.091-.127h.091c.036-.054.09-.109.127-.181h.09c.018-.036.036-.054.036-.09h.037c.018-.037.036-.055.036-.091h.09c.019-.036.037-.054.037-.09h.09c.036-.037.054-.091.09-.127.037-.019.091-.037.127-.037.019-.036.037-.054.037-.09h.09c.018-.036.036-.055.036-.09h.09c.037-.037.055-.091.091-.128h.091c.018-.036.036-.054.036-.09h.09c.019-.036.037-.054.037-.09h.09c.019-.037.037-.055.037-.091h.09c.018-.036.036-.055.036-.09h.091l.09-.091h.091v-.037h.09v-.036c.073-.018.145-.036.218-.036v-.036c.09.072.108.199.217.253.109.399.181.815.073 1.069zM55.867 17.355v.183h-.036v.092c-.037.037-.092.055-.128.092v.092h-.037c-.036.055-.091.11-.128.184h-.091c-.055.073-.11.147-.183.22h-.092c-.018.037-.036.055-.036.092h-.092c-.036.055-.091.11-.128.184-.11.11-.238.202-.347.312v.092c-.074.055-.147.11-.22.183v.092c-.165.147-.33.294-.476.441v.092c-.091.073-.183.147-.256.22v.092c-.073.055-.146.11-.22.184v.092c-.036.036-.09.055-.127.092v.091c-.055.037-.11.092-.183.129v.092c-.11.11-.238.202-.348.312-.036.037-.055.092-.091.129h-.092c-.055.073-.11.147-.183.22h-.091c-.037.037-.055.092-.092.129H52.1c-.018.036-.037.055-.037.092-.055.018-.11.036-.183.036v.037c-.036.018-.055.037-.091.037v.092c-.073.055-.147.11-.22.183v.092c-.036.019-.055.037-.091.037v.092c-.037.037-.092.055-.128.092-.037.036-.055.091-.092.128-.183.129-.402.129-.695.129v-.037c-.073-.018-.146-.037-.22-.037v-.036h-.128v-.037h-.091c-.018-.037-.037-.055-.037-.092h-.091c-.018-.037-.037-.055-.037-.092h-.091v-.037c-.037-.036-.092-.055-.128-.091v-.092c-.037-.019-.055-.037-.092-.037v-.092c-.036-.018-.055-.037-.091-.037v-.091c-.037-.019-.055-.037-.092-.037v-.129h-.036v-.092h-.037v-.128h-.036v-.312h-.037c-.055-.203 0-1.176.037-1.323h.036v-.184h.037c.036-.147.055-.294.091-.44h.037v-.092h.036v-.13h.037c.018-.073.037-.146.037-.22h.036v-.091h.037v-.129h.036c.037-.092.055-.184.092-.257h.036v-.092h.037v-.092h.037c.036-.092.055-.183.091-.257.037-.018.055-.037.092-.037.018-.055.036-.11.036-.183.037-.019.055-.037.092-.037.018-.055.036-.11.036-.184.055-.037.11-.092.183-.128v-.092c.037-.037.092-.055.128-.092v-.092c.055-.037.11-.092.183-.129v-.091c.055-.037.11-.092.183-.129v-.092c.037-.018.055-.037.092-.037v-.091c.036-.019.055-.037.091-.037v-.092l.092-.092v-.092h.036v-.092h.037v-.091c.036-.019.055-.037.091-.037v-.184h.037V15.5h.036v-.183h.037v-.184h.037v-.257h.036v-1.58h.037v-.184h.036v-.091h.037c.073-.166.018-.258.22-.313.09-.073.658 0 .786.037v.037h.128v.036h.22v.037c.091.037.183.055.256.092v.037c.091.018.183.037.256.037.018.036.037.055.037.091h.128v.037h.091v.037h.092c.018.037.036.055.036.092h.092v.036h.091c.018.037.037.056.037.092h.091c.018.037.037.055.037.092h.091c.019.037.037.092.037.129.036.018.055.036.091.036v.129h-.036c-.019.074-.037.147-.037.22h-.036v.092c-.037.019-.055.037-.092.037v.092h-.037v.092h-.036v.092l-.092.091v.092c-.036.019-.054.037-.091.037-.018.055-.037.11-.037.184h-.036c-.019.036-.037.092-.037.128-.036.019-.055.037-.091.037v.092h-.037c-.018.037-.036.092-.036.128-.037.019-.055.037-.092.037v.092c-.037.037-.091.055-.128.092v.092c-.037.036-.092.055-.128.092v.091c-.037.037-.092.056-.128.092-.037.037-.055.092-.092.129h-.036v.092c-.092.073-.183.147-.256.22-.622.845-1.354 1.562-1.976 2.425-.055.037-.11.092-.183.128v.092c-.037.037-.092.055-.128.092v.092c-.037.018-.055.037-.092.037v.092h-.036v.091l-.092.092v.092c-.036.018-.055.037-.091.037v.092c-.037.018-.055.036-.092.036v.092c-.036.019-.055.037-.091.037-.165.257-.22.496-.22.918.147.074.202.166.44.184v-.037h.182v-.036h.092v-.037h.128v-.037h.128v-.037h.128v-.036h.092v-.037h.128v-.037c.091-.036.183-.055.256-.092v-.036c.055-.019.11-.037.183-.037.018-.037.036-.055.036-.092h.092c.036-.037.055-.092.091-.128h.092c.018-.037.036-.056.036-.092.055-.019.11-.037.183-.037.018-.037.037-.055.037-.092h.091c.037-.037.055-.092.092-.128.055-.019.11-.037.183-.037.018-.037.036-.055.036-.092h.092c.018-.037.036-.055.036-.092h.092c.018-.037.036-.055.036-.092h.092c.018-.037.036-.055.036-.092h.092c.018-.036.036-.055.036-.091h.092c.018-.037.037-.056.037-.092.036-.019.091-.037.128-.037v-.037c.054-.018.11-.037.183-.037V19.1c.036-.019.091-.037.128-.037.018-.037.036-.055.036-.092h.092c.036-.055.091-.11.128-.184h.091c.037-.055.092-.11.128-.183.037-.019.055-.037.092-.037v-.092l.091-.092h.092c.055-.073.11-.147.183-.22h.091v-.037c.037-.018.092-.037.128-.037.018-.036.037-.055.037-.091h.091c.055-.074.11-.147.183-.22h.092c.018-.038.036-.056.036-.093.037-.018.092-.036.128-.036v-.037c.183-.22.202-.239.384-.257z"/>
                <g fill="#000">
                    <use xlink:href="#3b5oeewbka"/>
                    <use xlink:href="#3b5oeewbka"/>
                </g>
                <path fill="#E58E1A" stroke="#E8991C" stroke-width=".704" d="M5.747 32.449H5.24v-3.895h2.357c.599 0 1.36.239 1.36 1.213 0 1.01-.761 1.212-1.36 1.212h-1.85v1.47zm1.85-1.984c.599 0 .853-.22.853-.698 0-.496-.254-.717-.853-.717h-1.85v1.396h1.85v.019zM16.666 32.449h-.635l-1.088-1.58h-1.705v1.58h-.508v-3.895h2.394c.707 0 1.47.276 1.47 1.158 0 .734-.617 1.083-1.035 1.12l1.107 1.617zm-1.542-2.094c.49 0 .961-.13.961-.643 0-.57-.526-.643-.96-.643h-1.887v1.304h1.886v-.018zM21.236 32.449L20.728 32.449 20.728 28.554 21.236 28.554zM29.96 32.449L29.452 32.449 29.452 29.381 29.434 29.381 27.82 31.934 26.206 29.381 26.187 29.381 26.187 32.449 25.68 32.449 25.68 28.554 26.187 28.554 27.802 31.108 29.416 28.554 29.924 28.554zM37.559 32.449L34.095 32.449 34.095 28.554 37.468 28.554 37.468 29.069 34.603 29.069 34.603 30.208 36.253 30.208 36.253 30.722 34.603 30.722 34.603 31.953 37.559 31.953zM47.97 30.19c.743.018 1.505.348 1.505 1.138 0 .662-.453 1.25-1.868 1.25-1.288 0-1.977-.497-2.285-.699l.254-.459c.29.22.888.643 2.013.643.98 0 1.396-.294 1.396-.716 0-.478-.453-.625-.888-.643l-1.161-.037c-.454 0-1.324-.239-1.324-1.084 0-.661.616-1.157 1.668-1.157 1.197 0 1.85.459 1.977.55l-.235.46c-.49-.294-1.07-.496-1.65-.496-.944 0-1.27.294-1.27.625 0 .44.38.57.78.587l1.088.037zM56.458 32.449L52.993 32.449 52.993 28.554 56.367 28.554 56.367 29.069 53.501 29.069 53.501 30.208 55.152 30.208 55.152 30.722 53.501 30.722 53.501 31.953 56.458 31.953zM64.438 32.449h-.508l-.562-.974H60.72l-.563.974h-.507l2.176-3.895h.435l2.177 3.895zm-2.394-3.38l-1.034 1.91h2.086l-1.052-1.91zM68.156 32.449L67.648 32.449 67.648 28.554 70.967 28.554 70.967 29.069 68.156 29.069 68.156 30.171 69.897 30.171 69.897 30.685 68.156 30.685zM76.97 32.577c-1.324 0-2.321-.826-2.321-2.076 0-1.249.997-2.075 2.321-2.075 1.324 0 2.322.826 2.322 2.075 0 1.231-.998 2.076-2.322 2.076zm1.814-2.076c0-.826-.708-1.561-1.814-1.561s-1.814.735-1.814 1.561c0 .827.708 1.562 1.814 1.562s1.814-.735 1.814-1.562zM85.132 32.577c-1.324 0-2.322-.826-2.322-2.076 0-1.249.998-2.075 2.322-2.075s2.321.826 2.321 2.075c0 1.231-1.016 2.076-2.321 2.076zm1.813-2.076c0-.826-.707-1.561-1.813-1.561-1.107 0-1.814.735-1.814 1.561 0 .827.707 1.562 1.814 1.562 1.106 0 1.813-.735 1.813-1.562zM93.275 28.554c1.251 0 1.886.882 1.886 1.947 0 1.066-.635 1.948-1.886 1.948h-2.158v-3.895h2.158zm0 3.38c.834 0 1.378-.587 1.378-1.433 0-.845-.544-1.432-1.36-1.432h-1.669v2.884h1.65v-.019z"/>
            </g>
        </g>
    </g>
</svg>
