<svg xmlns="http://www.w3.org/2000/svg" width="111" height="80" viewBox="0 0 111 80">
    <g fill="none" fill-rule="evenodd">
        <g fill-rule="nonzero">
            <g>
                <path fill="#A2B627" d="M35.024 74.967h.918v4.15h-.918v-4.15zm4.084.853h-1.262v-.853h3.418v.853h-1.262v3.32h-.917l.023-3.32zm4.932-.876h.849l1.766 4.173h-.94l-.368-.923h-1.743l-.367.923h-.918l1.72-4.173zm.94 2.444l-.55-1.337-.55 1.337h1.1zm3.487-2.42h.918v3.319h2.065v.83h-2.96l-.023-4.15zm4.864 0h.917v4.149h-.917v-4.15zm4.542-.024h.849l1.766 4.173h-.94l-.367-.923h-1.744l-.367.923h-.918l1.721-4.173zm.964 2.444l-.551-1.337-.55 1.337h1.1zm3.464-2.42h.848l1.927 2.558v-2.559h.895v4.15h-.78l-1.996-2.628v2.628h-.894v-4.15zm8.74 0h.917v1.82l1.675-1.82h1.101l-1.674 1.751 1.766 2.398h-1.101l-1.285-1.775-.482.507v1.268h-.917v-4.15zm5.551 0h.918v4.149h-.918v-4.15zm4.084.852h-1.262v-.853h3.418v.853h-1.261v3.32h-.918l.023-3.32zm3.67 1.245c0-1.199.895-2.167 2.157-2.167.78 0 1.239.254 1.629.646l-.574.668c-.321-.3-.642-.461-1.055-.461-.688 0-1.193.576-1.193 1.29v.024c0 .715.482 1.314 1.193 1.314.481 0 .757-.185 1.078-.484l.573.576c-.435.461-.894.738-1.697.738-1.193-.023-2.11-.968-2.11-2.144zm5.735-2.098H91v1.637h1.675v-1.637h.917v4.15h-.917v-1.66h-1.675v1.66h-.918v-4.15zm5.667 0h3.12v.807h-2.203v.853h1.95v.807h-1.95v.876h2.249v.807H95.77l-.023-4.15zm5.116 0h.848l1.927 2.559v-2.559h.895v4.15h-.78l-1.996-2.628v2.628h-.894v-4.15zM96.124 26.875c.23 1.335.276 2.233.3 3.085.805.806 1.45 1.659 2.094 2.603.621.92 1.127 1.888 1.588 2.901.184.369.368.507.76.415.39-.115 1.61-.415 1.61-.415.162-.069.208-.16.139-.345-.668-1.635-1.151-2.418-2.21-3.869-1.197-1.681-2.647-3.155-4.281-4.375zm14.845 16.442c-.092-.322-.391-.99-.53-1.359-.23-.598-.39-.713-1.288-.621-2.256.23-4.65.184-6.905-.092-2.324-.3-4.626-.899-6.766-1.82-.162-.069-.23-.16-.3-.3-.39-.851-.782-2.003-1.081-3.592 2.9-3.523 1.127-10.178-.484-16.12-.046-.207-.16-.16-.253-.069-1.059 1.59-1.75 3.224-2.14 4.86-.69-.277-1.381-.53-2.072-.76-1.059-.346-2.117-.622-3.199-.83-.023.622-.046 1.244-.023 1.82.898.23 1.772.483 2.624.806.805.276 1.588.621 2.347.967-.299 3.5.714 6.816 2.325 9.188.184 1.083.552 2.35.644 2.672.116.391-.138.483-.39.368-1.497-.829-2.878-1.865-4.075-3.086-1.657-1.704-2.877-3.8-3.498-6.102-.322-1.152-.46-2.326-.53-3.57-.068-1.22-.045-2.464.047-3.685.115-1.404.368-2.786.76-4.145.137-.46.506-.552.874-.598.713-.116 1.427-.277 2.163-.438.645.161 1.335.253 2.026.3 5.362.299 10.61-3.04 12.635-5.504.07-.093.07-.162.023-.208-.046-.046-.138-.069-.23-.069h-.115c-7.664.691-10.265.921-13.694 4.122-.438.392-.852.553-1.197.622-.69.138-1.358.276-2.049.392.208-.507.438-1.014.69-1.52 1.083-2.119 2.694-3.961 4.627-5.435.322.069.645.115.967.138 4.419.23 9.436-4.237 13.878-8.175.023-.023.023-.046.023-.07 0-.022-.023-.045-.046-.045-3.567-.484-7.112.3-10.127 2.21-2.163 1.382-3.958 3.27-5.063 5.343-2.256 1.543-3.936 3.708-4.281 4.214-.092.162-.184.07-.207-.069-.115-1.566-.391-2.487-.553-2.924-.023-.046-.023-.139.07-.208 1.058-.621 1.472-1.865.966-3.2-.414-1.106-1.312-1.82-2.348-1.866-.345-.023-.713.046-1.058.184-.645.254-1.151.691-1.404 1.313-.3.668-.3 1.45-.023 2.234.414 1.082 1.22 1.75 2.232 1.796.253.023.484-.023.737-.07.207.646.782 2.603.437 4.676-.575 1.082-1.059 2.44-1.312 3.224-.138.46-.437.414-.644-.046 0 0-.3-.576-.484-.898.23-2.073-.529-4.284-2.21-6.218-1.794-2.073-4.372-3.593-7.272-4.26-.023 0-.046 0-.07.023-.022.023-.022.046 0 .069.392.713.783 1.45 1.152 2.164 2.255 4.307 4.419 8.383 7.71 8.66.621 1.081 1.059 2.095 1.243 3.016-.07.368-.115.76-.161 1.128-.023.138-.023.3-.046.438-.53-.092-1.06-.161-1.588-.23-1.151-.162-2.279-.277-3.43-.392.368.599.737 1.22.99 1.681.736.115 1.45.207 2.186.346.208.023 1.335.23 1.704.322-.023.415-.023.852-.023 1.359 0 .322.023 1.658.092 2.326.069.621.184 1.243.322 1.957.161.806.598 2.004.644 2.142.184.483-.16.645-.483.483-1.059-.552-1.98-1.105-2.785-1.704-.69-4.49-3.314-9.28-8.194-14.968-.023-.024-.046-.024-.069-.024-.023 0-.046.024-.046.047-.276 1.888-.299 3.753-.092 5.503-1.312-.16-2.624-.391-3.866-.737-.07-.023-.139-.046-.23-.069-.553-.852-1.036-2.05-1.474-3.408 2.14-4.076-.345-10.777-3.13-16.88C64.57.023 64.523 0 64.5 0c-.023 0-.046.023-.069.046-3.061 6.632-1.519 11.215 2.509 17.226.253.736.506 1.427.782 2.05.161.345-.092.46-.414.345-1.289-.53-2.509-1.244-3.59-2.188-1.542-1.313-2.74-2.994-3.706-4.813-1.404-4.168-6.744-7.392-12.797-7.738-.598-.023-1.197-.046-1.772 0-.023 0-.046.023-.07.046 0 .023 0 .046.024.07 4.902 5.204 7.112 7.23 13.441 7.852.345.023.599.184.875.668.874 1.681 2.002 3.293 3.43 4.606.298.276.598.53.897.76-.668-.162-1.335-.3-1.98-.415-2.186-1.45-4.488-2.234-7.088-2.372-2.716-.138-5.754.415-9.322 1.75-.345.139-.598.415-.138.737 2.233 1.497 4.557 2.303 7.043 2.418 2.6.138 5.432-.437 8.884-1.796 1.243.23 2.532.507 3.844.852.53.161 1.68.622 2.324.875.438.161.99.369 1.473.53 1.45.437 2.946.737 4.42.967.437 2.188 1.242 4.122 2.393 5.642 1.473 1.958 3.314 2.994 5.455 3.27 1.013.714 2.555 1.543 3.913 2.165.414.184.828.553.966.783.046.092.829 1.266 1.29 1.796.23.276.16.323-.139.3-.437-.024-1.358.023-2.117.207-.23.046-.346-.023-.415-.138 0-.023-.023-.023-.023-.046-.16-.208-.713-.876-1.772-.922-.368-.023-.76.046-1.15.162-.783.253-1.405.76-1.727 1.404-.3.6-.345 1.267-.115 1.935.345 1.036 1.197 1.68 2.302 1.75.39.023.782-.023 1.173-.161.737-.254 1.312-.691 1.634-1.29.3-.553.369-1.197.185-1.865.529-.138 1.68-.346 3.337-.07 1.657 1.659 3.59 2.971 5.662 3.985 2.37 1.151 4.902 1.911 7.48 2.349 2.578.437 5.225.552 7.848.368.323-.023.622-.046.944-.092.322-.092.437-.345.345-.69zm-17.377-9.994c-.023.299-.23.253-.276.046-.322-1.152-1.059-4.79-.23-10.824 0-.046.046-.069.069-.069.046 0 .069.023.069.07.023 1.91.115 3.292.23 4.651.138 1.796.253 3.5.138 6.126zm-1.634-17.71c1.887-.506 3.775-1.15 5.616-1.773 1.082-.368 2.118-.714 3.13-1.059.023 0 .07 0 .07.046.022.023 0 .07-.024.092-3.728 2.165-7.204 2.787-8.746 2.97-.46.07-.46-.16-.046-.275zm1.588-7.76c4.88-3.961 9.713-5.02 9.759-5.02.023 0 .07.023.07.046.022.023 0 .069-.024.092-2.325 1.197-4.005 2.095-5.616 2.97-1.312.714-2.555 1.382-4.05 2.165-.254.092-.392-.069-.139-.253zm-7.25-1.451c-.023.023-.046.046-.069.023-.115-.046-.23-.07-.368-.07-.69-.045-1.381.392-1.703.83 0 .023-.023.023-.046.023s-.023 0-.046-.023c-.184-.207-.207-.23-.438-.368-.023-.024-.023-.047-.023-.093.323-.621.921-.967 1.588-.92.415.022.783.183 1.105.506.023.023.023.069 0 .092zm-3.521 9.971c-.023 0-.046 0-.046-.023-.714-.898-1.358-1.704-1.98-2.51-1.45-1.865-2.715-3.5-4.304-4.928-.023-.023-.023-.069 0-.092.023-.023.07-.023.092-.023 5.041 3.431 6.215 7.162 6.307 7.461 0 .023.023.023 0 .046 0 .046-.023.07-.07.07zm-15.881-1.496c-.023 0-.023 0 0 0-.046 0-.07 0-.07-.023-.022-.047-2.393-4.491-2.094-11.308 0-.023.023-.069.07-.069.022 0 .068.023.068.046.277 1.705.622 3.294.944 4.813.46 2.165.898 4.215 1.15 6.448-.022.07-.045.093-.068.093zm-8.884-3.34c-2.256-.944-4.557-2.349-6.79-3.684-.898-.553-1.75-1.06-2.6-1.543-.024-.023-.047-.046-.024-.092.023-.023.046-.046.092-.046 5.11 1.404 8.562 4.398 9.368 5.135.138.138.138.3-.046.23zm1.266 7.14c-.023 0-2.923.46-7.09.253-1.357-.07-2.692-.208-4.004-.415-.046 0-.07-.046-.07-.069 0-.046.024-.069.07-.069.506-.023.967-.046 1.45-.046 2.14-.092 3.982-.161 6.513-.023.99.046 2.003.138 3.108.253.023 0 .069.023.069.07.023.022 0 .045-.046.045zM79.76 29.338c-3.867-3.777-5.202-10.455-5.225-10.524 0-.047.023-.07.046-.07s.07 0 .092.046c1.082 2.764 2.21 4.698 3.291 6.564.69 1.197 1.404 2.418 2.095 3.869.092.23-.092.322-.3.115zm3.89 7.668h-.047c-.782 0-1.588.507-2.002.99 0 .024-.023.024-.046.024s-.023 0-.046-.024c-.184-.184-.23-.23-.437-.368-.023-.023-.023-.07-.023-.092.414-.691 1.15-1.129 1.887-1.082.3.023.598.115.828.276.023.023.07.046.093.069.069.115 0 .23-.208.207z"/>
                <path fill="#54301A" d="M33.59 22.17c0-.899.712-1.614 1.607-1.614s1.607.715 1.607 1.615-.712 1.615-1.607 1.615-1.607-.716-1.607-1.615zm-10.903 9.666v-8.235c0-6.228 2.893-6.897 4.132-6.897 1.974 0 3.971 1.891 3.971 6.09 0 6.528-3.328 12.04-4.522 13.794.872 1.822 2.204 1.822 2.846 1.822 2.732 0 4.293-1.914 4.844-2.745-.115-.715-.161-1.5-.161-2.399v-6.85c0-.162.138-.3.298-.3H36.3c.16 0 .298.138.298.3v6.85c0 3.414.941 5.167 2.8 5.167 1.263 0 2.181-.876 2.755-1.591.069-.093.16-.139.275-.116.115.023.184.093.23.185.344.853.643 1.66.872 2.353.046.115 0 .23-.069.3-1.193 1.107-2.57 1.684-4.04 1.684-1.078 0-3.098-.346-4.384-2.469-1.216 1.2-3.144 2.469-5.876 2.469-2.984-.024-6.473-1.638-6.473-9.412zm2.778.877v.53c1.24-2.468 2.502-6.759 2.502-10.45 0-2.19-.758-3.298-1.17-3.298-.644 0-1.355 1.292-1.355 4.083v9.135h.023zM10.43 41.64h.368c3.098-.093 5.692-1.361 7.528-3.668 1.814-2.284 2.732-5.375 2.617-8.973-.23-7.151-3.81-11.788-9.158-11.788h-.322c-1.56.046-2.915.577-3.902 1.523-1.01.969-1.538 2.33-1.492 3.829.046 1.66.918 3.16 2.319 3.968.527.3 1.423.669 2.64.669 1.1 0 2.249-.277 3.465-.854.138-.07.207-.23.16-.369l-.826-2.053c-.022-.07-.091-.138-.16-.162-.07-.023-.16-.023-.23 0-1.492.716-2.777.83-3.65.346-.573-.322-.895-.922-.917-1.614-.023-.692.206-1.292.642-1.707.482-.462 1.194-.715 2.043-.738h.207c3.695 0 6.197 3.552 6.38 9.065.093 2.837-.573 5.26-1.904 6.99-1.309 1.706-3.237 2.652-5.532 2.745-.092 0-.207.023-.276 0-5.072 0-7.528-4.43-7.643-8.535C2.672 26.6 4.14 24.132 5.013 23c.07-.092.092-.184.046-.3l-.918-2.283c-.046-.093-.115-.162-.206-.185-.092-.023-.184 0-.276.07-.643.622-3.856 4.105-3.65 10.103C.194 37.003 4.486 41.64 10.43 41.64zm29.105-15.063c-.046-.093-.046-.208 0-.3s.16-.139.253-.139h2.525c.114 0 .206.07.252.162 1.056 1.914 3.053 6.136 4.89 11.464 3.006-4.198 3.878-8.004 2.708-11.187-.023-.07-.023-.162.023-.231.046-.07.091-.138.183-.161l2.204-.67c.137-.046.252.024.344.139.895 1.269 2.25 2.699 3.42 3.575 1.263-2.652 3.489-4.267 6.243-4.267 3.1 0 5.257 1.915 5.257 4.66 0 2.814-2.41 4.798-5.83 4.798-1.24 0-2.502-.323-3.765-.854.023 2.445 1.4 4.89 4.476 4.89 2.732 0 4.132-1.268 5.325-2.537.07-.07.161-.115.276-.092.092.023.183.092.23.184l.894 2.238c.046.115.023.23-.068.323-1.217 1.153-3.214 2.699-6.634 2.699-4.27 0-7.276-3.138-7.276-7.705 0-.507.046-1.061.115-1.568-.643-.462-1.515-1.223-2.066-1.8-.344 3.714-2.318 7.336-5.004 10.796-.046.069-.138.115-.23.115h-2.295c-.138 0-.252-.092-.275-.207-2.41-7.544-5.348-12.872-6.175-14.325zm19.143 4.152c1.102.577 2.204.83 3.26.83 1.124 0 3.053-.415 3.053-1.984 0-1.707-1.883-1.845-2.456-1.845-1.722.023-3.1 1.107-3.857 2.999zM30.4 52.666h-2.204c-.16 0-.298.138-.298.3 0 4.59-2.709 9.227-7.896 9.227-4.292 0-7.07-3.184-7.07-8.143 0-4.498 2.525-9.342 8.057-9.342 2.089 0 4.522.922 4.522 3.575 0 1.269-.735 2.422-1.951 3.068-.138.07-.184.23-.138.37l.803 2.075c.023.07.092.139.161.162.069.023.16.023.23 0 2.295-1.085 3.672-3.207 3.672-5.675 0-3.76-3.007-6.367-7.3-6.367-7.459 0-10.833 6.298-10.833 12.157 0 6.551 3.97 10.934 9.87 10.934 3.764 0 6.358-2.007 7.896-4.29v2.814c0 5.859-2.525 5.882-3.604 5.882-.85 0-1.607-.3-2.25-.877-.068-.069-.16-.092-.252-.069-.092.023-.16.092-.206.185l-.873 2.122c-.045.138 0 .277.115.346 1.033.715 2.204 1.084 3.466 1.084 2.915 0 6.404-1.5 6.404-8.673V53.058v-.023-.115c-.023-.116-.16-.254-.321-.254zm39.962 16.378c.023.092.023.184-.023.253-.046.07-.115.139-.207.162-1.079.23-2.112.323-3.099.323-2.456 0-4.544-.67-6.243-1.984-2.663-2.053-4.063-5.513-4.063-9.965v-4.475c0-.392-.069-.67-.206-.784-.23-.208-.482-.231-1.033-.208-1.263.07-2.387-.092-3.328-.37.137 1.223.23 2.608.23 4.13 0 5.698-1.608 8.604-4.798 8.604-1.056 0-2.709-.53-3.764-2.607-1.194 1.5-2.755 2.607-4.935 2.607-4.04 0-6.634-3.091-6.634-7.866 0-4.775 2.594-7.866 6.634-7.866 1.56 0 2.938.53 4.04 1.453v-.784c0-.161.137-.3.298-.3h2.203c.16 0 .299.139.299.3v8.074c0 1.568.252 4.175 1.882 4.175 1.744 0 1.997-3.622 1.997-5.79 0-3.622-.413-5.375-.918-7.128-.046-.161.046-.323.206-.369l2.18-.669c.139-.046.3.023.368.162.39.968 1.492 1.453 3.282 1.453.207 0 .414 0 .643-.023 1.285-.07 2.364.254 3.099.969.505.46 1.102 1.337 1.102 2.837v4.452c0 3.552 1.032 6.251 2.96 7.75 1.194.923 2.732 1.408 4.545 1.408.666 0 1.4-.07 2.135-.208.138-.023.275.046.321.185l.827 2.099zM42.818 56.818c0-2.445-1.24-5.052-3.925-5.052-3.558 0-3.834 3.876-3.834 5.052 0 1.176.276 5.052 3.834 5.052 2.685 0 3.925-2.607 3.925-5.052zm67.551 5.928c-.849.808-2.111 1.938-4.131 1.938-2.778 0-4.453-1.96-4.453-5.26v-4.382c0-2.56-.941-3.068-2.548-3.068-2.135 0-4.086 2.63-4.086 5.536v6.551c0 .162-.137.3-.298.3h-2.204c-.16 0-.298-.138-.298-.3V61.04c-1.262 1.592-3.374 3.645-6.955 3.645-2.18 0-3.902-.738-5.164-1.984-.896 1.038-2.227 1.846-3.696 1.846-1.515 0-2.754-.923-3.535-2.469-1.193 1.5-2.8 2.607-5.004 2.607-4.04 0-6.633-3.091-6.633-7.866 0-4.775 2.594-7.866 6.633-7.866 1.699 0 2.984.623 4.086 1.546v-8.374c0-.161.138-.3.299-.3h2.203c.16 0 .298.139.298.3v15.917c0 2.352.62 3.69 1.768 3.69.895 0 1.515-.715 2.02-1.291-.39-1.015-.712-2.169-.712-3.645 0-4.567 2.984-7.866 7.07-7.866 3.305 0 5.073 2.33 5.073 4.544 0 1.684-.804 3.16-2.204 4.037-.964.6-2.112.923-3.42.923-1.148 0-2.387-.231-3.696-.715.207 1.73 1.08 4.152 4.5 4.152 4.292 0 6.45-3.691 7.069-5.398v-6.828c0-.161.138-.3.298-.3h2.204c.16 0 .298.139.298.3v1.269c1.17-1.084 2.594-1.73 4.086-1.73 1.997 0 5.348.76 5.348 5.882v4.383c0 2.445 1.125 2.445 1.653 2.445 1.079 0 1.813-.738 2.8-1.753.069-.07.16-.116.275-.093.092.023.184.093.23.185l.895 2.237c.046.07.023.208-.069.277zm-29.311-7.935c1.24.53 2.41.83 3.443.83.78 0 1.423-.16 1.95-.484.598-.369.896-.923.896-1.66 0-.831-.711-1.73-2.295-1.73-1.928 0-3.374 1.106-3.994 3.044zm-9.113 2.007c0-2.514-1.216-5.052-3.925-5.052-3.557 0-3.833 3.876-3.833 5.052 0 1.176.276 5.052 3.833 5.052 2.709 0 3.925-2.538 3.925-5.052zM107.228 67.077c0-1.785 2.694-1.785 2.694 0 0 1.807-2.694 1.807-2.694 0zm2.366 0c0-1.437-2.06-1.437-2.06 0s2.06 1.415 2.06 0zm-.416.588v.043h-.263l-.285-.435h-.219v.435h-.263v-1.284h.548c.263 0 .46.152.46.435 0 .174-.088.327-.263.37l.285.436zm-.789-.61h.263c.131 0 .219-.087.219-.196 0-.109-.088-.196-.22-.196h-.262v.392z"/>
            </g>
        </g>
    </g>
</svg>
