<svg xmlns="http://www.w3.org/2000/svg" width="187" height="146" viewBox="0 0 187 146">
    <g fill="none" fill-rule="evenodd">
        <g fill-rule="nonzero">
            <g>
                <g fill="#261012">
                    <path d="M113.281 2.258c1.155 2.72 1.155 5.905-.924 8.163-2.657 2.895-5.488 5.558-8.78 7.642-3.178 1.795-6.817 3.126-10.11 4.805-1.79.869-3.466 1.795-5.315 2.548 0 .173-.23.116-.23.29-.347 0-.752.289-1.098.52-3.235 1.274-5.892 3.358-8.55 5.385-.75.984-1.848 1.736-1.675 3.068.347.232.751.463 1.155.174 3.582-2.316 7.741-4.342 12.016-5.5.347-.232.982-.058 1.329-.29.115-.058.23-.116.346 0 1.098-.926 2.888-.752 4.044-1.563.693.174.924-.521 1.502-.637.809.232 1.155-.637 1.848-.579 3.12-1.679 6.586-3.242 9.474-5.442 2.137-1.158 3.582-3.3 5.488-4.805.404-.232.982-.463 1.444-.29.058 1.564-.115 3.069.578 4.748.058.926-.405 1.737-.289 2.663 1.617.347 2.137-1.737 2.83-2.837.578-2.779.405-5.674.347-8.51-.115-1.043-.578-2.432-.809-3.474-.577-1.042-.808-2.374-1.386-3.416-.866-1.621-1.329-3.763-3.062-4.4-.808.521-.115 1.158-.173 1.737zM52.683 42.147c2.947-2.431 7.221-3.01 10.86-3.184 3.409-.231 6.817-.116 10.283-.463.231-.29.116-.579.174-.81-3.351-1.68-7.164-2.2-10.918-2.316-2.022-.463-4.217.231-6.297.405-2.657 1.158-6.123 1.332-7.568 3.821-.52.579-.866 1.563-1.328 2.084-.289-.058-.347-.405-.636-.463.174-.579-.462-.984-.288-1.505-.52-.81-1.618-1.1-2.484-1.1-3.35.52-6.76 1.91-9.879 3.01-5.95 2.78-12.073 2.374-17.965 1.332-1.675.174-3.466.058-4.795-1.216-1.328-2.2 1.098-4.11 2.138-5.905.75-1.332 2.253-2.142 2.426-3.648-.173-.636-.924-.115-1.271.058-3.004 2.78-5.892 5.732-8.607 8.858-1.271.869-1.964 2.606-3.004 3.706-1.791 2.836-4.275 5.963-2.542 9.378 4.333 3.474 9.878 3.937 15.077 4.053 5.835-.116 11.9-1.1 17.677-1.853 3.177-.636 6.932-1.389 9.994-2.836.52-.174.982-.521 1.328-.985-.058-.231-.115-.463-.346-.52-2.195.463-4.622.81-6.875.984-4.563.579-9.011.984-13.46.81-.404 0-.808-.058-1.097.116-5.083-.29-10.167-.116-15.02-2.258-1.501-1.853-.057-3.821.752-5.442.462-.463 1.097-.116 1.675-.116 1.964.984 4.044 1.158 6.008 1.563 6.007.29 12.13 0 18.427-1.447.058-.116.058-.116.174-.058 2.021-.579 4.274-1.1 6.238-.984.52.058 1.156.058 1.676.231 1.617-.058 2.195 1.68 3.292 2.548.694.405 1.33-.232 1.849-.521 1.27-1.969 2.83-3.648 4.332-5.327z" transform="translate(24)"/>
                    <path d="M77.754 41.626c-.693 1.274-.115 2.895.29 4.4.404 2.432-.405 4.748-1.156 7.006-.462 2.431-1.098 4.92-.982 7.468.346 4.053-3.12 7.642-2.542 11.753 0 1.158.462 2.315.462 3.531.636 1.969-.404 4.053-1.848 5.384-.694.232-1.56.753-2.311.406-1.906-.232-3.12-1.68-3.87-3.3-3.813-5.269-3.235-13.606-7.683-18.295-1.618-1.1-3.466-2.605-3.12-4.632-.52-2.315-.982-4.92-2.368-6.715-.405-.116-.925.29-1.329.173-.982.695-2.368 1.216-2.6 2.49-.808 1.1-.346 2.431-.173 3.531.809 1.969.982 4.169 1.618 6.08.23 1.794 1.79 2.836 2.888 4.11 6.239 5.442 7.914 14.416 13.055 20.726.232.29.636.521.81.869.808.173 1.501 1.1 2.368.926 1.097-.521 2.484-.116 3.177-1.158 2.368-1.042 3.697-3.474 5.314-5.442 3.87-5.095 1.271-11.348.925-17.137-.405-3.59 1.617-6.832 1.733-10.305 0-3.937-.058-8.221-1.849-12.042-.289 0-.52.058-.809.173z" transform="translate(24)"/>
                </g>
                <g fill="#8B0E04">
                    <path d="M184.634 3.3c-.52 0-.924.177-1.328.53-.346.354-.52.825-.52 1.356 0 .53.174 1.002.52 1.355.346.354.808.53 1.328.53s.98-.176 1.327-.53c.346-.354.52-.825.52-1.355s-.174-.943-.52-1.356c-.346-.353-.808-.53-1.327-.53zm1.154 3.064c-.289.295-.693.472-1.154.472-.462 0-.808-.177-1.155-.472-.288-.294-.461-.707-.461-1.178 0-.472.173-.825.461-1.179.289-.294.693-.471 1.155-.471.461 0 .808.176 1.154.471.289.295.462.707.462 1.179 0 .471-.173.825-.462 1.178z" transform="translate(0 94)"/>
                    <path d="M185.5 4.714c0-.235-.116-.412-.347-.53-.115-.059-.288-.059-.577-.059h-.693v2.063h.347v-.825h.288c.173 0 .347 0 .404.058.116.06.173.236.173.472v.236h.347V6.01v-.354c0-.118-.058-.236-.116-.295-.057-.117-.173-.176-.346-.176.115 0 .23-.06.289-.118.115 0 .23-.118.23-.354zm-.578.354c-.057.059-.173.059-.346.059h-.346V4.36h.288c.173 0 .347 0 .462.059.115.059.115.176.115.294.058.236-.057.295-.173.354zM17.661 30.113c0-.295-.23-.413-.75-.413-.924 0-.75.648-4.04.648H6.464V3.182c0-2.121.75-2.121.75-2.416 0-.412-.288-.471-.634-.471H.866C.577.295.23.354.23.766c0 .354.75.354.75 2.416v26.282c0 2.122-.75 2.122-.75 2.416 0 .413.288.472.635.472h15.64c1.213 0 1.155-.06 1.155-.59v-1.65zM30.359 2.24c-8.485 0-9.408 7.66-9.408 15.38 0 6.776.923 15.321 9.12 15.321 8.195 0 9.407-8.486 9.407-15.321.057-7.72-.866-15.38-9.12-15.38zm3.116 25.633c0 1.238-.404 3.064-3.347 3.064-2.655 0-3.06-1.826-3.06-3.064V7.248c0-1.237.693-3.064 3.348-3.064s3.06 1.827 3.06 3.064v20.625zM58.524 32.352h2.828c1.097 0 1.154-.295 1.154-.766V5.48c0-1.944.693-1.944.693-2.239 0-.353-.289-.412-.577-.412h-4.213c-.289 0-.578.058-.578.412 0 .295.693.295.693 2.24v16.087L50.79 3.536c-.115-.472-.346-.707-1.27-.707h-4.213c-.288 0-.577.058-.577.412 0 .295.693.295.693 2.24v24.16c0 1.945-.693 1.945-.693 2.24 0 .353.289.412.577.412h4.213c.289 0 .578-.06.578-.413 0-.294-.693-.294-.693-2.239V12.14l8.484 19.388c-.058 0 .058.825.635.825zM86.285 29.7v-9.723c0-.354-.23-.413-.692-.413h-4.56c-.577 0-1.558.06-1.558.53 0 1.12 1.847.944 1.847 2.299v6.718c0 1.002-1.154 1.885-3.001 1.885-2.713 0-3.752-1.708-3.752-3.83V7.307c0-1.237 1.154-3.064 3.752-3.064 3 0 3.232 2.828 3.232 6.187 0 1.356-.52 1.179-.52 1.886 0 .413.635.413 1.155.413h3.059c1.154 0 1.27-.06 1.27-.649 0-.176-.232-.648-.232-1.001 0-5.127-2.135-8.78-8.195-8.78-7.792 0-9.639 7.66-9.639 15.38 0 6.776 1.27 15.321 9.697 15.321 4.56-.059 7.56-2.298 8.137-3.3zM97.771 32.352c.289 0 .635-.06.635-.472 0-.353-.75-.353-.75-2.416V13.79h7.734v15.675c0 2.122-.75 2.122-.75 2.416 0 .413.288.472.634.472h5.714c.289 0 .635-.06.635-.472 0-.353-.75-.353-.75-2.416V3.182c0-2.121.75-2.121.75-2.416 0-.412-.289-.471-.635-.471h-5.714c-.289 0-.635.059-.635.471 0 .354.75.354.75 2.416v7.779h-7.733V3.182c0-2.121.75-2.121.75-2.416 0-.412-.289-.471-.635-.471h-5.714c-.288 0-.635.059-.635.471 0 .354.75.354.75 2.416v26.282c0 2.122-.75 2.122-.75 2.416 0 .413.289.472.635.472h5.714zM134.94 17.62c0-7.72-.923-15.38-9.119-15.38-8.484 0-9.408 7.66-9.408 15.38 0 6.776.924 15.321 9.12 15.321 8.195 0 9.407-8.486 9.407-15.321zm-6.06 10.253c0 1.238-.404 3.064-3.348 3.064-2.655 0-3.059-1.826-3.059-3.064V7.248c0-1.237.693-3.064 3.348-3.064s3.059 1.827 3.059 3.064v20.625zM151.562 31.527c.173.766.635.766 1.443.766h3.925c.52 0 1.097.059 1.097-.53 0-.59-.924-.53-1.155-1.297-.404-1.355-1.789-9.37-5.483-12.61 3.06-1.238 4.906-3.713 4.906-7.426 0-3.594-2.135-7.601-9.639-7.601h-6.58c-.288 0-.576.058-.576.412 0 .295.692.295.692 2.24v24.16c0 1.945-.692 1.945-.692 2.24 0 .353.288.412.577.412h5.252c.289 0 .577-.06.577-.413 0-.294-.692-.294-.692-2.239V18.916c4.732-.059 6.175 11.197 6.348 12.61zm-6.348-26.872c4.27 0 4.963 1.356 4.963 5.834 0 3.89-.981 6.247-4.963 6.66V4.654zM179.44 2.829h-4.214c-.289 0-.577.058-.577.412 0 .295.692.295.692 2.24v16.087L167.55 3.536c-.173-.472-.347-.707-1.27-.707h-4.213c-.289 0-.577.058-.577.412 0 .295.692.295.692 2.24v24.16c0 1.945-.692 1.945-.692 2.24 0 .353.288.412.577.412h4.213c.289 0 .577-.06.577-.413 0-.294-.692-.294-.692-2.239V12.14l8.484 19.388s.115.766.692.766h2.828c1.097 0 1.155-.295 1.155-.766V5.42c0-1.944.692-1.944.692-2.239 0-.294-.288-.353-.577-.353z" transform="translate(0 94)"/>
                </g>
                <g fill="#261012">
                    <path d="M3.98 4.025c0-.525.693-1.108 2.828-1.108 2.25 0 5.019.641 5.019 1.225v.233l.288.117 1.673-3.209-.288-.116c-.173.175-.346.35-.635.35-.634 0-3.057-.992-6.346-.992C2.942.525.635 2.1.635 4.433c0 4.434 9.923 2.567 9.923 4.259 0 .991-1.096 1.575-3.52 1.575-2.48 0-5.076-1.05-5.076-1.634 0-.233 0-.35.057-.466l-.23-.117L0 12.133l.288.059c.174-.117.289-.292.462-.292.577 0 2.365 1.05 6.346 1.05 5.25 0 6.808-2.217 6.808-4.2.058-5.192-9.923-2.683-9.923-4.725zM31.442 1.05H19.5c-.288 0-.346-.117-.462-.642h-.288v4.084h.288c.058-.525.174-.642.462-.642h4.154v8.633c0 .234-.058.35-.692.409v.291h4.961v-.291c-.577-.059-.692-.234-.692-.409V3.85h4.154c.288 0 .346.117.461.642h.289V.408h-.289c-.058.525-.173.642-.404.642zM50.02 9.45c-.058.583-.174.7-.405.7h-7.73V7.992h4.5c.461 0 .634.233.75.525h.288V4.9h-.288c-.058.292-.231.525-.75.525h-4.5V3.5h7.73c.289 0 .347.117.404.642h.289V.117h-.289c-.057.525-.173.641-.404.641H37.558v.292c.577.058.692.233.692.408V12.25c0 .233-.058.35-.692.408v.292h12.057c.289 0 .347.117.404.525h.289V9.45h-.289zM69.462 11.9c-1.5-3.5-4.443-10.442-4.443-10.617 0-.233.173-.291.462-.291V.7h-6.289v.292c.231 0 .462.058.462.233 0 .117-4.096 10.325-4.27 10.85-.172.35-.288.467-.634.525v.292h4.27V12.6c-.347 0-.462-.058-.462-.233 0-.117.173-.467.75-2.1h5.711c.116.291.808 1.983.808 2.1 0 .116-.115.233-.462.291v.292h4.731v-.292c-.23-.058-.404-.175-.634-.758zm-5.077-3.5h-4.5l2.134-5.483M87.692 12.25l-4.904-7.058 4.154-3.442c.577-.525.693-.7 1.327-.758V.7h-6.115v.292c.288 0 .461 0 .461.291 0 .234-2.769 2.45-4.73 4.259h-.173V1.4c0-.233.057-.35.692-.408V.7h-4.962v.292c.635.058.693.233.693.408v10.792c0 .233-.058.35-.693.408v.292h4.962V12.6c-.577-.058-.692-.233-.692-.408V9.45l2.365-2.042c.346.584 3.346 4.667 3.346 4.9 0 .292-.173.292-.461.292v.292H88.5V12.6c-.404 0-.577 0-.808-.35zM101.827 1.05c.577.058.692.233.692.408v3.675h-6.288V1.458c0-.233.057-.35.692-.408V.758h-4.961v.292c.576.058.692.233.692.408V12.25c0 .233-.058.35-.692.408v.292h4.961v-.292c-.577-.058-.692-.233-.692-.408V7.992h6.288v4.258c0 .233-.057.35-.692.408v.292h4.961v-.292c-.576-.058-.692-.233-.692-.408V1.458c0-.233.058-.35.692-.408V.758h-4.961v.292zM117.865.583c-4.096 0-7.557 2.159-7.557 6.242 0 4.025 3.404 6.242 7.557 6.242 4.097 0 7.5-2.159 7.5-6.242.058-4.025-3.403-6.242-7.5-6.242zm0 9.625c-2.077 0-3.98-1.225-3.98-3.383s1.846-3.383 3.98-3.383c2.077 0 3.981 1.225 3.981 3.383s-1.846 3.383-3.98 3.383zM151.846 4.025c0-.525.692-1.108 2.827-1.108 2.25 0 5.02.641 5.02 1.225v.233l.288.117 1.673-3.209-.289-.116c-.173.175-.346.35-.634.35-.635 0-3.058-.992-6.346-.992-3.577 0-5.885 1.575-5.885 3.908 0 4.434 9.923 2.567 9.923 4.259 0 .991-1.096 1.575-3.52 1.575-2.538 0-5.076-1.05-5.076-1.634 0-.233 0-.35.058-.466l-.231-.117-1.789 4.083.289.059c.173-.117.288-.292.461-.292.577 0 2.366 1.05 6.347 1.05 5.25 0 6.807-2.217 6.807-4.2.058-5.192-9.923-2.683-9.923-4.725zM179.423 9.45c-.058.583-.173.7-.404.7h-7.73V7.992h4.5c.461 0 .634.233.692.525h.288V4.9h-.288c-.058.292-.231.525-.693.525h-4.5V3.5h7.731c.289 0 .346.117.404.642h.289V.117h-.289c-.058.525-.173.641-.404.641h-12.057v.292c.576.058.692.233.692.408V12.25c0 .233-.058.35-.692.408v.292h12.057c.289 0 .346.117.404.525h.289V9.45h-.289zM138.75.933c.577.059.692.234.692.409v6.241c0 1.75-1.096 2.509-3.057 2.509-1.962 0-3.058-.7-3.058-2.509V1.4c0-.175.058-.35.692-.408V.7h-4.961v.292c.577.058.692.233.692.408v6.183c0 4.084 3 5.425 6.692 5.425 3.693 0 6.635-1.341 6.635-5.425V1.4c0-.175.058-.35.692-.408V.7h-4.961v.233h-.058z" transform="translate(0 132)"/>
                </g>
            </g>
        </g>
    </g>
</svg>
