<svg xmlns="http://www.w3.org/2000/svg" width="206" height="147" viewBox="0 0 206 147">
    <g fill="none" fill-rule="evenodd">
        <g fill-rule="nonzero">
            <g>
                <path fill="#A2B627" d="M65 139.128h1.703v7.701H65v-7.7zm7.578 1.583h-2.341v-1.583h6.343v1.583H74.24v6.16h-1.703l.042-6.16zm9.154-1.625h1.575l3.278 7.743H84.84l-.682-1.711h-3.235l-.681 1.71h-1.703l3.193-7.742zm1.745 4.534l-1.022-2.481-1.021 2.481h2.043zm6.472-4.492h1.702v6.16h3.832v1.54h-5.492l-.042-7.7zm9.025 0h1.703V146.83h-1.703v-7.7zm8.43-.042h1.575l3.278 7.743h-1.745l-.681-1.711h-3.236l-.681 1.71h-1.703l3.193-7.742zm1.788 4.534l-1.022-2.481-1.021 2.481h2.043zm6.429-4.492h1.575l3.576 4.749v-4.749h1.66v7.7h-1.447l-3.704-4.876v4.877h-1.66v-7.7zm16.22 0h1.704v3.38l3.107-3.38h2.044l-3.108 3.252 3.278 4.449h-2.043l-2.384-3.294-.894.94v2.354h-1.703v-7.7zm10.304 0h1.703V146.83h-1.703v-7.7zm7.578 1.583h-2.342v-1.583h6.344v1.583h-2.342v6.16h-1.703l.043-6.16zm6.812 2.31c0-2.224 1.66-4.021 4.002-4.021 1.447 0 2.299.47 3.022 1.198l-1.064 1.24c-.596-.556-1.192-.855-1.958-.855-1.278 0-2.214 1.07-2.214 2.396v.042c0 1.327.894 2.439 2.214 2.439.894 0 1.405-.342 2-.899l1.065 1.07c-.809.856-1.66 1.369-3.15 1.369-2.214-.043-3.917-1.797-3.917-3.979zm10.643-3.893h1.703v3.038h3.108v-3.038h1.703v7.7h-1.703v-3.08h-3.108v3.08h-1.703v-7.7zm10.516 0h5.79v1.498h-4.087v1.583h3.619v1.497h-3.619v1.626h4.172v1.497h-5.832l-.043-7.7zm9.494 0h1.575l3.577 4.749v-4.749H194v7.7h-1.448l-3.703-4.876v4.877h-1.66v-7.7zM178.392 49.875c.428 2.48.513 4.146.556 5.727 1.495 1.496 2.69 3.077 3.887 4.83 1.153 1.71 2.093 3.504 2.947 5.385.342.683.683.94 1.41.769.726-.214 2.99-.77 2.99-.77.298-.128.384-.299.256-.64-1.239-3.035-2.136-4.488-4.1-7.18-2.222-3.12-4.913-5.856-7.946-8.12zm27.551 30.515c-.17-.598-.726-1.837-.982-2.521-.428-1.111-.727-1.325-2.392-1.154-4.186.427-8.629.342-12.815-.171-4.314-.556-8.585-1.667-12.558-3.376-.299-.129-.427-.3-.555-.556-.726-1.581-1.452-3.718-2.007-6.667 5.381-6.54 2.093-18.89-.897-29.917-.086-.384-.3-.299-.47-.128-1.965 2.949-3.247 5.983-3.973 9.018-1.281-.513-2.563-.983-3.844-1.41-1.965-.642-3.93-1.155-5.937-1.54-.043 1.155-.086 2.309-.043 3.377 1.666.427 3.289.898 4.87 1.496 1.494.513 2.947 1.154 4.356 1.795-.555 6.496 1.324 12.65 4.314 17.052.342 2.01 1.026 4.36 1.196 4.958.214.727-.256.898-.726.684-2.776-1.539-5.34-3.462-7.56-5.727-3.076-3.163-5.34-7.052-6.493-11.326-.598-2.137-.854-4.316-.982-6.624-.128-2.265-.086-4.573.085-6.838.214-2.607.684-5.171 1.41-7.693.256-.855.94-1.026 1.623-1.111 1.324-.214 2.648-.513 4.015-.812 1.196.299 2.478.47 3.759.555 9.952.556 19.691-5.641 23.45-10.214.128-.171.128-.3.043-.385-.086-.085-.257-.128-.427-.128h-.214c-14.224 1.282-19.05 1.71-25.415 7.65-.811.727-1.58 1.026-2.221 1.154-1.281.257-2.52.513-3.802.727.385-.94.812-1.88 1.282-2.821 2.007-3.932 4.997-7.35 8.585-10.086.598.128 1.196.214 1.794.256 8.201.428 17.513-7.864 25.757-15.172.043-.043.043-.085.043-.128s-.043-.085-.086-.085c-6.62-.898-13.198.555-18.794 4.102-4.015 2.565-7.347 6.07-9.397 9.916-4.186 2.863-7.304 6.88-7.945 7.82-.17.3-.342.129-.384-.128-.214-2.906-.726-4.615-1.025-5.427-.043-.086-.043-.257.128-.385 1.965-1.154 2.733-3.462 1.794-5.94-.77-2.052-2.435-3.377-4.357-3.462-.64-.043-1.324.085-1.965.342-1.196.47-2.136 1.282-2.606 2.436-.555 1.24-.555 2.692-.042 4.145.769 2.009 2.264 3.248 4.143 3.334.47.043.897-.043 1.367-.128.384 1.196 1.452 4.83.811 8.675-1.067 2.01-1.964 4.53-2.434 5.984-.257.855-.812.77-1.196-.086 0 0-.556-1.068-.897-1.666.427-3.847-.983-7.95-4.1-11.54-3.333-3.846-8.117-6.667-13.499-7.906-.042 0-.085 0-.128.042-.042.043-.042.086 0 .129.726 1.325 1.453 2.692 2.136 4.017 4.186 7.992 8.201 15.557 14.31 16.07 1.153 2.008 1.964 3.889 2.306 5.598-.128.684-.214 1.41-.3 2.094-.042.257-.042.556-.085.812-.982-.17-1.964-.299-2.947-.427-2.136-.3-4.229-.513-6.364-.726.683 1.11 1.367 2.265 1.836 3.12 1.367.213 2.691.384 4.058.64.385.043 2.478.428 3.161.599-.043.77-.043 1.581-.043 2.521 0 .599.043 3.078.171 4.317.128 1.154.342 2.308.598 3.633.3 1.495 1.11 3.718 1.196 3.974.342.898-.299 1.197-.897.898-1.965-1.026-3.673-2.052-5.168-3.163-1.282-8.334-6.151-17.223-15.206-27.78-.043-.042-.086-.042-.129-.042-.042 0-.085.042-.085.085-.513 3.505-.555 6.966-.17 10.215-2.436-.3-4.87-.727-7.177-1.368-.128-.043-.256-.086-.427-.128-1.025-1.582-1.922-3.804-2.734-6.326 3.973-7.564-.64-20-5.809-31.327 0-.042-.085-.085-.128-.085s-.085.043-.128.085c-5.681 12.309-2.82 20.814 4.656 31.969.47 1.367.94 2.65 1.452 3.803.299.641-.17.855-.769.641-2.392-.983-4.656-2.308-6.663-4.06-2.862-2.436-5.083-5.556-6.877-8.932-2.606-7.736-12.516-13.719-23.75-14.36-1.11-.043-2.22-.086-3.288 0-.043 0-.086.043-.129.085 0 .043 0 .086.043.129 9.098 9.658 13.199 13.42 24.945 14.573.641.043 1.11.342 1.623 1.24 1.624 3.12 3.717 6.111 6.365 8.547.555.513 1.11.983 1.666 1.41-1.239-.298-2.478-.555-3.674-.769-4.058-2.692-8.329-4.145-13.156-4.402-5.04-.256-10.678.77-17.299 3.248-.64.257-1.11.77-.256 1.368 4.143 2.778 8.457 4.274 13.07 4.488 4.827.256 10.08-.812 16.488-3.334 2.307.427 4.699.94 7.133 1.581.983.3 3.118 1.154 4.314 1.624.812.3 1.837.684 2.734.983 2.691.812 5.468 1.368 8.201 1.795.812 4.06 2.307 7.65 4.443 10.471 2.733 3.633 6.15 5.556 10.123 6.069 1.88 1.325 4.741 2.863 7.261 4.017.77.342 1.538 1.026 1.794 1.453.086.171 1.538 2.351 2.392 3.334.427.513.3.598-.256.556-.812-.043-2.52.042-3.93.384-.427.086-.64-.042-.769-.256 0-.043-.042-.043-.042-.086-.3-.384-1.324-1.624-3.29-1.71-.683-.042-1.409.086-2.135.3-1.452.47-2.606 1.41-3.204 2.607-.555 1.111-.64 2.35-.213 3.59.64 1.923 2.221 3.12 4.271 3.248.726.043 1.453-.043 2.179-.299 1.367-.47 2.434-1.282 3.032-2.393.556-1.026.684-2.223.342-3.462.983-.257 3.118-.641 6.194-.128 3.075 3.077 6.663 5.513 10.507 7.393 4.4 2.137 9.098 3.548 13.882 4.36 4.784.812 9.697 1.025 14.566.683.598-.042 1.153-.085 1.751-.17.598-.171.812-.642.641-1.283zm-32.25-18.548c-.042.556-.426.47-.512.085-.598-2.136-1.965-8.889-.427-20.086 0-.086.086-.129.128-.129.086 0 .128.043.128.129.043 3.547.214 6.111.428 8.633.256 3.333.47 6.496.256 11.368zm-3.032-32.866c3.503-.94 7.005-2.136 10.422-3.29 2.008-.684 3.93-1.325 5.81-1.966.042 0 .128 0 .128.085.042.043 0 .128-.043.171-6.92 4.017-13.37 5.171-16.231 5.513-.855.128-.855-.299-.086-.513zm2.947-14.402c9.056-7.351 18.026-9.317 18.111-9.317.043 0 .128.043.128.085.043.043 0 .128-.042.171-4.315 2.223-7.433 3.89-10.423 5.513-2.434 1.325-4.74 2.565-7.517 4.018-.47.17-.726-.128-.257-.47zm-13.455-2.693c-.042.043-.085.086-.128.043-.213-.086-.427-.128-.683-.128-1.282-.086-2.563.726-3.161 1.538 0 .043-.043.043-.085.043-.043 0-.043 0-.086-.043-.342-.384-.384-.427-.811-.684-.043-.042-.043-.085-.043-.17.598-1.154 1.708-1.795 2.947-1.71.769.043 1.452.342 2.05.94.043.043.043.128 0 .171zm-6.535 18.506c-.043 0-.085 0-.085-.043-1.324-1.667-2.52-3.163-3.674-4.658-2.69-3.462-5.04-6.497-7.987-9.146-.043-.043-.043-.129 0-.171.042-.043.128-.043.17-.043 9.355 6.368 11.533 13.291 11.704 13.847 0 .043.043.043 0 .086 0 .085-.042.128-.128.128zm-29.473-2.778c-.042 0-.042 0 0 0-.085 0-.128 0-.128-.043-.043-.085-4.442-8.334-3.887-20.984 0-.043.043-.129.128-.129.043 0 .128.043.128.086.513 3.163 1.154 6.111 1.752 8.932.854 4.018 1.666 7.821 2.135 11.967-.042.128-.085.17-.128.17zm-16.487-6.197c-4.186-1.752-8.458-4.36-12.601-6.838-1.666-1.026-3.246-1.966-4.827-2.864-.043-.043-.085-.085-.043-.17.043-.043.086-.086.171-.086 9.483 2.607 15.89 8.163 17.385 9.53.256.257.256.556-.085.428zm2.349 13.249c-.043 0-5.425.854-13.156.47-2.52-.129-4.998-.385-7.432-.77-.086 0-.129-.085-.129-.128 0-.085.043-.128.129-.128.94-.043 1.794-.085 2.69-.085 3.973-.171 7.39-.3 12.089-.043 1.836.085 3.716.256 5.766.47.043 0 .128.043.128.128.043.043 0 .086-.085.086zm38.016 19.787c-7.176-7.009-9.654-19.403-9.697-19.531 0-.085.043-.128.086-.128s.128 0 .17.085c2.008 5.129 4.101 8.719 6.109 12.18 1.281 2.223 2.605 4.488 3.887 7.18.17.428-.171.599-.555.214zm7.218 14.232h-.085c-1.452 0-2.947.94-3.716 1.838 0 .043-.043.043-.086.043-.042 0-.042 0-.085-.043-.342-.342-.427-.428-.812-.684-.042-.043-.042-.128-.042-.17.768-1.283 2.135-2.095 3.502-2.01.555.043 1.11.214 1.538.513.043.043.128.086.17.128.129.214 0 .428-.384.385z"/>
                <path fill="#54301A" d="M62.339 41.146c0-1.67 1.32-2.997 2.982-2.997 1.661 0 2.982 1.327 2.982 2.997s-1.321 2.997-2.982 2.997c-1.662 0-2.982-1.328-2.982-2.997zM42.105 59.083V43.8c0-11.559 5.367-12.8 7.667-12.8 3.664 0 7.37 3.51 7.37 11.302 0 12.115-6.177 22.346-8.392 25.6 1.619 3.382 4.09 3.382 5.282 3.382 5.07 0 7.966-3.553 8.988-5.094-.213-1.328-.298-2.783-.298-4.453V49.023c0-.3.256-.557.554-.557h4.09c.298 0 .553.257.553.557v12.714c0 6.336 1.747 9.59 5.197 9.59 2.343 0 4.047-1.627 5.112-2.954.128-.171.298-.257.511-.214.213.043.34.171.426.342.639 1.584 1.193 3.083 1.619 4.367.085.214 0 .428-.128.556-2.215 2.055-4.771 3.125-7.497 3.125-2.002 0-5.751-.642-8.137-4.58-2.257 2.226-5.835 4.58-10.905 4.58-5.537-.042-12.012-3.039-12.012-17.466zm5.154 1.627v.985c2.3-4.581 4.643-12.544 4.643-19.393 0-4.067-1.406-6.122-2.172-6.122-1.193 0-2.514 2.397-2.514 7.577V60.71h.043zM19.357 77.277h.682c5.75-.171 10.564-2.526 13.972-6.807 3.365-4.238 5.07-9.974 4.856-16.652-.426-13.271-7.071-21.876-16.996-21.876h-.597c-2.897.085-5.41 1.07-7.242 2.825-1.874 1.798-2.854 4.324-2.768 7.107.085 3.082 1.704 5.865 4.302 7.363.98.556 2.641 1.241 4.899 1.241 2.045 0 4.174-.513 6.432-1.584.256-.128.384-.428.298-.685l-1.533-3.81c-.043-.128-.17-.256-.298-.3-.128-.042-.299-.042-.426 0-2.77 1.328-5.155 1.542-6.773.643-1.065-.6-1.662-1.712-1.704-2.997-.043-1.284.383-2.397 1.192-3.168.895-.856 2.215-1.327 3.792-1.37h.383c6.858 0 11.501 6.593 11.842 16.825.17 5.265-1.065 9.76-3.535 12.97-2.429 3.169-6.007 4.924-10.267 5.095-.17 0-.383.043-.51 0-9.415 0-13.973-8.22-14.186-15.84-.213-6.892 2.513-11.472 4.132-13.57.128-.171.17-.342.085-.556l-1.704-4.239c-.085-.17-.213-.3-.383-.342-.17-.043-.34 0-.511.128-1.193 1.156-7.157 7.62-6.773 18.75.34 12.244 8.306 20.85 19.34 20.85zm54.015-27.954c-.085-.172-.085-.386 0-.557.085-.171.298-.257.468-.257h4.686c.213 0 .383.129.469.3 1.96 3.553 5.665 11.387 9.073 21.276 5.58-7.791 7.2-14.855 5.027-20.762-.043-.129-.043-.3.042-.429.085-.128.17-.256.341-.3l4.09-1.24c.255-.086.468.042.638.256 1.662 2.355 4.175 5.009 6.348 6.636 2.342-4.923 6.474-7.92 11.586-7.92 5.751 0 9.755 3.553 9.755 8.647 0 5.223-4.473 8.905-10.82 8.905-2.3 0-4.643-.6-6.986-1.584.043 4.538 2.599 9.075 8.307 9.075 5.069 0 7.668-2.354 9.883-4.709.127-.128.298-.214.51-.17.171.042.342.17.427.342l1.661 4.152c.085.214.043.428-.128.6-2.257 2.14-5.963 5.008-12.31 5.008-7.924 0-13.504-5.822-13.504-14.298 0-.942.085-1.97.213-2.911-1.193-.856-2.812-2.27-3.834-3.34-.639 6.893-4.302 13.614-9.286 20.036-.086.128-.256.214-.426.214h-4.26c-.256 0-.469-.172-.511-.386-4.473-13.998-9.926-23.887-11.46-26.584zm35.527 7.705c2.044 1.07 4.089 1.541 6.049 1.541 2.087 0 5.665-.77 5.665-3.681 0-3.168-3.493-3.425-4.558-3.425-3.195.043-5.75 2.055-7.156 5.565zM56.418 97.74h-4.09c-.298 0-.554.257-.554.557 0 8.519-5.026 17.124-14.653 17.124-7.966 0-13.12-5.908-13.12-15.112 0-8.348 4.685-17.338 14.951-17.338 3.877 0 8.392 1.712 8.392 6.635 0 2.355-1.363 4.495-3.62 5.694-.256.129-.341.428-.256.685l1.49 3.853c.043.128.171.257.299.3.128.042.298.042.426 0 4.26-2.012 6.816-5.951 6.816-10.532 0-6.978-5.58-11.815-13.547-11.815-13.844 0-20.106 11.687-20.106 22.56 0 12.159 7.37 20.292 18.317 20.292 6.986 0 11.8-3.724 14.654-7.962v5.223c0 10.873-4.686 10.916-6.688 10.916-1.576 0-2.982-.556-4.174-1.627-.128-.128-.299-.171-.47-.128-.17.043-.297.171-.382.342l-1.62 3.939c-.084.257 0 .514.214.642 1.917 1.327 4.09 2.012 6.432 2.012 5.41 0 11.885-2.783 11.885-16.096V98.468v-.043-.214c-.043-.214-.298-.47-.596-.47zm74.163 30.395c.043.171.043.343-.043.471-.085.128-.213.257-.383.3-2.002.428-3.919.599-5.75.599-4.559 0-8.435-1.241-11.587-3.682-4.942-3.81-7.54-10.231-7.54-18.493v-8.305c0-.728-.128-1.242-.384-1.456-.426-.385-.894-.428-1.917-.385-2.342.128-4.43-.172-6.176-.685.255 2.269.426 4.837.426 7.663 0 10.574-2.982 15.968-8.903 15.968-1.96 0-5.027-.985-6.986-4.838-2.216 2.783-5.112 4.838-9.159 4.838-7.497 0-12.31-5.737-12.31-14.598 0-8.862 4.813-14.599 12.31-14.599 2.897 0 5.453.985 7.497 2.698v-1.456c0-.3.256-.557.554-.557h4.09c.298 0 .553.257.553.557v14.983c0 2.911.469 7.749 3.493 7.749 3.238 0 3.706-6.721 3.706-10.745 0-6.721-.766-9.975-1.704-13.229-.085-.3.086-.599.384-.684l4.047-1.242c.255-.086.553.043.681.3.724 1.798 2.769 2.697 6.092 2.697.383 0 .766 0 1.192-.043 2.386-.128 4.388.47 5.751 1.798.937.856 2.045 2.483 2.045 5.266v8.262c0 6.592 1.917 11.601 5.495 14.384 2.215 1.712 5.07 2.611 8.434 2.611 1.236 0 2.599-.128 3.962-.385.256-.043.511.086.596.342l1.534 3.896zm-51.118-22.689c0-4.538-2.3-9.375-7.284-9.375-6.603 0-7.114 7.192-7.114 9.375s.511 9.375 7.114 9.375c4.984 0 7.284-4.837 7.284-9.375zm125.367 11.002c-1.577 1.498-3.92 3.596-7.668 3.596-5.154 0-8.264-3.639-8.264-9.76v-8.134c0-4.752-1.747-5.694-4.728-5.694-3.962 0-7.583 4.88-7.583 10.274v12.158c0 .3-.256.557-.554.557h-4.09c-.297 0-.553-.257-.553-.557v-5.608c-2.343 2.954-6.262 6.764-12.907 6.764-4.047 0-7.242-1.37-9.585-3.682-1.661 1.927-4.132 3.425-6.858 3.425-2.812 0-5.112-1.712-6.56-4.58-2.215 2.782-5.197 4.837-9.287 4.837-7.497 0-12.31-5.736-12.31-14.598 0-8.862 4.813-14.598 12.31-14.598 3.153 0 5.538 1.156 7.583 2.868v-15.54c0-.3.255-.556.554-.556h4.09c.297 0 .553.257.553.556v29.539c0 4.366 1.15 6.85 3.28 6.85 1.661 0 2.811-1.328 3.749-2.398-.725-1.884-1.321-4.024-1.321-6.764 0-8.476 5.538-14.598 13.12-14.598 6.134 0 9.414 4.324 9.414 8.434 0 3.125-1.49 5.864-4.089 7.491-1.79 1.113-3.919 1.713-6.347 1.713-2.13 0-4.43-.428-6.858-1.327.383 3.21 2.002 7.705 8.349 7.705 7.966 0 11.97-6.85 13.12-10.017V92.132c0-.3.256-.556.554-.556h4.09c.297 0 .553.257.553.556v2.355c2.173-2.012 4.814-3.211 7.583-3.211 3.706 0 9.925 1.413 9.925 10.916v8.134c0 4.538 2.087 4.538 3.067 4.538 2.002 0 3.365-1.37 5.197-3.253.128-.129.298-.214.511-.172.17.043.34.172.426.343l1.661 4.152c.086.129.043.386-.127.514zm-54.398-14.726c2.3.984 4.473 1.54 6.39 1.54 1.448 0 2.64-.299 3.62-.898 1.108-.685 1.662-1.713 1.662-3.083 0-1.54-1.32-3.21-4.26-3.21-3.578 0-6.262 2.055-7.412 5.65zm-16.912 3.724c0-4.666-2.257-9.375-7.284-9.375-6.603 0-7.114 7.192-7.114 9.375s.511 9.375 7.114 9.375c5.027 0 7.284-4.709 7.284-9.375zM199 124.485c0-3.313 5-3.313 5 0 0 3.353-5 3.353-5 0zm4.39 0c0-2.667-3.82-2.667-3.82 0s3.82 2.626 3.82 0zm-.772 1.09v.082h-.488l-.528-.809h-.407v.809h-.488v-2.384h1.017c.487 0 .853.283.853.808 0 .323-.162.606-.488.687l.529.808zm-1.464-1.13h.488c.244 0 .407-.162.407-.364 0-.202-.163-.364-.407-.364h-.488v.727z"/>
            </g>
        </g>
    </g>
</svg>
