<svg xmlns="http://www.w3.org/2000/svg" width="268" height="62" viewBox="0 0 268 62">
    <g fill="none" fill-rule="evenodd">
        <g fill="#71984A" fill-rule="nonzero">
            <g>
                <path d="M154.175 26.342c1.364.166-1.961 3.07-2.814 4.48-.853 1.411-.512 2.49.256 3.735.767 1.327 1.705 1.991 2.131 1.825.427-.166 9.55-9.708 10.914-9.293 1.364.415-.427 3.983.596 5.808 1.024 1.826 2.047 2.572 4.008 2.24 1.96-.331 12.704-7.633 13.727-8.048 1.876-.747 2.387 1.576 2.131 2.572-1.96 6.804-5.03 1.079-5.542 1.162-.511.083-1.023-.083-1.449.83-.341.912-.341 2.904.853 3.65 1.193.747 3.069 1.743 4.689 1.245 1.108-.332 5.798-2.157 5.286-6.638-.085-.498-.256-1.41-1.62-4.066-.852-1.742-1.45-3.402-1.79-4.149-.256-.746-2.558-.663-2.9-.58-.34.083-4.348 3.402-6.394 4.812-2.046 1.41-4.519 2.904-5.457 3.07-.937.166-1.62.498-2.046-.083-.426-.497.768-5.476-.085-7.053-.853-1.576-2.558-.83-4.093-.331-1.534.58-3.58 1.659-5.03 2.24-1.364.58-1.364-2.406-1.876-2.738m-33.081 3.734c-1.535.249-4.093-6.058-5.03-7.136-.853-1.079-1.535-.498-2.473-.25-.938.25-10.999 9.626-14.92 12.032-2.132 1.245-2.9.747-3.411.415-.512-.332-1.194-1.576-.341-2.655.767-1.079 1.79-2.157 2.813-2.655.938-.498.938-.25 1.28-.747.34-.498 0-3.9-1.45-4.48-1.45-.582-4.86-.25-7.248.331-2.472.58-9.634 1.162-15.176 5.228 0 0-3.155 2.738-2.558 5.393s1.45 3.65 1.876 3.983c2.046 1.742 5.371 2.904 8.27 1.576 2.9-1.327 5.116-2.489 5.116-2.489s-.085 2.24 3.58 3.402c3.752 1.079 9.124-1.079 12.108-3.402 2.984-2.406 10.402-9.127 10.402-9.127s2.046 1.66 1.876 2.572c-.17.913-5.116 2.157-6.224 3.402-.683.83-1.024 1.577-.427 2.738.597 1.162 5.713 3.402 8.185 2.987 2.473-.415 4.434-3.568 4.178-4.646M87.5 30.906c-1.96 1.244-4.433 2.24-6.139.415-1.705-1.826 1.79-3.983 3.41-4.813 4.179-2.074 8.868-2.074 8.868-2.074l.17.83c.086 0-2.898 3.401-6.309 5.642z"/>
                <path d="M143.821 21.238c.338-2.247-4.558-3.578-5.233-3.162-.675.333-1.35 2.996-1.35 2.996S125.506 24.484 125 24.817l.253 4.078c1.35-.166 7.68-3.162 7.68-3.162s-1.94 3.412-1.434 5.742c.506 1.998 2.785 5.244 5.401 5.493 2.617.25 4.22-.998 5.993-2.83 3.122-3.162 2.363-8.405 2.87-8.322.506.083 9.03-.25 8.777.749l3.46-5.576c-1.435-.167-14.263.915-14.179.25zm-2.87 7.324c-.675 1.332-1.35 3.413-2.87 3.746-1.603.332-2.11-1.249-2.362-2.164-.254-.916.59-2.414 1.35-3.413 4.895-4.66 4.558.666 3.882 1.831zM221.241 22.752s.759-1.613.759-2.462c0-.848-.169-1.442-.169-1.442s-.084-1.273-2.781-2.462c-2.698-1.103-4.13-1.358-7.334-1.103-3.287.255-5.142.764-5.142.764s3.372-4.414 3.794-5.262c.674-1.358 1.517-2.631 1.264-3.395-.253-.764-4.215-.17-4.215-.17l-1.011.34c-4.89 7.808-4.89 6.874-6.154 8.062-1.517 1.358-4.973 3.905-5.226 4.074-.168.17.506 1.868 1.265 2.801.842.934 2.613 1.019 3.287.594.674-.424 6.575-3.14 7.502-3.395.927-.254 3.625-.679 5.058-.594 1.433.085 4.552 2.377 4.046 1.273-.253-.509-4.636 2.547-8.682 4.753-3.54 1.867-6.744 3.82-7.587 4.838-1.18 1.443-.337 3.225.084 3.989.76 1.273 4.89 1.188 6.744.764 1.854-.425 6.49-2.207 8.43-3.565 4.13-3.14 5.815-7.723 6.068-8.402zm-12.222 7.214c-2.276 1.103-3.372.34-3.035 0 .59-.594 10.537-6.28 10.537-6.28s-4.89 5.007-7.502 6.28zM205 7s9.23-1.059 14.444-1.059 31.197.088 33.847.088l.427-.264s.17-.618.427-1.06c.257-.529.342-.97.342-1.41C254.487 2.852 255 1 255 1s-28.205.441-32.479.53c-4.273.176-15.897 1.323-16.324 1.058L205 7zM229.044 31.645c1.03-.17 2.06-.51 3.176-.596 5.665-.765 11.245-2.041 16.996-1.7 2.489.17 4.978.595 7.382 1.36l2.575.766c.686.17 1.116.68 1.373 1.275.6 1.446.515 2.892.258 4.253-.258 1.02-.945 1.276-1.889.68-.343-.17-.6-.34-.858-.595-1.631-1.53-3.691-1.956-5.837-2.296-5.58-.85-11.245-1.191-16.824-.766-3.004.255-6.009.85-9.013 1.361-1.03.17-2.146.34-3.176.596-.6.17-.944 0-1.116-.51-.343-.766-.686-1.532-.944-2.297-.343-.936-.086-1.531.773-2.127 3.004-1.956 5.922-3.997 8.927-5.954 1.63-1.02 3.347-1.956 5.064-2.891 1.46-.851 3.004-1.787 4.464-2.722.6-.426 1.201-.85 1.716-1.361 1.202-1.19 1.03-2.807-.429-3.743-1.373-.935-2.918-.85-4.55-.68-3.347.34-6.437 1.701-9.441 3.062-.515.255-1.116.425-1.631.68-.515-.255-.601-.595-.43-1.02.172-.34.344-.68.601-.936 4.12-3.912 8.927-6.039 14.679-5.358 2.317.255 4.291 1.19 6.094 2.721 1.116.936 1.717 2.212 2.06 3.488.343 1.36-.172 2.551-1.03 3.572-1.202 1.36-2.575 2.637-4.12 3.487l-10.043 5.359c-1.631.85-3.176 1.7-4.807 2.551v.34zM81 22.936c-2.894 1.96-13.617 7.161-15.32 7.844-1.702.767-2.638.511-1.957-.171.68-.682 7.064-4.945 7.745-5.457.68-.511.17-2.557-1.021-3.41-1.192-.938-3.405-1.194-5.618-.256-1.787.767-7.064 1.535-7.064.767-.085-1.364 13.107-5.115 14.128-6.138 1.022-.938 0-2.047-.68-3.666-.596-1.365-6.639 1.108-13.448 3.41-6.808 2.302-15.66 4.775-17.192 5.2-1.531.427-2.468.598-2.468.598s-1.617-1.535-4.425-3.155c-2.554-1.45-5.788-2.643-10.128-3.07-3.83-.34-8.17-.681-9.362-1.108-5.192-1.62 2.638-4.177 7.915-5.968 5.872-1.96 9.192-2.558 14.213-2.984 5.873-.512 9.022.511 10.383.511 1.362 0 2.213-4.604 2.213-4.604S49.34.683 44.148.086C39.042-.426 27.978 1.45 22.275 3.07 17.935 4.349 1.253 9.976.317 11.937c-.425.853-.85 2.728 1.787 4.69 2.639 1.96 7.66 1.79 13.192 2.472 5.532.682 9.958.767 12.681 2.387 2.724 1.62 4.17 2.217 3.66 3.24-.425 1.108-13.873 7.588-15.575 9.634-1.702 2.047-2.298 3.837-1.021 5.628 1.277 1.79 8.681 1.364 16.17-2.558 7.49-3.922 9.533-8.953 9.703-9.89.17-.853 3.745-1.62 3.745-1.62s-.256 2.131 2.723 2.557c2.979.512 8.937.597 8.937.597s-1.362 1.535-1.958 3.496c-.596 1.961 1.192 5.798 2.383 6.65 1.192.938 4.51 1.28 8.17-.852S79.555 29.5 79.98 29.16m-53.96 5.2c-2.467 1.194-3.489 1.024-3.233.683.596-.683 7.574-4.263 7.574-4.263s-1.617 2.216-4.34 3.58z"/>
                <g>
                    <path d="M.256 7.896L6.814 7.896 6.814 9.408 2.129 9.408 2.129 10.584 6.558 10.584 6.558 12.012 2.129 12.012 2.129 14.112.17 14.112.17 7.896zM11.924 7.896h5.877c1.533 0 1.874.756 1.874 1.848v.42c0 .84-.17 1.344-1.108 1.512.596.084 1.022.336 1.022 1.344v1.092H17.63v-.756c0-.672-.17-.84-.766-.84h-3.066v1.596h-1.874V7.896zm1.959 3.024h3.151c.511 0 .682-.168.682-.672v-.168c0-.588-.256-.672-.852-.672h-3.066v1.512h.085zM24.87 7.896L31.769 7.896 31.769 9.324 26.829 9.324 26.829 10.332 31.513 10.332 31.513 11.592 26.829 11.592 26.829 12.6 31.939 12.6 31.939 14.112 24.87 14.112zM36.794 12.096h1.959c0 .672.255.756.852.756h2.384c.426 0 .852-.084.852-.504 0-.504-.255-.588-2.725-.588-2.896 0-3.237-.336-3.237-1.848 0-1.092.085-2.016 2.555-2.016h2.726c2.214 0 2.47.756 2.47 1.848v.168h-2.044c0-.42-.086-.672-.937-.672h-2.13c-.425 0-.766.168-.766.504 0 .504.255.588 2.3.588 2.98 0 3.747.168 3.747 2.016 0 1.68-.596 1.932-3.151 1.932h-2.385c-1.789 0-2.47-.336-2.47-1.68v-.504zM49.825 7.896L51.784 7.896 51.784 10.08 55.872 10.08 55.872 7.896 57.831 7.896 57.831 14.112 55.872 14.112 55.872 11.76 51.784 11.76 51.784 14.112 49.825 14.112zM67.2 10.08c0-1.848 1.022-2.268 2.81-2.268h2.896c2.215 0 2.47.756 2.47 2.016v.168h-1.873c0-.588-.341-.672-.937-.672h-2.13c-.936 0-1.192.252-1.192 1.26v.756c0 1.092.256 1.26 1.193 1.26h2.044c.51 0 1.022-.084 1.022-.672v-.168h-2.385V10.5h4.344v1.764c0 1.764-.937 1.848-3.152 1.848h-2.3c-1.788 0-2.81-.42-2.81-2.268V10.08zM80.487 7.896h5.876c1.534 0 1.874.756 1.874 1.848v.42c0 .84-.17 1.344-1.107 1.512.596.084 1.022.336 1.022 1.344v1.092h-1.959v-.756c0-.672-.17-.84-.766-.84H82.36v1.596h-1.958V7.896h.085zm1.959 3.024h3.236c.511 0 .681-.168.681-.672v-.168c0-.588-.255-.672-.851-.672h-3.066v1.512zM93.518 7.896L95.477 7.896 95.477 14.112 93.518 14.112zM100.757 7.896L102.716 7.896 102.716 12.516 107.06 12.516 107.06 14.112 100.757 14.112zM111.744 7.896L113.703 7.896 113.703 12.516 118.047 12.516 118.047 14.112 111.744 14.112zM135.337 7.896L137.211 7.896 138.573 12.516 138.573 12.516 140.192 7.896 141.98 7.896 143.598 12.516 143.598 12.516 144.961 7.896 146.835 7.896 144.791 14.112 142.576 14.112 141.129 9.996 141.129 9.996 139.681 14.112 137.466 14.112zM151.519 7.896L153.478 7.896 153.478 14.112 151.519 14.112zM158.759 7.896L161.74 7.896 165.402 12.432 165.402 12.432 165.402 7.896 167.361 7.896 167.361 14.112 164.38 14.112 160.718 9.576 160.718 9.576 160.718 14.112 158.759 14.112 158.759 7.896zM172.557 7.896L179.456 7.896 179.456 9.324 174.516 9.324 174.516 10.332 179.2 10.332 179.2 11.592 174.516 11.592 174.516 12.6 179.626 12.6 179.626 14.112 172.557 14.112zM188.91 7.896h5.62c1.534 0 2.3.42 2.3 1.596 0 1.092-.425 1.26-.936 1.428.851.084 1.192.588 1.192 1.512 0 1.344-.852 1.68-1.959 1.68h-6.132V7.896h-.085zm1.958 2.436h3.407c.341 0 .596-.168.596-.504 0-.336-.17-.504-.596-.504h-3.407v1.008zm0 2.268h3.492c.426 0 .682-.084.682-.42 0-.42-.256-.504-.682-.504h-3.492v.924zM204.922 7.896h2.555l3.492 6.216h-2.13l-.596-1.092h-3.918l-.596 1.092H201.6l3.322-6.216zm0 3.78h2.47l-1.278-2.352-1.192 2.352zM215.483 7.896h5.877c1.533 0 1.873.756 1.873 1.848v.42c0 .84-.17 1.344-1.107 1.512.596.084 1.022.336 1.022 1.344v1.092h-1.959v-.756c0-.672-.17-.84-.766-.84h-3.066v1.596h-1.874V7.896zm1.874 3.024h3.236c.511 0 .682-.168.682-.672v-.168c0-.588-.256-.672-.852-.672h-3.066v1.512zM126.053.588H127.16V20.496000000000002H126.053z" transform="translate(28 41)"/>
                </g>
                <g>
                    <path d="M1.971 1.05C1.886.975 1.886.9 1.8.9c-.086 0-.171-.075-.257-.075H1.37c-.085 0-.085 0-.171.075-.086 0-.086.075-.086.15s-.085.075-.085.15v.15c0 .075.085.075.085.075s.086.075.172.075c.085 0 .171.075.257.075s.171.075.257.075.171.075.257.15l.172.15c0 .075.085.15.085.3 0 .075 0 .225-.085.3-.086.075-.086.15-.172.225-.086.075-.171.075-.257.15S1.629 3 1.457 3H1.2c-.086 0-.171 0-.171-.075-.086 0-.172-.075-.172-.075L.686 2.7l.257-.15c.086.075.171.15.257.15.086.075.171.075.343.075h.171c.086 0 .086-.075.172-.075.085 0 .085-.075.085-.15s.086-.075.086-.15v-.15l-.086-.075c-.085 0-.085-.075-.171-.075-.086 0-.171-.075-.257-.075s-.172-.075-.257-.075c-.086 0-.172-.075-.172-.15s-.085-.075-.171-.15c0-.075-.086-.15-.086-.225 0-.075 0-.225.086-.3.086-.075.086-.15.171-.225.086-.075.172-.075.257-.15.086 0 .172-.075.343-.075.172 0 .257 0 .343.075.086.075.257.075.343.225l-.429.075zM2.743.675L3.171.675 4.029 2.4 4.029 2.4 4.886.675 5.314.675 5.314 2.85 5.057 2.85 5.057 1.05 5.057 1.05 4.2 2.85 4.029 2.85 3.171 1.05 3.171 1.05 3.171 2.85 2.914 2.85 2.914.675z" transform="translate(262 32)"/>
                </g>
            </g>
        </g>
    </g>
</svg>
